<?xml version="1.0" standalone="no"?>
<!DOCTYPE svg PUBLIC "-//W3C//DTD SVG 1.1//EN" "http://www.w3.org/Graphics/SVG/1.1/DTD/svg11.dtd" >
<svg xmlns="http://www.w3.org/2000/svg" xmlns:xlink="http://www.w3.org/1999/xlink" version="1.1">
<metadata>
Created by FontForge 20170921 at Sat Aug 11 13:33:41 2018
 By Dr. Simon Antony Xaies
(c) Chronolabs Cooperative, 2007 - 2018
</metadata>
<defs>
<font id="ChronolabsCooperativeRegularEightDotBraille" horiz-adv-x="444" >
  <font-face 
    font-family="Braille"
    font-weight="400"
    font-stretch="normal"
    units-per-em="1000"
    panose-1="2 0 5 3 0 0 0 0 0 0"
    ascent="800"
    descent="-200"
    x-height="662"
    cap-height="662"
    bbox="-130.578 3 629.561 663"
    underline-thickness="20"
    underline-position="-133"
    stemh=" 45 "
    stemv=" 60 "
    unicode-range="U+0020-FB02"
  />
    <missing-glyph />
    <glyph glyph-name="uni28D2" unicode="&#x28d2;" 
d="M421 418c5 41 -24 73 -65 73c-40 0 -76 -32 -81 -73s23 -73 63 -73c41 0 78 32 83 73zM225 419c5 41 -24 73 -65 73c-40 0 -76 -32 -81 -73s23 -73 63 -73c41 0 78 32 83 73zM373 76c5 41 -24 73 -65 73c-40 0 -76 -32 -81 -73s23 -73 63 -73c41 0 78 32 83 73zM178 77
c5 41 -24 73 -65 73c-40 0 -77 -32 -82 -73s24 -73 64 -73c41 0 78 32 83 73z" />
    <glyph glyph-name="uni28D3" unicode="&#x28d3;" 
d="M246 590c5 41 -24 73 -65 73c-40 0 -76 -32 -81 -73s23 -73 63 -73c41 0 78 32 83 73zM225 419c5 41 -24 73 -65 73c-40 0 -76 -32 -81 -73s23 -73 63 -73c41 0 78 32 83 73zM373 76c5 41 -24 73 -65 73c-40 0 -76 -32 -81 -73s23 -73 63 -73c41 0 78 32 83 73zM421 418
c5 41 -24 73 -65 73c-40 0 -76 -32 -81 -73s23 -73 63 -73c41 0 78 32 83 73zM178 77c5 41 -24 73 -65 73c-40 0 -77 -32 -82 -73s24 -73 64 -73c41 0 78 32 83 73z" />
    <glyph glyph-name="uni28D4" unicode="&#x28d4;" 
d="M205 247c5 41 -24 73 -65 73c-40 0 -76 -32 -81 -73s23 -73 63 -73c41 0 78 32 83 73zM373 76c5 41 -24 73 -65 73c-40 0 -76 -32 -81 -73s23 -73 63 -73c41 0 78 32 83 73zM421 418c5 41 -24 73 -65 73c-40 0 -76 -32 -81 -73s23 -73 63 -73c41 0 78 32 83 73zM178 77
c5 41 -24 73 -65 73c-40 0 -77 -32 -82 -73s24 -73 64 -73c41 0 78 32 83 73z" />
    <glyph glyph-name="uni28D5" unicode="&#x28d5;" 
d="M246 590c5 41 -24 73 -65 73c-40 0 -76 -32 -81 -73s23 -73 63 -73c41 0 78 32 83 73zM421 418c5 41 -24 73 -65 73c-40 0 -76 -32 -81 -73s23 -73 63 -73c41 0 78 32 83 73zM373 76c5 41 -24 73 -65 73c-40 0 -76 -32 -81 -73s23 -73 63 -73c41 0 78 32 83 73zM205 247
c5 41 -24 73 -65 73c-40 0 -76 -32 -81 -73s23 -73 63 -73c41 0 78 32 83 73zM178 77c5 41 -24 73 -65 73c-40 0 -77 -32 -82 -73s24 -73 64 -73c41 0 78 32 83 73z" />
    <glyph glyph-name="uni28D6" unicode="&#x28d6;" 
d="M205 247c5 41 -24 73 -65 73c-40 0 -76 -32 -81 -73s23 -73 63 -73c41 0 78 32 83 73zM225 419c5 41 -24 73 -65 73c-40 0 -76 -32 -81 -73s23 -73 63 -73c41 0 78 32 83 73zM373 76c5 41 -24 73 -65 73c-40 0 -76 -32 -81 -73s23 -73 63 -73c41 0 78 32 83 73zM421 418
c5 41 -24 73 -65 73c-40 0 -76 -32 -81 -73s23 -73 63 -73c41 0 78 32 83 73zM178 77c5 41 -24 73 -65 73c-40 0 -77 -32 -82 -73s24 -73 64 -73c41 0 78 32 83 73z" />
    <glyph glyph-name="uni28D7" unicode="&#x28d7;" 
d="M205 247c5 41 -24 73 -65 73c-40 0 -76 -32 -81 -73s23 -73 63 -73c41 0 78 32 83 73zM246 590c5 41 -24 73 -65 73c-40 0 -76 -32 -81 -73s23 -73 63 -73c41 0 78 32 83 73zM421 418c5 41 -24 73 -65 73c-40 0 -76 -32 -81 -73s23 -73 63 -73c41 0 78 32 83 73zM373 76
c5 41 -24 73 -65 73c-40 0 -76 -32 -81 -73s23 -73 63 -73c41 0 78 32 83 73zM225 419c5 41 -24 73 -65 73c-40 0 -76 -32 -81 -73s23 -73 63 -73c41 0 78 32 83 73zM178 77c5 41 -24 73 -65 73c-40 0 -77 -32 -82 -73s24 -73 64 -73c41 0 78 32 83 73z" />
    <glyph glyph-name="uni28D8" unicode="&#x28d8;" 
d="M442 589c5 41 -24 73 -65 73c-40 0 -76 -32 -81 -73s23 -73 63 -73c41 0 78 32 83 73zM373 76c5 41 -24 73 -65 73c-40 0 -76 -32 -81 -73s23 -73 63 -73c41 0 78 32 83 73zM421 418c5 41 -24 73 -65 73c-40 0 -76 -32 -81 -73s23 -73 63 -73c41 0 78 32 83 73zM178 77
c5 41 -24 73 -65 73c-40 0 -77 -32 -82 -73s24 -73 64 -73c41 0 78 32 83 73z" />
    <glyph glyph-name="uni28D9" unicode="&#x28d9;" 
d="M246 590c5 41 -24 73 -65 73c-40 0 -76 -32 -81 -73s23 -73 63 -73c41 0 78 32 83 73zM421 418c5 41 -24 73 -65 73c-40 0 -76 -32 -81 -73s23 -73 63 -73c41 0 78 32 83 73zM373 76c5 41 -24 73 -65 73c-40 0 -76 -32 -81 -73s23 -73 63 -73c41 0 78 32 83 73zM442 589
c5 41 -24 73 -65 73c-40 0 -76 -32 -81 -73s23 -73 63 -73c41 0 78 32 83 73zM178 77c5 41 -24 73 -65 73c-40 0 -77 -32 -82 -73s24 -73 64 -73c41 0 78 32 83 73z" />
    <glyph glyph-name="uni28DA" unicode="&#x28da;" 
d="M442 589c5 41 -24 73 -65 73c-40 0 -76 -32 -81 -73s23 -73 63 -73c41 0 78 32 83 73zM225 419c5 41 -24 73 -65 73c-40 0 -76 -32 -81 -73s23 -73 63 -73c41 0 78 32 83 73zM373 76c5 41 -24 73 -65 73c-40 0 -76 -32 -81 -73s23 -73 63 -73c41 0 78 32 83 73zM421 418
c5 41 -24 73 -65 73c-40 0 -76 -32 -81 -73s23 -73 63 -73c41 0 78 32 83 73zM178 77c5 41 -24 73 -65 73c-40 0 -77 -32 -82 -73s24 -73 64 -73c41 0 78 32 83 73z" />
    <glyph glyph-name="uni28DB" unicode="&#x28db;" 
d="M442 589c5 41 -24 73 -65 73c-40 0 -76 -32 -81 -73s23 -73 63 -73c41 0 78 32 83 73zM246 590c5 41 -24 73 -65 73c-40 0 -76 -32 -81 -73s23 -73 63 -73c41 0 78 32 83 73zM421 418c5 41 -24 73 -65 73c-40 0 -76 -32 -81 -73s23 -73 63 -73c41 0 78 32 83 73zM373 76
c5 41 -24 73 -65 73c-40 0 -76 -32 -81 -73s23 -73 63 -73c41 0 78 32 83 73zM225 419c5 41 -24 73 -65 73c-40 0 -76 -32 -81 -73s23 -73 63 -73c41 0 78 32 83 73zM178 77c5 41 -24 73 -65 73c-40 0 -77 -32 -82 -73s24 -73 64 -73c41 0 78 32 83 73z" />
    <glyph glyph-name="uni28DC" unicode="&#x28dc;" 
d="M205 247c5 41 -24 73 -65 73c-40 0 -76 -32 -81 -73s23 -73 63 -73c41 0 78 32 83 73zM421 418c5 41 -24 73 -65 73c-40 0 -76 -32 -81 -73s23 -73 63 -73c41 0 78 32 83 73zM373 76c5 41 -24 73 -65 73c-40 0 -76 -32 -81 -73s23 -73 63 -73c41 0 78 32 83 73zM442 589
c5 41 -24 73 -65 73c-40 0 -76 -32 -81 -73s23 -73 63 -73c41 0 78 32 83 73zM178 77c5 41 -24 73 -65 73c-40 0 -77 -32 -82 -73s24 -73 64 -73c41 0 78 32 83 73z" />
    <glyph glyph-name="uni28DD" unicode="&#x28dd;" 
d="M205 247c5 41 -24 73 -65 73c-40 0 -76 -32 -81 -73s23 -73 63 -73c41 0 78 32 83 73zM246 590c5 41 -24 73 -65 73c-40 0 -76 -32 -81 -73s23 -73 63 -73c41 0 78 32 83 73zM421 418c5 41 -24 73 -65 73c-40 0 -76 -32 -81 -73s23 -73 63 -73c41 0 78 32 83 73zM373 76
c5 41 -24 73 -65 73c-40 0 -76 -32 -81 -73s23 -73 63 -73c41 0 78 32 83 73zM442 589c5 41 -24 73 -65 73c-40 0 -76 -32 -81 -73s23 -73 63 -73c41 0 78 32 83 73zM178 77c5 41 -24 73 -65 73c-40 0 -77 -32 -82 -73s24 -73 64 -73c41 0 78 32 83 73z" />
    <glyph glyph-name="uni28DE" unicode="&#x28de;" 
d="M442 589c5 41 -24 73 -65 73c-40 0 -76 -32 -81 -73s23 -73 63 -73c41 0 78 32 83 73zM205 247c5 41 -24 73 -65 73c-40 0 -76 -32 -81 -73s23 -73 63 -73c41 0 78 32 83 73zM421 418c5 41 -24 73 -65 73c-40 0 -76 -32 -81 -73s23 -73 63 -73c41 0 78 32 83 73zM373 76
c5 41 -24 73 -65 73c-40 0 -76 -32 -81 -73s23 -73 63 -73c41 0 78 32 83 73zM225 419c5 41 -24 73 -65 73c-40 0 -76 -32 -81 -73s23 -73 63 -73c41 0 78 32 83 73zM178 77c5 41 -24 73 -65 73c-40 0 -77 -32 -82 -73s24 -73 64 -73c41 0 78 32 83 73z" />
    <glyph glyph-name="uni28DF" unicode="&#x28df;" 
d="M205 247c5 41 -24 73 -65 73c-40 0 -76 -32 -81 -73s23 -73 63 -73c41 0 78 32 83 73zM246 590c5 41 -24 73 -65 73c-40 0 -76 -32 -81 -73s23 -73 63 -73c41 0 78 32 83 73zM421 418c5 41 -24 73 -65 73c-40 0 -76 -32 -81 -73s23 -73 63 -73c41 0 78 32 83 73zM442 589
c5 41 -24 73 -65 73c-40 0 -76 -32 -81 -73s23 -73 63 -73c41 0 78 32 83 73zM373 76c5 41 -24 73 -65 73c-40 0 -76 -32 -81 -73s23 -73 63 -73c41 0 78 32 83 73zM225 419c5 41 -24 73 -65 73c-40 0 -76 -32 -81 -73s23 -73 63 -73c41 0 78 32 83 73zM178 77
c5 41 -24 73 -65 73c-40 0 -77 -32 -82 -73s24 -73 64 -73c41 0 78 32 83 73z" />
    <glyph glyph-name="uni28E0" unicode="&#x28e0;" 
d="M401 246c5 41 -24 73 -65 73c-40 0 -76 -32 -81 -73s23 -73 63 -73c41 0 78 32 83 73zM373 76c5 41 -24 73 -65 73c-40 0 -76 -32 -81 -73s23 -73 63 -73c41 0 78 32 83 73zM178 77c5 41 -24 73 -65 73c-40 0 -77 -32 -82 -73s24 -73 64 -73c41 0 78 32 83 73z" />
    <glyph glyph-name="uni28E1" unicode="&#x28e1;" 
d="M246 590c5 41 -24 73 -65 73c-40 0 -76 -32 -81 -73s23 -73 63 -73c41 0 78 32 83 73zM401 246c5 41 -24 73 -65 73c-40 0 -76 -32 -81 -73s23 -73 63 -73c41 0 78 32 83 73zM373 76c5 41 -24 73 -65 73c-40 0 -76 -32 -81 -73s23 -73 63 -73c41 0 78 32 83 73zM178 77
c5 41 -24 73 -65 73c-40 0 -77 -32 -82 -73s24 -73 64 -73c41 0 78 32 83 73z" />
    <glyph glyph-name="uni28E2" unicode="&#x28e2;" 
d="M373 76c5 41 -24 73 -65 73c-40 0 -76 -32 -81 -73s23 -73 63 -73c41 0 78 32 83 73zM225 419c5 41 -24 73 -65 73c-40 0 -76 -32 -81 -73s23 -73 63 -73c41 0 78 32 83 73zM401 246c5 41 -24 73 -65 73c-40 0 -76 -32 -81 -73s23 -73 63 -73c41 0 78 32 83 73zM178 77
c5 41 -24 73 -65 73c-40 0 -77 -32 -82 -73s24 -73 64 -73c41 0 78 32 83 73z" />
    <glyph glyph-name="uni28E3" unicode="&#x28e3;" 
d="M246 590c5 41 -24 73 -65 73c-40 0 -76 -32 -81 -73s23 -73 63 -73c41 0 78 32 83 73zM225 419c5 41 -24 73 -65 73c-40 0 -76 -32 -81 -73s23 -73 63 -73c41 0 78 32 83 73zM373 76c5 41 -24 73 -65 73c-40 0 -76 -32 -81 -73s23 -73 63 -73c41 0 78 32 83 73zM401 246
c5 41 -24 73 -65 73c-40 0 -76 -32 -81 -73s23 -73 63 -73c41 0 78 32 83 73zM178 77c5 41 -24 73 -65 73c-40 0 -77 -32 -82 -73s24 -73 64 -73c41 0 78 32 83 73z" />
    <glyph glyph-name="uni28E4" unicode="&#x28e4;" 
d="M205 247c5 41 -24 73 -65 73c-40 0 -76 -32 -81 -73s23 -73 63 -73c41 0 78 32 83 73zM401 246c5 41 -24 73 -65 73c-40 0 -76 -32 -81 -73s23 -73 63 -73c41 0 78 32 83 73zM373 76c5 41 -24 73 -65 73c-40 0 -76 -32 -81 -73s23 -73 63 -73c41 0 78 32 83 73zM178 77
c5 41 -24 73 -65 73c-40 0 -77 -32 -82 -73s24 -73 64 -73c41 0 78 32 83 73z" />
    <glyph glyph-name="uni28E5" unicode="&#x28e5;" 
d="M246 590c5 41 -24 73 -65 73c-40 0 -76 -32 -81 -73s23 -73 63 -73c41 0 78 32 83 73zM401 246c5 41 -24 73 -65 73c-40 0 -76 -32 -81 -73s23 -73 63 -73c41 0 78 32 83 73zM373 76c5 41 -24 73 -65 73c-40 0 -76 -32 -81 -73s23 -73 63 -73c41 0 78 32 83 73zM205 247
c5 41 -24 73 -65 73c-40 0 -76 -32 -81 -73s23 -73 63 -73c41 0 78 32 83 73zM178 77c5 41 -24 73 -65 73c-40 0 -77 -32 -82 -73s24 -73 64 -73c41 0 78 32 83 73z" />
    <glyph glyph-name="uni28E6" unicode="&#x28e6;" 
d="M205 247c5 41 -24 73 -65 73c-40 0 -76 -32 -81 -73s23 -73 63 -73c41 0 78 32 83 73zM225 419c5 41 -24 73 -65 73c-40 0 -76 -32 -81 -73s23 -73 63 -73c41 0 78 32 83 73zM373 76c5 41 -24 73 -65 73c-40 0 -76 -32 -81 -73s23 -73 63 -73c41 0 78 32 83 73zM401 246
c5 41 -24 73 -65 73c-40 0 -76 -32 -81 -73s23 -73 63 -73c41 0 78 32 83 73zM178 77c5 41 -24 73 -65 73c-40 0 -77 -32 -82 -73s24 -73 64 -73c41 0 78 32 83 73z" />
    <glyph glyph-name="uni28E7" unicode="&#x28e7;" 
d="M205 247c5 41 -24 73 -65 73c-40 0 -76 -32 -81 -73s23 -73 63 -73c41 0 78 32 83 73zM246 590c5 41 -24 73 -65 73c-40 0 -76 -32 -81 -73s23 -73 63 -73c41 0 78 32 83 73zM225 419c5 41 -24 73 -65 73c-40 0 -76 -32 -81 -73s23 -73 63 -73c41 0 78 32 83 73zM373 76
c5 41 -24 73 -65 73c-40 0 -76 -32 -81 -73s23 -73 63 -73c41 0 78 32 83 73zM401 246c5 41 -24 73 -65 73c-40 0 -76 -32 -81 -73s23 -73 63 -73c41 0 78 32 83 73zM178 77c5 41 -24 73 -65 73c-40 0 -77 -32 -82 -73s24 -73 64 -73c41 0 78 32 83 73z" />
    <glyph glyph-name="uni28E8" unicode="&#x28e8;" 
d="M442 589c5 41 -24 73 -65 73c-40 0 -76 -32 -81 -73s23 -73 63 -73c41 0 78 32 83 73zM401 246c5 41 -24 73 -65 73c-40 0 -76 -32 -81 -73s23 -73 63 -73c41 0 78 32 83 73zM373 76c5 41 -24 73 -65 73c-40 0 -76 -32 -81 -73s23 -73 63 -73c41 0 78 32 83 73zM178 77
c5 41 -24 73 -65 73c-40 0 -77 -32 -82 -73s24 -73 64 -73c41 0 78 32 83 73z" />
    <glyph glyph-name="uni28E9" unicode="&#x28e9;" 
d="M246 590c5 41 -24 73 -65 73c-40 0 -76 -32 -81 -73s23 -73 63 -73c41 0 78 32 83 73zM401 246c5 41 -24 73 -65 73c-40 0 -76 -32 -81 -73s23 -73 63 -73c41 0 78 32 83 73zM373 76c5 41 -24 73 -65 73c-40 0 -76 -32 -81 -73s23 -73 63 -73c41 0 78 32 83 73zM442 589
c5 41 -24 73 -65 73c-40 0 -76 -32 -81 -73s23 -73 63 -73c41 0 78 32 83 73zM178 77c5 41 -24 73 -65 73c-40 0 -77 -32 -82 -73s24 -73 64 -73c41 0 78 32 83 73z" />
    <glyph glyph-name="uni28EA" unicode="&#x28ea;" 
d="M442 589c5 41 -24 73 -65 73c-40 0 -76 -32 -81 -73s23 -73 63 -73c41 0 78 32 83 73zM225 419c5 41 -24 73 -65 73c-40 0 -76 -32 -81 -73s23 -73 63 -73c41 0 78 32 83 73zM373 76c5 41 -24 73 -65 73c-40 0 -76 -32 -81 -73s23 -73 63 -73c41 0 78 32 83 73zM401 246
c5 41 -24 73 -65 73c-40 0 -76 -32 -81 -73s23 -73 63 -73c41 0 78 32 83 73zM178 77c5 41 -24 73 -65 73c-40 0 -77 -32 -82 -73s24 -73 64 -73c41 0 78 32 83 73z" />
    <glyph glyph-name="uni28EB" unicode="&#x28eb;" 
d="M442 589c5 41 -24 73 -65 73c-40 0 -76 -32 -81 -73s23 -73 63 -73c41 0 78 32 83 73zM246 590c5 41 -24 73 -65 73c-40 0 -76 -32 -81 -73s23 -73 63 -73c41 0 78 32 83 73zM225 419c5 41 -24 73 -65 73c-40 0 -76 -32 -81 -73s23 -73 63 -73c41 0 78 32 83 73zM373 76
c5 41 -24 73 -65 73c-40 0 -76 -32 -81 -73s23 -73 63 -73c41 0 78 32 83 73zM401 246c5 41 -24 73 -65 73c-40 0 -76 -32 -81 -73s23 -73 63 -73c41 0 78 32 83 73zM178 77c5 41 -24 73 -65 73c-40 0 -77 -32 -82 -73s24 -73 64 -73c41 0 78 32 83 73z" />
    <glyph glyph-name="uni28EC" unicode="&#x28ec;" 
d="M205 247c5 41 -24 73 -65 73c-40 0 -76 -32 -81 -73s23 -73 63 -73c41 0 78 32 83 73zM401 246c5 41 -24 73 -65 73c-40 0 -76 -32 -81 -73s23 -73 63 -73c41 0 78 32 83 73zM373 76c5 41 -24 73 -65 73c-40 0 -76 -32 -81 -73s23 -73 63 -73c41 0 78 32 83 73zM442 589
c5 41 -24 73 -65 73c-40 0 -76 -32 -81 -73s23 -73 63 -73c41 0 78 32 83 73zM178 77c5 41 -24 73 -65 73c-40 0 -77 -32 -82 -73s24 -73 64 -73c41 0 78 32 83 73z" />
    <glyph glyph-name="uni28ED" unicode="&#x28ed;" 
d="M205 247c5 41 -24 73 -65 73c-40 0 -76 -32 -81 -73s23 -73 63 -73c41 0 78 32 83 73zM246 590c5 41 -24 73 -65 73c-40 0 -76 -32 -81 -73s23 -73 63 -73c41 0 78 32 83 73zM401 246c5 41 -24 73 -65 73c-40 0 -76 -32 -81 -73s23 -73 63 -73c41 0 78 32 83 73zM373 76
c5 41 -24 73 -65 73c-40 0 -76 -32 -81 -73s23 -73 63 -73c41 0 78 32 83 73zM442 589c5 41 -24 73 -65 73c-40 0 -76 -32 -81 -73s23 -73 63 -73c41 0 78 32 83 73zM178 77c5 41 -24 73 -65 73c-40 0 -77 -32 -82 -73s24 -73 64 -73c41 0 78 32 83 73z" />
    <glyph glyph-name="uni28EE" unicode="&#x28ee;" 
d="M442 589c5 41 -24 73 -65 73c-40 0 -76 -32 -81 -73s23 -73 63 -73c41 0 78 32 83 73zM205 247c5 41 -24 73 -65 73c-40 0 -76 -32 -81 -73s23 -73 63 -73c41 0 78 32 83 73zM225 419c5 41 -24 73 -65 73c-40 0 -76 -32 -81 -73s23 -73 63 -73c41 0 78 32 83 73zM373 76
c5 41 -24 73 -65 73c-40 0 -76 -32 -81 -73s23 -73 63 -73c41 0 78 32 83 73zM401 246c5 41 -24 73 -65 73c-40 0 -76 -32 -81 -73s23 -73 63 -73c41 0 78 32 83 73zM178 77c5 41 -24 73 -65 73c-40 0 -77 -32 -82 -73s24 -73 64 -73c41 0 78 32 83 73z" />
    <glyph glyph-name="uni28EF" unicode="&#x28ef;" 
d="M205 247c5 41 -24 73 -65 73c-40 0 -76 -32 -81 -73s23 -73 63 -73c41 0 78 32 83 73zM246 590c5 41 -24 73 -65 73c-40 0 -76 -32 -81 -73s23 -73 63 -73c41 0 78 32 83 73zM225 419c5 41 -24 73 -65 73c-40 0 -76 -32 -81 -73s23 -73 63 -73c41 0 78 32 83 73zM442 589
c5 41 -24 73 -65 73c-40 0 -76 -32 -81 -73s23 -73 63 -73c41 0 78 32 83 73zM373 76c5 41 -24 73 -65 73c-40 0 -76 -32 -81 -73s23 -73 63 -73c41 0 78 32 83 73zM401 246c5 41 -24 73 -65 73c-40 0 -76 -32 -81 -73s23 -73 63 -73c41 0 78 32 83 73zM178 77
c5 41 -24 73 -65 73c-40 0 -77 -32 -82 -73s24 -73 64 -73c41 0 78 32 83 73z" />
    <glyph glyph-name="uni28F0" unicode="&#x28f0;" 
d="M421 418c5 41 -24 73 -65 73c-40 0 -76 -32 -81 -73s23 -73 63 -73c41 0 78 32 83 73zM401 246c5 41 -24 73 -65 73c-40 0 -76 -32 -81 -73s23 -73 63 -73c41 0 78 32 83 73zM373 76c5 41 -24 73 -65 73c-40 0 -76 -32 -81 -73s23 -73 63 -73c41 0 78 32 83 73zM178 77
c5 41 -24 73 -65 73c-40 0 -77 -32 -82 -73s24 -73 64 -73c41 0 78 32 83 73z" />
    <glyph glyph-name="uni28F1" unicode="&#x28f1;" 
d="M246 590c5 41 -24 73 -65 73c-40 0 -76 -32 -81 -73s23 -73 63 -73c41 0 78 32 83 73zM401 246c5 41 -24 73 -65 73c-40 0 -76 -32 -81 -73s23 -73 63 -73c41 0 78 32 83 73zM373 76c5 41 -24 73 -65 73c-40 0 -76 -32 -81 -73s23 -73 63 -73c41 0 78 32 83 73zM421 418
c5 41 -24 73 -65 73c-40 0 -76 -32 -81 -73s23 -73 63 -73c41 0 78 32 83 73zM178 77c5 41 -24 73 -65 73c-40 0 -77 -32 -82 -73s24 -73 64 -73c41 0 78 32 83 73z" />
    <glyph glyph-name="uni28F2" unicode="&#x28f2;" 
d="M421 418c5 41 -24 73 -65 73c-40 0 -76 -32 -81 -73s23 -73 63 -73c41 0 78 32 83 73zM225 419c5 41 -24 73 -65 73c-40 0 -76 -32 -81 -73s23 -73 63 -73c41 0 78 32 83 73zM373 76c5 41 -24 73 -65 73c-40 0 -76 -32 -81 -73s23 -73 63 -73c41 0 78 32 83 73zM401 246
c5 41 -24 73 -65 73c-40 0 -76 -32 -81 -73s23 -73 63 -73c41 0 78 32 83 73zM178 77c5 41 -24 73 -65 73c-40 0 -77 -32 -82 -73s24 -73 64 -73c41 0 78 32 83 73z" />
    <glyph glyph-name="uni28F3" unicode="&#x28f3;" 
d="M401 246c5 41 -24 73 -65 73c-40 0 -76 -32 -81 -73s23 -73 63 -73c41 0 78 32 83 73zM246 590c5 41 -24 73 -65 73c-40 0 -76 -32 -81 -73s23 -73 63 -73c41 0 78 32 83 73zM421 418c5 41 -24 73 -65 73c-40 0 -76 -32 -81 -73s23 -73 63 -73c41 0 78 32 83 73zM373 76
c5 41 -24 73 -65 73c-40 0 -76 -32 -81 -73s23 -73 63 -73c41 0 78 32 83 73zM225 419c5 41 -24 73 -65 73c-40 0 -76 -32 -81 -73s23 -73 63 -73c41 0 78 32 83 73zM178 77c5 41 -24 73 -65 73c-40 0 -77 -32 -82 -73s24 -73 64 -73c41 0 78 32 83 73z" />
    <glyph glyph-name="uni28F4" unicode="&#x28f4;" 
d="M205 247c5 41 -24 73 -65 73c-40 0 -76 -32 -81 -73s23 -73 63 -73c41 0 78 32 83 73zM401 246c5 41 -24 73 -65 73c-40 0 -76 -32 -81 -73s23 -73 63 -73c41 0 78 32 83 73zM373 76c5 41 -24 73 -65 73c-40 0 -76 -32 -81 -73s23 -73 63 -73c41 0 78 32 83 73zM421 418
c5 41 -24 73 -65 73c-40 0 -76 -32 -81 -73s23 -73 63 -73c41 0 78 32 83 73zM178 77c5 41 -24 73 -65 73c-40 0 -77 -32 -82 -73s24 -73 64 -73c41 0 78 32 83 73z" />
    <glyph glyph-name="uni28F5" unicode="&#x28f5;" 
d="M205 247c5 41 -24 73 -65 73c-40 0 -76 -32 -81 -73s23 -73 63 -73c41 0 78 32 83 73zM246 590c5 41 -24 73 -65 73c-40 0 -76 -32 -81 -73s23 -73 63 -73c41 0 78 32 83 73zM421 418c5 41 -24 73 -65 73c-40 0 -76 -32 -81 -73s23 -73 63 -73c41 0 78 32 83 73zM373 76
c5 41 -24 73 -65 73c-40 0 -76 -32 -81 -73s23 -73 63 -73c41 0 78 32 83 73zM401 246c5 41 -24 73 -65 73c-40 0 -76 -32 -81 -73s23 -73 63 -73c41 0 78 32 83 73zM178 77c5 41 -24 73 -65 73c-40 0 -77 -32 -82 -73s24 -73 64 -73c41 0 78 32 83 73z" />
    <glyph glyph-name="uni28F6" unicode="&#x28f6;" 
d="M401 246c5 41 -24 73 -65 73c-40 0 -76 -32 -81 -73s23 -73 63 -73c41 0 78 32 83 73zM205 247c5 41 -24 73 -65 73c-40 0 -76 -32 -81 -73s23 -73 63 -73c41 0 78 32 83 73zM421 418c5 41 -24 73 -65 73c-40 0 -76 -32 -81 -73s23 -73 63 -73c41 0 78 32 83 73zM373 76
c5 41 -24 73 -65 73c-40 0 -76 -32 -81 -73s23 -73 63 -73c41 0 78 32 83 73zM225 419c5 41 -24 73 -65 73c-40 0 -76 -32 -81 -73s23 -73 63 -73c41 0 78 32 83 73zM178 77c5 41 -24 73 -65 73c-40 0 -77 -32 -82 -73s24 -73 64 -73c41 0 78 32 83 73z" />
    <glyph glyph-name="uni28F7" unicode="&#x28f7;" 
d="M205 247c5 41 -24 73 -65 73c-40 0 -76 -32 -81 -73s23 -73 63 -73c41 0 78 32 83 73zM246 590c5 41 -24 73 -65 73c-40 0 -76 -32 -81 -73s23 -73 63 -73c41 0 78 32 83 73zM225 419c5 41 -24 73 -65 73c-40 0 -76 -32 -81 -73s23 -73 63 -73c41 0 78 32 83 73zM421 418
c5 41 -24 73 -65 73c-40 0 -76 -32 -81 -73s23 -73 63 -73c41 0 78 32 83 73zM373 76c5 41 -24 73 -65 73c-40 0 -76 -32 -81 -73s23 -73 63 -73c41 0 78 32 83 73zM401 246c5 41 -24 73 -65 73c-40 0 -76 -32 -81 -73s23 -73 63 -73c41 0 78 32 83 73zM178 77
c5 41 -24 73 -65 73c-40 0 -77 -32 -82 -73s24 -73 64 -73c41 0 78 32 83 73z" />
    <glyph glyph-name="uni28F8" unicode="&#x28f8;" 
d="M442 589c5 41 -24 73 -65 73c-40 0 -76 -32 -81 -73s23 -73 63 -73c41 0 78 32 83 73zM401 246c5 41 -24 73 -65 73c-40 0 -76 -32 -81 -73s23 -73 63 -73c41 0 78 32 83 73zM373 76c5 41 -24 73 -65 73c-40 0 -76 -32 -81 -73s23 -73 63 -73c41 0 78 32 83 73zM421 418
c5 41 -24 73 -65 73c-40 0 -76 -32 -81 -73s23 -73 63 -73c41 0 78 32 83 73zM178 77c5 41 -24 73 -65 73c-40 0 -77 -32 -82 -73s24 -73 64 -73c41 0 78 32 83 73z" />
    <glyph glyph-name="uni28F9" unicode="&#x28f9;" 
d="M442 589c5 41 -24 73 -65 73c-40 0 -76 -32 -81 -73s23 -73 63 -73c41 0 78 32 83 73zM246 590c5 41 -24 73 -65 73c-40 0 -76 -32 -81 -73s23 -73 63 -73c41 0 78 32 83 73zM421 418c5 41 -24 73 -65 73c-40 0 -76 -32 -81 -73s23 -73 63 -73c41 0 78 32 83 73zM373 76
c5 41 -24 73 -65 73c-40 0 -76 -32 -81 -73s23 -73 63 -73c41 0 78 32 83 73zM401 246c5 41 -24 73 -65 73c-40 0 -76 -32 -81 -73s23 -73 63 -73c41 0 78 32 83 73zM178 77c5 41 -24 73 -65 73c-40 0 -77 -32 -82 -73s24 -73 64 -73c41 0 78 32 83 73z" />
    <glyph glyph-name="uni28FA" unicode="&#x28fa;" 
d="M401 246c5 41 -24 73 -65 73c-40 0 -76 -32 -81 -73s23 -73 63 -73c41 0 78 32 83 73zM442 589c5 41 -24 73 -65 73c-40 0 -76 -32 -81 -73s23 -73 63 -73c41 0 78 32 83 73zM421 418c5 41 -24 73 -65 73c-40 0 -76 -32 -81 -73s23 -73 63 -73c41 0 78 32 83 73zM373 76
c5 41 -24 73 -65 73c-40 0 -76 -32 -81 -73s23 -73 63 -73c41 0 78 32 83 73zM225 419c5 41 -24 73 -65 73c-40 0 -76 -32 -81 -73s23 -73 63 -73c41 0 78 32 83 73zM178 77c5 41 -24 73 -65 73c-40 0 -77 -32 -82 -73s24 -73 64 -73c41 0 78 32 83 73z" />
    <glyph glyph-name="uni28FB" unicode="&#x28fb;" 
d="M401 246c5 41 -24 73 -65 73c-40 0 -76 -32 -81 -73s23 -73 63 -73c41 0 78 32 83 73zM246 590c5 41 -24 73 -65 73c-40 0 -76 -32 -81 -73s23 -73 63 -73c41 0 78 32 83 73zM421 418c5 41 -24 73 -65 73c-40 0 -76 -32 -81 -73s23 -73 63 -73c41 0 78 32 83 73zM442 589
c5 41 -24 73 -65 73c-40 0 -76 -32 -81 -73s23 -73 63 -73c41 0 78 32 83 73zM373 76c5 41 -24 73 -65 73c-40 0 -76 -32 -81 -73s23 -73 63 -73c41 0 78 32 83 73zM225 419c5 41 -24 73 -65 73c-40 0 -76 -32 -81 -73s23 -73 63 -73c41 0 78 32 83 73zM178 77
c5 41 -24 73 -65 73c-40 0 -77 -32 -82 -73s24 -73 64 -73c41 0 78 32 83 73z" />
    <glyph glyph-name="uni28FC" unicode="&#x28fc;" 
d="M442 589c5 41 -24 73 -65 73c-40 0 -76 -32 -81 -73s23 -73 63 -73c41 0 78 32 83 73zM205 247c5 41 -24 73 -65 73c-40 0 -76 -32 -81 -73s23 -73 63 -73c41 0 78 32 83 73zM421 418c5 41 -24 73 -65 73c-40 0 -76 -32 -81 -73s23 -73 63 -73c41 0 78 32 83 73zM373 76
c5 41 -24 73 -65 73c-40 0 -76 -32 -81 -73s23 -73 63 -73c41 0 78 32 83 73zM401 246c5 41 -24 73 -65 73c-40 0 -76 -32 -81 -73s23 -73 63 -73c41 0 78 32 83 73zM178 77c5 41 -24 73 -65 73c-40 0 -77 -32 -82 -73s24 -73 64 -73c41 0 78 32 83 73z" />
    <glyph glyph-name="uni28FD" unicode="&#x28fd;" 
d="M205 247c5 41 -24 73 -65 73c-40 0 -76 -32 -81 -73s23 -73 63 -73c41 0 78 32 83 73zM246 590c5 41 -24 73 -65 73c-40 0 -76 -32 -81 -73s23 -73 63 -73c41 0 78 32 83 73zM421 418c5 41 -24 73 -65 73c-40 0 -76 -32 -81 -73s23 -73 63 -73c41 0 78 32 83 73zM442 589
c5 41 -24 73 -65 73c-40 0 -76 -32 -81 -73s23 -73 63 -73c41 0 78 32 83 73zM373 76c5 41 -24 73 -65 73c-40 0 -76 -32 -81 -73s23 -73 63 -73c41 0 78 32 83 73zM401 246c5 41 -24 73 -65 73c-40 0 -76 -32 -81 -73s23 -73 63 -73c41 0 78 32 83 73zM178 77
c5 41 -24 73 -65 73c-40 0 -77 -32 -82 -73s24 -73 64 -73c41 0 78 32 83 73z" />
    <glyph glyph-name="uni28FE" unicode="&#x28fe;" 
d="M401 246c5 41 -24 73 -65 73c-40 0 -76 -32 -81 -73s23 -73 63 -73c41 0 78 32 83 73zM205 247c5 41 -24 73 -65 73c-40 0 -76 -32 -81 -73s23 -73 63 -73c41 0 78 32 83 73zM421 418c5 41 -24 73 -65 73c-40 0 -76 -32 -81 -73s23 -73 63 -73c41 0 78 32 83 73zM442 589
c5 41 -24 73 -65 73c-40 0 -76 -32 -81 -73s23 -73 63 -73c41 0 78 32 83 73zM373 76c5 41 -24 73 -65 73c-40 0 -76 -32 -81 -73s23 -73 63 -73c41 0 78 32 83 73zM225 419c5 41 -24 73 -65 73c-40 0 -76 -32 -81 -73s23 -73 63 -73c41 0 78 32 83 73zM178 77
c5 41 -24 73 -65 73c-40 0 -77 -32 -82 -73s24 -73 64 -73c41 0 78 32 83 73z" />
    <glyph glyph-name="uni28FF" unicode="&#x28ff;" 
d="M442 589c5 41 -24 73 -65 73c-40 0 -76 -32 -81 -73s23 -73 63 -73c41 0 78 32 83 73zM225 419c5 41 -24 73 -65 73c-40 0 -76 -32 -81 -73s23 -73 63 -73c41 0 78 32 83 73zM401 246c5 41 -24 73 -65 73c-40 0 -76 -32 -81 -73s23 -73 63 -73c41 0 78 32 83 73zM205 247
c5 41 -24 73 -65 73c-40 0 -76 -32 -81 -73s23 -73 63 -73c41 0 78 32 83 73zM373 76c5 41 -24 73 -65 73c-40 0 -76 -32 -81 -73s23 -73 63 -73c41 0 78 32 83 73zM246 590c5 41 -24 73 -65 73c-40 0 -76 -32 -81 -73s23 -73 63 -73c41 0 78 32 83 73zM421 418
c5 41 -24 73 -65 73c-40 0 -76 -32 -81 -73s23 -73 63 -73c41 0 78 32 83 73zM178 77c5 41 -24 73 -65 73c-40 0 -77 -32 -82 -73s24 -73 64 -73c41 0 78 32 83 73z" />
    <glyph glyph-name="uni286A" unicode="&#x286a;" 
d="M442 589c5 41 -24 73 -65 73c-40 0 -76 -32 -81 -73s23 -73 63 -73c41 0 78 32 83 73zM225 419c5 41 -24 73 -65 73c-40 0 -76 -32 -81 -73s23 -73 63 -73c41 0 78 32 83 73zM401 246c5 41 -24 73 -65 73c-40 0 -76 -32 -81 -73s23 -73 63 -73c41 0 78 32 83 73zM178 77
c5 41 -24 73 -65 73c-40 0 -77 -32 -82 -73s24 -73 64 -73c41 0 78 32 83 73z" />
    <glyph glyph-name="uni2869" unicode="&#x2869;" 
d="M246 590c5 41 -24 73 -65 73c-40 0 -76 -32 -81 -73s23 -73 63 -73c41 0 78 32 83 73zM401 246c5 41 -24 73 -65 73c-40 0 -76 -32 -81 -73s23 -73 63 -73c41 0 78 32 83 73zM442 589c5 41 -24 73 -65 73c-40 0 -76 -32 -81 -73s23 -73 63 -73c41 0 78 32 83 73zM178 77
c5 41 -24 73 -65 73c-40 0 -77 -32 -82 -73s24 -73 64 -73c41 0 78 32 83 73z" />
    <glyph glyph-name="uni288A" unicode="&#x288a;" 
d="M225 419c5 41 -24 73 -65 73c-40 0 -76 -32 -81 -73s23 -73 63 -73c41 0 78 32 83 73zM442 589c5 41 -24 73 -65 73c-40 0 -76 -32 -81 -73s23 -73 63 -73c41 0 78 32 83 73zM373 76c5 41 -24 73 -65 73c-40 0 -76 -32 -81 -73s23 -73 63 -73c41 0 78 32 83 73z" />
    <glyph glyph-name="uni28C8" unicode="&#x28c8;" 
d="M373 76c5 41 -24 73 -65 73c-40 0 -76 -32 -81 -73s23 -73 63 -73c41 0 78 32 83 73zM442 589c5 41 -24 73 -65 73c-40 0 -76 -32 -81 -73s23 -73 63 -73c41 0 78 32 83 73zM178 77c5 41 -24 73 -65 73c-40 0 -77 -32 -82 -73s24 -73 64 -73c41 0 78 32 83 73z" />
    <glyph glyph-name="uni28C9" unicode="&#x28c9;" 
d="M246 590c5 41 -24 73 -65 73c-40 0 -76 -32 -81 -73s23 -73 63 -73c41 0 78 32 83 73zM373 76c5 41 -24 73 -65 73c-40 0 -76 -32 -81 -73s23 -73 63 -73c41 0 78 32 83 73zM442 589c5 41 -24 73 -65 73c-40 0 -76 -32 -81 -73s23 -73 63 -73c41 0 78 32 83 73zM178 77
c5 41 -24 73 -65 73c-40 0 -77 -32 -82 -73s24 -73 64 -73c41 0 78 32 83 73z" />
    <glyph glyph-name="uni28CA" unicode="&#x28ca;" 
d="M442 589c5 41 -24 73 -65 73c-40 0 -76 -32 -81 -73s23 -73 63 -73c41 0 78 32 83 73zM225 419c5 41 -24 73 -65 73c-40 0 -76 -32 -81 -73s23 -73 63 -73c41 0 78 32 83 73zM373 76c5 41 -24 73 -65 73c-40 0 -76 -32 -81 -73s23 -73 63 -73c41 0 78 32 83 73zM178 77
c5 41 -24 73 -65 73c-40 0 -77 -32 -82 -73s24 -73 64 -73c41 0 78 32 83 73z" />
    <glyph glyph-name="a" unicode="a" 
d="M246 590c5 41 -24 73 -65 73c-40 0 -76 -32 -81 -73s23 -73 63 -73c41 0 78 32 83 73z" />
    <glyph glyph-name="b" unicode="b" 
d="M246 590c5 41 -24 73 -65 73c-40 0 -76 -32 -81 -73s23 -73 63 -73c41 0 78 32 83 73zM225 419c5 41 -24 73 -65 73c-40 0 -76 -32 -81 -73s23 -73 63 -73c41 0 78 32 83 73z" />
    <glyph glyph-name="c" unicode="c" 
d="M246 590c5 41 -24 73 -65 73c-40 0 -76 -32 -81 -73s23 -73 63 -73c41 0 78 32 83 73zM442 589c5 41 -24 73 -65 73c-40 0 -76 -32 -81 -73s23 -73 63 -73c41 0 78 32 83 73z" />
    <glyph glyph-name="d" unicode="d" 
d="M421 418c5 41 -24 73 -65 73c-40 0 -76 -32 -81 -73s23 -73 63 -73c41 0 78 32 83 73zM246 590c5 41 -24 73 -65 73c-40 0 -76 -32 -81 -73s23 -73 63 -73c41 0 78 32 83 73zM442 589c5 41 -24 73 -65 73c-40 0 -76 -32 -81 -73s23 -73 63 -73c41 0 78 32 83 73z" />
    <glyph glyph-name="e" unicode="e" 
d="M246 590c5 41 -24 73 -65 73c-40 0 -76 -32 -81 -73s23 -73 63 -73c41 0 78 32 83 73zM421 418c5 41 -24 73 -65 73c-40 0 -76 -32 -81 -73s23 -73 63 -73c41 0 78 32 83 73z" />
    <glyph glyph-name="f" unicode="f" 
d="M225 419c5 41 -24 73 -65 73c-40 0 -76 -32 -81 -73s23 -73 63 -73c41 0 78 32 83 73zM246 590c5 41 -24 73 -65 73c-40 0 -76 -32 -81 -73s23 -73 63 -73c41 0 78 32 83 73zM442 589c5 41 -24 73 -65 73c-40 0 -76 -32 -81 -73s23 -73 63 -73c41 0 78 32 83 73z" />
    <glyph glyph-name="g" unicode="g" 
d="M421 418c5 41 -24 73 -65 73c-40 0 -76 -32 -81 -73s23 -73 63 -73c41 0 78 32 83 73zM225 419c5 41 -24 73 -65 73c-40 0 -76 -32 -81 -73s23 -73 63 -73c41 0 78 32 83 73zM246 590c5 41 -24 73 -65 73c-40 0 -76 -32 -81 -73s23 -73 63 -73c41 0 78 32 83 73zM442 589
c5 41 -24 73 -65 73c-40 0 -76 -32 -81 -73s23 -73 63 -73c41 0 78 32 83 73z" />
    <glyph glyph-name="h" unicode="h" 
d="M225 419c5 41 -24 73 -65 73c-40 0 -76 -32 -81 -73s23 -73 63 -73c41 0 78 32 83 73zM246 590c5 41 -24 73 -65 73c-40 0 -76 -32 -81 -73s23 -73 63 -73c41 0 78 32 83 73zM421 418c5 41 -24 73 -65 73c-40 0 -76 -32 -81 -73s23 -73 63 -73c41 0 78 32 83 73z" />
    <glyph glyph-name="i" unicode="i" 
d="M442 589c5 41 -24 73 -65 73c-40 0 -76 -32 -81 -73s23 -73 63 -73c41 0 78 32 83 73zM225 419c5 41 -24 73 -65 73c-40 0 -76 -32 -81 -73s23 -73 63 -73c41 0 78 32 83 73z" />
    <glyph glyph-name="j" unicode="j" 
d="M225 419c5 41 -24 73 -65 73c-40 0 -76 -32 -81 -73s23 -73 63 -73c41 0 78 32 83 73zM442 589c5 41 -24 73 -65 73c-40 0 -76 -32 -81 -73s23 -73 63 -73c41 0 78 32 83 73zM421 418c5 41 -24 73 -65 73c-40 0 -76 -32 -81 -73s23 -73 63 -73c41 0 78 32 83 73z" />
    <glyph glyph-name="k" unicode="k" 
d="M246 590c5 41 -24 73 -65 73c-40 0 -76 -32 -81 -73s23 -73 63 -73c41 0 78 32 83 73zM205 247c5 41 -24 73 -65 73c-40 0 -76 -32 -81 -73s23 -73 63 -73c41 0 78 32 83 73z" />
    <glyph glyph-name="l" unicode="l" 
d="M225 419c5 41 -24 73 -65 73c-40 0 -76 -32 -81 -73s23 -73 63 -73c41 0 78 32 83 73zM246 590c5 41 -24 73 -65 73c-40 0 -76 -32 -81 -73s23 -73 63 -73c41 0 78 32 83 73zM205 247c5 41 -24 73 -65 73c-40 0 -76 -32 -81 -73s23 -73 63 -73c41 0 78 32 83 73z" />
    <glyph glyph-name="m" unicode="m" 
d="M442 589c5 41 -24 73 -65 73c-40 0 -76 -32 -81 -73s23 -73 63 -73c41 0 78 32 83 73zM246 590c5 41 -24 73 -65 73c-40 0 -76 -32 -81 -73s23 -73 63 -73c41 0 78 32 83 73zM205 247c5 41 -24 73 -65 73c-40 0 -76 -32 -81 -73s23 -73 63 -73c41 0 78 32 83 73z" />
    <glyph glyph-name="n" unicode="n" 
d="M442 589c5 41 -24 73 -65 73c-40 0 -76 -32 -81 -73s23 -73 63 -73c41 0 78 32 83 73zM421 418c5 41 -24 73 -65 73c-40 0 -76 -32 -81 -73s23 -73 63 -73c41 0 78 32 83 73zM246 590c5 41 -24 73 -65 73c-40 0 -76 -32 -81 -73s23 -73 63 -73c41 0 78 32 83 73zM205 247
c5 41 -24 73 -65 73c-40 0 -76 -32 -81 -73s23 -73 63 -73c41 0 78 32 83 73z" />
    <glyph glyph-name="o" unicode="o" 
d="M421 418c5 41 -24 73 -65 73c-40 0 -76 -32 -81 -73s23 -73 63 -73c41 0 78 32 83 73zM246 590c5 41 -24 73 -65 73c-40 0 -76 -32 -81 -73s23 -73 63 -73c41 0 78 32 83 73zM205 247c5 41 -24 73 -65 73c-40 0 -76 -32 -81 -73s23 -73 63 -73c41 0 78 32 83 73z" />
    <glyph glyph-name="p" unicode="p" 
d="M442 589c5 41 -24 73 -65 73c-40 0 -76 -32 -81 -73s23 -73 63 -73c41 0 78 32 83 73zM225 419c5 41 -24 73 -65 73c-40 0 -76 -32 -81 -73s23 -73 63 -73c41 0 78 32 83 73zM246 590c5 41 -24 73 -65 73c-40 0 -76 -32 -81 -73s23 -73 63 -73c41 0 78 32 83 73zM205 247
c5 41 -24 73 -65 73c-40 0 -76 -32 -81 -73s23 -73 63 -73c41 0 78 32 83 73z" />
    <glyph glyph-name="q" unicode="q" 
d="M442 589c5 41 -24 73 -65 73c-40 0 -76 -32 -81 -73s23 -73 63 -73c41 0 78 32 83 73zM421 418c5 41 -24 73 -65 73c-40 0 -76 -32 -81 -73s23 -73 63 -73c41 0 78 32 83 73zM225 419c5 41 -24 73 -65 73c-40 0 -76 -32 -81 -73s23 -73 63 -73c41 0 78 32 83 73zM246 590
c5 41 -24 73 -65 73c-40 0 -76 -32 -81 -73s23 -73 63 -73c41 0 78 32 83 73zM205 247c5 41 -24 73 -65 73c-40 0 -76 -32 -81 -73s23 -73 63 -73c41 0 78 32 83 73z" />
    <glyph glyph-name="r" unicode="r" 
d="M421 418c5 41 -24 73 -65 73c-40 0 -76 -32 -81 -73s23 -73 63 -73c41 0 78 32 83 73zM225 419c5 41 -24 73 -65 73c-40 0 -76 -32 -81 -73s23 -73 63 -73c41 0 78 32 83 73zM246 590c5 41 -24 73 -65 73c-40 0 -76 -32 -81 -73s23 -73 63 -73c41 0 78 32 83 73zM205 247
c5 41 -24 73 -65 73c-40 0 -76 -32 -81 -73s23 -73 63 -73c41 0 78 32 83 73z" />
    <glyph glyph-name="s" unicode="s" 
d="M225 419c5 41 -24 73 -65 73c-40 0 -76 -32 -81 -73s23 -73 63 -73c41 0 78 32 83 73zM205 247c5 41 -24 73 -65 73c-40 0 -76 -32 -81 -73s23 -73 63 -73c41 0 78 32 83 73zM442 589c5 41 -24 73 -65 73c-40 0 -76 -32 -81 -73s23 -73 63 -73c41 0 78 32 83 73z" />
    <glyph glyph-name="t" unicode="t" 
d="M421 418c5 41 -24 73 -65 73c-40 0 -76 -32 -81 -73s23 -73 63 -73c41 0 78 32 83 73zM225 419c5 41 -24 73 -65 73c-40 0 -76 -32 -81 -73s23 -73 63 -73c41 0 78 32 83 73zM205 247c5 41 -24 73 -65 73c-40 0 -76 -32 -81 -73s23 -73 63 -73c41 0 78 32 83 73zM442 589
c5 41 -24 73 -65 73c-40 0 -76 -32 -81 -73s23 -73 63 -73c41 0 78 32 83 73z" />
    <glyph glyph-name="u" unicode="u" 
d="M401 246c5 41 -24 73 -65 73c-40 0 -76 -32 -81 -73s23 -73 63 -73c41 0 78 32 83 73zM246 590c5 41 -24 73 -65 73c-40 0 -76 -32 -81 -73s23 -73 63 -73c41 0 78 32 83 73zM205 247c5 41 -24 73 -65 73c-40 0 -76 -32 -81 -73s23 -73 63 -73c41 0 78 32 83 73z" />
    <glyph glyph-name="v" unicode="v" 
d="M401 246c5 41 -24 73 -65 73c-40 0 -76 -32 -81 -73s23 -73 63 -73c41 0 78 32 83 73zM225 419c5 41 -24 73 -65 73c-40 0 -76 -32 -81 -73s23 -73 63 -73c41 0 78 32 83 73zM246 590c5 41 -24 73 -65 73c-40 0 -76 -32 -81 -73s23 -73 63 -73c41 0 78 32 83 73zM205 247
c5 41 -24 73 -65 73c-40 0 -76 -32 -81 -73s23 -73 63 -73c41 0 78 32 83 73z" />
    <glyph glyph-name="w" unicode="w" 
d="M401 246c5 41 -24 73 -65 73c-40 0 -76 -32 -81 -73s23 -73 63 -73c41 0 78 32 83 73zM225 419c5 41 -24 73 -65 73c-40 0 -76 -32 -81 -73s23 -73 63 -73c41 0 78 32 83 73zM442 589c5 41 -24 73 -65 73c-40 0 -76 -32 -81 -73s23 -73 63 -73c41 0 78 32 83 73zM421 418
c5 41 -24 73 -65 73c-40 0 -76 -32 -81 -73s23 -73 63 -73c41 0 78 32 83 73z" />
    <glyph glyph-name="x" unicode="x" 
d="M442 589c5 41 -24 73 -65 73c-40 0 -76 -32 -81 -73s23 -73 63 -73c41 0 78 32 83 73zM401 246c5 41 -24 73 -65 73c-40 0 -76 -32 -81 -73s23 -73 63 -73c41 0 78 32 83 73zM246 590c5 41 -24 73 -65 73c-40 0 -76 -32 -81 -73s23 -73 63 -73c41 0 78 32 83 73zM205 247
c5 41 -24 73 -65 73c-40 0 -76 -32 -81 -73s23 -73 63 -73c41 0 78 32 83 73z" />
    <glyph glyph-name="y" unicode="y" 
d="M442 589c5 41 -24 73 -65 73c-40 0 -76 -32 -81 -73s23 -73 63 -73c41 0 78 32 83 73zM421 418c5 41 -24 73 -65 73c-40 0 -76 -32 -81 -73s23 -73 63 -73c41 0 78 32 83 73zM401 246c5 41 -24 73 -65 73c-40 0 -76 -32 -81 -73s23 -73 63 -73c41 0 78 32 83 73zM246 590
c5 41 -24 73 -65 73c-40 0 -76 -32 -81 -73s23 -73 63 -73c41 0 78 32 83 73zM205 247c5 41 -24 73 -65 73c-40 0 -76 -32 -81 -73s23 -73 63 -73c41 0 78 32 83 73z" />
    <glyph glyph-name="z" unicode="z" 
d="M421 418c5 41 -24 73 -65 73c-40 0 -76 -32 -81 -73s23 -73 63 -73c41 0 78 32 83 73zM401 246c5 41 -24 73 -65 73c-40 0 -76 -32 -81 -73s23 -73 63 -73c41 0 78 32 83 73zM246 590c5 41 -24 73 -65 73c-40 0 -76 -32 -81 -73s23 -73 63 -73c41 0 78 32 83 73zM205 247
c5 41 -24 73 -65 73c-40 0 -76 -32 -81 -73s23 -73 63 -73c41 0 78 32 83 73z" />
    <glyph glyph-name="numbersign" unicode="#" 
d="M16 248c5 41 -24 73 -65 73c-40 0 -76 -32 -81 -73s23 -73 63 -73c41 0 78 32 83 73z" />
    <glyph glyph-name="A" unicode="A" horiz-adv-x="626" 
d="M428 590c-5 -41 -42 -73 -83 -73c-40 0 -68 32 -63 73s41 73 81 73c41 0 70 -32 65 -73zM198 248c-5 -41 -42 -73 -83 -73c-40 0 -68 32 -63 73s41 73 81 73c41 0 70 -32 65 -73z" />
    <glyph glyph-name="B" unicode="B" horiz-adv-x="623" 
d="M425 590c-5 -41 -42 -73 -83 -73c-40 0 -68 32 -63 73s41 73 81 73c41 0 70 -32 65 -73zM195 248c-5 -41 -42 -73 -83 -73c-40 0 -68 32 -63 73s41 73 81 73c41 0 70 -32 65 -73zM404 419c-5 -41 -42 -73 -83 -73c-40 0 -68 32 -63 73s41 73 81 73c41 0 70 -32 65 -73z
" />
    <glyph glyph-name="C" unicode="C" horiz-adv-x="631" 
d="M433 590c-5 -41 -42 -73 -83 -73c-40 0 -68 32 -63 73s41 73 81 73c41 0 70 -32 65 -73zM203 248c-5 -41 -42 -73 -83 -73c-40 0 -68 32 -63 73s41 73 81 73c41 0 70 -32 65 -73zM629 589c-5 -41 -42 -73 -83 -73c-40 0 -68 32 -63 73s41 73 81 73c41 0 70 -32 65 -73z
" />
    <glyph glyph-name="D" unicode="D" horiz-adv-x="622" 
d="M599 418c-5 -41 -42 -73 -83 -73c-40 0 -68 32 -63 73s41 73 81 73c41 0 70 -32 65 -73zM194 248c-5 -41 -42 -73 -83 -73c-40 0 -68 32 -63 73s41 73 81 73c41 0 70 -32 65 -73zM620 589c-5 -41 -42 -73 -83 -73c-40 0 -68 32 -63 73s41 73 81 73c41 0 70 -32 65 -73z
M424 590c-5 -41 -42 -73 -83 -73c-40 0 -68 32 -63 73s41 73 81 73c41 0 70 -32 65 -73z" />
    <glyph glyph-name="E" unicode="E" horiz-adv-x="628" 
d="M430 590c-5 -41 -42 -73 -83 -73c-40 0 -68 32 -63 73s41 73 81 73c41 0 70 -32 65 -73zM200 248c-5 -41 -42 -73 -83 -73c-40 0 -68 32 -63 73s41 73 81 73c41 0 70 -32 65 -73zM605 418c-5 -41 -42 -73 -83 -73c-40 0 -68 32 -63 73s41 73 81 73c41 0 70 -32 65 -73z
" />
    <glyph glyph-name="F" unicode="F" horiz-adv-x="626" 
d="M407 419c-5 -41 -42 -73 -83 -73c-40 0 -68 32 -63 73s41 73 81 73c41 0 70 -32 65 -73zM198 248c-5 -41 -42 -73 -83 -73c-40 0 -68 32 -63 73s41 73 81 73c41 0 70 -32 65 -73zM624 589c-5 -41 -42 -73 -83 -73c-40 0 -68 32 -63 73s41 73 81 73c41 0 70 -32 65 -73z
M428 590c-5 -41 -42 -73 -83 -73c-40 0 -68 32 -63 73s41 73 81 73c41 0 70 -32 65 -73z" />
    <glyph glyph-name="G" unicode="G" horiz-adv-x="628" 
d="M605 418c-5 -41 -42 -73 -83 -73c-40 0 -68 32 -63 73s41 73 81 73c41 0 70 -32 65 -73zM200 248c-5 -41 -42 -73 -83 -73c-40 0 -68 32 -63 73s41 73 81 73c41 0 70 -32 65 -73zM626 589c-5 -41 -42 -73 -83 -73c-40 0 -68 32 -63 73s41 73 81 73c41 0 70 -32 65 -73z
M430 590c-5 -41 -42 -73 -83 -73c-40 0 -68 32 -63 73s41 73 81 73c41 0 70 -32 65 -73zM409 419c-5 -41 -42 -73 -83 -73c-40 0 -68 32 -63 73s41 73 81 73c41 0 70 -32 65 -73z" />
    <glyph glyph-name="H" unicode="H" horiz-adv-x="622" 
d="M403 419c-5 -41 -42 -73 -83 -73c-40 0 -68 32 -63 73s41 73 81 73c41 0 70 -32 65 -73zM194 248c-5 -41 -42 -73 -83 -73c-40 0 -68 32 -63 73s41 73 81 73c41 0 70 -32 65 -73zM599 418c-5 -41 -42 -73 -83 -73c-40 0 -68 32 -63 73s41 73 81 73c41 0 70 -32 65 -73z
M424 590c-5 -41 -42 -73 -83 -73c-40 0 -68 32 -63 73s41 73 81 73c41 0 70 -32 65 -73z" />
    <glyph glyph-name="I" unicode="I" horiz-adv-x="627" 
d="M625 589c-5 -41 -42 -73 -83 -73c-40 0 -68 32 -63 73s41 73 81 73c41 0 70 -32 65 -73zM199 248c-5 -41 -42 -73 -83 -73c-40 0 -68 32 -63 73s41 73 81 73c41 0 70 -32 65 -73zM408 419c-5 -41 -42 -73 -83 -73c-40 0 -68 32 -63 73s41 73 81 73c41 0 70 -32 65 -73z
" />
    <glyph glyph-name="J" unicode="J" horiz-adv-x="631" 
d="M412 419c-5 -41 -42 -73 -83 -73c-40 0 -68 32 -63 73s41 73 81 73c41 0 70 -32 65 -73zM203 248c-5 -41 -42 -73 -83 -73c-40 0 -68 32 -63 73s41 73 81 73c41 0 70 -32 65 -73zM608 418c-5 -41 -42 -73 -83 -73c-40 0 -68 32 -63 73s41 73 81 73c41 0 70 -32 65 -73z
M629 589c-5 -41 -42 -73 -83 -73c-40 0 -68 32 -63 73s41 73 81 73c41 0 70 -32 65 -73z" />
    <glyph glyph-name="K" unicode="K" horiz-adv-x="623" 
d="M425 590c-5 -41 -42 -73 -83 -73c-40 0 -68 32 -63 73s41 73 81 73c41 0 70 -32 65 -73zM195 248c-5 -41 -42 -73 -83 -73c-40 0 -68 32 -63 73s41 73 81 73c41 0 70 -32 65 -73zM384 247c-5 -41 -42 -73 -83 -73c-40 0 -68 32 -63 73s41 73 81 73c41 0 70 -32 65 -73z
" />
    <glyph glyph-name="L" unicode="L" horiz-adv-x="624" 
d="M405 419c-5 -41 -42 -73 -83 -73c-40 0 -68 32 -63 73s41 73 81 73c41 0 70 -32 65 -73zM196 248c-5 -41 -42 -73 -83 -73c-40 0 -68 32 -63 73s41 73 81 73c41 0 70 -32 65 -73zM385 247c-5 -41 -42 -73 -83 -73c-40 0 -68 32 -63 73s41 73 81 73c41 0 70 -32 65 -73z
M426 590c-5 -41 -42 -73 -83 -73c-40 0 -68 32 -63 73s41 73 81 73c41 0 70 -32 65 -73z" />
    <glyph glyph-name="M" unicode="M" horiz-adv-x="625" 
d="M623 589c-5 -41 -42 -73 -83 -73c-40 0 -68 32 -63 73s41 73 81 73c41 0 70 -32 65 -73zM197 248c-5 -41 -42 -73 -83 -73c-40 0 -68 32 -63 73s41 73 81 73c41 0 70 -32 65 -73zM386 247c-5 -41 -42 -73 -83 -73c-40 0 -68 32 -63 73s41 73 81 73c41 0 70 -32 65 -73z
M427 590c-5 -41 -42 -73 -83 -73c-40 0 -68 32 -63 73s41 73 81 73c41 0 70 -32 65 -73z" />
    <glyph glyph-name="N" unicode="N" horiz-adv-x="626" 
d="M624 589c-5 -41 -42 -73 -83 -73c-40 0 -68 32 -63 73s41 73 81 73c41 0 70 -32 65 -73zM198 248c-5 -41 -42 -73 -83 -73c-40 0 -68 32 -63 73s41 73 81 73c41 0 70 -32 65 -73zM387 247c-5 -41 -42 -73 -83 -73c-40 0 -68 32 -63 73s41 73 81 73c41 0 70 -32 65 -73z
M428 590c-5 -41 -42 -73 -83 -73c-40 0 -68 32 -63 73s41 73 81 73c41 0 70 -32 65 -73zM603 418c-5 -41 -42 -73 -83 -73c-40 0 -68 32 -63 73s41 73 81 73c41 0 70 -32 65 -73z" />
    <glyph glyph-name="O" unicode="O" horiz-adv-x="626" 
d="M603 418c-5 -41 -42 -73 -83 -73c-40 0 -68 32 -63 73s41 73 81 73c41 0 70 -32 65 -73zM198 248c-5 -41 -42 -73 -83 -73c-40 0 -68 32 -63 73s41 73 81 73c41 0 70 -32 65 -73zM387 247c-5 -41 -42 -73 -83 -73c-40 0 -68 32 -63 73s41 73 81 73c41 0 70 -32 65 -73z
M428 590c-5 -41 -42 -73 -83 -73c-40 0 -68 32 -63 73s41 73 81 73c41 0 70 -32 65 -73z" />
    <glyph glyph-name="P" unicode="P" horiz-adv-x="626" 
d="M624 589c-5 -41 -42 -73 -83 -73c-40 0 -68 32 -63 73s41 73 81 73c41 0 70 -32 65 -73zM198 248c-5 -41 -42 -73 -83 -73c-40 0 -68 32 -63 73s41 73 81 73c41 0 70 -32 65 -73zM387 247c-5 -41 -42 -73 -83 -73c-40 0 -68 32 -63 73s41 73 81 73c41 0 70 -32 65 -73z
M428 590c-5 -41 -42 -73 -83 -73c-40 0 -68 32 -63 73s41 73 81 73c41 0 70 -32 65 -73zM407 419c-5 -41 -42 -73 -83 -73c-40 0 -68 32 -63 73s41 73 81 73c41 0 70 -32 65 -73z" />
    <glyph glyph-name="Q" unicode="Q" horiz-adv-x="626" 
d="M624 589c-5 -41 -42 -73 -83 -73c-40 0 -68 32 -63 73s41 73 81 73c41 0 70 -32 65 -73zM198 248c-5 -41 -42 -73 -83 -73c-40 0 -68 32 -63 73s41 73 81 73c41 0 70 -32 65 -73zM387 247c-5 -41 -42 -73 -83 -73c-40 0 -68 32 -63 73s41 73 81 73c41 0 70 -32 65 -73z
M428 590c-5 -41 -42 -73 -83 -73c-40 0 -68 32 -63 73s41 73 81 73c41 0 70 -32 65 -73zM407 419c-5 -41 -42 -73 -83 -73c-40 0 -68 32 -63 73s41 73 81 73c41 0 70 -32 65 -73zM603 418c-5 -41 -42 -73 -83 -73c-40 0 -68 32 -63 73s41 73 81 73c41 0 70 -32 65 -73z" />
    <glyph glyph-name="R" unicode="R" horiz-adv-x="629" 
d="M606 418c-5 -41 -42 -73 -83 -73c-40 0 -68 32 -63 73s41 73 81 73c41 0 70 -32 65 -73zM201 248c-5 -41 -42 -73 -83 -73c-40 0 -68 32 -63 73s41 73 81 73c41 0 70 -32 65 -73zM390 247c-5 -41 -42 -73 -83 -73c-40 0 -68 32 -63 73s41 73 81 73c41 0 70 -32 65 -73z
M431 590c-5 -41 -42 -73 -83 -73c-40 0 -68 32 -63 73s41 73 81 73c41 0 70 -32 65 -73zM410 419c-5 -41 -42 -73 -83 -73c-40 0 -68 32 -63 73s41 73 81 73c41 0 70 -32 65 -73z" />
    <glyph glyph-name="S" unicode="S" horiz-adv-x="627" 
d="M408 419c-5 -41 -42 -73 -83 -73c-40 0 -68 32 -63 73s41 73 81 73c41 0 70 -32 65 -73zM199 248c-5 -41 -42 -73 -83 -73c-40 0 -68 32 -63 73s41 73 81 73c41 0 70 -32 65 -73zM625 589c-5 -41 -42 -73 -83 -73c-40 0 -68 32 -63 73s41 73 81 73c41 0 70 -32 65 -73z
M388 247c-5 -41 -42 -73 -83 -73c-40 0 -68 32 -63 73s41 73 81 73c41 0 70 -32 65 -73z" />
    <glyph glyph-name="T" unicode="T" horiz-adv-x="628" 
d="M605 418c-5 -41 -42 -73 -83 -73c-40 0 -68 32 -63 73s41 73 81 73c41 0 70 -32 65 -73zM200 248c-5 -41 -42 -73 -83 -73c-40 0 -68 32 -63 73s41 73 81 73c41 0 70 -32 65 -73zM626 589c-5 -41 -42 -73 -83 -73c-40 0 -68 32 -63 73s41 73 81 73c41 0 70 -32 65 -73z
M389 247c-5 -41 -42 -73 -83 -73c-40 0 -68 32 -63 73s41 73 81 73c41 0 70 -32 65 -73zM409 419c-5 -41 -42 -73 -83 -73c-40 0 -68 32 -63 73s41 73 81 73c41 0 70 -32 65 -73z" />
    <glyph glyph-name="U" unicode="U" horiz-adv-x="626" 
d="M583 246c-5 -41 -42 -73 -83 -73c-40 0 -68 32 -63 73s41 73 81 73c41 0 70 -32 65 -73zM198 248c-5 -41 -42 -73 -83 -73c-40 0 -68 32 -63 73s41 73 81 73c41 0 70 -32 65 -73zM387 247c-5 -41 -42 -73 -83 -73c-40 0 -68 32 -63 73s41 73 81 73c41 0 70 -32 65 -73z
M428 590c-5 -41 -42 -73 -83 -73c-40 0 -68 32 -63 73s41 73 81 73c41 0 70 -32 65 -73z" />
    <glyph glyph-name="V" unicode="V" horiz-adv-x="627" 
d="M584 246c-5 -41 -42 -73 -83 -73c-40 0 -68 32 -63 73s41 73 81 73c41 0 70 -32 65 -73zM199 248c-5 -41 -42 -73 -83 -73c-40 0 -68 32 -63 73s41 73 81 73c41 0 70 -32 65 -73zM388 247c-5 -41 -42 -73 -83 -73c-40 0 -68 32 -63 73s41 73 81 73c41 0 70 -32 65 -73z
M429 590c-5 -41 -42 -73 -83 -73c-40 0 -68 32 -63 73s41 73 81 73c41 0 70 -32 65 -73zM408 419c-5 -41 -42 -73 -83 -73c-40 0 -68 32 -63 73s41 73 81 73c41 0 70 -32 65 -73z" />
    <glyph glyph-name="W" unicode="W" horiz-adv-x="628" 
d="M585 246c-5 -41 -42 -73 -83 -73c-40 0 -68 32 -63 73s41 73 81 73c41 0 70 -32 65 -73zM200 248c-5 -41 -42 -73 -83 -73c-40 0 -68 32 -63 73s41 73 81 73c41 0 70 -32 65 -73zM605 418c-5 -41 -42 -73 -83 -73c-40 0 -68 32 -63 73s41 73 81 73c41 0 70 -32 65 -73z
M626 589c-5 -41 -42 -73 -83 -73c-40 0 -68 32 -63 73s41 73 81 73c41 0 70 -32 65 -73zM409 419c-5 -41 -42 -73 -83 -73c-40 0 -68 32 -63 73s41 73 81 73c41 0 70 -32 65 -73z" />
    <glyph glyph-name="X" unicode="X" horiz-adv-x="625" 
d="M623 589c-5 -41 -42 -73 -83 -73c-40 0 -68 32 -63 73s41 73 81 73c41 0 70 -32 65 -73zM197 248c-5 -41 -42 -73 -83 -73c-40 0 -68 32 -63 73s41 73 81 73c41 0 70 -32 65 -73zM386 247c-5 -41 -42 -73 -83 -73c-40 0 -68 32 -63 73s41 73 81 73c41 0 70 -32 65 -73z
M427 590c-5 -41 -42 -73 -83 -73c-40 0 -68 32 -63 73s41 73 81 73c41 0 70 -32 65 -73zM582 246c-5 -41 -42 -73 -83 -73c-40 0 -68 32 -63 73s41 73 81 73c41 0 70 -32 65 -73z" />
    <glyph glyph-name="Y" unicode="Y" horiz-adv-x="623" 
d="M621 589c-5 -41 -42 -73 -83 -73c-40 0 -68 32 -63 73s41 73 81 73c41 0 70 -32 65 -73zM195 248c-5 -41 -42 -73 -83 -73c-40 0 -68 32 -63 73s41 73 81 73c41 0 70 -32 65 -73zM384 247c-5 -41 -42 -73 -83 -73c-40 0 -68 32 -63 73s41 73 81 73c41 0 70 -32 65 -73z
M425 590c-5 -41 -42 -73 -83 -73c-40 0 -68 32 -63 73s41 73 81 73c41 0 70 -32 65 -73zM580 246c-5 -41 -42 -73 -83 -73c-40 0 -68 32 -63 73s41 73 81 73c41 0 70 -32 65 -73zM600 418c-5 -41 -42 -73 -83 -73c-40 0 -68 32 -63 73s41 73 81 73c41 0 70 -32 65 -73z" />
    <glyph glyph-name="Z" unicode="Z" horiz-adv-x="623" 
d="M600 418c-5 -41 -42 -73 -83 -73c-40 0 -68 32 -63 73s41 73 81 73c41 0 70 -32 65 -73zM195 248c-5 -41 -42 -73 -83 -73c-40 0 -68 32 -63 73s41 73 81 73c41 0 70 -32 65 -73zM384 247c-5 -41 -42 -73 -83 -73c-40 0 -68 32 -63 73s41 73 81 73c41 0 70 -32 65 -73z
M425 590c-5 -41 -42 -73 -83 -73c-40 0 -68 32 -63 73s41 73 81 73c41 0 70 -32 65 -73zM580 246c-5 -41 -42 -73 -83 -73c-40 0 -68 32 -63 73s41 73 81 73c41 0 70 -32 65 -73z" />
    <glyph glyph-name="grave" unicode="`" 
d="M225 419c5 41 -24 73 -65 73c-40 0 -76 -32 -81 -73s23 -73 63 -73c41 0 78 32 83 73z" />
    <glyph glyph-name="acute" unicode="&#xb4;" 
d="M205 247c5 41 -24 73 -65 73c-40 0 -76 -32 -81 -73s23 -73 63 -73c41 0 78 32 83 73z" />
    <glyph glyph-name="circumflex" unicode="&#x2c6;" 
d="M205 247c5 41 -24 73 -65 73c-40 0 -76 -32 -81 -73s23 -73 63 -73c41 0 78 32 83 73zM225 419c5 41 -24 73 -65 73c-40 0 -76 -32 -81 -73s23 -73 63 -73c41 0 78 32 83 73z" />
    <glyph glyph-name="tilde" unicode="&#x2dc;" 
d="M442 589c5 41 -24 73 -65 73c-40 0 -76 -32 -81 -73s23 -73 63 -73c41 0 78 32 83 73z" />
    <glyph glyph-name="macron" unicode="&#xaf;" 
d="M205 247c5 41 -24 73 -65 73c-40 0 -76 -32 -81 -73s23 -73 63 -73c41 0 78 32 83 73zM442 589c5 41 -24 73 -65 73c-40 0 -76 -32 -81 -73s23 -73 63 -73c41 0 78 32 83 73z" />
    <glyph glyph-name="breve" unicode="&#x2d8;" 
d="M421 418c5 41 -24 73 -65 73c-40 0 -76 -32 -81 -73s23 -73 63 -73c41 0 78 32 83 73z" />
    <glyph glyph-name="dotaccent" unicode="&#x2d9;" 
d="M421 418c5 41 -24 73 -65 73c-40 0 -76 -32 -81 -73s23 -73 63 -73c41 0 78 32 83 73zM225 419c5 41 -24 73 -65 73c-40 0 -76 -32 -81 -73s23 -73 63 -73c41 0 78 32 83 73z" />
    <glyph glyph-name="dieresis" unicode="&#xa8;" 
d="M205 247c5 41 -24 73 -65 73c-40 0 -76 -32 -81 -73s23 -73 63 -73c41 0 78 32 83 73zM421 418c5 41 -24 73 -65 73c-40 0 -76 -32 -81 -73s23 -73 63 -73c41 0 78 32 83 73z" />
    <glyph glyph-name="ring" unicode="&#x2da;" 
d="M225 419c5 41 -24 73 -65 73c-40 0 -76 -32 -81 -73s23 -73 63 -73c41 0 78 32 83 73zM205 247c5 41 -24 73 -65 73c-40 0 -76 -32 -81 -73s23 -73 63 -73c41 0 78 32 83 73zM421 418c5 41 -24 73 -65 73c-40 0 -76 -32 -81 -73s23 -73 63 -73c41 0 78 32 83 73z" />
    <glyph glyph-name="cedilla" unicode="&#xb8;" 
d="M442 589c5 41 -24 73 -65 73c-40 0 -76 -32 -81 -73s23 -73 63 -73c41 0 78 32 83 73zM421 418c5 41 -24 73 -65 73c-40 0 -76 -32 -81 -73s23 -73 63 -73c41 0 78 32 83 73z" />
    <glyph glyph-name="hungarumlaut" unicode="&#x2dd;" 
d="M421 418c5 41 -24 73 -65 73c-40 0 -76 -32 -81 -73s23 -73 63 -73c41 0 78 32 83 73zM205 247c5 41 -24 73 -65 73c-40 0 -76 -32 -81 -73s23 -73 63 -73c41 0 78 32 83 73zM442 589c5 41 -24 73 -65 73c-40 0 -76 -32 -81 -73s23 -73 63 -73c41 0 78 32 83 73z" />
    <glyph glyph-name="ogonek" unicode="&#x2db;" 
d="M401 246c5 41 -24 73 -65 73c-40 0 -76 -32 -81 -73s23 -73 63 -73c41 0 78 32 83 73z" />
    <glyph glyph-name="caron" unicode="&#x2c7;" 
d="M246 590c5 41 -24 73 -65 73c-40 0 -76 -32 -81 -73s23 -73 63 -73c41 0 78 32 83 73zM401 246c5 41 -24 73 -65 73c-40 0 -76 -32 -81 -73s23 -73 63 -73c41 0 78 32 83 73z" />
    <glyph glyph-name="dotlessi" unicode="&#x131;" 
d="M225 419c5 41 -24 73 -65 73c-40 0 -76 -32 -81 -73s23 -73 63 -73c41 0 78 32 83 73zM401 246c5 41 -24 73 -65 73c-40 0 -76 -32 -81 -73s23 -73 63 -73c41 0 78 32 83 73z" />
    <glyph glyph-name="exclam" unicode="!" 
d="M401 246c5 41 -24 73 -65 73c-40 0 -76 -32 -81 -73s23 -73 63 -73c41 0 78 32 83 73zM246 590c5 41 -24 73 -65 73c-40 0 -76 -32 -81 -73s23 -73 63 -73c41 0 78 32 83 73zM225 419c5 41 -24 73 -65 73c-40 0 -76 -32 -81 -73s23 -73 63 -73c41 0 78 32 83 73z" />
    <glyph glyph-name="quotedbl" unicode="&#x22;" 
d="M205 247c5 41 -24 73 -65 73c-40 0 -76 -32 -81 -73s23 -73 63 -73c41 0 78 32 83 73zM401 246c5 41 -24 73 -65 73c-40 0 -76 -32 -81 -73s23 -73 63 -73c41 0 78 32 83 73z" />
    <glyph glyph-name="dollar" unicode="$" 
d="M401 246c5 41 -24 73 -65 73c-40 0 -76 -32 -81 -73s23 -73 63 -73c41 0 78 32 83 73zM205 247c5 41 -24 73 -65 73c-40 0 -76 -32 -81 -73s23 -73 63 -73c41 0 78 32 83 73zM225 419c5 41 -24 73 -65 73c-40 0 -76 -32 -81 -73s23 -73 63 -73c41 0 78 32 83 73z" />
    <glyph glyph-name="percent" unicode="%" 
d="M442 589c5 41 -24 73 -65 73c-40 0 -76 -32 -81 -73s23 -73 63 -73c41 0 78 32 83 73zM401 246c5 41 -24 73 -65 73c-40 0 -76 -32 -81 -73s23 -73 63 -73c41 0 78 32 83 73z" />
    <glyph glyph-name="ampersand" unicode="&#x26;" 
d="M401 246c5 41 -24 73 -65 73c-40 0 -76 -32 -81 -73s23 -73 63 -73c41 0 78 32 83 73zM246 590c5 41 -24 73 -65 73c-40 0 -76 -32 -81 -73s23 -73 63 -73c41 0 78 32 83 73zM442 589c5 41 -24 73 -65 73c-40 0 -76 -32 -81 -73s23 -73 63 -73c41 0 78 32 83 73z" />
    <glyph glyph-name="quoteright" unicode="&#x2019;" 
d="M401 246c5 41 -24 73 -65 73c-40 0 -76 -32 -81 -73s23 -73 63 -73c41 0 78 32 83 73zM442 589c5 41 -24 73 -65 73c-40 0 -76 -32 -81 -73s23 -73 63 -73c41 0 78 32 83 73zM225 419c5 41 -24 73 -65 73c-40 0 -76 -32 -81 -73s23 -73 63 -73c41 0 78 32 83 73z" />
    <glyph glyph-name="parenleft" unicode="(" 
d="M401 246c5 41 -24 73 -65 73c-40 0 -76 -32 -81 -73s23 -73 63 -73c41 0 78 32 83 73zM225 419c5 41 -24 73 -65 73c-40 0 -76 -32 -81 -73s23 -73 63 -73c41 0 78 32 83 73zM246 590c5 41 -24 73 -65 73c-40 0 -76 -32 -81 -73s23 -73 63 -73c41 0 78 32 83 73zM442 589
c5 41 -24 73 -65 73c-40 0 -76 -32 -81 -73s23 -73 63 -73c41 0 78 32 83 73z" />
    <glyph glyph-name="parenright" unicode=")" 
d="M401 246c5 41 -24 73 -65 73c-40 0 -76 -32 -81 -73s23 -73 63 -73c41 0 78 32 83 73zM205 247c5 41 -24 73 -65 73c-40 0 -76 -32 -81 -73s23 -73 63 -73c41 0 78 32 83 73zM442 589c5 41 -24 73 -65 73c-40 0 -76 -32 -81 -73s23 -73 63 -73c41 0 78 32 83 73z" />
    <glyph glyph-name="asterisk" unicode="*" 
d="M401 246c5 41 -24 73 -65 73c-40 0 -76 -32 -81 -73s23 -73 63 -73c41 0 78 32 83 73zM225 419c5 41 -24 73 -65 73c-40 0 -76 -32 -81 -73s23 -73 63 -73c41 0 78 32 83 73zM205 247c5 41 -24 73 -65 73c-40 0 -76 -32 -81 -73s23 -73 63 -73c41 0 78 32 83 73zM442 589
c5 41 -24 73 -65 73c-40 0 -76 -32 -81 -73s23 -73 63 -73c41 0 78 32 83 73z" />
    <glyph glyph-name="plus" unicode="+" 
d="M442 589c5 41 -24 73 -65 73c-40 0 -76 -32 -81 -73s23 -73 63 -73c41 0 78 32 83 73zM401 246c5 41 -24 73 -65 73c-40 0 -76 -32 -81 -73s23 -73 63 -73c41 0 78 32 83 73zM225 419c5 41 -24 73 -65 73c-40 0 -76 -32 -81 -73s23 -73 63 -73c41 0 78 32 83 73zM246 590
c5 41 -24 73 -65 73c-40 0 -76 -32 -81 -73s23 -73 63 -73c41 0 78 32 83 73zM205 247c5 41 -24 73 -65 73c-40 0 -76 -32 -81 -73s23 -73 63 -73c41 0 78 32 83 73z" />
    <glyph glyph-name="comma" unicode="," 
d="M421 418c5 41 -24 73 -65 73c-40 0 -76 -32 -81 -73s23 -73 63 -73c41 0 78 32 83 73zM401 246c5 41 -24 73 -65 73c-40 0 -76 -32 -81 -73s23 -73 63 -73c41 0 78 32 83 73z" />
    <glyph glyph-name="hyphen" unicode="-" 
d="M401 246c5 41 -24 73 -65 73c-40 0 -76 -32 -81 -73s23 -73 63 -73c41 0 78 32 83 73zM246 590c5 41 -24 73 -65 73c-40 0 -76 -32 -81 -73s23 -73 63 -73c41 0 78 32 83 73zM421 418c5 41 -24 73 -65 73c-40 0 -76 -32 -81 -73s23 -73 63 -73c41 0 78 32 83 73z" />
    <glyph glyph-name="period" unicode="." 
d="M401 246c5 41 -24 73 -65 73c-40 0 -76 -32 -81 -73s23 -73 63 -73c41 0 78 32 83 73zM421 418c5 41 -24 73 -65 73c-40 0 -76 -32 -81 -73s23 -73 63 -73c41 0 78 32 83 73zM225 419c5 41 -24 73 -65 73c-40 0 -76 -32 -81 -73s23 -73 63 -73c41 0 78 32 83 73z" />
    <glyph glyph-name="slash" unicode="/" 
d="M401 246c5 41 -24 73 -65 73c-40 0 -76 -32 -81 -73s23 -73 63 -73c41 0 78 32 83 73zM225 419c5 41 -24 73 -65 73c-40 0 -76 -32 -81 -73s23 -73 63 -73c41 0 78 32 83 73zM246 590c5 41 -24 73 -65 73c-40 0 -76 -32 -81 -73s23 -73 63 -73c41 0 78 32 83 73zM421 418
c5 41 -24 73 -65 73c-40 0 -76 -32 -81 -73s23 -73 63 -73c41 0 78 32 83 73z" />
    <glyph glyph-name="zero" unicode="0" 
d="M401 246c5 41 -24 73 -65 73c-40 0 -76 -32 -81 -73s23 -73 63 -73c41 0 78 32 83 73zM205 247c5 41 -24 73 -65 73c-40 0 -76 -32 -81 -73s23 -73 63 -73c41 0 78 32 83 73zM421 418c5 41 -24 73 -65 73c-40 0 -76 -32 -81 -73s23 -73 63 -73c41 0 78 32 83 73z" />
    <glyph glyph-name="one" unicode="1" 
d="M401 246c5 41 -24 73 -65 73c-40 0 -76 -32 -81 -73s23 -73 63 -73c41 0 78 32 83 73zM225 419c5 41 -24 73 -65 73c-40 0 -76 -32 -81 -73s23 -73 63 -73c41 0 78 32 83 73zM205 247c5 41 -24 73 -65 73c-40 0 -76 -32 -81 -73s23 -73 63 -73c41 0 78 32 83 73zM421 418
c5 41 -24 73 -65 73c-40 0 -76 -32 -81 -73s23 -73 63 -73c41 0 78 32 83 73z" />
    <glyph glyph-name="two" unicode="2" 
d="M421 418c5 41 -24 73 -65 73c-40 0 -76 -32 -81 -73s23 -73 63 -73c41 0 78 32 83 73zM401 246c5 41 -24 73 -65 73c-40 0 -76 -32 -81 -73s23 -73 63 -73c41 0 78 32 83 73zM225 419c5 41 -24 73 -65 73c-40 0 -76 -32 -81 -73s23 -73 63 -73c41 0 78 32 83 73zM246 590
c5 41 -24 73 -65 73c-40 0 -76 -32 -81 -73s23 -73 63 -73c41 0 78 32 83 73zM205 247c5 41 -24 73 -65 73c-40 0 -76 -32 -81 -73s23 -73 63 -73c41 0 78 32 83 73z" />
    <glyph glyph-name="three" unicode="3" 
d="M401 246c5 41 -24 73 -65 73c-40 0 -76 -32 -81 -73s23 -73 63 -73c41 0 78 32 83 73zM442 589c5 41 -24 73 -65 73c-40 0 -76 -32 -81 -73s23 -73 63 -73c41 0 78 32 83 73zM421 418c5 41 -24 73 -65 73c-40 0 -76 -32 -81 -73s23 -73 63 -73c41 0 78 32 83 73z" />
    <glyph glyph-name="four" unicode="4" 
d="M421 418c5 41 -24 73 -65 73c-40 0 -76 -32 -81 -73s23 -73 63 -73c41 0 78 32 83 73zM401 246c5 41 -24 73 -65 73c-40 0 -76 -32 -81 -73s23 -73 63 -73c41 0 78 32 83 73zM246 590c5 41 -24 73 -65 73c-40 0 -76 -32 -81 -73s23 -73 63 -73c41 0 78 32 83 73zM442 589
c5 41 -24 73 -65 73c-40 0 -76 -32 -81 -73s23 -73 63 -73c41 0 78 32 83 73z" />
    <glyph glyph-name="five" unicode="5" 
d="M421 418c5 41 -24 73 -65 73c-40 0 -76 -32 -81 -73s23 -73 63 -73c41 0 78 32 83 73zM401 246c5 41 -24 73 -65 73c-40 0 -76 -32 -81 -73s23 -73 63 -73c41 0 78 32 83 73zM225 419c5 41 -24 73 -65 73c-40 0 -76 -32 -81 -73s23 -73 63 -73c41 0 78 32 83 73zM246 590
c5 41 -24 73 -65 73c-40 0 -76 -32 -81 -73s23 -73 63 -73c41 0 78 32 83 73zM442 589c5 41 -24 73 -65 73c-40 0 -76 -32 -81 -73s23 -73 63 -73c41 0 78 32 83 73z" />
    <glyph glyph-name="six" unicode="6" 
d="M421 418c5 41 -24 73 -65 73c-40 0 -76 -32 -81 -73s23 -73 63 -73c41 0 78 32 83 73zM401 246c5 41 -24 73 -65 73c-40 0 -76 -32 -81 -73s23 -73 63 -73c41 0 78 32 83 73zM205 247c5 41 -24 73 -65 73c-40 0 -76 -32 -81 -73s23 -73 63 -73c41 0 78 32 83 73zM442 589
c5 41 -24 73 -65 73c-40 0 -76 -32 -81 -73s23 -73 63 -73c41 0 78 32 83 73z" />
    <glyph glyph-name="seven" unicode="7" 
d="M421 418c5 41 -24 73 -65 73c-40 0 -76 -32 -81 -73s23 -73 63 -73c41 0 78 32 83 73zM401 246c5 41 -24 73 -65 73c-40 0 -76 -32 -81 -73s23 -73 63 -73c41 0 78 32 83 73zM225 419c5 41 -24 73 -65 73c-40 0 -76 -32 -81 -73s23 -73 63 -73c41 0 78 32 83 73zM205 247
c5 41 -24 73 -65 73c-40 0 -76 -32 -81 -73s23 -73 63 -73c41 0 78 32 83 73zM442 589c5 41 -24 73 -65 73c-40 0 -76 -32 -81 -73s23 -73 63 -73c41 0 78 32 83 73z" />
    <glyph glyph-name="eight" unicode="8" 
d="M442 589c5 41 -24 73 -65 73c-40 0 -76 -32 -81 -73s23 -73 63 -73c41 0 78 32 83 73zM401 246c5 41 -24 73 -65 73c-40 0 -76 -32 -81 -73s23 -73 63 -73c41 0 78 32 83 73zM225 419c5 41 -24 73 -65 73c-40 0 -76 -32 -81 -73s23 -73 63 -73c41 0 78 32 83 73zM421 418
c5 41 -24 73 -65 73c-40 0 -76 -32 -81 -73s23 -73 63 -73c41 0 78 32 83 73zM246 590c5 41 -24 73 -65 73c-40 0 -76 -32 -81 -73s23 -73 63 -73c41 0 78 32 83 73zM205 247c5 41 -24 73 -65 73c-40 0 -76 -32 -81 -73s23 -73 63 -73c41 0 78 32 83 73z" />
    <glyph glyph-name="fraction" unicode="&#x2044;" 
d="M178 77c5 41 -24 73 -65 73c-40 0 -77 -32 -82 -73s24 -73 64 -73c41 0 78 32 83 73z" />
    <glyph glyph-name="uniFB01" unicode="&#xfb01;" 
d="M225 419c5 41 -24 73 -65 73c-40 0 -76 -32 -81 -73s23 -73 63 -73c41 0 78 32 83 73zM178 77c5 41 -24 73 -65 73c-40 0 -77 -32 -82 -73s24 -73 64 -73c41 0 78 32 83 73z" />
    <glyph glyph-name="uniFB02" unicode="&#xfb02;" 
d="M225 419c5 41 -24 73 -65 73c-40 0 -76 -32 -81 -73s23 -73 63 -73c41 0 78 32 83 73zM246 590c5 41 -24 73 -65 73c-40 0 -76 -32 -81 -73s23 -73 63 -73c41 0 78 32 83 73zM178 77c5 41 -24 73 -65 73c-40 0 -77 -32 -82 -73s24 -73 64 -73c41 0 78 32 83 73z" />
    <glyph glyph-name="Lslash" unicode="&#x141;" 
d="M205 247c5 41 -24 73 -65 73c-40 0 -76 -32 -81 -73s23 -73 63 -73c41 0 78 32 83 73zM178 77c5 41 -24 73 -65 73c-40 0 -77 -32 -82 -73s24 -73 64 -73c41 0 78 32 83 73z" />
    <glyph glyph-name="lslash" unicode="&#x142;" 
d="M205 247c5 41 -24 73 -65 73c-40 0 -76 -32 -81 -73s23 -73 63 -73c41 0 78 32 83 73zM246 590c5 41 -24 73 -65 73c-40 0 -76 -32 -81 -73s23 -73 63 -73c41 0 78 32 83 73zM178 77c5 41 -24 73 -65 73c-40 0 -77 -32 -82 -73s24 -73 64 -73c41 0 78 32 83 73z" />
    <glyph glyph-name="Zcaron" unicode="&#x17d;" 
d="M225 419c5 41 -24 73 -65 73c-40 0 -76 -32 -81 -73s23 -73 63 -73c41 0 78 32 83 73zM205 247c5 41 -24 73 -65 73c-40 0 -76 -32 -81 -73s23 -73 63 -73c41 0 78 32 83 73zM178 77c5 41 -24 73 -65 73c-40 0 -77 -32 -82 -73s24 -73 64 -73c41 0 78 32 83 73z" />
    <glyph glyph-name="zcaron" unicode="&#x17e;" 
d="M442 589c5 41 -24 73 -65 73c-40 0 -76 -32 -81 -73s23 -73 63 -73c41 0 78 32 83 73zM178 77c5 41 -24 73 -65 73c-40 0 -77 -32 -82 -73s24 -73 64 -73c41 0 78 32 83 73z" />
    <glyph glyph-name="nine" unicode="9" 
d="M442 589c5 41 -24 73 -65 73c-40 0 -76 -32 -81 -73s23 -73 63 -73c41 0 78 32 83 73zM246 590c5 41 -24 73 -65 73c-40 0 -76 -32 -81 -73s23 -73 63 -73c41 0 78 32 83 73zM178 77c5 41 -24 73 -65 73c-40 0 -77 -32 -82 -73s24 -73 64 -73c41 0 78 32 83 73z" />
    <glyph glyph-name="colon" unicode=":" 
d="M225 419c5 41 -24 73 -65 73c-40 0 -76 -32 -81 -73s23 -73 63 -73c41 0 78 32 83 73zM442 589c5 41 -24 73 -65 73c-40 0 -76 -32 -81 -73s23 -73 63 -73c41 0 78 32 83 73zM178 77c5 41 -24 73 -65 73c-40 0 -77 -32 -82 -73s24 -73 64 -73c41 0 78 32 83 73z" />
    <glyph glyph-name="semicolon" unicode=";" 
d="M246 590c5 41 -24 73 -65 73c-40 0 -76 -32 -81 -73s23 -73 63 -73c41 0 78 32 83 73zM225 419c5 41 -24 73 -65 73c-40 0 -76 -32 -81 -73s23 -73 63 -73c41 0 78 32 83 73zM442 589c5 41 -24 73 -65 73c-40 0 -76 -32 -81 -73s23 -73 63 -73c41 0 78 32 83 73zM178 77
c5 41 -24 73 -65 73c-40 0 -77 -32 -82 -73s24 -73 64 -73c41 0 78 32 83 73z" />
    <glyph glyph-name="less" unicode="&#x3c;" 
d="M442 589c5 41 -24 73 -65 73c-40 0 -76 -32 -81 -73s23 -73 63 -73c41 0 78 32 83 73zM205 247c5 41 -24 73 -65 73c-40 0 -76 -32 -81 -73s23 -73 63 -73c41 0 78 32 83 73zM178 77c5 41 -24 73 -65 73c-40 0 -77 -32 -82 -73s24 -73 64 -73c41 0 78 32 83 73z" />
    <glyph glyph-name="equal" unicode="=" 
d="M246 590c5 41 -24 73 -65 73c-40 0 -76 -32 -81 -73s23 -73 63 -73c41 0 78 32 83 73zM442 589c5 41 -24 73 -65 73c-40 0 -76 -32 -81 -73s23 -73 63 -73c41 0 78 32 83 73zM205 247c5 41 -24 73 -65 73c-40 0 -76 -32 -81 -73s23 -73 63 -73c41 0 78 32 83 73zM178 77
c5 41 -24 73 -65 73c-40 0 -77 -32 -82 -73s24 -73 64 -73c41 0 78 32 83 73z" />
    <glyph glyph-name="greater" unicode="&#x3e;" 
d="M205 247c5 41 -24 73 -65 73c-40 0 -76 -32 -81 -73s23 -73 63 -73c41 0 78 32 83 73zM225 419c5 41 -24 73 -65 73c-40 0 -76 -32 -81 -73s23 -73 63 -73c41 0 78 32 83 73zM442 589c5 41 -24 73 -65 73c-40 0 -76 -32 -81 -73s23 -73 63 -73c41 0 78 32 83 73zM178 77
c5 41 -24 73 -65 73c-40 0 -77 -32 -82 -73s24 -73 64 -73c41 0 78 32 83 73z" />
    <glyph glyph-name="question" unicode="?" 
d="M421 418c5 41 -24 73 -65 73c-40 0 -76 -32 -81 -73s23 -73 63 -73c41 0 78 32 83 73zM178 77c5 41 -24 73 -65 73c-40 0 -77 -32 -82 -73s24 -73 64 -73c41 0 78 32 83 73z" />
    <glyph glyph-name="at" unicode="@" 
d="M421 418c5 41 -24 73 -65 73c-40 0 -76 -32 -81 -73s23 -73 63 -73c41 0 78 32 83 73zM246 590c5 41 -24 73 -65 73c-40 0 -76 -32 -81 -73s23 -73 63 -73c41 0 78 32 83 73zM178 77c5 41 -24 73 -65 73c-40 0 -77 -32 -82 -73s24 -73 64 -73c41 0 78 32 83 73z" />
    <glyph glyph-name="bracketleft" unicode="[" 
d="M225 419c5 41 -24 73 -65 73c-40 0 -76 -32 -81 -73s23 -73 63 -73c41 0 78 32 83 73zM421 418c5 41 -24 73 -65 73c-40 0 -76 -32 -81 -73s23 -73 63 -73c41 0 78 32 83 73zM178 77c5 41 -24 73 -65 73c-40 0 -77 -32 -82 -73s24 -73 64 -73c41 0 78 32 83 73z" />
    <glyph glyph-name="backslash" unicode="\" 
d="M246 590c5 41 -24 73 -65 73c-40 0 -76 -32 -81 -73s23 -73 63 -73c41 0 78 32 83 73zM225 419c5 41 -24 73 -65 73c-40 0 -76 -32 -81 -73s23 -73 63 -73c41 0 78 32 83 73zM421 418c5 41 -24 73 -65 73c-40 0 -76 -32 -81 -73s23 -73 63 -73c41 0 78 32 83 73zM178 77
c5 41 -24 73 -65 73c-40 0 -77 -32 -82 -73s24 -73 64 -73c41 0 78 32 83 73z" />
    <glyph glyph-name="bracketright" unicode="]" 
d="M421 418c5 41 -24 73 -65 73c-40 0 -76 -32 -81 -73s23 -73 63 -73c41 0 78 32 83 73zM205 247c5 41 -24 73 -65 73c-40 0 -76 -32 -81 -73s23 -73 63 -73c41 0 78 32 83 73zM178 77c5 41 -24 73 -65 73c-40 0 -77 -32 -82 -73s24 -73 64 -73c41 0 78 32 83 73z" />
    <glyph glyph-name="asciicircum" unicode="^" 
d="M246 590c5 41 -24 73 -65 73c-40 0 -76 -32 -81 -73s23 -73 63 -73c41 0 78 32 83 73zM421 418c5 41 -24 73 -65 73c-40 0 -76 -32 -81 -73s23 -73 63 -73c41 0 78 32 83 73zM205 247c5 41 -24 73 -65 73c-40 0 -76 -32 -81 -73s23 -73 63 -73c41 0 78 32 83 73zM178 77
c5 41 -24 73 -65 73c-40 0 -77 -32 -82 -73s24 -73 64 -73c41 0 78 32 83 73z" />
    <glyph glyph-name="underscore" unicode="_" 
d="M205 247c5 41 -24 73 -65 73c-40 0 -76 -32 -81 -73s23 -73 63 -73c41 0 78 32 83 73zM225 419c5 41 -24 73 -65 73c-40 0 -76 -32 -81 -73s23 -73 63 -73c41 0 78 32 83 73zM421 418c5 41 -24 73 -65 73c-40 0 -76 -32 -81 -73s23 -73 63 -73c41 0 78 32 83 73zM178 77
c5 41 -24 73 -65 73c-40 0 -77 -32 -82 -73s24 -73 64 -73c41 0 78 32 83 73z" />
    <glyph glyph-name="quotesingle" unicode="'" 
d="M205 247c5 41 -24 73 -65 73c-40 0 -76 -32 -81 -73s23 -73 63 -73c41 0 78 32 83 73zM246 590c5 41 -24 73 -65 73c-40 0 -76 -32 -81 -73s23 -73 63 -73c41 0 78 32 83 73zM401 246c5 41 -24 73 -65 73c-40 0 -76 -32 -81 -73s23 -73 63 -73c41 0 78 32 83 73zM225 419
c5 41 -24 73 -65 73c-40 0 -76 -32 -81 -73s23 -73 63 -73c41 0 78 32 83 73zM442 589c5 41 -24 73 -65 73c-40 0 -76 -32 -81 -73s23 -73 63 -73c41 0 78 32 83 73zM178 77c5 41 -24 73 -65 73c-40 0 -77 -32 -82 -73s24 -73 64 -73c41 0 78 32 83 73z" />
    <glyph glyph-name="braceleft" unicode="{" 
d="M421 418c5 41 -24 73 -65 73c-40 0 -76 -32 -81 -73s23 -73 63 -73c41 0 78 32 83 73zM442 589c5 41 -24 73 -65 73c-40 0 -76 -32 -81 -73s23 -73 63 -73c41 0 78 32 83 73zM178 77c5 41 -24 73 -65 73c-40 0 -77 -32 -82 -73s24 -73 64 -73c41 0 78 32 83 73z" />
    <glyph glyph-name="bar" unicode="|" 
d="M246 590c5 41 -24 73 -65 73c-40 0 -76 -32 -81 -73s23 -73 63 -73c41 0 78 32 83 73zM421 418c5 41 -24 73 -65 73c-40 0 -76 -32 -81 -73s23 -73 63 -73c41 0 78 32 83 73zM442 589c5 41 -24 73 -65 73c-40 0 -76 -32 -81 -73s23 -73 63 -73c41 0 78 32 83 73zM178 77
c5 41 -24 73 -65 73c-40 0 -77 -32 -82 -73s24 -73 64 -73c41 0 78 32 83 73z" />
    <glyph glyph-name="braceright" unicode="}" 
d="M442 589c5 41 -24 73 -65 73c-40 0 -76 -32 -81 -73s23 -73 63 -73c41 0 78 32 83 73zM225 419c5 41 -24 73 -65 73c-40 0 -76 -32 -81 -73s23 -73 63 -73c41 0 78 32 83 73zM421 418c5 41 -24 73 -65 73c-40 0 -76 -32 -81 -73s23 -73 63 -73c41 0 78 32 83 73zM178 77
c5 41 -24 73 -65 73c-40 0 -77 -32 -82 -73s24 -73 64 -73c41 0 78 32 83 73z" />
    <glyph glyph-name="asciitilde" unicode="~" 
d="M246 590c5 41 -24 73 -65 73c-40 0 -76 -32 -81 -73s23 -73 63 -73c41 0 78 32 83 73zM421 418c5 41 -24 73 -65 73c-40 0 -76 -32 -81 -73s23 -73 63 -73c41 0 78 32 83 73zM225 419c5 41 -24 73 -65 73c-40 0 -76 -32 -81 -73s23 -73 63 -73c41 0 78 32 83 73zM442 589
c5 41 -24 73 -65 73c-40 0 -76 -32 -81 -73s23 -73 63 -73c41 0 78 32 83 73zM178 77c5 41 -24 73 -65 73c-40 0 -77 -32 -82 -73s24 -73 64 -73c41 0 78 32 83 73z" />
    <glyph glyph-name="quotesinglbase" unicode="&#x201a;" 
d="M205 247c5 41 -24 73 -65 73c-40 0 -76 -32 -81 -73s23 -73 63 -73c41 0 78 32 83 73zM421 418c5 41 -24 73 -65 73c-40 0 -76 -32 -81 -73s23 -73 63 -73c41 0 78 32 83 73zM442 589c5 41 -24 73 -65 73c-40 0 -76 -32 -81 -73s23 -73 63 -73c41 0 78 32 83 73zM178 77
c5 41 -24 73 -65 73c-40 0 -77 -32 -82 -73s24 -73 64 -73c41 0 78 32 83 73z" />
    <glyph glyph-name="florin" unicode="&#x192;" 
d="M246 590c5 41 -24 73 -65 73c-40 0 -76 -32 -81 -73s23 -73 63 -73c41 0 78 32 83 73zM442 589c5 41 -24 73 -65 73c-40 0 -76 -32 -81 -73s23 -73 63 -73c41 0 78 32 83 73zM421 418c5 41 -24 73 -65 73c-40 0 -76 -32 -81 -73s23 -73 63 -73c41 0 78 32 83 73zM205 247
c5 41 -24 73 -65 73c-40 0 -76 -32 -81 -73s23 -73 63 -73c41 0 78 32 83 73zM178 77c5 41 -24 73 -65 73c-40 0 -77 -32 -82 -73s24 -73 64 -73c41 0 78 32 83 73z" />
    <glyph glyph-name="quotedblbase" unicode="&#x201e;" 
d="M205 247c5 41 -24 73 -65 73c-40 0 -76 -32 -81 -73s23 -73 63 -73c41 0 78 32 83 73zM421 418c5 41 -24 73 -65 73c-40 0 -76 -32 -81 -73s23 -73 63 -73c41 0 78 32 83 73zM225 419c5 41 -24 73 -65 73c-40 0 -76 -32 -81 -73s23 -73 63 -73c41 0 78 32 83 73zM442 589
c5 41 -24 73 -65 73c-40 0 -76 -32 -81 -73s23 -73 63 -73c41 0 78 32 83 73zM178 77c5 41 -24 73 -65 73c-40 0 -77 -32 -82 -73s24 -73 64 -73c41 0 78 32 83 73z" />
    <glyph glyph-name="ellipsis" unicode="&#x2026;" 
d="M205 247c5 41 -24 73 -65 73c-40 0 -76 -32 -81 -73s23 -73 63 -73c41 0 78 32 83 73zM246 590c5 41 -24 73 -65 73c-40 0 -76 -32 -81 -73s23 -73 63 -73c41 0 78 32 83 73zM225 419c5 41 -24 73 -65 73c-40 0 -76 -32 -81 -73s23 -73 63 -73c41 0 78 32 83 73zM421 418
c5 41 -24 73 -65 73c-40 0 -76 -32 -81 -73s23 -73 63 -73c41 0 78 32 83 73zM442 589c5 41 -24 73 -65 73c-40 0 -76 -32 -81 -73s23 -73 63 -73c41 0 78 32 83 73zM178 77c5 41 -24 73 -65 73c-40 0 -77 -32 -82 -73s24 -73 64 -73c41 0 78 32 83 73z" />
    <glyph glyph-name="dagger" unicode="&#x2020;" 
d="M401 246c5 41 -24 73 -65 73c-40 0 -76 -32 -81 -73s23 -73 63 -73c41 0 78 32 83 73zM178 77c5 41 -24 73 -65 73c-40 0 -77 -32 -82 -73s24 -73 64 -73c41 0 78 32 83 73z" />
    <glyph glyph-name="daggerdbl" unicode="&#x2021;" 
d="M401 246c5 41 -24 73 -65 73c-40 0 -76 -32 -81 -73s23 -73 63 -73c41 0 78 32 83 73zM246 590c5 41 -24 73 -65 73c-40 0 -76 -32 -81 -73s23 -73 63 -73c41 0 78 32 83 73zM178 77c5 41 -24 73 -65 73c-40 0 -77 -32 -82 -73s24 -73 64 -73c41 0 78 32 83 73z" />
    <glyph glyph-name="perthousand" unicode="&#x2030;" 
d="M401 246c5 41 -24 73 -65 73c-40 0 -76 -32 -81 -73s23 -73 63 -73c41 0 78 32 83 73zM225 419c5 41 -24 73 -65 73c-40 0 -76 -32 -81 -73s23 -73 63 -73c41 0 78 32 83 73zM178 77c5 41 -24 73 -65 73c-40 0 -77 -32 -82 -73s24 -73 64 -73c41 0 78 32 83 73z" />
    <glyph glyph-name="Scaron" unicode="&#x160;" 
d="M246 590c5 41 -24 73 -65 73c-40 0 -76 -32 -81 -73s23 -73 63 -73c41 0 78 32 83 73zM225 419c5 41 -24 73 -65 73c-40 0 -76 -32 -81 -73s23 -73 63 -73c41 0 78 32 83 73zM401 246c5 41 -24 73 -65 73c-40 0 -76 -32 -81 -73s23 -73 63 -73c41 0 78 32 83 73zM178 77
c5 41 -24 73 -65 73c-40 0 -77 -32 -82 -73s24 -73 64 -73c41 0 78 32 83 73z" />
    <glyph glyph-name="guilsinglleft" unicode="&#x2039;" 
d="M401 246c5 41 -24 73 -65 73c-40 0 -76 -32 -81 -73s23 -73 63 -73c41 0 78 32 83 73zM205 247c5 41 -24 73 -65 73c-40 0 -76 -32 -81 -73s23 -73 63 -73c41 0 78 32 83 73zM178 77c5 41 -24 73 -65 73c-40 0 -77 -32 -82 -73s24 -73 64 -73c41 0 78 32 83 73z" />
    <glyph glyph-name="OE" unicode="&#x152;" 
d="M246 590c5 41 -24 73 -65 73c-40 0 -76 -32 -81 -73s23 -73 63 -73c41 0 78 32 83 73zM401 246c5 41 -24 73 -65 73c-40 0 -76 -32 -81 -73s23 -73 63 -73c41 0 78 32 83 73zM205 247c5 41 -24 73 -65 73c-40 0 -76 -32 -81 -73s23 -73 63 -73c41 0 78 32 83 73zM178 77
c5 41 -24 73 -65 73c-40 0 -77 -32 -82 -73s24 -73 64 -73c41 0 78 32 83 73z" />
    <glyph glyph-name="quoteleft" unicode="&#x2018;" 
d="M205 247c5 41 -24 73 -65 73c-40 0 -76 -32 -81 -73s23 -73 63 -73c41 0 78 32 83 73zM225 419c5 41 -24 73 -65 73c-40 0 -76 -32 -81 -73s23 -73 63 -73c41 0 78 32 83 73zM401 246c5 41 -24 73 -65 73c-40 0 -76 -32 -81 -73s23 -73 63 -73c41 0 78 32 83 73zM178 77
c5 41 -24 73 -65 73c-40 0 -77 -32 -82 -73s24 -73 64 -73c41 0 78 32 83 73z" />
    <glyph glyph-name="quotedblleft" unicode="&#x201c;" 
d="M246 590c5 41 -24 73 -65 73c-40 0 -76 -32 -81 -73s23 -73 63 -73c41 0 78 32 83 73zM401 246c5 41 -24 73 -65 73c-40 0 -76 -32 -81 -73s23 -73 63 -73c41 0 78 32 83 73zM225 419c5 41 -24 73 -65 73c-40 0 -76 -32 -81 -73s23 -73 63 -73c41 0 78 32 83 73zM205 247
c5 41 -24 73 -65 73c-40 0 -76 -32 -81 -73s23 -73 63 -73c41 0 78 32 83 73zM178 77c5 41 -24 73 -65 73c-40 0 -77 -32 -82 -73s24 -73 64 -73c41 0 78 32 83 73z" />
    <glyph glyph-name="quotedblright" unicode="&#x201d;" 
d="M401 246c5 41 -24 73 -65 73c-40 0 -76 -32 -81 -73s23 -73 63 -73c41 0 78 32 83 73zM442 589c5 41 -24 73 -65 73c-40 0 -76 -32 -81 -73s23 -73 63 -73c41 0 78 32 83 73zM178 77c5 41 -24 73 -65 73c-40 0 -77 -32 -82 -73s24 -73 64 -73c41 0 78 32 83 73z" />
    <glyph glyph-name="bullet" unicode="&#x2022;" 
d="M246 590c5 41 -24 73 -65 73c-40 0 -76 -32 -81 -73s23 -73 63 -73c41 0 78 32 83 73zM401 246c5 41 -24 73 -65 73c-40 0 -76 -32 -81 -73s23 -73 63 -73c41 0 78 32 83 73zM225 419c5 41 -24 73 -65 73c-40 0 -76 -32 -81 -73s23 -73 63 -73c41 0 78 32 83 73zM442 589
c5 41 -24 73 -65 73c-40 0 -76 -32 -81 -73s23 -73 63 -73c41 0 78 32 83 73zM178 77c5 41 -24 73 -65 73c-40 0 -77 -32 -82 -73s24 -73 64 -73c41 0 78 32 83 73z" />
    <glyph glyph-name="endash" unicode="&#x2013;" 
d="M205 247c5 41 -24 73 -65 73c-40 0 -76 -32 -81 -73s23 -73 63 -73c41 0 78 32 83 73zM401 246c5 41 -24 73 -65 73c-40 0 -76 -32 -81 -73s23 -73 63 -73c41 0 78 32 83 73zM442 589c5 41 -24 73 -65 73c-40 0 -76 -32 -81 -73s23 -73 63 -73c41 0 78 32 83 73zM178 77
c5 41 -24 73 -65 73c-40 0 -77 -32 -82 -73s24 -73 64 -73c41 0 78 32 83 73z" />
    <glyph glyph-name="emdash" unicode="&#x2014;" 
d="M246 590c5 41 -24 73 -65 73c-40 0 -76 -32 -81 -73s23 -73 63 -73c41 0 78 32 83 73zM442 589c5 41 -24 73 -65 73c-40 0 -76 -32 -81 -73s23 -73 63 -73c41 0 78 32 83 73zM401 246c5 41 -24 73 -65 73c-40 0 -76 -32 -81 -73s23 -73 63 -73c41 0 78 32 83 73zM205 247
c5 41 -24 73 -65 73c-40 0 -76 -32 -81 -73s23 -73 63 -73c41 0 78 32 83 73zM178 77c5 41 -24 73 -65 73c-40 0 -77 -32 -82 -73s24 -73 64 -73c41 0 78 32 83 73z" />
    <glyph glyph-name="trademark" unicode="&#x2122;" 
d="M205 247c5 41 -24 73 -65 73c-40 0 -76 -32 -81 -73s23 -73 63 -73c41 0 78 32 83 73zM401 246c5 41 -24 73 -65 73c-40 0 -76 -32 -81 -73s23 -73 63 -73c41 0 78 32 83 73zM225 419c5 41 -24 73 -65 73c-40 0 -76 -32 -81 -73s23 -73 63 -73c41 0 78 32 83 73zM442 589
c5 41 -24 73 -65 73c-40 0 -76 -32 -81 -73s23 -73 63 -73c41 0 78 32 83 73zM178 77c5 41 -24 73 -65 73c-40 0 -77 -32 -82 -73s24 -73 64 -73c41 0 78 32 83 73z" />
    <glyph glyph-name="scaron" unicode="&#x161;" 
d="M401 246c5 41 -24 73 -65 73c-40 0 -76 -32 -81 -73s23 -73 63 -73c41 0 78 32 83 73zM421 418c5 41 -24 73 -65 73c-40 0 -76 -32 -81 -73s23 -73 63 -73c41 0 78 32 83 73zM178 77c5 41 -24 73 -65 73c-40 0 -77 -32 -82 -73s24 -73 64 -73c41 0 78 32 83 73z" />
    <glyph glyph-name="guilsinglright" unicode="&#x203a;" 
d="M246 590c5 41 -24 73 -65 73c-40 0 -76 -32 -81 -73s23 -73 63 -73c41 0 78 32 83 73zM401 246c5 41 -24 73 -65 73c-40 0 -76 -32 -81 -73s23 -73 63 -73c41 0 78 32 83 73zM421 418c5 41 -24 73 -65 73c-40 0 -76 -32 -81 -73s23 -73 63 -73c41 0 78 32 83 73zM178 77
c5 41 -24 73 -65 73c-40 0 -77 -32 -82 -73s24 -73 64 -73c41 0 78 32 83 73z" />
    <glyph glyph-name="oe" unicode="&#x153;" 
d="M421 418c5 41 -24 73 -65 73c-40 0 -76 -32 -81 -73s23 -73 63 -73c41 0 78 32 83 73zM225 419c5 41 -24 73 -65 73c-40 0 -76 -32 -81 -73s23 -73 63 -73c41 0 78 32 83 73zM401 246c5 41 -24 73 -65 73c-40 0 -76 -32 -81 -73s23 -73 63 -73c41 0 78 32 83 73zM178 77
c5 41 -24 73 -65 73c-40 0 -77 -32 -82 -73s24 -73 64 -73c41 0 78 32 83 73z" />
    <glyph glyph-name="Ydieresis" unicode="&#x178;" 
d="M246 590c5 41 -24 73 -65 73c-40 0 -76 -32 -81 -73s23 -73 63 -73c41 0 78 32 83 73zM401 246c5 41 -24 73 -65 73c-40 0 -76 -32 -81 -73s23 -73 63 -73c41 0 78 32 83 73zM225 419c5 41 -24 73 -65 73c-40 0 -76 -32 -81 -73s23 -73 63 -73c41 0 78 32 83 73zM421 418
c5 41 -24 73 -65 73c-40 0 -76 -32 -81 -73s23 -73 63 -73c41 0 78 32 83 73zM178 77c5 41 -24 73 -65 73c-40 0 -77 -32 -82 -73s24 -73 64 -73c41 0 78 32 83 73z" />
    <glyph glyph-name="exclamdown" unicode="&#xa1;" 
d="M205 247c5 41 -24 73 -65 73c-40 0 -76 -32 -81 -73s23 -73 63 -73c41 0 78 32 83 73zM401 246c5 41 -24 73 -65 73c-40 0 -76 -32 -81 -73s23 -73 63 -73c41 0 78 32 83 73zM421 418c5 41 -24 73 -65 73c-40 0 -76 -32 -81 -73s23 -73 63 -73c41 0 78 32 83 73zM178 77
c5 41 -24 73 -65 73c-40 0 -77 -32 -82 -73s24 -73 64 -73c41 0 78 32 83 73z" />
    <glyph glyph-name="cent" unicode="&#xa2;" 
d="M246 590c5 41 -24 73 -65 73c-40 0 -76 -32 -81 -73s23 -73 63 -73c41 0 78 32 83 73zM421 418c5 41 -24 73 -65 73c-40 0 -76 -32 -81 -73s23 -73 63 -73c41 0 78 32 83 73zM401 246c5 41 -24 73 -65 73c-40 0 -76 -32 -81 -73s23 -73 63 -73c41 0 78 32 83 73zM205 247
c5 41 -24 73 -65 73c-40 0 -76 -32 -81 -73s23 -73 63 -73c41 0 78 32 83 73zM178 77c5 41 -24 73 -65 73c-40 0 -77 -32 -82 -73s24 -73 64 -73c41 0 78 32 83 73z" />
    <glyph glyph-name="sterling" unicode="&#xa3;" 
d="M205 247c5 41 -24 73 -65 73c-40 0 -76 -32 -81 -73s23 -73 63 -73c41 0 78 32 83 73zM401 246c5 41 -24 73 -65 73c-40 0 -76 -32 -81 -73s23 -73 63 -73c41 0 78 32 83 73zM225 419c5 41 -24 73 -65 73c-40 0 -76 -32 -81 -73s23 -73 63 -73c41 0 78 32 83 73zM421 418
c5 41 -24 73 -65 73c-40 0 -76 -32 -81 -73s23 -73 63 -73c41 0 78 32 83 73zM178 77c5 41 -24 73 -65 73c-40 0 -77 -32 -82 -73s24 -73 64 -73c41 0 78 32 83 73z" />
    <glyph glyph-name="currency" unicode="&#xa4;" 
d="M205 247c5 41 -24 73 -65 73c-40 0 -76 -32 -81 -73s23 -73 63 -73c41 0 78 32 83 73zM246 590c5 41 -24 73 -65 73c-40 0 -76 -32 -81 -73s23 -73 63 -73c41 0 78 32 83 73zM225 419c5 41 -24 73 -65 73c-40 0 -76 -32 -81 -73s23 -73 63 -73c41 0 78 32 83 73zM421 418
c5 41 -24 73 -65 73c-40 0 -76 -32 -81 -73s23 -73 63 -73c41 0 78 32 83 73zM401 246c5 41 -24 73 -65 73c-40 0 -76 -32 -81 -73s23 -73 63 -73c41 0 78 32 83 73zM178 77c5 41 -24 73 -65 73c-40 0 -77 -32 -82 -73s24 -73 64 -73c41 0 78 32 83 73z" />
    <glyph glyph-name="yen" unicode="&#xa5;" 
d="M442 589c5 41 -24 73 -65 73c-40 0 -76 -32 -81 -73s23 -73 63 -73c41 0 78 32 83 73zM401 246c5 41 -24 73 -65 73c-40 0 -76 -32 -81 -73s23 -73 63 -73c41 0 78 32 83 73zM421 418c5 41 -24 73 -65 73c-40 0 -76 -32 -81 -73s23 -73 63 -73c41 0 78 32 83 73zM178 77
c5 41 -24 73 -65 73c-40 0 -77 -32 -82 -73s24 -73 64 -73c41 0 78 32 83 73z" />
    <glyph glyph-name="brokenbar" unicode="&#xa6;" 
d="M246 590c5 41 -24 73 -65 73c-40 0 -76 -32 -81 -73s23 -73 63 -73c41 0 78 32 83 73zM421 418c5 41 -24 73 -65 73c-40 0 -76 -32 -81 -73s23 -73 63 -73c41 0 78 32 83 73zM401 246c5 41 -24 73 -65 73c-40 0 -76 -32 -81 -73s23 -73 63 -73c41 0 78 32 83 73zM442 589
c5 41 -24 73 -65 73c-40 0 -76 -32 -81 -73s23 -73 63 -73c41 0 78 32 83 73zM178 77c5 41 -24 73 -65 73c-40 0 -77 -32 -82 -73s24 -73 64 -73c41 0 78 32 83 73z" />
    <glyph glyph-name="section" unicode="&#xa7;" 
d="M442 589c5 41 -24 73 -65 73c-40 0 -76 -32 -81 -73s23 -73 63 -73c41 0 78 32 83 73zM401 246c5 41 -24 73 -65 73c-40 0 -76 -32 -81 -73s23 -73 63 -73c41 0 78 32 83 73zM225 419c5 41 -24 73 -65 73c-40 0 -76 -32 -81 -73s23 -73 63 -73c41 0 78 32 83 73zM421 418
c5 41 -24 73 -65 73c-40 0 -76 -32 -81 -73s23 -73 63 -73c41 0 78 32 83 73zM178 77c5 41 -24 73 -65 73c-40 0 -77 -32 -82 -73s24 -73 64 -73c41 0 78 32 83 73z" />
    <glyph glyph-name="copyright" unicode="&#xa9;" 
d="M442 589c5 41 -24 73 -65 73c-40 0 -76 -32 -81 -73s23 -73 63 -73c41 0 78 32 83 73zM246 590c5 41 -24 73 -65 73c-40 0 -76 -32 -81 -73s23 -73 63 -73c41 0 78 32 83 73zM225 419c5 41 -24 73 -65 73c-40 0 -76 -32 -81 -73s23 -73 63 -73c41 0 78 32 83 73zM421 418
c5 41 -24 73 -65 73c-40 0 -76 -32 -81 -73s23 -73 63 -73c41 0 78 32 83 73zM401 246c5 41 -24 73 -65 73c-40 0 -76 -32 -81 -73s23 -73 63 -73c41 0 78 32 83 73zM178 77c5 41 -24 73 -65 73c-40 0 -77 -32 -82 -73s24 -73 64 -73c41 0 78 32 83 73z" />
    <glyph glyph-name="ordfeminine" unicode="&#xaa;" 
d="M205 247c5 41 -24 73 -65 73c-40 0 -76 -32 -81 -73s23 -73 63 -73c41 0 78 32 83 73zM421 418c5 41 -24 73 -65 73c-40 0 -76 -32 -81 -73s23 -73 63 -73c41 0 78 32 83 73zM401 246c5 41 -24 73 -65 73c-40 0 -76 -32 -81 -73s23 -73 63 -73c41 0 78 32 83 73zM442 589
c5 41 -24 73 -65 73c-40 0 -76 -32 -81 -73s23 -73 63 -73c41 0 78 32 83 73zM178 77c5 41 -24 73 -65 73c-40 0 -77 -32 -82 -73s24 -73 64 -73c41 0 78 32 83 73z" />
    <glyph glyph-name="guillemotleft" unicode="&#xab;" 
d="M205 247c5 41 -24 73 -65 73c-40 0 -76 -32 -81 -73s23 -73 63 -73c41 0 78 32 83 73zM246 590c5 41 -24 73 -65 73c-40 0 -76 -32 -81 -73s23 -73 63 -73c41 0 78 32 83 73zM401 246c5 41 -24 73 -65 73c-40 0 -76 -32 -81 -73s23 -73 63 -73c41 0 78 32 83 73zM421 418
c5 41 -24 73 -65 73c-40 0 -76 -32 -81 -73s23 -73 63 -73c41 0 78 32 83 73zM442 589c5 41 -24 73 -65 73c-40 0 -76 -32 -81 -73s23 -73 63 -73c41 0 78 32 83 73zM178 77c5 41 -24 73 -65 73c-40 0 -77 -32 -82 -73s24 -73 64 -73c41 0 78 32 83 73z" />
    <glyph glyph-name="logicalnot" unicode="&#xac;" 
d="M442 589c5 41 -24 73 -65 73c-40 0 -76 -32 -81 -73s23 -73 63 -73c41 0 78 32 83 73zM205 247c5 41 -24 73 -65 73c-40 0 -76 -32 -81 -73s23 -73 63 -73c41 0 78 32 83 73zM225 419c5 41 -24 73 -65 73c-40 0 -76 -32 -81 -73s23 -73 63 -73c41 0 78 32 83 73zM421 418
c5 41 -24 73 -65 73c-40 0 -76 -32 -81 -73s23 -73 63 -73c41 0 78 32 83 73zM401 246c5 41 -24 73 -65 73c-40 0 -76 -32 -81 -73s23 -73 63 -73c41 0 78 32 83 73zM178 77c5 41 -24 73 -65 73c-40 0 -77 -32 -82 -73s24 -73 64 -73c41 0 78 32 83 73z" />
    <glyph glyph-name="registered" unicode="&#xae;" 
d="M205 247c5 41 -24 73 -65 73c-40 0 -76 -32 -81 -73s23 -73 63 -73c41 0 78 32 83 73zM246 590c5 41 -24 73 -65 73c-40 0 -76 -32 -81 -73s23 -73 63 -73c41 0 78 32 83 73zM225 419c5 41 -24 73 -65 73c-40 0 -76 -32 -81 -73s23 -73 63 -73c41 0 78 32 83 73zM421 418
c5 41 -24 73 -65 73c-40 0 -76 -32 -81 -73s23 -73 63 -73c41 0 78 32 83 73zM442 589c5 41 -24 73 -65 73c-40 0 -76 -32 -81 -73s23 -73 63 -73c41 0 78 32 83 73zM401 246c5 41 -24 73 -65 73c-40 0 -76 -32 -81 -73s23 -73 63 -73c41 0 78 32 83 73zM178 77
c5 41 -24 73 -65 73c-40 0 -77 -32 -82 -73s24 -73 64 -73c41 0 78 32 83 73z" />
    <glyph glyph-name="degree" unicode="&#xb0;" 
d="M373 76c5 41 -24 73 -65 73c-40 0 -76 -32 -81 -73s23 -73 63 -73c41 0 78 32 83 73z" />
    <glyph glyph-name="plusminus" unicode="&#xb1;" 
d="M246 590c5 41 -24 73 -65 73c-40 0 -76 -32 -81 -73s23 -73 63 -73c41 0 78 32 83 73zM373 76c5 41 -24 73 -65 73c-40 0 -76 -32 -81 -73s23 -73 63 -73c41 0 78 32 83 73z" />
    <glyph glyph-name="uni00B2" unicode="&#xb2;" 
d="M373 76c5 41 -24 73 -65 73c-40 0 -76 -32 -81 -73s23 -73 63 -73c41 0 78 32 83 73zM225 419c5 41 -24 73 -65 73c-40 0 -76 -32 -81 -73s23 -73 63 -73c41 0 78 32 83 73z" />
    <glyph glyph-name="uni00B3" unicode="&#xb3;" 
d="M225 419c5 41 -24 73 -65 73c-40 0 -76 -32 -81 -73s23 -73 63 -73c41 0 78 32 83 73zM246 590c5 41 -24 73 -65 73c-40 0 -76 -32 -81 -73s23 -73 63 -73c41 0 78 32 83 73zM373 76c5 41 -24 73 -65 73c-40 0 -76 -32 -81 -73s23 -73 63 -73c41 0 78 32 83 73z" />
    <glyph glyph-name="mu" unicode="&#xb5;" 
d="M205 247c5 41 -24 73 -65 73c-40 0 -76 -32 -81 -73s23 -73 63 -73c41 0 78 32 83 73zM373 76c5 41 -24 73 -65 73c-40 0 -76 -32 -81 -73s23 -73 63 -73c41 0 78 32 83 73z" />
    <glyph glyph-name="paragraph" unicode="&#xb6;" 
d="M373 76c5 41 -24 73 -65 73c-40 0 -76 -32 -81 -73s23 -73 63 -73c41 0 78 32 83 73zM246 590c5 41 -24 73 -65 73c-40 0 -76 -32 -81 -73s23 -73 63 -73c41 0 78 32 83 73zM205 247c5 41 -24 73 -65 73c-40 0 -76 -32 -81 -73s23 -73 63 -73c41 0 78 32 83 73z" />
    <glyph glyph-name="periodcentered" unicode="&#xb7;" 
d="M225 419c5 41 -24 73 -65 73c-40 0 -76 -32 -81 -73s23 -73 63 -73c41 0 78 32 83 73zM205 247c5 41 -24 73 -65 73c-40 0 -76 -32 -81 -73s23 -73 63 -73c41 0 78 32 83 73zM373 76c5 41 -24 73 -65 73c-40 0 -76 -32 -81 -73s23 -73 63 -73c41 0 78 32 83 73z" />
    <glyph glyph-name="uni00B9" unicode="&#xb9;" 
d="M373 76c5 41 -24 73 -65 73c-40 0 -76 -32 -81 -73s23 -73 63 -73c41 0 78 32 83 73zM225 419c5 41 -24 73 -65 73c-40 0 -76 -32 -81 -73s23 -73 63 -73c41 0 78 32 83 73zM246 590c5 41 -24 73 -65 73c-40 0 -76 -32 -81 -73s23 -73 63 -73c41 0 78 32 83 73zM205 247
c5 41 -24 73 -65 73c-40 0 -76 -32 -81 -73s23 -73 63 -73c41 0 78 32 83 73z" />
    <glyph glyph-name="ordmasculine" unicode="&#xba;" 
d="M442 589c5 41 -24 73 -65 73c-40 0 -76 -32 -81 -73s23 -73 63 -73c41 0 78 32 83 73zM373 76c5 41 -24 73 -65 73c-40 0 -76 -32 -81 -73s23 -73 63 -73c41 0 78 32 83 73z" />
    <glyph glyph-name="guillemotright" unicode="&#xbb;" 
d="M373 76c5 41 -24 73 -65 73c-40 0 -76 -32 -81 -73s23 -73 63 -73c41 0 78 32 83 73zM246 590c5 41 -24 73 -65 73c-40 0 -76 -32 -81 -73s23 -73 63 -73c41 0 78 32 83 73zM442 589c5 41 -24 73 -65 73c-40 0 -76 -32 -81 -73s23 -73 63 -73c41 0 78 32 83 73z" />
    <glyph glyph-name="onequarter" unicode="&#xbc;" 
d="M373 76c5 41 -24 73 -65 73c-40 0 -76 -32 -81 -73s23 -73 63 -73c41 0 78 32 83 73zM225 419c5 41 -24 73 -65 73c-40 0 -76 -32 -81 -73s23 -73 63 -73c41 0 78 32 83 73zM246 590c5 41 -24 73 -65 73c-40 0 -76 -32 -81 -73s23 -73 63 -73c41 0 78 32 83 73zM442 589
c5 41 -24 73 -65 73c-40 0 -76 -32 -81 -73s23 -73 63 -73c41 0 78 32 83 73z" />
    <glyph glyph-name="onehalf" unicode="&#xbd;" 
d="M373 76c5 41 -24 73 -65 73c-40 0 -76 -32 -81 -73s23 -73 63 -73c41 0 78 32 83 73zM205 247c5 41 -24 73 -65 73c-40 0 -76 -32 -81 -73s23 -73 63 -73c41 0 78 32 83 73zM442 589c5 41 -24 73 -65 73c-40 0 -76 -32 -81 -73s23 -73 63 -73c41 0 78 32 83 73z" />
    <glyph glyph-name="threequarters" unicode="&#xbe;" 
d="M442 589c5 41 -24 73 -65 73c-40 0 -76 -32 -81 -73s23 -73 63 -73c41 0 78 32 83 73zM373 76c5 41 -24 73 -65 73c-40 0 -76 -32 -81 -73s23 -73 63 -73c41 0 78 32 83 73zM246 590c5 41 -24 73 -65 73c-40 0 -76 -32 -81 -73s23 -73 63 -73c41 0 78 32 83 73zM205 247
c5 41 -24 73 -65 73c-40 0 -76 -32 -81 -73s23 -73 63 -73c41 0 78 32 83 73z" />
    <glyph glyph-name="questiondown" unicode="&#xbf;" 
d="M373 76c5 41 -24 73 -65 73c-40 0 -76 -32 -81 -73s23 -73 63 -73c41 0 78 32 83 73zM225 419c5 41 -24 73 -65 73c-40 0 -76 -32 -81 -73s23 -73 63 -73c41 0 78 32 83 73zM205 247c5 41 -24 73 -65 73c-40 0 -76 -32 -81 -73s23 -73 63 -73c41 0 78 32 83 73zM442 589
c5 41 -24 73 -65 73c-40 0 -76 -32 -81 -73s23 -73 63 -73c41 0 78 32 83 73z" />
    <glyph glyph-name="Agrave" unicode="&#xc0;" 
d="M442 589c5 41 -24 73 -65 73c-40 0 -76 -32 -81 -73s23 -73 63 -73c41 0 78 32 83 73zM225 419c5 41 -24 73 -65 73c-40 0 -76 -32 -81 -73s23 -73 63 -73c41 0 78 32 83 73zM373 76c5 41 -24 73 -65 73c-40 0 -76 -32 -81 -73s23 -73 63 -73c41 0 78 32 83 73zM246 590
c5 41 -24 73 -65 73c-40 0 -76 -32 -81 -73s23 -73 63 -73c41 0 78 32 83 73zM205 247c5 41 -24 73 -65 73c-40 0 -76 -32 -81 -73s23 -73 63 -73c41 0 78 32 83 73z" />
    <glyph glyph-name="Aacute" unicode="&#xc1;" 
d="M421 418c5 41 -24 73 -65 73c-40 0 -76 -32 -81 -73s23 -73 63 -73c41 0 78 32 83 73zM373 76c5 41 -24 73 -65 73c-40 0 -76 -32 -81 -73s23 -73 63 -73c41 0 78 32 83 73z" />
    <glyph glyph-name="Acircumflex" unicode="&#xc2;" 
d="M373 76c5 41 -24 73 -65 73c-40 0 -76 -32 -81 -73s23 -73 63 -73c41 0 78 32 83 73zM246 590c5 41 -24 73 -65 73c-40 0 -76 -32 -81 -73s23 -73 63 -73c41 0 78 32 83 73zM421 418c5 41 -24 73 -65 73c-40 0 -76 -32 -81 -73s23 -73 63 -73c41 0 78 32 83 73z" />
    <glyph glyph-name="Atilde" unicode="&#xc3;" 
d="M225 419c5 41 -24 73 -65 73c-40 0 -76 -32 -81 -73s23 -73 63 -73c41 0 78 32 83 73zM421 418c5 41 -24 73 -65 73c-40 0 -76 -32 -81 -73s23 -73 63 -73c41 0 78 32 83 73zM373 76c5 41 -24 73 -65 73c-40 0 -76 -32 -81 -73s23 -73 63 -73c41 0 78 32 83 73z" />
    <glyph glyph-name="Adieresis" unicode="&#xc4;" 
d="M373 76c5 41 -24 73 -65 73c-40 0 -76 -32 -81 -73s23 -73 63 -73c41 0 78 32 83 73zM225 419c5 41 -24 73 -65 73c-40 0 -76 -32 -81 -73s23 -73 63 -73c41 0 78 32 83 73zM246 590c5 41 -24 73 -65 73c-40 0 -76 -32 -81 -73s23 -73 63 -73c41 0 78 32 83 73zM421 418
c5 41 -24 73 -65 73c-40 0 -76 -32 -81 -73s23 -73 63 -73c41 0 78 32 83 73z" />
    <glyph glyph-name="Aring" unicode="&#xc5;" 
d="M373 76c5 41 -24 73 -65 73c-40 0 -76 -32 -81 -73s23 -73 63 -73c41 0 78 32 83 73zM205 247c5 41 -24 73 -65 73c-40 0 -76 -32 -81 -73s23 -73 63 -73c41 0 78 32 83 73zM421 418c5 41 -24 73 -65 73c-40 0 -76 -32 -81 -73s23 -73 63 -73c41 0 78 32 83 73z" />
    <glyph glyph-name="AE" unicode="&#xc6;" 
d="M421 418c5 41 -24 73 -65 73c-40 0 -76 -32 -81 -73s23 -73 63 -73c41 0 78 32 83 73zM373 76c5 41 -24 73 -65 73c-40 0 -76 -32 -81 -73s23 -73 63 -73c41 0 78 32 83 73zM246 590c5 41 -24 73 -65 73c-40 0 -76 -32 -81 -73s23 -73 63 -73c41 0 78 32 83 73zM205 247
c5 41 -24 73 -65 73c-40 0 -76 -32 -81 -73s23 -73 63 -73c41 0 78 32 83 73z" />
    <glyph glyph-name="Ccedilla" unicode="&#xc7;" 
d="M373 76c5 41 -24 73 -65 73c-40 0 -76 -32 -81 -73s23 -73 63 -73c41 0 78 32 83 73zM225 419c5 41 -24 73 -65 73c-40 0 -76 -32 -81 -73s23 -73 63 -73c41 0 78 32 83 73zM205 247c5 41 -24 73 -65 73c-40 0 -76 -32 -81 -73s23 -73 63 -73c41 0 78 32 83 73zM421 418
c5 41 -24 73 -65 73c-40 0 -76 -32 -81 -73s23 -73 63 -73c41 0 78 32 83 73z" />
    <glyph glyph-name="Egrave" unicode="&#xc8;" 
d="M421 418c5 41 -24 73 -65 73c-40 0 -76 -32 -81 -73s23 -73 63 -73c41 0 78 32 83 73zM225 419c5 41 -24 73 -65 73c-40 0 -76 -32 -81 -73s23 -73 63 -73c41 0 78 32 83 73zM373 76c5 41 -24 73 -65 73c-40 0 -76 -32 -81 -73s23 -73 63 -73c41 0 78 32 83 73zM246 590
c5 41 -24 73 -65 73c-40 0 -76 -32 -81 -73s23 -73 63 -73c41 0 78 32 83 73zM205 247c5 41 -24 73 -65 73c-40 0 -76 -32 -81 -73s23 -73 63 -73c41 0 78 32 83 73z" />
    <glyph glyph-name="Eacute" unicode="&#xc9;" 
d="M373 76c5 41 -24 73 -65 73c-40 0 -76 -32 -81 -73s23 -73 63 -73c41 0 78 32 83 73zM442 589c5 41 -24 73 -65 73c-40 0 -76 -32 -81 -73s23 -73 63 -73c41 0 78 32 83 73zM421 418c5 41 -24 73 -65 73c-40 0 -76 -32 -81 -73s23 -73 63 -73c41 0 78 32 83 73z" />
    <glyph glyph-name="Ecircumflex" unicode="&#xca;" 
d="M421 418c5 41 -24 73 -65 73c-40 0 -76 -32 -81 -73s23 -73 63 -73c41 0 78 32 83 73zM373 76c5 41 -24 73 -65 73c-40 0 -76 -32 -81 -73s23 -73 63 -73c41 0 78 32 83 73zM246 590c5 41 -24 73 -65 73c-40 0 -76 -32 -81 -73s23 -73 63 -73c41 0 78 32 83 73zM442 589
c5 41 -24 73 -65 73c-40 0 -76 -32 -81 -73s23 -73 63 -73c41 0 78 32 83 73z" />
    <glyph glyph-name="Edieresis" unicode="&#xcb;" 
d="M373 76c5 41 -24 73 -65 73c-40 0 -76 -32 -81 -73s23 -73 63 -73c41 0 78 32 83 73zM225 419c5 41 -24 73 -65 73c-40 0 -76 -32 -81 -73s23 -73 63 -73c41 0 78 32 83 73zM442 589c5 41 -24 73 -65 73c-40 0 -76 -32 -81 -73s23 -73 63 -73c41 0 78 32 83 73zM421 418
c5 41 -24 73 -65 73c-40 0 -76 -32 -81 -73s23 -73 63 -73c41 0 78 32 83 73z" />
    <glyph glyph-name="Igrave" unicode="&#xcc;" 
d="M421 418c5 41 -24 73 -65 73c-40 0 -76 -32 -81 -73s23 -73 63 -73c41 0 78 32 83 73zM225 419c5 41 -24 73 -65 73c-40 0 -76 -32 -81 -73s23 -73 63 -73c41 0 78 32 83 73zM373 76c5 41 -24 73 -65 73c-40 0 -76 -32 -81 -73s23 -73 63 -73c41 0 78 32 83 73zM246 590
c5 41 -24 73 -65 73c-40 0 -76 -32 -81 -73s23 -73 63 -73c41 0 78 32 83 73zM442 589c5 41 -24 73 -65 73c-40 0 -76 -32 -81 -73s23 -73 63 -73c41 0 78 32 83 73z" />
    <glyph glyph-name="Iacute" unicode="&#xcd;" 
d="M421 418c5 41 -24 73 -65 73c-40 0 -76 -32 -81 -73s23 -73 63 -73c41 0 78 32 83 73zM373 76c5 41 -24 73 -65 73c-40 0 -76 -32 -81 -73s23 -73 63 -73c41 0 78 32 83 73zM205 247c5 41 -24 73 -65 73c-40 0 -76 -32 -81 -73s23 -73 63 -73c41 0 78 32 83 73zM442 589
c5 41 -24 73 -65 73c-40 0 -76 -32 -81 -73s23 -73 63 -73c41 0 78 32 83 73z" />
    <glyph glyph-name="Icircumflex" unicode="&#xce;" 
d="M442 589c5 41 -24 73 -65 73c-40 0 -76 -32 -81 -73s23 -73 63 -73c41 0 78 32 83 73zM421 418c5 41 -24 73 -65 73c-40 0 -76 -32 -81 -73s23 -73 63 -73c41 0 78 32 83 73zM373 76c5 41 -24 73 -65 73c-40 0 -76 -32 -81 -73s23 -73 63 -73c41 0 78 32 83 73zM246 590
c5 41 -24 73 -65 73c-40 0 -76 -32 -81 -73s23 -73 63 -73c41 0 78 32 83 73zM205 247c5 41 -24 73 -65 73c-40 0 -76 -32 -81 -73s23 -73 63 -73c41 0 78 32 83 73z" />
    <glyph glyph-name="Idieresis" unicode="&#xcf;" 
d="M421 418c5 41 -24 73 -65 73c-40 0 -76 -32 -81 -73s23 -73 63 -73c41 0 78 32 83 73zM225 419c5 41 -24 73 -65 73c-40 0 -76 -32 -81 -73s23 -73 63 -73c41 0 78 32 83 73zM373 76c5 41 -24 73 -65 73c-40 0 -76 -32 -81 -73s23 -73 63 -73c41 0 78 32 83 73zM205 247
c5 41 -24 73 -65 73c-40 0 -76 -32 -81 -73s23 -73 63 -73c41 0 78 32 83 73zM442 589c5 41 -24 73 -65 73c-40 0 -76 -32 -81 -73s23 -73 63 -73c41 0 78 32 83 73z" />
    <glyph glyph-name="Eth" unicode="&#xd0;" 
d="M442 589c5 41 -24 73 -65 73c-40 0 -76 -32 -81 -73s23 -73 63 -73c41 0 78 32 83 73zM225 419c5 41 -24 73 -65 73c-40 0 -76 -32 -81 -73s23 -73 63 -73c41 0 78 32 83 73zM421 418c5 41 -24 73 -65 73c-40 0 -76 -32 -81 -73s23 -73 63 -73c41 0 78 32 83 73zM373 76
c5 41 -24 73 -65 73c-40 0 -76 -32 -81 -73s23 -73 63 -73c41 0 78 32 83 73zM246 590c5 41 -24 73 -65 73c-40 0 -76 -32 -81 -73s23 -73 63 -73c41 0 78 32 83 73zM205 247c5 41 -24 73 -65 73c-40 0 -76 -32 -81 -73s23 -73 63 -73c41 0 78 32 83 73z" />
    <glyph glyph-name="Ntilde" unicode="&#xd1;" 
d="M373 76c5 41 -24 73 -65 73c-40 0 -76 -32 -81 -73s23 -73 63 -73c41 0 78 32 83 73zM401 246c5 41 -24 73 -65 73c-40 0 -76 -32 -81 -73s23 -73 63 -73c41 0 78 32 83 73z" />
    <glyph glyph-name="Ograve" unicode="&#xd2;" 
d="M401 246c5 41 -24 73 -65 73c-40 0 -76 -32 -81 -73s23 -73 63 -73c41 0 78 32 83 73zM246 590c5 41 -24 73 -65 73c-40 0 -76 -32 -81 -73s23 -73 63 -73c41 0 78 32 83 73zM373 76c5 41 -24 73 -65 73c-40 0 -76 -32 -81 -73s23 -73 63 -73c41 0 78 32 83 73z" />
    <glyph glyph-name="Oacute" unicode="&#xd3;" 
d="M401 246c5 41 -24 73 -65 73c-40 0 -76 -32 -81 -73s23 -73 63 -73c41 0 78 32 83 73zM373 76c5 41 -24 73 -65 73c-40 0 -76 -32 -81 -73s23 -73 63 -73c41 0 78 32 83 73zM225 419c5 41 -24 73 -65 73c-40 0 -76 -32 -81 -73s23 -73 63 -73c41 0 78 32 83 73z" />
    <glyph glyph-name="Ocircumflex" unicode="&#xd4;" 
d="M401 246c5 41 -24 73 -65 73c-40 0 -76 -32 -81 -73s23 -73 63 -73c41 0 78 32 83 73zM225 419c5 41 -24 73 -65 73c-40 0 -76 -32 -81 -73s23 -73 63 -73c41 0 78 32 83 73zM246 590c5 41 -24 73 -65 73c-40 0 -76 -32 -81 -73s23 -73 63 -73c41 0 78 32 83 73zM373 76
c5 41 -24 73 -65 73c-40 0 -76 -32 -81 -73s23 -73 63 -73c41 0 78 32 83 73z" />
    <glyph glyph-name="Otilde" unicode="&#xd5;" 
d="M401 246c5 41 -24 73 -65 73c-40 0 -76 -32 -81 -73s23 -73 63 -73c41 0 78 32 83 73zM205 247c5 41 -24 73 -65 73c-40 0 -76 -32 -81 -73s23 -73 63 -73c41 0 78 32 83 73zM373 76c5 41 -24 73 -65 73c-40 0 -76 -32 -81 -73s23 -73 63 -73c41 0 78 32 83 73z" />
    <glyph glyph-name="Odieresis" unicode="&#xd6;" 
d="M373 76c5 41 -24 73 -65 73c-40 0 -76 -32 -81 -73s23 -73 63 -73c41 0 78 32 83 73zM401 246c5 41 -24 73 -65 73c-40 0 -76 -32 -81 -73s23 -73 63 -73c41 0 78 32 83 73zM246 590c5 41 -24 73 -65 73c-40 0 -76 -32 -81 -73s23 -73 63 -73c41 0 78 32 83 73zM205 247
c5 41 -24 73 -65 73c-40 0 -76 -32 -81 -73s23 -73 63 -73c41 0 78 32 83 73z" />
    <glyph glyph-name="multiply" unicode="&#xd7;" 
d="M401 246c5 41 -24 73 -65 73c-40 0 -76 -32 -81 -73s23 -73 63 -73c41 0 78 32 83 73zM225 419c5 41 -24 73 -65 73c-40 0 -76 -32 -81 -73s23 -73 63 -73c41 0 78 32 83 73zM205 247c5 41 -24 73 -65 73c-40 0 -76 -32 -81 -73s23 -73 63 -73c41 0 78 32 83 73zM373 76
c5 41 -24 73 -65 73c-40 0 -76 -32 -81 -73s23 -73 63 -73c41 0 78 32 83 73z" />
    <glyph glyph-name="Oslash" unicode="&#xd8;" 
d="M401 246c5 41 -24 73 -65 73c-40 0 -76 -32 -81 -73s23 -73 63 -73c41 0 78 32 83 73zM225 419c5 41 -24 73 -65 73c-40 0 -76 -32 -81 -73s23 -73 63 -73c41 0 78 32 83 73zM373 76c5 41 -24 73 -65 73c-40 0 -76 -32 -81 -73s23 -73 63 -73c41 0 78 32 83 73zM246 590
c5 41 -24 73 -65 73c-40 0 -76 -32 -81 -73s23 -73 63 -73c41 0 78 32 83 73zM205 247c5 41 -24 73 -65 73c-40 0 -76 -32 -81 -73s23 -73 63 -73c41 0 78 32 83 73z" />
    <glyph glyph-name="Ugrave" unicode="&#xd9;" 
d="M401 246c5 41 -24 73 -65 73c-40 0 -76 -32 -81 -73s23 -73 63 -73c41 0 78 32 83 73zM442 589c5 41 -24 73 -65 73c-40 0 -76 -32 -81 -73s23 -73 63 -73c41 0 78 32 83 73zM373 76c5 41 -24 73 -65 73c-40 0 -76 -32 -81 -73s23 -73 63 -73c41 0 78 32 83 73z" />
    <glyph glyph-name="Uacute" unicode="&#xda;" 
d="M373 76c5 41 -24 73 -65 73c-40 0 -76 -32 -81 -73s23 -73 63 -73c41 0 78 32 83 73zM401 246c5 41 -24 73 -65 73c-40 0 -76 -32 -81 -73s23 -73 63 -73c41 0 78 32 83 73zM246 590c5 41 -24 73 -65 73c-40 0 -76 -32 -81 -73s23 -73 63 -73c41 0 78 32 83 73zM442 589
c5 41 -24 73 -65 73c-40 0 -76 -32 -81 -73s23 -73 63 -73c41 0 78 32 83 73z" />
    <glyph glyph-name="Ucircumflex" unicode="&#xdb;" 
d="M401 246c5 41 -24 73 -65 73c-40 0 -76 -32 -81 -73s23 -73 63 -73c41 0 78 32 83 73zM225 419c5 41 -24 73 -65 73c-40 0 -76 -32 -81 -73s23 -73 63 -73c41 0 78 32 83 73zM442 589c5 41 -24 73 -65 73c-40 0 -76 -32 -81 -73s23 -73 63 -73c41 0 78 32 83 73zM373 76
c5 41 -24 73 -65 73c-40 0 -76 -32 -81 -73s23 -73 63 -73c41 0 78 32 83 73z" />
    <glyph glyph-name="Udieresis" unicode="&#xdc;" 
d="M401 246c5 41 -24 73 -65 73c-40 0 -76 -32 -81 -73s23 -73 63 -73c41 0 78 32 83 73zM225 419c5 41 -24 73 -65 73c-40 0 -76 -32 -81 -73s23 -73 63 -73c41 0 78 32 83 73zM373 76c5 41 -24 73 -65 73c-40 0 -76 -32 -81 -73s23 -73 63 -73c41 0 78 32 83 73zM246 590
c5 41 -24 73 -65 73c-40 0 -76 -32 -81 -73s23 -73 63 -73c41 0 78 32 83 73zM442 589c5 41 -24 73 -65 73c-40 0 -76 -32 -81 -73s23 -73 63 -73c41 0 78 32 83 73z" />
    <glyph glyph-name="Yacute" unicode="&#xdd;" 
d="M373 76c5 41 -24 73 -65 73c-40 0 -76 -32 -81 -73s23 -73 63 -73c41 0 78 32 83 73zM401 246c5 41 -24 73 -65 73c-40 0 -76 -32 -81 -73s23 -73 63 -73c41 0 78 32 83 73zM205 247c5 41 -24 73 -65 73c-40 0 -76 -32 -81 -73s23 -73 63 -73c41 0 78 32 83 73zM442 589
c5 41 -24 73 -65 73c-40 0 -76 -32 -81 -73s23 -73 63 -73c41 0 78 32 83 73z" />
    <glyph glyph-name="Thorn" unicode="&#xde;" 
d="M442 589c5 41 -24 73 -65 73c-40 0 -76 -32 -81 -73s23 -73 63 -73c41 0 78 32 83 73zM401 246c5 41 -24 73 -65 73c-40 0 -76 -32 -81 -73s23 -73 63 -73c41 0 78 32 83 73zM373 76c5 41 -24 73 -65 73c-40 0 -76 -32 -81 -73s23 -73 63 -73c41 0 78 32 83 73zM246 590
c5 41 -24 73 -65 73c-40 0 -76 -32 -81 -73s23 -73 63 -73c41 0 78 32 83 73zM205 247c5 41 -24 73 -65 73c-40 0 -76 -32 -81 -73s23 -73 63 -73c41 0 78 32 83 73z" />
    <glyph glyph-name="germandbls" unicode="&#xdf;" 
d="M401 246c5 41 -24 73 -65 73c-40 0 -76 -32 -81 -73s23 -73 63 -73c41 0 78 32 83 73zM225 419c5 41 -24 73 -65 73c-40 0 -76 -32 -81 -73s23 -73 63 -73c41 0 78 32 83 73zM373 76c5 41 -24 73 -65 73c-40 0 -76 -32 -81 -73s23 -73 63 -73c41 0 78 32 83 73zM205 247
c5 41 -24 73 -65 73c-40 0 -76 -32 -81 -73s23 -73 63 -73c41 0 78 32 83 73zM442 589c5 41 -24 73 -65 73c-40 0 -76 -32 -81 -73s23 -73 63 -73c41 0 78 32 83 73z" />
    <glyph glyph-name="agrave" unicode="&#xe0;" 
d="M442 589c5 41 -24 73 -65 73c-40 0 -76 -32 -81 -73s23 -73 63 -73c41 0 78 32 83 73zM401 246c5 41 -24 73 -65 73c-40 0 -76 -32 -81 -73s23 -73 63 -73c41 0 78 32 83 73zM225 419c5 41 -24 73 -65 73c-40 0 -76 -32 -81 -73s23 -73 63 -73c41 0 78 32 83 73zM373 76
c5 41 -24 73 -65 73c-40 0 -76 -32 -81 -73s23 -73 63 -73c41 0 78 32 83 73zM246 590c5 41 -24 73 -65 73c-40 0 -76 -32 -81 -73s23 -73 63 -73c41 0 78 32 83 73zM205 247c5 41 -24 73 -65 73c-40 0 -76 -32 -81 -73s23 -73 63 -73c41 0 78 32 83 73z" />
    <glyph glyph-name="aacute" unicode="&#xe1;" 
d="M401 246c5 41 -24 73 -65 73c-40 0 -76 -32 -81 -73s23 -73 63 -73c41 0 78 32 83 73zM421 418c5 41 -24 73 -65 73c-40 0 -76 -32 -81 -73s23 -73 63 -73c41 0 78 32 83 73zM373 76c5 41 -24 73 -65 73c-40 0 -76 -32 -81 -73s23 -73 63 -73c41 0 78 32 83 73z" />
    <glyph glyph-name="acircumflex" unicode="&#xe2;" 
d="M373 76c5 41 -24 73 -65 73c-40 0 -76 -32 -81 -73s23 -73 63 -73c41 0 78 32 83 73zM401 246c5 41 -24 73 -65 73c-40 0 -76 -32 -81 -73s23 -73 63 -73c41 0 78 32 83 73zM246 590c5 41 -24 73 -65 73c-40 0 -76 -32 -81 -73s23 -73 63 -73c41 0 78 32 83 73zM421 418
c5 41 -24 73 -65 73c-40 0 -76 -32 -81 -73s23 -73 63 -73c41 0 78 32 83 73z" />
    <glyph glyph-name="atilde" unicode="&#xe3;" 
d="M401 246c5 41 -24 73 -65 73c-40 0 -76 -32 -81 -73s23 -73 63 -73c41 0 78 32 83 73zM225 419c5 41 -24 73 -65 73c-40 0 -76 -32 -81 -73s23 -73 63 -73c41 0 78 32 83 73zM421 418c5 41 -24 73 -65 73c-40 0 -76 -32 -81 -73s23 -73 63 -73c41 0 78 32 83 73zM373 76
c5 41 -24 73 -65 73c-40 0 -76 -32 -81 -73s23 -73 63 -73c41 0 78 32 83 73z" />
    <glyph glyph-name="adieresis" unicode="&#xe4;" 
d="M401 246c5 41 -24 73 -65 73c-40 0 -76 -32 -81 -73s23 -73 63 -73c41 0 78 32 83 73zM225 419c5 41 -24 73 -65 73c-40 0 -76 -32 -81 -73s23 -73 63 -73c41 0 78 32 83 73zM373 76c5 41 -24 73 -65 73c-40 0 -76 -32 -81 -73s23 -73 63 -73c41 0 78 32 83 73zM246 590
c5 41 -24 73 -65 73c-40 0 -76 -32 -81 -73s23 -73 63 -73c41 0 78 32 83 73zM421 418c5 41 -24 73 -65 73c-40 0 -76 -32 -81 -73s23 -73 63 -73c41 0 78 32 83 73z" />
    <glyph glyph-name="aring" unicode="&#xe5;" 
d="M373 76c5 41 -24 73 -65 73c-40 0 -76 -32 -81 -73s23 -73 63 -73c41 0 78 32 83 73zM401 246c5 41 -24 73 -65 73c-40 0 -76 -32 -81 -73s23 -73 63 -73c41 0 78 32 83 73zM205 247c5 41 -24 73 -65 73c-40 0 -76 -32 -81 -73s23 -73 63 -73c41 0 78 32 83 73zM421 418
c5 41 -24 73 -65 73c-40 0 -76 -32 -81 -73s23 -73 63 -73c41 0 78 32 83 73z" />
    <glyph glyph-name="ae" unicode="&#xe6;" 
d="M421 418c5 41 -24 73 -65 73c-40 0 -76 -32 -81 -73s23 -73 63 -73c41 0 78 32 83 73zM401 246c5 41 -24 73 -65 73c-40 0 -76 -32 -81 -73s23 -73 63 -73c41 0 78 32 83 73zM373 76c5 41 -24 73 -65 73c-40 0 -76 -32 -81 -73s23 -73 63 -73c41 0 78 32 83 73zM246 590
c5 41 -24 73 -65 73c-40 0 -76 -32 -81 -73s23 -73 63 -73c41 0 78 32 83 73zM205 247c5 41 -24 73 -65 73c-40 0 -76 -32 -81 -73s23 -73 63 -73c41 0 78 32 83 73z" />
    <glyph glyph-name="ccedilla" unicode="&#xe7;" 
d="M401 246c5 41 -24 73 -65 73c-40 0 -76 -32 -81 -73s23 -73 63 -73c41 0 78 32 83 73zM225 419c5 41 -24 73 -65 73c-40 0 -76 -32 -81 -73s23 -73 63 -73c41 0 78 32 83 73zM373 76c5 41 -24 73 -65 73c-40 0 -76 -32 -81 -73s23 -73 63 -73c41 0 78 32 83 73zM205 247
c5 41 -24 73 -65 73c-40 0 -76 -32 -81 -73s23 -73 63 -73c41 0 78 32 83 73zM421 418c5 41 -24 73 -65 73c-40 0 -76 -32 -81 -73s23 -73 63 -73c41 0 78 32 83 73z" />
    <glyph glyph-name="egrave" unicode="&#xe8;" 
d="M401 246c5 41 -24 73 -65 73c-40 0 -76 -32 -81 -73s23 -73 63 -73c41 0 78 32 83 73zM225 419c5 41 -24 73 -65 73c-40 0 -76 -32 -81 -73s23 -73 63 -73c41 0 78 32 83 73zM421 418c5 41 -24 73 -65 73c-40 0 -76 -32 -81 -73s23 -73 63 -73c41 0 78 32 83 73zM373 76
c5 41 -24 73 -65 73c-40 0 -76 -32 -81 -73s23 -73 63 -73c41 0 78 32 83 73zM246 590c5 41 -24 73 -65 73c-40 0 -76 -32 -81 -73s23 -73 63 -73c41 0 78 32 83 73zM205 247c5 41 -24 73 -65 73c-40 0 -76 -32 -81 -73s23 -73 63 -73c41 0 78 32 83 73z" />
    <glyph glyph-name="eacute" unicode="&#xe9;" 
d="M373 76c5 41 -24 73 -65 73c-40 0 -76 -32 -81 -73s23 -73 63 -73c41 0 78 32 83 73zM401 246c5 41 -24 73 -65 73c-40 0 -76 -32 -81 -73s23 -73 63 -73c41 0 78 32 83 73zM442 589c5 41 -24 73 -65 73c-40 0 -76 -32 -81 -73s23 -73 63 -73c41 0 78 32 83 73zM421 418
c5 41 -24 73 -65 73c-40 0 -76 -32 -81 -73s23 -73 63 -73c41 0 78 32 83 73z" />
    <glyph glyph-name="ecircumflex" unicode="&#xea;" 
d="M421 418c5 41 -24 73 -65 73c-40 0 -76 -32 -81 -73s23 -73 63 -73c41 0 78 32 83 73zM401 246c5 41 -24 73 -65 73c-40 0 -76 -32 -81 -73s23 -73 63 -73c41 0 78 32 83 73zM373 76c5 41 -24 73 -65 73c-40 0 -76 -32 -81 -73s23 -73 63 -73c41 0 78 32 83 73zM246 590
c5 41 -24 73 -65 73c-40 0 -76 -32 -81 -73s23 -73 63 -73c41 0 78 32 83 73zM442 589c5 41 -24 73 -65 73c-40 0 -76 -32 -81 -73s23 -73 63 -73c41 0 78 32 83 73z" />
    <glyph glyph-name="edieresis" unicode="&#xeb;" 
d="M401 246c5 41 -24 73 -65 73c-40 0 -76 -32 -81 -73s23 -73 63 -73c41 0 78 32 83 73zM225 419c5 41 -24 73 -65 73c-40 0 -76 -32 -81 -73s23 -73 63 -73c41 0 78 32 83 73zM373 76c5 41 -24 73 -65 73c-40 0 -76 -32 -81 -73s23 -73 63 -73c41 0 78 32 83 73zM442 589
c5 41 -24 73 -65 73c-40 0 -76 -32 -81 -73s23 -73 63 -73c41 0 78 32 83 73zM421 418c5 41 -24 73 -65 73c-40 0 -76 -32 -81 -73s23 -73 63 -73c41 0 78 32 83 73z" />
    <glyph glyph-name="igrave" unicode="&#xec;" 
d="M401 246c5 41 -24 73 -65 73c-40 0 -76 -32 -81 -73s23 -73 63 -73c41 0 78 32 83 73zM225 419c5 41 -24 73 -65 73c-40 0 -76 -32 -81 -73s23 -73 63 -73c41 0 78 32 83 73zM421 418c5 41 -24 73 -65 73c-40 0 -76 -32 -81 -73s23 -73 63 -73c41 0 78 32 83 73zM373 76
c5 41 -24 73 -65 73c-40 0 -76 -32 -81 -73s23 -73 63 -73c41 0 78 32 83 73zM246 590c5 41 -24 73 -65 73c-40 0 -76 -32 -81 -73s23 -73 63 -73c41 0 78 32 83 73zM442 589c5 41 -24 73 -65 73c-40 0 -76 -32 -81 -73s23 -73 63 -73c41 0 78 32 83 73z" />
    <glyph glyph-name="iacute" unicode="&#xed;" 
d="M421 418c5 41 -24 73 -65 73c-40 0 -76 -32 -81 -73s23 -73 63 -73c41 0 78 32 83 73zM401 246c5 41 -24 73 -65 73c-40 0 -76 -32 -81 -73s23 -73 63 -73c41 0 78 32 83 73zM373 76c5 41 -24 73 -65 73c-40 0 -76 -32 -81 -73s23 -73 63 -73c41 0 78 32 83 73zM205 247
c5 41 -24 73 -65 73c-40 0 -76 -32 -81 -73s23 -73 63 -73c41 0 78 32 83 73zM442 589c5 41 -24 73 -65 73c-40 0 -76 -32 -81 -73s23 -73 63 -73c41 0 78 32 83 73z" />
    <glyph glyph-name="icircumflex" unicode="&#xee;" 
d="M442 589c5 41 -24 73 -65 73c-40 0 -76 -32 -81 -73s23 -73 63 -73c41 0 78 32 83 73zM401 246c5 41 -24 73 -65 73c-40 0 -76 -32 -81 -73s23 -73 63 -73c41 0 78 32 83 73zM421 418c5 41 -24 73 -65 73c-40 0 -76 -32 -81 -73s23 -73 63 -73c41 0 78 32 83 73zM373 76
c5 41 -24 73 -65 73c-40 0 -76 -32 -81 -73s23 -73 63 -73c41 0 78 32 83 73zM246 590c5 41 -24 73 -65 73c-40 0 -76 -32 -81 -73s23 -73 63 -73c41 0 78 32 83 73zM205 247c5 41 -24 73 -65 73c-40 0 -76 -32 -81 -73s23 -73 63 -73c41 0 78 32 83 73z" />
    <glyph glyph-name="idieresis" unicode="&#xef;" 
d="M401 246c5 41 -24 73 -65 73c-40 0 -76 -32 -81 -73s23 -73 63 -73c41 0 78 32 83 73zM225 419c5 41 -24 73 -65 73c-40 0 -76 -32 -81 -73s23 -73 63 -73c41 0 78 32 83 73zM421 418c5 41 -24 73 -65 73c-40 0 -76 -32 -81 -73s23 -73 63 -73c41 0 78 32 83 73zM373 76
c5 41 -24 73 -65 73c-40 0 -76 -32 -81 -73s23 -73 63 -73c41 0 78 32 83 73zM205 247c5 41 -24 73 -65 73c-40 0 -76 -32 -81 -73s23 -73 63 -73c41 0 78 32 83 73zM442 589c5 41 -24 73 -65 73c-40 0 -76 -32 -81 -73s23 -73 63 -73c41 0 78 32 83 73z" />
    <glyph glyph-name="eth" unicode="&#xf0;" 
d="M401 246c5 41 -24 73 -65 73c-40 0 -76 -32 -81 -73s23 -73 63 -73c41 0 78 32 83 73zM225 419c5 41 -24 73 -65 73c-40 0 -76 -32 -81 -73s23 -73 63 -73c41 0 78 32 83 73zM421 418c5 41 -24 73 -65 73c-40 0 -76 -32 -81 -73s23 -73 63 -73c41 0 78 32 83 73zM442 589
c5 41 -24 73 -65 73c-40 0 -76 -32 -81 -73s23 -73 63 -73c41 0 78 32 83 73zM373 76c5 41 -24 73 -65 73c-40 0 -76 -32 -81 -73s23 -73 63 -73c41 0 78 32 83 73zM246 590c5 41 -24 73 -65 73c-40 0 -76 -32 -81 -73s23 -73 63 -73c41 0 78 32 83 73zM205 247
c5 41 -24 73 -65 73c-40 0 -76 -32 -81 -73s23 -73 63 -73c41 0 78 32 83 73z" />
    <glyph glyph-name="ntilde" unicode="&#xf1;" 
d="M373 76c5 41 -24 73 -65 73c-40 0 -76 -32 -81 -73s23 -73 63 -73c41 0 78 32 83 73zM178 77c5 41 -24 73 -65 73c-40 0 -77 -32 -82 -73s24 -73 64 -73c41 0 78 32 83 73z" />
    <glyph glyph-name="ograve" unicode="&#xf2;" 
d="M373 76c5 41 -24 73 -65 73c-40 0 -76 -32 -81 -73s23 -73 63 -73c41 0 78 32 83 73zM246 590c5 41 -24 73 -65 73c-40 0 -76 -32 -81 -73s23 -73 63 -73c41 0 78 32 83 73zM178 77c5 41 -24 73 -65 73c-40 0 -77 -32 -82 -73s24 -73 64 -73c41 0 78 32 83 73z" />
    <glyph glyph-name="oacute" unicode="&#xf3;" 
d="M225 419c5 41 -24 73 -65 73c-40 0 -76 -32 -81 -73s23 -73 63 -73c41 0 78 32 83 73zM373 76c5 41 -24 73 -65 73c-40 0 -76 -32 -81 -73s23 -73 63 -73c41 0 78 32 83 73zM178 77c5 41 -24 73 -65 73c-40 0 -77 -32 -82 -73s24 -73 64 -73c41 0 78 32 83 73z" />
    <glyph glyph-name="ocircumflex" unicode="&#xf4;" 
d="M246 590c5 41 -24 73 -65 73c-40 0 -76 -32 -81 -73s23 -73 63 -73c41 0 78 32 83 73zM225 419c5 41 -24 73 -65 73c-40 0 -76 -32 -81 -73s23 -73 63 -73c41 0 78 32 83 73zM373 76c5 41 -24 73 -65 73c-40 0 -76 -32 -81 -73s23 -73 63 -73c41 0 78 32 83 73zM178 77
c5 41 -24 73 -65 73c-40 0 -77 -32 -82 -73s24 -73 64 -73c41 0 78 32 83 73z" />
    <glyph glyph-name="otilde" unicode="&#xf5;" 
d="M373 76c5 41 -24 73 -65 73c-40 0 -76 -32 -81 -73s23 -73 63 -73c41 0 78 32 83 73zM205 247c5 41 -24 73 -65 73c-40 0 -76 -32 -81 -73s23 -73 63 -73c41 0 78 32 83 73zM178 77c5 41 -24 73 -65 73c-40 0 -77 -32 -82 -73s24 -73 64 -73c41 0 78 32 83 73z" />
    <glyph glyph-name="odieresis" unicode="&#xf6;" 
d="M246 590c5 41 -24 73 -65 73c-40 0 -76 -32 -81 -73s23 -73 63 -73c41 0 78 32 83 73zM373 76c5 41 -24 73 -65 73c-40 0 -76 -32 -81 -73s23 -73 63 -73c41 0 78 32 83 73zM205 247c5 41 -24 73 -65 73c-40 0 -76 -32 -81 -73s23 -73 63 -73c41 0 78 32 83 73zM178 77
c5 41 -24 73 -65 73c-40 0 -77 -32 -82 -73s24 -73 64 -73c41 0 78 32 83 73z" />
    <glyph glyph-name="divide" unicode="&#xf7;" 
d="M205 247c5 41 -24 73 -65 73c-40 0 -76 -32 -81 -73s23 -73 63 -73c41 0 78 32 83 73zM225 419c5 41 -24 73 -65 73c-40 0 -76 -32 -81 -73s23 -73 63 -73c41 0 78 32 83 73zM373 76c5 41 -24 73 -65 73c-40 0 -76 -32 -81 -73s23 -73 63 -73c41 0 78 32 83 73zM178 77
c5 41 -24 73 -65 73c-40 0 -77 -32 -82 -73s24 -73 64 -73c41 0 78 32 83 73z" />
    <glyph glyph-name="oslash" unicode="&#xf8;" 
d="M246 590c5 41 -24 73 -65 73c-40 0 -76 -32 -81 -73s23 -73 63 -73c41 0 78 32 83 73zM225 419c5 41 -24 73 -65 73c-40 0 -76 -32 -81 -73s23 -73 63 -73c41 0 78 32 83 73zM373 76c5 41 -24 73 -65 73c-40 0 -76 -32 -81 -73s23 -73 63 -73c41 0 78 32 83 73zM205 247
c5 41 -24 73 -65 73c-40 0 -76 -32 -81 -73s23 -73 63 -73c41 0 78 32 83 73zM178 77c5 41 -24 73 -65 73c-40 0 -77 -32 -82 -73s24 -73 64 -73c41 0 78 32 83 73z" />
    <glyph glyph-name="ugrave" unicode="&#xf9;" 
d="M246 590c5 41 -24 73 -65 73c-40 0 -76 -32 -81 -73s23 -73 63 -73c41 0 78 32 83 73zM225 419c5 41 -24 73 -65 73c-40 0 -76 -32 -81 -73s23 -73 63 -73c41 0 78 32 83 73zM373 76c5 41 -24 73 -65 73c-40 0 -76 -32 -81 -73s23 -73 63 -73c41 0 78 32 83 73zM442 589
c5 41 -24 73 -65 73c-40 0 -76 -32 -81 -73s23 -73 63 -73c41 0 78 32 83 73zM178 77c5 41 -24 73 -65 73c-40 0 -77 -32 -82 -73s24 -73 64 -73c41 0 78 32 83 73z" />
    <glyph glyph-name="uacute" unicode="&#xfa;" 
d="M205 247c5 41 -24 73 -65 73c-40 0 -76 -32 -81 -73s23 -73 63 -73c41 0 78 32 83 73zM373 76c5 41 -24 73 -65 73c-40 0 -76 -32 -81 -73s23 -73 63 -73c41 0 78 32 83 73zM442 589c5 41 -24 73 -65 73c-40 0 -76 -32 -81 -73s23 -73 63 -73c41 0 78 32 83 73zM178 77
c5 41 -24 73 -65 73c-40 0 -77 -32 -82 -73s24 -73 64 -73c41 0 78 32 83 73z" />
    <glyph glyph-name="ucircumflex" unicode="&#xfb;" 
d="M246 590c5 41 -24 73 -65 73c-40 0 -76 -32 -81 -73s23 -73 63 -73c41 0 78 32 83 73zM442 589c5 41 -24 73 -65 73c-40 0 -76 -32 -81 -73s23 -73 63 -73c41 0 78 32 83 73zM373 76c5 41 -24 73 -65 73c-40 0 -76 -32 -81 -73s23 -73 63 -73c41 0 78 32 83 73zM205 247
c5 41 -24 73 -65 73c-40 0 -76 -32 -81 -73s23 -73 63 -73c41 0 78 32 83 73zM178 77c5 41 -24 73 -65 73c-40 0 -77 -32 -82 -73s24 -73 64 -73c41 0 78 32 83 73z" />
    <glyph glyph-name="udieresis" unicode="&#xfc;" 
d="M205 247c5 41 -24 73 -65 73c-40 0 -76 -32 -81 -73s23 -73 63 -73c41 0 78 32 83 73zM225 419c5 41 -24 73 -65 73c-40 0 -76 -32 -81 -73s23 -73 63 -73c41 0 78 32 83 73zM373 76c5 41 -24 73 -65 73c-40 0 -76 -32 -81 -73s23 -73 63 -73c41 0 78 32 83 73zM442 589
c5 41 -24 73 -65 73c-40 0 -76 -32 -81 -73s23 -73 63 -73c41 0 78 32 83 73zM178 77c5 41 -24 73 -65 73c-40 0 -77 -32 -82 -73s24 -73 64 -73c41 0 78 32 83 73z" />
    <glyph glyph-name="yacute" unicode="&#xfd;" 
d="M205 247c5 41 -24 73 -65 73c-40 0 -76 -32 -81 -73s23 -73 63 -73c41 0 78 32 83 73zM246 590c5 41 -24 73 -65 73c-40 0 -76 -32 -81 -73s23 -73 63 -73c41 0 78 32 83 73zM225 419c5 41 -24 73 -65 73c-40 0 -76 -32 -81 -73s23 -73 63 -73c41 0 78 32 83 73zM373 76
c5 41 -24 73 -65 73c-40 0 -76 -32 -81 -73s23 -73 63 -73c41 0 78 32 83 73zM442 589c5 41 -24 73 -65 73c-40 0 -76 -32 -81 -73s23 -73 63 -73c41 0 78 32 83 73zM178 77c5 41 -24 73 -65 73c-40 0 -77 -32 -82 -73s24 -73 64 -73c41 0 78 32 83 73z" />
    <glyph glyph-name="thorn" unicode="&#xfe;" 
d="M373 76c5 41 -24 73 -65 73c-40 0 -76 -32 -81 -73s23 -73 63 -73c41 0 78 32 83 73zM421 418c5 41 -24 73 -65 73c-40 0 -76 -32 -81 -73s23 -73 63 -73c41 0 78 32 83 73zM178 77c5 41 -24 73 -65 73c-40 0 -77 -32 -82 -73s24 -73 64 -73c41 0 78 32 83 73z" />
    <glyph glyph-name="ydieresis" unicode="&#xff;" 
d="M246 590c5 41 -24 73 -65 73c-40 0 -76 -32 -81 -73s23 -73 63 -73c41 0 78 32 83 73zM373 76c5 41 -24 73 -65 73c-40 0 -76 -32 -81 -73s23 -73 63 -73c41 0 78 32 83 73zM421 418c5 41 -24 73 -65 73c-40 0 -76 -32 -81 -73s23 -73 63 -73c41 0 78 32 83 73zM178 77
c5 41 -24 73 -65 73c-40 0 -77 -32 -82 -73s24 -73 64 -73c41 0 78 32 83 73z" />
    <glyph glyph-name="space" unicode=" " 
 />
  </font>
</defs>
</svg>
