<?xml version="1.0" standalone="no"?>
<!DOCTYPE svg PUBLIC "-//W3C//DTD SVG 1.1//EN" "http://www.w3.org/Graphics/SVG/1.1/DTD/svg11.dtd" >
<svg xmlns="http://www.w3.org/2000/svg" xmlns:xlink="http://www.w3.org/1999/xlink" version="1.1">
<metadata>
Created by FontForge 20170921 at Sat Aug 11 12:21:41 2018
 By Dr. Simon Antony Xaies
(c) Chronolabs Cooperative. 2007-2018
</metadata>
<defs>
<font id="ChronolabsCooperativeBookSixDotBraille" horiz-adv-x="740" >
  <font-face 
    font-family="Braille"
    font-weight="400"
    font-stretch="normal"
    units-per-em="1024"
    panose-1="0 1 1 9 6 1 1 1 1 3"
    ascent="819"
    descent="-205"
    x-height="423"
    cap-height="423"
    bbox="142 -33 598 699"
    underline-thickness="12"
    underline-position="-55"
    unicode-range="U+0020-00A0"
  />
<missing-glyph 
d="M142 0h456v699h-456v-699zM162 20v659h416v-659h-416z" />
    <glyph glyph-name=".notdef" 
d="M142 0h456v699h-456v-699zM162 20v659h416v-659h-416z" />
    <glyph glyph-name="glyph1" horiz-adv-x="0" 
 />
    <glyph glyph-name="space" unicode=" " 
 />
    <glyph glyph-name="glyph3" 
d="M232 519q-36 0 -63 27t-27 63t27 63t63 27t63 -27t27 -63t-27 -63t-63 -27z" />
    <glyph glyph-name="glyph4" 
d="M232 243q-36 0 -63 27t-27 63t27 63t63 27t63 -27t27 -63t-27 -63t-63 -27z" />
    <glyph glyph-name="glyph5" 
d="M232 -33q-36 0 -63 27t-27 63t27 63t63 27t63 -27t27 -63t-27 -63t-63 -27z" />
    <glyph glyph-name="glyph6" 
d="M508 519q-36 0 -63 27t-27 63t27 63t63 27t63 -27t27 -63t-27 -63t-63 -27z" />
    <glyph glyph-name="glyph7" 
d="M508 243q-36 0 -63 27t-27 63t27 63t63 27t63 -27t27 -63t-27 -63t-63 -27z" />
    <glyph glyph-name="glyph8" 
d="M508 -33q-36 0 -63 27t-27 63t27 63t63 27t63 -27t27 -63t-27 -63t-63 -27z" />
    <glyph glyph-name="glyph9" 
d="M232 580q-11 0 -20 9t-9 20t9 20t20 9t20 -9t9 -20t-9 -20t-20 -9z" />
    <glyph glyph-name="glyph10" 
d="M232 304q-11 0 -20 9t-9 20t9 20t20 9t20 -9t9 -20t-9 -20t-20 -9z" />
    <glyph glyph-name="glyph11" 
d="M232 28q-11 0 -20 9t-9 20t9 20t20 9t20 -9t9 -20t-9 -20t-20 -9z" />
    <glyph glyph-name="glyph12" 
d="M508 580q-11 0 -20 9t-9 20t9 20t20 9t20 -9t9 -20t-9 -20t-20 -9z" />
    <glyph glyph-name="glyph13" 
d="M508 304q-11 0 -20 9t-9 20t9 20t20 9t20 -9t9 -20t-9 -20t-20 -9z" />
    <glyph glyph-name="glyph14" 
d="M508 28q-11 0 -20 9t-9 20t9 20t20 9t20 -9t9 -20t-9 -20t-20 -9z" />
    <glyph glyph-name="a" unicode="a" 
d="M232 519q-36 0 -63 27t-27 63t27 63t63 27t63 -27t27 -63t-27 -63t-63 -27zM232 304q-11 0 -20 9t-9 20t9 20t20 9t20 -9t9 -20t-9 -20t-20 -9zM232 28q-11 0 -20 9t-9 20t9 20t20 9t20 -9t9 -20t-9 -20t-20 -9zM508 580q-11 0 -20 9t-9 20t9 20t20 9t20 -9t9 -20t-9 -20
t-20 -9zM508 304q-11 0 -20 9t-9 20t9 20t20 9t20 -9t9 -20t-9 -20t-20 -9zM508 28q-11 0 -20 9t-9 20t9 20t20 9t20 -9t9 -20t-9 -20t-20 -9z" />
    <glyph glyph-name="a" unicode="&#x2219;" 
d="M232 519q-36 0 -63 27t-27 63t27 63t63 27t63 -27t27 -63t-27 -63t-63 -27zM232 304q-11 0 -20 9t-9 20t9 20t20 9t20 -9t9 -20t-9 -20t-20 -9zM232 28q-11 0 -20 9t-9 20t9 20t20 9t20 -9t9 -20t-9 -20t-20 -9zM508 580q-11 0 -20 9t-9 20t9 20t20 9t20 -9t9 -20t-9 -20
t-20 -9zM508 304q-11 0 -20 9t-9 20t9 20t20 9t20 -9t9 -20t-9 -20t-20 -9zM508 28q-11 0 -20 9t-9 20t9 20t20 9t20 -9t9 -20t-9 -20t-20 -9z" />
    <glyph glyph-name="a" unicode="&#x2122;" 
d="M232 519q-36 0 -63 27t-27 63t27 63t63 27t63 -27t27 -63t-27 -63t-63 -27zM232 304q-11 0 -20 9t-9 20t9 20t20 9t20 -9t9 -20t-9 -20t-20 -9zM232 28q-11 0 -20 9t-9 20t9 20t20 9t20 -9t9 -20t-9 -20t-20 -9zM508 580q-11 0 -20 9t-9 20t9 20t20 9t20 -9t9 -20t-9 -20
t-20 -9zM508 304q-11 0 -20 9t-9 20t9 20t20 9t20 -9t9 -20t-9 -20t-20 -9zM508 28q-11 0 -20 9t-9 20t9 20t20 9t20 -9t9 -20t-9 -20t-20 -9z" />
    <glyph glyph-name="a" unicode="&#x203a;" 
d="M232 519q-36 0 -63 27t-27 63t27 63t63 27t63 -27t27 -63t-27 -63t-63 -27zM232 304q-11 0 -20 9t-9 20t9 20t20 9t20 -9t9 -20t-9 -20t-20 -9zM232 28q-11 0 -20 9t-9 20t9 20t20 9t20 -9t9 -20t-9 -20t-20 -9zM508 580q-11 0 -20 9t-9 20t9 20t20 9t20 -9t9 -20t-9 -20
t-20 -9zM508 304q-11 0 -20 9t-9 20t9 20t20 9t20 -9t9 -20t-9 -20t-20 -9zM508 28q-11 0 -20 9t-9 20t9 20t20 9t20 -9t9 -20t-9 -20t-20 -9z" />
    <glyph glyph-name="a" unicode="&#x2039;" 
d="M232 519q-36 0 -63 27t-27 63t27 63t63 27t63 -27t27 -63t-27 -63t-63 -27zM232 304q-11 0 -20 9t-9 20t9 20t20 9t20 -9t9 -20t-9 -20t-20 -9zM232 28q-11 0 -20 9t-9 20t9 20t20 9t20 -9t9 -20t-9 -20t-20 -9zM508 580q-11 0 -20 9t-9 20t9 20t20 9t20 -9t9 -20t-9 -20
t-20 -9zM508 304q-11 0 -20 9t-9 20t9 20t20 9t20 -9t9 -20t-9 -20t-20 -9zM508 28q-11 0 -20 9t-9 20t9 20t20 9t20 -9t9 -20t-9 -20t-20 -9z" />
    <glyph glyph-name="a" unicode="&#x2030;" 
d="M232 519q-36 0 -63 27t-27 63t27 63t63 27t63 -27t27 -63t-27 -63t-63 -27zM232 304q-11 0 -20 9t-9 20t9 20t20 9t20 -9t9 -20t-9 -20t-20 -9zM232 28q-11 0 -20 9t-9 20t9 20t20 9t20 -9t9 -20t-9 -20t-20 -9zM508 580q-11 0 -20 9t-9 20t9 20t20 9t20 -9t9 -20t-9 -20
t-20 -9zM508 304q-11 0 -20 9t-9 20t9 20t20 9t20 -9t9 -20t-9 -20t-20 -9zM508 28q-11 0 -20 9t-9 20t9 20t20 9t20 -9t9 -20t-9 -20t-20 -9z" />
    <glyph glyph-name="a" unicode="&#x2026;" 
d="M232 519q-36 0 -63 27t-27 63t27 63t63 27t63 -27t27 -63t-27 -63t-63 -27zM232 304q-11 0 -20 9t-9 20t9 20t20 9t20 -9t9 -20t-9 -20t-20 -9zM232 28q-11 0 -20 9t-9 20t9 20t20 9t20 -9t9 -20t-9 -20t-20 -9zM508 580q-11 0 -20 9t-9 20t9 20t20 9t20 -9t9 -20t-9 -20
t-20 -9zM508 304q-11 0 -20 9t-9 20t9 20t20 9t20 -9t9 -20t-9 -20t-20 -9zM508 28q-11 0 -20 9t-9 20t9 20t20 9t20 -9t9 -20t-9 -20t-20 -9z" />
    <glyph glyph-name="a" unicode="&#x2022;" 
d="M232 519q-36 0 -63 27t-27 63t27 63t63 27t63 -27t27 -63t-27 -63t-63 -27zM232 304q-11 0 -20 9t-9 20t9 20t20 9t20 -9t9 -20t-9 -20t-20 -9zM232 28q-11 0 -20 9t-9 20t9 20t20 9t20 -9t9 -20t-9 -20t-20 -9zM508 580q-11 0 -20 9t-9 20t9 20t20 9t20 -9t9 -20t-9 -20
t-20 -9zM508 304q-11 0 -20 9t-9 20t9 20t20 9t20 -9t9 -20t-9 -20t-20 -9zM508 28q-11 0 -20 9t-9 20t9 20t20 9t20 -9t9 -20t-9 -20t-20 -9z" />
    <glyph glyph-name="a" unicode="&#x2021;" 
d="M232 519q-36 0 -63 27t-27 63t27 63t63 27t63 -27t27 -63t-27 -63t-63 -27zM232 304q-11 0 -20 9t-9 20t9 20t20 9t20 -9t9 -20t-9 -20t-20 -9zM232 28q-11 0 -20 9t-9 20t9 20t20 9t20 -9t9 -20t-9 -20t-20 -9zM508 580q-11 0 -20 9t-9 20t9 20t20 9t20 -9t9 -20t-9 -20
t-20 -9zM508 304q-11 0 -20 9t-9 20t9 20t20 9t20 -9t9 -20t-9 -20t-20 -9zM508 28q-11 0 -20 9t-9 20t9 20t20 9t20 -9t9 -20t-9 -20t-20 -9z" />
    <glyph glyph-name="a" unicode="&#x2020;" 
d="M232 519q-36 0 -63 27t-27 63t27 63t63 27t63 -27t27 -63t-27 -63t-63 -27zM232 304q-11 0 -20 9t-9 20t9 20t20 9t20 -9t9 -20t-9 -20t-20 -9zM232 28q-11 0 -20 9t-9 20t9 20t20 9t20 -9t9 -20t-9 -20t-20 -9zM508 580q-11 0 -20 9t-9 20t9 20t20 9t20 -9t9 -20t-9 -20
t-20 -9zM508 304q-11 0 -20 9t-9 20t9 20t20 9t20 -9t9 -20t-9 -20t-20 -9zM508 28q-11 0 -20 9t-9 20t9 20t20 9t20 -9t9 -20t-9 -20t-20 -9z" />
    <glyph glyph-name="a" unicode="&#x201e;" 
d="M232 519q-36 0 -63 27t-27 63t27 63t63 27t63 -27t27 -63t-27 -63t-63 -27zM232 304q-11 0 -20 9t-9 20t9 20t20 9t20 -9t9 -20t-9 -20t-20 -9zM232 28q-11 0 -20 9t-9 20t9 20t20 9t20 -9t9 -20t-9 -20t-20 -9zM508 580q-11 0 -20 9t-9 20t9 20t20 9t20 -9t9 -20t-9 -20
t-20 -9zM508 304q-11 0 -20 9t-9 20t9 20t20 9t20 -9t9 -20t-9 -20t-20 -9zM508 28q-11 0 -20 9t-9 20t9 20t20 9t20 -9t9 -20t-9 -20t-20 -9z" />
    <glyph glyph-name="a" unicode="&#x201d;" 
d="M232 519q-36 0 -63 27t-27 63t27 63t63 27t63 -27t27 -63t-27 -63t-63 -27zM232 304q-11 0 -20 9t-9 20t9 20t20 9t20 -9t9 -20t-9 -20t-20 -9zM232 28q-11 0 -20 9t-9 20t9 20t20 9t20 -9t9 -20t-9 -20t-20 -9zM508 580q-11 0 -20 9t-9 20t9 20t20 9t20 -9t9 -20t-9 -20
t-20 -9zM508 304q-11 0 -20 9t-9 20t9 20t20 9t20 -9t9 -20t-9 -20t-20 -9zM508 28q-11 0 -20 9t-9 20t9 20t20 9t20 -9t9 -20t-9 -20t-20 -9z" />
    <glyph glyph-name="a" unicode="&#x201c;" 
d="M232 519q-36 0 -63 27t-27 63t27 63t63 27t63 -27t27 -63t-27 -63t-63 -27zM232 304q-11 0 -20 9t-9 20t9 20t20 9t20 -9t9 -20t-9 -20t-20 -9zM232 28q-11 0 -20 9t-9 20t9 20t20 9t20 -9t9 -20t-9 -20t-20 -9zM508 580q-11 0 -20 9t-9 20t9 20t20 9t20 -9t9 -20t-9 -20
t-20 -9zM508 304q-11 0 -20 9t-9 20t9 20t20 9t20 -9t9 -20t-9 -20t-20 -9zM508 28q-11 0 -20 9t-9 20t9 20t20 9t20 -9t9 -20t-9 -20t-20 -9z" />
    <glyph glyph-name="a" unicode="&#x201a;" 
d="M232 519q-36 0 -63 27t-27 63t27 63t63 27t63 -27t27 -63t-27 -63t-63 -27zM232 304q-11 0 -20 9t-9 20t9 20t20 9t20 -9t9 -20t-9 -20t-20 -9zM232 28q-11 0 -20 9t-9 20t9 20t20 9t20 -9t9 -20t-9 -20t-20 -9zM508 580q-11 0 -20 9t-9 20t9 20t20 9t20 -9t9 -20t-9 -20
t-20 -9zM508 304q-11 0 -20 9t-9 20t9 20t20 9t20 -9t9 -20t-9 -20t-20 -9zM508 28q-11 0 -20 9t-9 20t9 20t20 9t20 -9t9 -20t-9 -20t-20 -9z" />
    <glyph glyph-name="a" unicode="&#x2019;" 
d="M232 519q-36 0 -63 27t-27 63t27 63t63 27t63 -27t27 -63t-27 -63t-63 -27zM232 304q-11 0 -20 9t-9 20t9 20t20 9t20 -9t9 -20t-9 -20t-20 -9zM232 28q-11 0 -20 9t-9 20t9 20t20 9t20 -9t9 -20t-9 -20t-20 -9zM508 580q-11 0 -20 9t-9 20t9 20t20 9t20 -9t9 -20t-9 -20
t-20 -9zM508 304q-11 0 -20 9t-9 20t9 20t20 9t20 -9t9 -20t-9 -20t-20 -9zM508 28q-11 0 -20 9t-9 20t9 20t20 9t20 -9t9 -20t-9 -20t-20 -9z" />
    <glyph glyph-name="a" unicode="&#x2018;" 
d="M232 519q-36 0 -63 27t-27 63t27 63t63 27t63 -27t27 -63t-27 -63t-63 -27zM232 304q-11 0 -20 9t-9 20t9 20t20 9t20 -9t9 -20t-9 -20t-20 -9zM232 28q-11 0 -20 9t-9 20t9 20t20 9t20 -9t9 -20t-9 -20t-20 -9zM508 580q-11 0 -20 9t-9 20t9 20t20 9t20 -9t9 -20t-9 -20
t-20 -9zM508 304q-11 0 -20 9t-9 20t9 20t20 9t20 -9t9 -20t-9 -20t-20 -9zM508 28q-11 0 -20 9t-9 20t9 20t20 9t20 -9t9 -20t-9 -20t-20 -9z" />
    <glyph glyph-name="a" unicode="&#x2014;" 
d="M232 519q-36 0 -63 27t-27 63t27 63t63 27t63 -27t27 -63t-27 -63t-63 -27zM232 304q-11 0 -20 9t-9 20t9 20t20 9t20 -9t9 -20t-9 -20t-20 -9zM232 28q-11 0 -20 9t-9 20t9 20t20 9t20 -9t9 -20t-9 -20t-20 -9zM508 580q-11 0 -20 9t-9 20t9 20t20 9t20 -9t9 -20t-9 -20
t-20 -9zM508 304q-11 0 -20 9t-9 20t9 20t20 9t20 -9t9 -20t-9 -20t-20 -9zM508 28q-11 0 -20 9t-9 20t9 20t20 9t20 -9t9 -20t-9 -20t-20 -9z" />
    <glyph glyph-name="a" unicode="&#x2013;" 
d="M232 519q-36 0 -63 27t-27 63t27 63t63 27t63 -27t27 -63t-27 -63t-63 -27zM232 304q-11 0 -20 9t-9 20t9 20t20 9t20 -9t9 -20t-9 -20t-20 -9zM232 28q-11 0 -20 9t-9 20t9 20t20 9t20 -9t9 -20t-9 -20t-20 -9zM508 580q-11 0 -20 9t-9 20t9 20t20 9t20 -9t9 -20t-9 -20
t-20 -9zM508 304q-11 0 -20 9t-9 20t9 20t20 9t20 -9t9 -20t-9 -20t-20 -9zM508 28q-11 0 -20 9t-9 20t9 20t20 9t20 -9t9 -20t-9 -20t-20 -9z" />
    <glyph glyph-name="a" unicode="&#x2dc;" 
d="M232 519q-36 0 -63 27t-27 63t27 63t63 27t63 -27t27 -63t-27 -63t-63 -27zM232 304q-11 0 -20 9t-9 20t9 20t20 9t20 -9t9 -20t-9 -20t-20 -9zM232 28q-11 0 -20 9t-9 20t9 20t20 9t20 -9t9 -20t-9 -20t-20 -9zM508 580q-11 0 -20 9t-9 20t9 20t20 9t20 -9t9 -20t-9 -20
t-20 -9zM508 304q-11 0 -20 9t-9 20t9 20t20 9t20 -9t9 -20t-9 -20t-20 -9zM508 28q-11 0 -20 9t-9 20t9 20t20 9t20 -9t9 -20t-9 -20t-20 -9z" />
    <glyph glyph-name="a" unicode="&#x2c6;" 
d="M232 519q-36 0 -63 27t-27 63t27 63t63 27t63 -27t27 -63t-27 -63t-63 -27zM232 304q-11 0 -20 9t-9 20t9 20t20 9t20 -9t9 -20t-9 -20t-20 -9zM232 28q-11 0 -20 9t-9 20t9 20t20 9t20 -9t9 -20t-9 -20t-20 -9zM508 580q-11 0 -20 9t-9 20t9 20t20 9t20 -9t9 -20t-9 -20
t-20 -9zM508 304q-11 0 -20 9t-9 20t9 20t20 9t20 -9t9 -20t-9 -20t-20 -9zM508 28q-11 0 -20 9t-9 20t9 20t20 9t20 -9t9 -20t-9 -20t-20 -9z" />
    <glyph glyph-name="a" unicode="&#x192;" 
d="M232 519q-36 0 -63 27t-27 63t27 63t63 27t63 -27t27 -63t-27 -63t-63 -27zM232 304q-11 0 -20 9t-9 20t9 20t20 9t20 -9t9 -20t-9 -20t-20 -9zM232 28q-11 0 -20 9t-9 20t9 20t20 9t20 -9t9 -20t-9 -20t-20 -9zM508 580q-11 0 -20 9t-9 20t9 20t20 9t20 -9t9 -20t-9 -20
t-20 -9zM508 304q-11 0 -20 9t-9 20t9 20t20 9t20 -9t9 -20t-9 -20t-20 -9zM508 28q-11 0 -20 9t-9 20t9 20t20 9t20 -9t9 -20t-9 -20t-20 -9z" />
    <glyph glyph-name="a" unicode="&#x178;" 
d="M232 519q-36 0 -63 27t-27 63t27 63t63 27t63 -27t27 -63t-27 -63t-63 -27zM232 304q-11 0 -20 9t-9 20t9 20t20 9t20 -9t9 -20t-9 -20t-20 -9zM232 28q-11 0 -20 9t-9 20t9 20t20 9t20 -9t9 -20t-9 -20t-20 -9zM508 580q-11 0 -20 9t-9 20t9 20t20 9t20 -9t9 -20t-9 -20
t-20 -9zM508 304q-11 0 -20 9t-9 20t9 20t20 9t20 -9t9 -20t-9 -20t-20 -9zM508 28q-11 0 -20 9t-9 20t9 20t20 9t20 -9t9 -20t-9 -20t-20 -9z" />
    <glyph glyph-name="a" unicode="&#x161;" 
d="M232 519q-36 0 -63 27t-27 63t27 63t63 27t63 -27t27 -63t-27 -63t-63 -27zM232 304q-11 0 -20 9t-9 20t9 20t20 9t20 -9t9 -20t-9 -20t-20 -9zM232 28q-11 0 -20 9t-9 20t9 20t20 9t20 -9t9 -20t-9 -20t-20 -9zM508 580q-11 0 -20 9t-9 20t9 20t20 9t20 -9t9 -20t-9 -20
t-20 -9zM508 304q-11 0 -20 9t-9 20t9 20t20 9t20 -9t9 -20t-9 -20t-20 -9zM508 28q-11 0 -20 9t-9 20t9 20t20 9t20 -9t9 -20t-9 -20t-20 -9z" />
    <glyph glyph-name="a" unicode="&#x160;" 
d="M232 519q-36 0 -63 27t-27 63t27 63t63 27t63 -27t27 -63t-27 -63t-63 -27zM232 304q-11 0 -20 9t-9 20t9 20t20 9t20 -9t9 -20t-9 -20t-20 -9zM232 28q-11 0 -20 9t-9 20t9 20t20 9t20 -9t9 -20t-9 -20t-20 -9zM508 580q-11 0 -20 9t-9 20t9 20t20 9t20 -9t9 -20t-9 -20
t-20 -9zM508 304q-11 0 -20 9t-9 20t9 20t20 9t20 -9t9 -20t-9 -20t-20 -9zM508 28q-11 0 -20 9t-9 20t9 20t20 9t20 -9t9 -20t-9 -20t-20 -9z" />
    <glyph glyph-name="a" unicode="&#x153;" 
d="M232 519q-36 0 -63 27t-27 63t27 63t63 27t63 -27t27 -63t-27 -63t-63 -27zM232 304q-11 0 -20 9t-9 20t9 20t20 9t20 -9t9 -20t-9 -20t-20 -9zM232 28q-11 0 -20 9t-9 20t9 20t20 9t20 -9t9 -20t-9 -20t-20 -9zM508 580q-11 0 -20 9t-9 20t9 20t20 9t20 -9t9 -20t-9 -20
t-20 -9zM508 304q-11 0 -20 9t-9 20t9 20t20 9t20 -9t9 -20t-9 -20t-20 -9zM508 28q-11 0 -20 9t-9 20t9 20t20 9t20 -9t9 -20t-9 -20t-20 -9z" />
    <glyph glyph-name="a" unicode="&#x152;" 
d="M232 519q-36 0 -63 27t-27 63t27 63t63 27t63 -27t27 -63t-27 -63t-63 -27zM232 304q-11 0 -20 9t-9 20t9 20t20 9t20 -9t9 -20t-9 -20t-20 -9zM232 28q-11 0 -20 9t-9 20t9 20t20 9t20 -9t9 -20t-9 -20t-20 -9zM508 580q-11 0 -20 9t-9 20t9 20t20 9t20 -9t9 -20t-9 -20
t-20 -9zM508 304q-11 0 -20 9t-9 20t9 20t20 9t20 -9t9 -20t-9 -20t-20 -9zM508 28q-11 0 -20 9t-9 20t9 20t20 9t20 -9t9 -20t-9 -20t-20 -9z" />
    <glyph glyph-name="a" unicode="&#xff;" 
d="M232 519q-36 0 -63 27t-27 63t27 63t63 27t63 -27t27 -63t-27 -63t-63 -27zM232 304q-11 0 -20 9t-9 20t9 20t20 9t20 -9t9 -20t-9 -20t-20 -9zM232 28q-11 0 -20 9t-9 20t9 20t20 9t20 -9t9 -20t-9 -20t-20 -9zM508 580q-11 0 -20 9t-9 20t9 20t20 9t20 -9t9 -20t-9 -20
t-20 -9zM508 304q-11 0 -20 9t-9 20t9 20t20 9t20 -9t9 -20t-9 -20t-20 -9zM508 28q-11 0 -20 9t-9 20t9 20t20 9t20 -9t9 -20t-9 -20t-20 -9z" />
    <glyph glyph-name="a" unicode="&#xfe;" 
d="M232 519q-36 0 -63 27t-27 63t27 63t63 27t63 -27t27 -63t-27 -63t-63 -27zM232 304q-11 0 -20 9t-9 20t9 20t20 9t20 -9t9 -20t-9 -20t-20 -9zM232 28q-11 0 -20 9t-9 20t9 20t20 9t20 -9t9 -20t-9 -20t-20 -9zM508 580q-11 0 -20 9t-9 20t9 20t20 9t20 -9t9 -20t-9 -20
t-20 -9zM508 304q-11 0 -20 9t-9 20t9 20t20 9t20 -9t9 -20t-9 -20t-20 -9zM508 28q-11 0 -20 9t-9 20t9 20t20 9t20 -9t9 -20t-9 -20t-20 -9z" />
    <glyph glyph-name="a" unicode="&#xfd;" 
d="M232 519q-36 0 -63 27t-27 63t27 63t63 27t63 -27t27 -63t-27 -63t-63 -27zM232 304q-11 0 -20 9t-9 20t9 20t20 9t20 -9t9 -20t-9 -20t-20 -9zM232 28q-11 0 -20 9t-9 20t9 20t20 9t20 -9t9 -20t-9 -20t-20 -9zM508 580q-11 0 -20 9t-9 20t9 20t20 9t20 -9t9 -20t-9 -20
t-20 -9zM508 304q-11 0 -20 9t-9 20t9 20t20 9t20 -9t9 -20t-9 -20t-20 -9zM508 28q-11 0 -20 9t-9 20t9 20t20 9t20 -9t9 -20t-9 -20t-20 -9z" />
    <glyph glyph-name="a" unicode="&#xfc;" 
d="M232 519q-36 0 -63 27t-27 63t27 63t63 27t63 -27t27 -63t-27 -63t-63 -27zM232 304q-11 0 -20 9t-9 20t9 20t20 9t20 -9t9 -20t-9 -20t-20 -9zM232 28q-11 0 -20 9t-9 20t9 20t20 9t20 -9t9 -20t-9 -20t-20 -9zM508 580q-11 0 -20 9t-9 20t9 20t20 9t20 -9t9 -20t-9 -20
t-20 -9zM508 304q-11 0 -20 9t-9 20t9 20t20 9t20 -9t9 -20t-9 -20t-20 -9zM508 28q-11 0 -20 9t-9 20t9 20t20 9t20 -9t9 -20t-9 -20t-20 -9z" />
    <glyph glyph-name="a" unicode="&#xfb;" 
d="M232 519q-36 0 -63 27t-27 63t27 63t63 27t63 -27t27 -63t-27 -63t-63 -27zM232 304q-11 0 -20 9t-9 20t9 20t20 9t20 -9t9 -20t-9 -20t-20 -9zM232 28q-11 0 -20 9t-9 20t9 20t20 9t20 -9t9 -20t-9 -20t-20 -9zM508 580q-11 0 -20 9t-9 20t9 20t20 9t20 -9t9 -20t-9 -20
t-20 -9zM508 304q-11 0 -20 9t-9 20t9 20t20 9t20 -9t9 -20t-9 -20t-20 -9zM508 28q-11 0 -20 9t-9 20t9 20t20 9t20 -9t9 -20t-9 -20t-20 -9z" />
    <glyph glyph-name="a" unicode="&#xfa;" 
d="M232 519q-36 0 -63 27t-27 63t27 63t63 27t63 -27t27 -63t-27 -63t-63 -27zM232 304q-11 0 -20 9t-9 20t9 20t20 9t20 -9t9 -20t-9 -20t-20 -9zM232 28q-11 0 -20 9t-9 20t9 20t20 9t20 -9t9 -20t-9 -20t-20 -9zM508 580q-11 0 -20 9t-9 20t9 20t20 9t20 -9t9 -20t-9 -20
t-20 -9zM508 304q-11 0 -20 9t-9 20t9 20t20 9t20 -9t9 -20t-9 -20t-20 -9zM508 28q-11 0 -20 9t-9 20t9 20t20 9t20 -9t9 -20t-9 -20t-20 -9z" />
    <glyph glyph-name="a" unicode="&#xf9;" 
d="M232 519q-36 0 -63 27t-27 63t27 63t63 27t63 -27t27 -63t-27 -63t-63 -27zM232 304q-11 0 -20 9t-9 20t9 20t20 9t20 -9t9 -20t-9 -20t-20 -9zM232 28q-11 0 -20 9t-9 20t9 20t20 9t20 -9t9 -20t-9 -20t-20 -9zM508 580q-11 0 -20 9t-9 20t9 20t20 9t20 -9t9 -20t-9 -20
t-20 -9zM508 304q-11 0 -20 9t-9 20t9 20t20 9t20 -9t9 -20t-9 -20t-20 -9zM508 28q-11 0 -20 9t-9 20t9 20t20 9t20 -9t9 -20t-9 -20t-20 -9z" />
    <glyph glyph-name="a" unicode="&#xf8;" 
d="M232 519q-36 0 -63 27t-27 63t27 63t63 27t63 -27t27 -63t-27 -63t-63 -27zM232 304q-11 0 -20 9t-9 20t9 20t20 9t20 -9t9 -20t-9 -20t-20 -9zM232 28q-11 0 -20 9t-9 20t9 20t20 9t20 -9t9 -20t-9 -20t-20 -9zM508 580q-11 0 -20 9t-9 20t9 20t20 9t20 -9t9 -20t-9 -20
t-20 -9zM508 304q-11 0 -20 9t-9 20t9 20t20 9t20 -9t9 -20t-9 -20t-20 -9zM508 28q-11 0 -20 9t-9 20t9 20t20 9t20 -9t9 -20t-9 -20t-20 -9z" />
    <glyph glyph-name="a" unicode="&#xf7;" 
d="M232 519q-36 0 -63 27t-27 63t27 63t63 27t63 -27t27 -63t-27 -63t-63 -27zM232 304q-11 0 -20 9t-9 20t9 20t20 9t20 -9t9 -20t-9 -20t-20 -9zM232 28q-11 0 -20 9t-9 20t9 20t20 9t20 -9t9 -20t-9 -20t-20 -9zM508 580q-11 0 -20 9t-9 20t9 20t20 9t20 -9t9 -20t-9 -20
t-20 -9zM508 304q-11 0 -20 9t-9 20t9 20t20 9t20 -9t9 -20t-9 -20t-20 -9zM508 28q-11 0 -20 9t-9 20t9 20t20 9t20 -9t9 -20t-9 -20t-20 -9z" />
    <glyph glyph-name="a" unicode="&#xf6;" 
d="M232 519q-36 0 -63 27t-27 63t27 63t63 27t63 -27t27 -63t-27 -63t-63 -27zM232 304q-11 0 -20 9t-9 20t9 20t20 9t20 -9t9 -20t-9 -20t-20 -9zM232 28q-11 0 -20 9t-9 20t9 20t20 9t20 -9t9 -20t-9 -20t-20 -9zM508 580q-11 0 -20 9t-9 20t9 20t20 9t20 -9t9 -20t-9 -20
t-20 -9zM508 304q-11 0 -20 9t-9 20t9 20t20 9t20 -9t9 -20t-9 -20t-20 -9zM508 28q-11 0 -20 9t-9 20t9 20t20 9t20 -9t9 -20t-9 -20t-20 -9z" />
    <glyph glyph-name="a" unicode="&#xf5;" 
d="M232 519q-36 0 -63 27t-27 63t27 63t63 27t63 -27t27 -63t-27 -63t-63 -27zM232 304q-11 0 -20 9t-9 20t9 20t20 9t20 -9t9 -20t-9 -20t-20 -9zM232 28q-11 0 -20 9t-9 20t9 20t20 9t20 -9t9 -20t-9 -20t-20 -9zM508 580q-11 0 -20 9t-9 20t9 20t20 9t20 -9t9 -20t-9 -20
t-20 -9zM508 304q-11 0 -20 9t-9 20t9 20t20 9t20 -9t9 -20t-9 -20t-20 -9zM508 28q-11 0 -20 9t-9 20t9 20t20 9t20 -9t9 -20t-9 -20t-20 -9z" />
    <glyph glyph-name="a" unicode="&#xf4;" 
d="M232 519q-36 0 -63 27t-27 63t27 63t63 27t63 -27t27 -63t-27 -63t-63 -27zM232 304q-11 0 -20 9t-9 20t9 20t20 9t20 -9t9 -20t-9 -20t-20 -9zM232 28q-11 0 -20 9t-9 20t9 20t20 9t20 -9t9 -20t-9 -20t-20 -9zM508 580q-11 0 -20 9t-9 20t9 20t20 9t20 -9t9 -20t-9 -20
t-20 -9zM508 304q-11 0 -20 9t-9 20t9 20t20 9t20 -9t9 -20t-9 -20t-20 -9zM508 28q-11 0 -20 9t-9 20t9 20t20 9t20 -9t9 -20t-9 -20t-20 -9z" />
    <glyph glyph-name="a" unicode="&#xf3;" 
d="M232 519q-36 0 -63 27t-27 63t27 63t63 27t63 -27t27 -63t-27 -63t-63 -27zM232 304q-11 0 -20 9t-9 20t9 20t20 9t20 -9t9 -20t-9 -20t-20 -9zM232 28q-11 0 -20 9t-9 20t9 20t20 9t20 -9t9 -20t-9 -20t-20 -9zM508 580q-11 0 -20 9t-9 20t9 20t20 9t20 -9t9 -20t-9 -20
t-20 -9zM508 304q-11 0 -20 9t-9 20t9 20t20 9t20 -9t9 -20t-9 -20t-20 -9zM508 28q-11 0 -20 9t-9 20t9 20t20 9t20 -9t9 -20t-9 -20t-20 -9z" />
    <glyph glyph-name="a" unicode="&#xf2;" 
d="M232 519q-36 0 -63 27t-27 63t27 63t63 27t63 -27t27 -63t-27 -63t-63 -27zM232 304q-11 0 -20 9t-9 20t9 20t20 9t20 -9t9 -20t-9 -20t-20 -9zM232 28q-11 0 -20 9t-9 20t9 20t20 9t20 -9t9 -20t-9 -20t-20 -9zM508 580q-11 0 -20 9t-9 20t9 20t20 9t20 -9t9 -20t-9 -20
t-20 -9zM508 304q-11 0 -20 9t-9 20t9 20t20 9t20 -9t9 -20t-9 -20t-20 -9zM508 28q-11 0 -20 9t-9 20t9 20t20 9t20 -9t9 -20t-9 -20t-20 -9z" />
    <glyph glyph-name="a" unicode="&#xf1;" 
d="M232 519q-36 0 -63 27t-27 63t27 63t63 27t63 -27t27 -63t-27 -63t-63 -27zM232 304q-11 0 -20 9t-9 20t9 20t20 9t20 -9t9 -20t-9 -20t-20 -9zM232 28q-11 0 -20 9t-9 20t9 20t20 9t20 -9t9 -20t-9 -20t-20 -9zM508 580q-11 0 -20 9t-9 20t9 20t20 9t20 -9t9 -20t-9 -20
t-20 -9zM508 304q-11 0 -20 9t-9 20t9 20t20 9t20 -9t9 -20t-9 -20t-20 -9zM508 28q-11 0 -20 9t-9 20t9 20t20 9t20 -9t9 -20t-9 -20t-20 -9z" />
    <glyph glyph-name="a" unicode="&#xf0;" 
d="M232 519q-36 0 -63 27t-27 63t27 63t63 27t63 -27t27 -63t-27 -63t-63 -27zM232 304q-11 0 -20 9t-9 20t9 20t20 9t20 -9t9 -20t-9 -20t-20 -9zM232 28q-11 0 -20 9t-9 20t9 20t20 9t20 -9t9 -20t-9 -20t-20 -9zM508 580q-11 0 -20 9t-9 20t9 20t20 9t20 -9t9 -20t-9 -20
t-20 -9zM508 304q-11 0 -20 9t-9 20t9 20t20 9t20 -9t9 -20t-9 -20t-20 -9zM508 28q-11 0 -20 9t-9 20t9 20t20 9t20 -9t9 -20t-9 -20t-20 -9z" />
    <glyph glyph-name="a" unicode="&#xef;" 
d="M232 519q-36 0 -63 27t-27 63t27 63t63 27t63 -27t27 -63t-27 -63t-63 -27zM232 304q-11 0 -20 9t-9 20t9 20t20 9t20 -9t9 -20t-9 -20t-20 -9zM232 28q-11 0 -20 9t-9 20t9 20t20 9t20 -9t9 -20t-9 -20t-20 -9zM508 580q-11 0 -20 9t-9 20t9 20t20 9t20 -9t9 -20t-9 -20
t-20 -9zM508 304q-11 0 -20 9t-9 20t9 20t20 9t20 -9t9 -20t-9 -20t-20 -9zM508 28q-11 0 -20 9t-9 20t9 20t20 9t20 -9t9 -20t-9 -20t-20 -9z" />
    <glyph glyph-name="a" unicode="&#xee;" 
d="M232 519q-36 0 -63 27t-27 63t27 63t63 27t63 -27t27 -63t-27 -63t-63 -27zM232 304q-11 0 -20 9t-9 20t9 20t20 9t20 -9t9 -20t-9 -20t-20 -9zM232 28q-11 0 -20 9t-9 20t9 20t20 9t20 -9t9 -20t-9 -20t-20 -9zM508 580q-11 0 -20 9t-9 20t9 20t20 9t20 -9t9 -20t-9 -20
t-20 -9zM508 304q-11 0 -20 9t-9 20t9 20t20 9t20 -9t9 -20t-9 -20t-20 -9zM508 28q-11 0 -20 9t-9 20t9 20t20 9t20 -9t9 -20t-9 -20t-20 -9z" />
    <glyph glyph-name="a" unicode="&#xed;" 
d="M232 519q-36 0 -63 27t-27 63t27 63t63 27t63 -27t27 -63t-27 -63t-63 -27zM232 304q-11 0 -20 9t-9 20t9 20t20 9t20 -9t9 -20t-9 -20t-20 -9zM232 28q-11 0 -20 9t-9 20t9 20t20 9t20 -9t9 -20t-9 -20t-20 -9zM508 580q-11 0 -20 9t-9 20t9 20t20 9t20 -9t9 -20t-9 -20
t-20 -9zM508 304q-11 0 -20 9t-9 20t9 20t20 9t20 -9t9 -20t-9 -20t-20 -9zM508 28q-11 0 -20 9t-9 20t9 20t20 9t20 -9t9 -20t-9 -20t-20 -9z" />
    <glyph glyph-name="a" unicode="&#xec;" 
d="M232 519q-36 0 -63 27t-27 63t27 63t63 27t63 -27t27 -63t-27 -63t-63 -27zM232 304q-11 0 -20 9t-9 20t9 20t20 9t20 -9t9 -20t-9 -20t-20 -9zM232 28q-11 0 -20 9t-9 20t9 20t20 9t20 -9t9 -20t-9 -20t-20 -9zM508 580q-11 0 -20 9t-9 20t9 20t20 9t20 -9t9 -20t-9 -20
t-20 -9zM508 304q-11 0 -20 9t-9 20t9 20t20 9t20 -9t9 -20t-9 -20t-20 -9zM508 28q-11 0 -20 9t-9 20t9 20t20 9t20 -9t9 -20t-9 -20t-20 -9z" />
    <glyph glyph-name="a" unicode="&#xeb;" 
d="M232 519q-36 0 -63 27t-27 63t27 63t63 27t63 -27t27 -63t-27 -63t-63 -27zM232 304q-11 0 -20 9t-9 20t9 20t20 9t20 -9t9 -20t-9 -20t-20 -9zM232 28q-11 0 -20 9t-9 20t9 20t20 9t20 -9t9 -20t-9 -20t-20 -9zM508 580q-11 0 -20 9t-9 20t9 20t20 9t20 -9t9 -20t-9 -20
t-20 -9zM508 304q-11 0 -20 9t-9 20t9 20t20 9t20 -9t9 -20t-9 -20t-20 -9zM508 28q-11 0 -20 9t-9 20t9 20t20 9t20 -9t9 -20t-9 -20t-20 -9z" />
    <glyph glyph-name="a" unicode="&#xea;" 
d="M232 519q-36 0 -63 27t-27 63t27 63t63 27t63 -27t27 -63t-27 -63t-63 -27zM232 304q-11 0 -20 9t-9 20t9 20t20 9t20 -9t9 -20t-9 -20t-20 -9zM232 28q-11 0 -20 9t-9 20t9 20t20 9t20 -9t9 -20t-9 -20t-20 -9zM508 580q-11 0 -20 9t-9 20t9 20t20 9t20 -9t9 -20t-9 -20
t-20 -9zM508 304q-11 0 -20 9t-9 20t9 20t20 9t20 -9t9 -20t-9 -20t-20 -9zM508 28q-11 0 -20 9t-9 20t9 20t20 9t20 -9t9 -20t-9 -20t-20 -9z" />
    <glyph glyph-name="a" unicode="&#xe9;" 
d="M232 519q-36 0 -63 27t-27 63t27 63t63 27t63 -27t27 -63t-27 -63t-63 -27zM232 304q-11 0 -20 9t-9 20t9 20t20 9t20 -9t9 -20t-9 -20t-20 -9zM232 28q-11 0 -20 9t-9 20t9 20t20 9t20 -9t9 -20t-9 -20t-20 -9zM508 580q-11 0 -20 9t-9 20t9 20t20 9t20 -9t9 -20t-9 -20
t-20 -9zM508 304q-11 0 -20 9t-9 20t9 20t20 9t20 -9t9 -20t-9 -20t-20 -9zM508 28q-11 0 -20 9t-9 20t9 20t20 9t20 -9t9 -20t-9 -20t-20 -9z" />
    <glyph glyph-name="a" unicode="&#xe8;" 
d="M232 519q-36 0 -63 27t-27 63t27 63t63 27t63 -27t27 -63t-27 -63t-63 -27zM232 304q-11 0 -20 9t-9 20t9 20t20 9t20 -9t9 -20t-9 -20t-20 -9zM232 28q-11 0 -20 9t-9 20t9 20t20 9t20 -9t9 -20t-9 -20t-20 -9zM508 580q-11 0 -20 9t-9 20t9 20t20 9t20 -9t9 -20t-9 -20
t-20 -9zM508 304q-11 0 -20 9t-9 20t9 20t20 9t20 -9t9 -20t-9 -20t-20 -9zM508 28q-11 0 -20 9t-9 20t9 20t20 9t20 -9t9 -20t-9 -20t-20 -9z" />
    <glyph glyph-name="a" unicode="&#xe7;" 
d="M232 519q-36 0 -63 27t-27 63t27 63t63 27t63 -27t27 -63t-27 -63t-63 -27zM232 304q-11 0 -20 9t-9 20t9 20t20 9t20 -9t9 -20t-9 -20t-20 -9zM232 28q-11 0 -20 9t-9 20t9 20t20 9t20 -9t9 -20t-9 -20t-20 -9zM508 580q-11 0 -20 9t-9 20t9 20t20 9t20 -9t9 -20t-9 -20
t-20 -9zM508 304q-11 0 -20 9t-9 20t9 20t20 9t20 -9t9 -20t-9 -20t-20 -9zM508 28q-11 0 -20 9t-9 20t9 20t20 9t20 -9t9 -20t-9 -20t-20 -9z" />
    <glyph glyph-name="a" unicode="&#xe6;" 
d="M232 519q-36 0 -63 27t-27 63t27 63t63 27t63 -27t27 -63t-27 -63t-63 -27zM232 304q-11 0 -20 9t-9 20t9 20t20 9t20 -9t9 -20t-9 -20t-20 -9zM232 28q-11 0 -20 9t-9 20t9 20t20 9t20 -9t9 -20t-9 -20t-20 -9zM508 580q-11 0 -20 9t-9 20t9 20t20 9t20 -9t9 -20t-9 -20
t-20 -9zM508 304q-11 0 -20 9t-9 20t9 20t20 9t20 -9t9 -20t-9 -20t-20 -9zM508 28q-11 0 -20 9t-9 20t9 20t20 9t20 -9t9 -20t-9 -20t-20 -9z" />
    <glyph glyph-name="a" unicode="&#xe5;" 
d="M232 519q-36 0 -63 27t-27 63t27 63t63 27t63 -27t27 -63t-27 -63t-63 -27zM232 304q-11 0 -20 9t-9 20t9 20t20 9t20 -9t9 -20t-9 -20t-20 -9zM232 28q-11 0 -20 9t-9 20t9 20t20 9t20 -9t9 -20t-9 -20t-20 -9zM508 580q-11 0 -20 9t-9 20t9 20t20 9t20 -9t9 -20t-9 -20
t-20 -9zM508 304q-11 0 -20 9t-9 20t9 20t20 9t20 -9t9 -20t-9 -20t-20 -9zM508 28q-11 0 -20 9t-9 20t9 20t20 9t20 -9t9 -20t-9 -20t-20 -9z" />
    <glyph glyph-name="a" unicode="&#xe4;" 
d="M232 519q-36 0 -63 27t-27 63t27 63t63 27t63 -27t27 -63t-27 -63t-63 -27zM232 304q-11 0 -20 9t-9 20t9 20t20 9t20 -9t9 -20t-9 -20t-20 -9zM232 28q-11 0 -20 9t-9 20t9 20t20 9t20 -9t9 -20t-9 -20t-20 -9zM508 580q-11 0 -20 9t-9 20t9 20t20 9t20 -9t9 -20t-9 -20
t-20 -9zM508 304q-11 0 -20 9t-9 20t9 20t20 9t20 -9t9 -20t-9 -20t-20 -9zM508 28q-11 0 -20 9t-9 20t9 20t20 9t20 -9t9 -20t-9 -20t-20 -9z" />
    <glyph glyph-name="a" unicode="&#xe3;" 
d="M232 519q-36 0 -63 27t-27 63t27 63t63 27t63 -27t27 -63t-27 -63t-63 -27zM232 304q-11 0 -20 9t-9 20t9 20t20 9t20 -9t9 -20t-9 -20t-20 -9zM232 28q-11 0 -20 9t-9 20t9 20t20 9t20 -9t9 -20t-9 -20t-20 -9zM508 580q-11 0 -20 9t-9 20t9 20t20 9t20 -9t9 -20t-9 -20
t-20 -9zM508 304q-11 0 -20 9t-9 20t9 20t20 9t20 -9t9 -20t-9 -20t-20 -9zM508 28q-11 0 -20 9t-9 20t9 20t20 9t20 -9t9 -20t-9 -20t-20 -9z" />
    <glyph glyph-name="a" unicode="&#xe2;" 
d="M232 519q-36 0 -63 27t-27 63t27 63t63 27t63 -27t27 -63t-27 -63t-63 -27zM232 304q-11 0 -20 9t-9 20t9 20t20 9t20 -9t9 -20t-9 -20t-20 -9zM232 28q-11 0 -20 9t-9 20t9 20t20 9t20 -9t9 -20t-9 -20t-20 -9zM508 580q-11 0 -20 9t-9 20t9 20t20 9t20 -9t9 -20t-9 -20
t-20 -9zM508 304q-11 0 -20 9t-9 20t9 20t20 9t20 -9t9 -20t-9 -20t-20 -9zM508 28q-11 0 -20 9t-9 20t9 20t20 9t20 -9t9 -20t-9 -20t-20 -9z" />
    <glyph glyph-name="a" unicode="&#xe1;" 
d="M232 519q-36 0 -63 27t-27 63t27 63t63 27t63 -27t27 -63t-27 -63t-63 -27zM232 304q-11 0 -20 9t-9 20t9 20t20 9t20 -9t9 -20t-9 -20t-20 -9zM232 28q-11 0 -20 9t-9 20t9 20t20 9t20 -9t9 -20t-9 -20t-20 -9zM508 580q-11 0 -20 9t-9 20t9 20t20 9t20 -9t9 -20t-9 -20
t-20 -9zM508 304q-11 0 -20 9t-9 20t9 20t20 9t20 -9t9 -20t-9 -20t-20 -9zM508 28q-11 0 -20 9t-9 20t9 20t20 9t20 -9t9 -20t-9 -20t-20 -9z" />
    <glyph glyph-name="a" unicode="&#xe0;" 
d="M232 519q-36 0 -63 27t-27 63t27 63t63 27t63 -27t27 -63t-27 -63t-63 -27zM232 304q-11 0 -20 9t-9 20t9 20t20 9t20 -9t9 -20t-9 -20t-20 -9zM232 28q-11 0 -20 9t-9 20t9 20t20 9t20 -9t9 -20t-9 -20t-20 -9zM508 580q-11 0 -20 9t-9 20t9 20t20 9t20 -9t9 -20t-9 -20
t-20 -9zM508 304q-11 0 -20 9t-9 20t9 20t20 9t20 -9t9 -20t-9 -20t-20 -9zM508 28q-11 0 -20 9t-9 20t9 20t20 9t20 -9t9 -20t-9 -20t-20 -9z" />
    <glyph glyph-name="a" unicode="&#xdf;" 
d="M232 519q-36 0 -63 27t-27 63t27 63t63 27t63 -27t27 -63t-27 -63t-63 -27zM232 304q-11 0 -20 9t-9 20t9 20t20 9t20 -9t9 -20t-9 -20t-20 -9zM232 28q-11 0 -20 9t-9 20t9 20t20 9t20 -9t9 -20t-9 -20t-20 -9zM508 580q-11 0 -20 9t-9 20t9 20t20 9t20 -9t9 -20t-9 -20
t-20 -9zM508 304q-11 0 -20 9t-9 20t9 20t20 9t20 -9t9 -20t-9 -20t-20 -9zM508 28q-11 0 -20 9t-9 20t9 20t20 9t20 -9t9 -20t-9 -20t-20 -9z" />
    <glyph glyph-name="a" unicode="&#xde;" 
d="M232 519q-36 0 -63 27t-27 63t27 63t63 27t63 -27t27 -63t-27 -63t-63 -27zM232 304q-11 0 -20 9t-9 20t9 20t20 9t20 -9t9 -20t-9 -20t-20 -9zM232 28q-11 0 -20 9t-9 20t9 20t20 9t20 -9t9 -20t-9 -20t-20 -9zM508 580q-11 0 -20 9t-9 20t9 20t20 9t20 -9t9 -20t-9 -20
t-20 -9zM508 304q-11 0 -20 9t-9 20t9 20t20 9t20 -9t9 -20t-9 -20t-20 -9zM508 28q-11 0 -20 9t-9 20t9 20t20 9t20 -9t9 -20t-9 -20t-20 -9z" />
    <glyph glyph-name="a" unicode="&#xdd;" 
d="M232 519q-36 0 -63 27t-27 63t27 63t63 27t63 -27t27 -63t-27 -63t-63 -27zM232 304q-11 0 -20 9t-9 20t9 20t20 9t20 -9t9 -20t-9 -20t-20 -9zM232 28q-11 0 -20 9t-9 20t9 20t20 9t20 -9t9 -20t-9 -20t-20 -9zM508 580q-11 0 -20 9t-9 20t9 20t20 9t20 -9t9 -20t-9 -20
t-20 -9zM508 304q-11 0 -20 9t-9 20t9 20t20 9t20 -9t9 -20t-9 -20t-20 -9zM508 28q-11 0 -20 9t-9 20t9 20t20 9t20 -9t9 -20t-9 -20t-20 -9z" />
    <glyph glyph-name="a" unicode="&#xdc;" 
d="M232 519q-36 0 -63 27t-27 63t27 63t63 27t63 -27t27 -63t-27 -63t-63 -27zM232 304q-11 0 -20 9t-9 20t9 20t20 9t20 -9t9 -20t-9 -20t-20 -9zM232 28q-11 0 -20 9t-9 20t9 20t20 9t20 -9t9 -20t-9 -20t-20 -9zM508 580q-11 0 -20 9t-9 20t9 20t20 9t20 -9t9 -20t-9 -20
t-20 -9zM508 304q-11 0 -20 9t-9 20t9 20t20 9t20 -9t9 -20t-9 -20t-20 -9zM508 28q-11 0 -20 9t-9 20t9 20t20 9t20 -9t9 -20t-9 -20t-20 -9z" />
    <glyph glyph-name="a" unicode="&#xdb;" 
d="M232 519q-36 0 -63 27t-27 63t27 63t63 27t63 -27t27 -63t-27 -63t-63 -27zM232 304q-11 0 -20 9t-9 20t9 20t20 9t20 -9t9 -20t-9 -20t-20 -9zM232 28q-11 0 -20 9t-9 20t9 20t20 9t20 -9t9 -20t-9 -20t-20 -9zM508 580q-11 0 -20 9t-9 20t9 20t20 9t20 -9t9 -20t-9 -20
t-20 -9zM508 304q-11 0 -20 9t-9 20t9 20t20 9t20 -9t9 -20t-9 -20t-20 -9zM508 28q-11 0 -20 9t-9 20t9 20t20 9t20 -9t9 -20t-9 -20t-20 -9z" />
    <glyph glyph-name="a" unicode="&#xda;" 
d="M232 519q-36 0 -63 27t-27 63t27 63t63 27t63 -27t27 -63t-27 -63t-63 -27zM232 304q-11 0 -20 9t-9 20t9 20t20 9t20 -9t9 -20t-9 -20t-20 -9zM232 28q-11 0 -20 9t-9 20t9 20t20 9t20 -9t9 -20t-9 -20t-20 -9zM508 580q-11 0 -20 9t-9 20t9 20t20 9t20 -9t9 -20t-9 -20
t-20 -9zM508 304q-11 0 -20 9t-9 20t9 20t20 9t20 -9t9 -20t-9 -20t-20 -9zM508 28q-11 0 -20 9t-9 20t9 20t20 9t20 -9t9 -20t-9 -20t-20 -9z" />
    <glyph glyph-name="a" unicode="&#xd9;" 
d="M232 519q-36 0 -63 27t-27 63t27 63t63 27t63 -27t27 -63t-27 -63t-63 -27zM232 304q-11 0 -20 9t-9 20t9 20t20 9t20 -9t9 -20t-9 -20t-20 -9zM232 28q-11 0 -20 9t-9 20t9 20t20 9t20 -9t9 -20t-9 -20t-20 -9zM508 580q-11 0 -20 9t-9 20t9 20t20 9t20 -9t9 -20t-9 -20
t-20 -9zM508 304q-11 0 -20 9t-9 20t9 20t20 9t20 -9t9 -20t-9 -20t-20 -9zM508 28q-11 0 -20 9t-9 20t9 20t20 9t20 -9t9 -20t-9 -20t-20 -9z" />
    <glyph glyph-name="a" unicode="&#xd8;" 
d="M232 519q-36 0 -63 27t-27 63t27 63t63 27t63 -27t27 -63t-27 -63t-63 -27zM232 304q-11 0 -20 9t-9 20t9 20t20 9t20 -9t9 -20t-9 -20t-20 -9zM232 28q-11 0 -20 9t-9 20t9 20t20 9t20 -9t9 -20t-9 -20t-20 -9zM508 580q-11 0 -20 9t-9 20t9 20t20 9t20 -9t9 -20t-9 -20
t-20 -9zM508 304q-11 0 -20 9t-9 20t9 20t20 9t20 -9t9 -20t-9 -20t-20 -9zM508 28q-11 0 -20 9t-9 20t9 20t20 9t20 -9t9 -20t-9 -20t-20 -9z" />
    <glyph glyph-name="a" unicode="&#xd7;" 
d="M232 519q-36 0 -63 27t-27 63t27 63t63 27t63 -27t27 -63t-27 -63t-63 -27zM232 304q-11 0 -20 9t-9 20t9 20t20 9t20 -9t9 -20t-9 -20t-20 -9zM232 28q-11 0 -20 9t-9 20t9 20t20 9t20 -9t9 -20t-9 -20t-20 -9zM508 580q-11 0 -20 9t-9 20t9 20t20 9t20 -9t9 -20t-9 -20
t-20 -9zM508 304q-11 0 -20 9t-9 20t9 20t20 9t20 -9t9 -20t-9 -20t-20 -9zM508 28q-11 0 -20 9t-9 20t9 20t20 9t20 -9t9 -20t-9 -20t-20 -9z" />
    <glyph glyph-name="a" unicode="&#xd6;" 
d="M232 519q-36 0 -63 27t-27 63t27 63t63 27t63 -27t27 -63t-27 -63t-63 -27zM232 304q-11 0 -20 9t-9 20t9 20t20 9t20 -9t9 -20t-9 -20t-20 -9zM232 28q-11 0 -20 9t-9 20t9 20t20 9t20 -9t9 -20t-9 -20t-20 -9zM508 580q-11 0 -20 9t-9 20t9 20t20 9t20 -9t9 -20t-9 -20
t-20 -9zM508 304q-11 0 -20 9t-9 20t9 20t20 9t20 -9t9 -20t-9 -20t-20 -9zM508 28q-11 0 -20 9t-9 20t9 20t20 9t20 -9t9 -20t-9 -20t-20 -9z" />
    <glyph glyph-name="a" unicode="&#xd5;" 
d="M232 519q-36 0 -63 27t-27 63t27 63t63 27t63 -27t27 -63t-27 -63t-63 -27zM232 304q-11 0 -20 9t-9 20t9 20t20 9t20 -9t9 -20t-9 -20t-20 -9zM232 28q-11 0 -20 9t-9 20t9 20t20 9t20 -9t9 -20t-9 -20t-20 -9zM508 580q-11 0 -20 9t-9 20t9 20t20 9t20 -9t9 -20t-9 -20
t-20 -9zM508 304q-11 0 -20 9t-9 20t9 20t20 9t20 -9t9 -20t-9 -20t-20 -9zM508 28q-11 0 -20 9t-9 20t9 20t20 9t20 -9t9 -20t-9 -20t-20 -9z" />
    <glyph glyph-name="a" unicode="&#xd4;" 
d="M232 519q-36 0 -63 27t-27 63t27 63t63 27t63 -27t27 -63t-27 -63t-63 -27zM232 304q-11 0 -20 9t-9 20t9 20t20 9t20 -9t9 -20t-9 -20t-20 -9zM232 28q-11 0 -20 9t-9 20t9 20t20 9t20 -9t9 -20t-9 -20t-20 -9zM508 580q-11 0 -20 9t-9 20t9 20t20 9t20 -9t9 -20t-9 -20
t-20 -9zM508 304q-11 0 -20 9t-9 20t9 20t20 9t20 -9t9 -20t-9 -20t-20 -9zM508 28q-11 0 -20 9t-9 20t9 20t20 9t20 -9t9 -20t-9 -20t-20 -9z" />
    <glyph glyph-name="a" unicode="&#xd3;" 
d="M232 519q-36 0 -63 27t-27 63t27 63t63 27t63 -27t27 -63t-27 -63t-63 -27zM232 304q-11 0 -20 9t-9 20t9 20t20 9t20 -9t9 -20t-9 -20t-20 -9zM232 28q-11 0 -20 9t-9 20t9 20t20 9t20 -9t9 -20t-9 -20t-20 -9zM508 580q-11 0 -20 9t-9 20t9 20t20 9t20 -9t9 -20t-9 -20
t-20 -9zM508 304q-11 0 -20 9t-9 20t9 20t20 9t20 -9t9 -20t-9 -20t-20 -9zM508 28q-11 0 -20 9t-9 20t9 20t20 9t20 -9t9 -20t-9 -20t-20 -9z" />
    <glyph glyph-name="a" unicode="&#xd2;" 
d="M232 519q-36 0 -63 27t-27 63t27 63t63 27t63 -27t27 -63t-27 -63t-63 -27zM232 304q-11 0 -20 9t-9 20t9 20t20 9t20 -9t9 -20t-9 -20t-20 -9zM232 28q-11 0 -20 9t-9 20t9 20t20 9t20 -9t9 -20t-9 -20t-20 -9zM508 580q-11 0 -20 9t-9 20t9 20t20 9t20 -9t9 -20t-9 -20
t-20 -9zM508 304q-11 0 -20 9t-9 20t9 20t20 9t20 -9t9 -20t-9 -20t-20 -9zM508 28q-11 0 -20 9t-9 20t9 20t20 9t20 -9t9 -20t-9 -20t-20 -9z" />
    <glyph glyph-name="a" unicode="&#xd1;" 
d="M232 519q-36 0 -63 27t-27 63t27 63t63 27t63 -27t27 -63t-27 -63t-63 -27zM232 304q-11 0 -20 9t-9 20t9 20t20 9t20 -9t9 -20t-9 -20t-20 -9zM232 28q-11 0 -20 9t-9 20t9 20t20 9t20 -9t9 -20t-9 -20t-20 -9zM508 580q-11 0 -20 9t-9 20t9 20t20 9t20 -9t9 -20t-9 -20
t-20 -9zM508 304q-11 0 -20 9t-9 20t9 20t20 9t20 -9t9 -20t-9 -20t-20 -9zM508 28q-11 0 -20 9t-9 20t9 20t20 9t20 -9t9 -20t-9 -20t-20 -9z" />
    <glyph glyph-name="a" unicode="&#xd0;" 
d="M232 519q-36 0 -63 27t-27 63t27 63t63 27t63 -27t27 -63t-27 -63t-63 -27zM232 304q-11 0 -20 9t-9 20t9 20t20 9t20 -9t9 -20t-9 -20t-20 -9zM232 28q-11 0 -20 9t-9 20t9 20t20 9t20 -9t9 -20t-9 -20t-20 -9zM508 580q-11 0 -20 9t-9 20t9 20t20 9t20 -9t9 -20t-9 -20
t-20 -9zM508 304q-11 0 -20 9t-9 20t9 20t20 9t20 -9t9 -20t-9 -20t-20 -9zM508 28q-11 0 -20 9t-9 20t9 20t20 9t20 -9t9 -20t-9 -20t-20 -9z" />
    <glyph glyph-name="a" unicode="&#xcf;" 
d="M232 519q-36 0 -63 27t-27 63t27 63t63 27t63 -27t27 -63t-27 -63t-63 -27zM232 304q-11 0 -20 9t-9 20t9 20t20 9t20 -9t9 -20t-9 -20t-20 -9zM232 28q-11 0 -20 9t-9 20t9 20t20 9t20 -9t9 -20t-9 -20t-20 -9zM508 580q-11 0 -20 9t-9 20t9 20t20 9t20 -9t9 -20t-9 -20
t-20 -9zM508 304q-11 0 -20 9t-9 20t9 20t20 9t20 -9t9 -20t-9 -20t-20 -9zM508 28q-11 0 -20 9t-9 20t9 20t20 9t20 -9t9 -20t-9 -20t-20 -9z" />
    <glyph glyph-name="a" unicode="&#xce;" 
d="M232 519q-36 0 -63 27t-27 63t27 63t63 27t63 -27t27 -63t-27 -63t-63 -27zM232 304q-11 0 -20 9t-9 20t9 20t20 9t20 -9t9 -20t-9 -20t-20 -9zM232 28q-11 0 -20 9t-9 20t9 20t20 9t20 -9t9 -20t-9 -20t-20 -9zM508 580q-11 0 -20 9t-9 20t9 20t20 9t20 -9t9 -20t-9 -20
t-20 -9zM508 304q-11 0 -20 9t-9 20t9 20t20 9t20 -9t9 -20t-9 -20t-20 -9zM508 28q-11 0 -20 9t-9 20t9 20t20 9t20 -9t9 -20t-9 -20t-20 -9z" />
    <glyph glyph-name="a" unicode="&#xcd;" 
d="M232 519q-36 0 -63 27t-27 63t27 63t63 27t63 -27t27 -63t-27 -63t-63 -27zM232 304q-11 0 -20 9t-9 20t9 20t20 9t20 -9t9 -20t-9 -20t-20 -9zM232 28q-11 0 -20 9t-9 20t9 20t20 9t20 -9t9 -20t-9 -20t-20 -9zM508 580q-11 0 -20 9t-9 20t9 20t20 9t20 -9t9 -20t-9 -20
t-20 -9zM508 304q-11 0 -20 9t-9 20t9 20t20 9t20 -9t9 -20t-9 -20t-20 -9zM508 28q-11 0 -20 9t-9 20t9 20t20 9t20 -9t9 -20t-9 -20t-20 -9z" />
    <glyph glyph-name="a" unicode="&#xcc;" 
d="M232 519q-36 0 -63 27t-27 63t27 63t63 27t63 -27t27 -63t-27 -63t-63 -27zM232 304q-11 0 -20 9t-9 20t9 20t20 9t20 -9t9 -20t-9 -20t-20 -9zM232 28q-11 0 -20 9t-9 20t9 20t20 9t20 -9t9 -20t-9 -20t-20 -9zM508 580q-11 0 -20 9t-9 20t9 20t20 9t20 -9t9 -20t-9 -20
t-20 -9zM508 304q-11 0 -20 9t-9 20t9 20t20 9t20 -9t9 -20t-9 -20t-20 -9zM508 28q-11 0 -20 9t-9 20t9 20t20 9t20 -9t9 -20t-9 -20t-20 -9z" />
    <glyph glyph-name="a" unicode="&#xcb;" 
d="M232 519q-36 0 -63 27t-27 63t27 63t63 27t63 -27t27 -63t-27 -63t-63 -27zM232 304q-11 0 -20 9t-9 20t9 20t20 9t20 -9t9 -20t-9 -20t-20 -9zM232 28q-11 0 -20 9t-9 20t9 20t20 9t20 -9t9 -20t-9 -20t-20 -9zM508 580q-11 0 -20 9t-9 20t9 20t20 9t20 -9t9 -20t-9 -20
t-20 -9zM508 304q-11 0 -20 9t-9 20t9 20t20 9t20 -9t9 -20t-9 -20t-20 -9zM508 28q-11 0 -20 9t-9 20t9 20t20 9t20 -9t9 -20t-9 -20t-20 -9z" />
    <glyph glyph-name="a" unicode="&#xca;" 
d="M232 519q-36 0 -63 27t-27 63t27 63t63 27t63 -27t27 -63t-27 -63t-63 -27zM232 304q-11 0 -20 9t-9 20t9 20t20 9t20 -9t9 -20t-9 -20t-20 -9zM232 28q-11 0 -20 9t-9 20t9 20t20 9t20 -9t9 -20t-9 -20t-20 -9zM508 580q-11 0 -20 9t-9 20t9 20t20 9t20 -9t9 -20t-9 -20
t-20 -9zM508 304q-11 0 -20 9t-9 20t9 20t20 9t20 -9t9 -20t-9 -20t-20 -9zM508 28q-11 0 -20 9t-9 20t9 20t20 9t20 -9t9 -20t-9 -20t-20 -9z" />
    <glyph glyph-name="a" unicode="&#xc9;" 
d="M232 519q-36 0 -63 27t-27 63t27 63t63 27t63 -27t27 -63t-27 -63t-63 -27zM232 304q-11 0 -20 9t-9 20t9 20t20 9t20 -9t9 -20t-9 -20t-20 -9zM232 28q-11 0 -20 9t-9 20t9 20t20 9t20 -9t9 -20t-9 -20t-20 -9zM508 580q-11 0 -20 9t-9 20t9 20t20 9t20 -9t9 -20t-9 -20
t-20 -9zM508 304q-11 0 -20 9t-9 20t9 20t20 9t20 -9t9 -20t-9 -20t-20 -9zM508 28q-11 0 -20 9t-9 20t9 20t20 9t20 -9t9 -20t-9 -20t-20 -9z" />
    <glyph glyph-name="a" unicode="&#xc8;" 
d="M232 519q-36 0 -63 27t-27 63t27 63t63 27t63 -27t27 -63t-27 -63t-63 -27zM232 304q-11 0 -20 9t-9 20t9 20t20 9t20 -9t9 -20t-9 -20t-20 -9zM232 28q-11 0 -20 9t-9 20t9 20t20 9t20 -9t9 -20t-9 -20t-20 -9zM508 580q-11 0 -20 9t-9 20t9 20t20 9t20 -9t9 -20t-9 -20
t-20 -9zM508 304q-11 0 -20 9t-9 20t9 20t20 9t20 -9t9 -20t-9 -20t-20 -9zM508 28q-11 0 -20 9t-9 20t9 20t20 9t20 -9t9 -20t-9 -20t-20 -9z" />
    <glyph glyph-name="a" unicode="&#xc7;" 
d="M232 519q-36 0 -63 27t-27 63t27 63t63 27t63 -27t27 -63t-27 -63t-63 -27zM232 304q-11 0 -20 9t-9 20t9 20t20 9t20 -9t9 -20t-9 -20t-20 -9zM232 28q-11 0 -20 9t-9 20t9 20t20 9t20 -9t9 -20t-9 -20t-20 -9zM508 580q-11 0 -20 9t-9 20t9 20t20 9t20 -9t9 -20t-9 -20
t-20 -9zM508 304q-11 0 -20 9t-9 20t9 20t20 9t20 -9t9 -20t-9 -20t-20 -9zM508 28q-11 0 -20 9t-9 20t9 20t20 9t20 -9t9 -20t-9 -20t-20 -9z" />
    <glyph glyph-name="a" unicode="&#xc6;" 
d="M232 519q-36 0 -63 27t-27 63t27 63t63 27t63 -27t27 -63t-27 -63t-63 -27zM232 304q-11 0 -20 9t-9 20t9 20t20 9t20 -9t9 -20t-9 -20t-20 -9zM232 28q-11 0 -20 9t-9 20t9 20t20 9t20 -9t9 -20t-9 -20t-20 -9zM508 580q-11 0 -20 9t-9 20t9 20t20 9t20 -9t9 -20t-9 -20
t-20 -9zM508 304q-11 0 -20 9t-9 20t9 20t20 9t20 -9t9 -20t-9 -20t-20 -9zM508 28q-11 0 -20 9t-9 20t9 20t20 9t20 -9t9 -20t-9 -20t-20 -9z" />
    <glyph glyph-name="a" unicode="&#xc5;" 
d="M232 519q-36 0 -63 27t-27 63t27 63t63 27t63 -27t27 -63t-27 -63t-63 -27zM232 304q-11 0 -20 9t-9 20t9 20t20 9t20 -9t9 -20t-9 -20t-20 -9zM232 28q-11 0 -20 9t-9 20t9 20t20 9t20 -9t9 -20t-9 -20t-20 -9zM508 580q-11 0 -20 9t-9 20t9 20t20 9t20 -9t9 -20t-9 -20
t-20 -9zM508 304q-11 0 -20 9t-9 20t9 20t20 9t20 -9t9 -20t-9 -20t-20 -9zM508 28q-11 0 -20 9t-9 20t9 20t20 9t20 -9t9 -20t-9 -20t-20 -9z" />
    <glyph glyph-name="a" unicode="&#xc4;" 
d="M232 519q-36 0 -63 27t-27 63t27 63t63 27t63 -27t27 -63t-27 -63t-63 -27zM232 304q-11 0 -20 9t-9 20t9 20t20 9t20 -9t9 -20t-9 -20t-20 -9zM232 28q-11 0 -20 9t-9 20t9 20t20 9t20 -9t9 -20t-9 -20t-20 -9zM508 580q-11 0 -20 9t-9 20t9 20t20 9t20 -9t9 -20t-9 -20
t-20 -9zM508 304q-11 0 -20 9t-9 20t9 20t20 9t20 -9t9 -20t-9 -20t-20 -9zM508 28q-11 0 -20 9t-9 20t9 20t20 9t20 -9t9 -20t-9 -20t-20 -9z" />
    <glyph glyph-name="a" unicode="&#xc3;" 
d="M232 519q-36 0 -63 27t-27 63t27 63t63 27t63 -27t27 -63t-27 -63t-63 -27zM232 304q-11 0 -20 9t-9 20t9 20t20 9t20 -9t9 -20t-9 -20t-20 -9zM232 28q-11 0 -20 9t-9 20t9 20t20 9t20 -9t9 -20t-9 -20t-20 -9zM508 580q-11 0 -20 9t-9 20t9 20t20 9t20 -9t9 -20t-9 -20
t-20 -9zM508 304q-11 0 -20 9t-9 20t9 20t20 9t20 -9t9 -20t-9 -20t-20 -9zM508 28q-11 0 -20 9t-9 20t9 20t20 9t20 -9t9 -20t-9 -20t-20 -9z" />
    <glyph glyph-name="a" unicode="&#xc2;" 
d="M232 519q-36 0 -63 27t-27 63t27 63t63 27t63 -27t27 -63t-27 -63t-63 -27zM232 304q-11 0 -20 9t-9 20t9 20t20 9t20 -9t9 -20t-9 -20t-20 -9zM232 28q-11 0 -20 9t-9 20t9 20t20 9t20 -9t9 -20t-9 -20t-20 -9zM508 580q-11 0 -20 9t-9 20t9 20t20 9t20 -9t9 -20t-9 -20
t-20 -9zM508 304q-11 0 -20 9t-9 20t9 20t20 9t20 -9t9 -20t-9 -20t-20 -9zM508 28q-11 0 -20 9t-9 20t9 20t20 9t20 -9t9 -20t-9 -20t-20 -9z" />
    <glyph glyph-name="a" unicode="&#xc1;" 
d="M232 519q-36 0 -63 27t-27 63t27 63t63 27t63 -27t27 -63t-27 -63t-63 -27zM232 304q-11 0 -20 9t-9 20t9 20t20 9t20 -9t9 -20t-9 -20t-20 -9zM232 28q-11 0 -20 9t-9 20t9 20t20 9t20 -9t9 -20t-9 -20t-20 -9zM508 580q-11 0 -20 9t-9 20t9 20t20 9t20 -9t9 -20t-9 -20
t-20 -9zM508 304q-11 0 -20 9t-9 20t9 20t20 9t20 -9t9 -20t-9 -20t-20 -9zM508 28q-11 0 -20 9t-9 20t9 20t20 9t20 -9t9 -20t-9 -20t-20 -9z" />
    <glyph glyph-name="a" unicode="&#xc0;" 
d="M232 519q-36 0 -63 27t-27 63t27 63t63 27t63 -27t27 -63t-27 -63t-63 -27zM232 304q-11 0 -20 9t-9 20t9 20t20 9t20 -9t9 -20t-9 -20t-20 -9zM232 28q-11 0 -20 9t-9 20t9 20t20 9t20 -9t9 -20t-9 -20t-20 -9zM508 580q-11 0 -20 9t-9 20t9 20t20 9t20 -9t9 -20t-9 -20
t-20 -9zM508 304q-11 0 -20 9t-9 20t9 20t20 9t20 -9t9 -20t-9 -20t-20 -9zM508 28q-11 0 -20 9t-9 20t9 20t20 9t20 -9t9 -20t-9 -20t-20 -9z" />
    <glyph glyph-name="a" unicode="&#xbf;" 
d="M232 519q-36 0 -63 27t-27 63t27 63t63 27t63 -27t27 -63t-27 -63t-63 -27zM232 304q-11 0 -20 9t-9 20t9 20t20 9t20 -9t9 -20t-9 -20t-20 -9zM232 28q-11 0 -20 9t-9 20t9 20t20 9t20 -9t9 -20t-9 -20t-20 -9zM508 580q-11 0 -20 9t-9 20t9 20t20 9t20 -9t9 -20t-9 -20
t-20 -9zM508 304q-11 0 -20 9t-9 20t9 20t20 9t20 -9t9 -20t-9 -20t-20 -9zM508 28q-11 0 -20 9t-9 20t9 20t20 9t20 -9t9 -20t-9 -20t-20 -9z" />
    <glyph glyph-name="a" unicode="&#xbe;" 
d="M232 519q-36 0 -63 27t-27 63t27 63t63 27t63 -27t27 -63t-27 -63t-63 -27zM232 304q-11 0 -20 9t-9 20t9 20t20 9t20 -9t9 -20t-9 -20t-20 -9zM232 28q-11 0 -20 9t-9 20t9 20t20 9t20 -9t9 -20t-9 -20t-20 -9zM508 580q-11 0 -20 9t-9 20t9 20t20 9t20 -9t9 -20t-9 -20
t-20 -9zM508 304q-11 0 -20 9t-9 20t9 20t20 9t20 -9t9 -20t-9 -20t-20 -9zM508 28q-11 0 -20 9t-9 20t9 20t20 9t20 -9t9 -20t-9 -20t-20 -9z" />
    <glyph glyph-name="a" unicode="&#xbd;" 
d="M232 519q-36 0 -63 27t-27 63t27 63t63 27t63 -27t27 -63t-27 -63t-63 -27zM232 304q-11 0 -20 9t-9 20t9 20t20 9t20 -9t9 -20t-9 -20t-20 -9zM232 28q-11 0 -20 9t-9 20t9 20t20 9t20 -9t9 -20t-9 -20t-20 -9zM508 580q-11 0 -20 9t-9 20t9 20t20 9t20 -9t9 -20t-9 -20
t-20 -9zM508 304q-11 0 -20 9t-9 20t9 20t20 9t20 -9t9 -20t-9 -20t-20 -9zM508 28q-11 0 -20 9t-9 20t9 20t20 9t20 -9t9 -20t-9 -20t-20 -9z" />
    <glyph glyph-name="a" unicode="&#xbc;" 
d="M232 519q-36 0 -63 27t-27 63t27 63t63 27t63 -27t27 -63t-27 -63t-63 -27zM232 304q-11 0 -20 9t-9 20t9 20t20 9t20 -9t9 -20t-9 -20t-20 -9zM232 28q-11 0 -20 9t-9 20t9 20t20 9t20 -9t9 -20t-9 -20t-20 -9zM508 580q-11 0 -20 9t-9 20t9 20t20 9t20 -9t9 -20t-9 -20
t-20 -9zM508 304q-11 0 -20 9t-9 20t9 20t20 9t20 -9t9 -20t-9 -20t-20 -9zM508 28q-11 0 -20 9t-9 20t9 20t20 9t20 -9t9 -20t-9 -20t-20 -9z" />
    <glyph glyph-name="a" unicode="&#xbb;" 
d="M232 519q-36 0 -63 27t-27 63t27 63t63 27t63 -27t27 -63t-27 -63t-63 -27zM232 304q-11 0 -20 9t-9 20t9 20t20 9t20 -9t9 -20t-9 -20t-20 -9zM232 28q-11 0 -20 9t-9 20t9 20t20 9t20 -9t9 -20t-9 -20t-20 -9zM508 580q-11 0 -20 9t-9 20t9 20t20 9t20 -9t9 -20t-9 -20
t-20 -9zM508 304q-11 0 -20 9t-9 20t9 20t20 9t20 -9t9 -20t-9 -20t-20 -9zM508 28q-11 0 -20 9t-9 20t9 20t20 9t20 -9t9 -20t-9 -20t-20 -9z" />
    <glyph glyph-name="a" unicode="&#xba;" 
d="M232 519q-36 0 -63 27t-27 63t27 63t63 27t63 -27t27 -63t-27 -63t-63 -27zM232 304q-11 0 -20 9t-9 20t9 20t20 9t20 -9t9 -20t-9 -20t-20 -9zM232 28q-11 0 -20 9t-9 20t9 20t20 9t20 -9t9 -20t-9 -20t-20 -9zM508 580q-11 0 -20 9t-9 20t9 20t20 9t20 -9t9 -20t-9 -20
t-20 -9zM508 304q-11 0 -20 9t-9 20t9 20t20 9t20 -9t9 -20t-9 -20t-20 -9zM508 28q-11 0 -20 9t-9 20t9 20t20 9t20 -9t9 -20t-9 -20t-20 -9z" />
    <glyph glyph-name="a" unicode="&#xb9;" 
d="M232 519q-36 0 -63 27t-27 63t27 63t63 27t63 -27t27 -63t-27 -63t-63 -27zM232 304q-11 0 -20 9t-9 20t9 20t20 9t20 -9t9 -20t-9 -20t-20 -9zM232 28q-11 0 -20 9t-9 20t9 20t20 9t20 -9t9 -20t-9 -20t-20 -9zM508 580q-11 0 -20 9t-9 20t9 20t20 9t20 -9t9 -20t-9 -20
t-20 -9zM508 304q-11 0 -20 9t-9 20t9 20t20 9t20 -9t9 -20t-9 -20t-20 -9zM508 28q-11 0 -20 9t-9 20t9 20t20 9t20 -9t9 -20t-9 -20t-20 -9z" />
    <glyph glyph-name="a" unicode="&#xb8;" 
d="M232 519q-36 0 -63 27t-27 63t27 63t63 27t63 -27t27 -63t-27 -63t-63 -27zM232 304q-11 0 -20 9t-9 20t9 20t20 9t20 -9t9 -20t-9 -20t-20 -9zM232 28q-11 0 -20 9t-9 20t9 20t20 9t20 -9t9 -20t-9 -20t-20 -9zM508 580q-11 0 -20 9t-9 20t9 20t20 9t20 -9t9 -20t-9 -20
t-20 -9zM508 304q-11 0 -20 9t-9 20t9 20t20 9t20 -9t9 -20t-9 -20t-20 -9zM508 28q-11 0 -20 9t-9 20t9 20t20 9t20 -9t9 -20t-9 -20t-20 -9z" />
    <glyph glyph-name="a" unicode="&#xb7;" 
d="M232 519q-36 0 -63 27t-27 63t27 63t63 27t63 -27t27 -63t-27 -63t-63 -27zM232 304q-11 0 -20 9t-9 20t9 20t20 9t20 -9t9 -20t-9 -20t-20 -9zM232 28q-11 0 -20 9t-9 20t9 20t20 9t20 -9t9 -20t-9 -20t-20 -9zM508 580q-11 0 -20 9t-9 20t9 20t20 9t20 -9t9 -20t-9 -20
t-20 -9zM508 304q-11 0 -20 9t-9 20t9 20t20 9t20 -9t9 -20t-9 -20t-20 -9zM508 28q-11 0 -20 9t-9 20t9 20t20 9t20 -9t9 -20t-9 -20t-20 -9z" />
    <glyph glyph-name="a" unicode="&#xb6;" 
d="M232 519q-36 0 -63 27t-27 63t27 63t63 27t63 -27t27 -63t-27 -63t-63 -27zM232 304q-11 0 -20 9t-9 20t9 20t20 9t20 -9t9 -20t-9 -20t-20 -9zM232 28q-11 0 -20 9t-9 20t9 20t20 9t20 -9t9 -20t-9 -20t-20 -9zM508 580q-11 0 -20 9t-9 20t9 20t20 9t20 -9t9 -20t-9 -20
t-20 -9zM508 304q-11 0 -20 9t-9 20t9 20t20 9t20 -9t9 -20t-9 -20t-20 -9zM508 28q-11 0 -20 9t-9 20t9 20t20 9t20 -9t9 -20t-9 -20t-20 -9z" />
    <glyph glyph-name="a" unicode="&#xb5;" 
d="M232 519q-36 0 -63 27t-27 63t27 63t63 27t63 -27t27 -63t-27 -63t-63 -27zM232 304q-11 0 -20 9t-9 20t9 20t20 9t20 -9t9 -20t-9 -20t-20 -9zM232 28q-11 0 -20 9t-9 20t9 20t20 9t20 -9t9 -20t-9 -20t-20 -9zM508 580q-11 0 -20 9t-9 20t9 20t20 9t20 -9t9 -20t-9 -20
t-20 -9zM508 304q-11 0 -20 9t-9 20t9 20t20 9t20 -9t9 -20t-9 -20t-20 -9zM508 28q-11 0 -20 9t-9 20t9 20t20 9t20 -9t9 -20t-9 -20t-20 -9z" />
    <glyph glyph-name="a" unicode="&#xb4;" 
d="M232 519q-36 0 -63 27t-27 63t27 63t63 27t63 -27t27 -63t-27 -63t-63 -27zM232 304q-11 0 -20 9t-9 20t9 20t20 9t20 -9t9 -20t-9 -20t-20 -9zM232 28q-11 0 -20 9t-9 20t9 20t20 9t20 -9t9 -20t-9 -20t-20 -9zM508 580q-11 0 -20 9t-9 20t9 20t20 9t20 -9t9 -20t-9 -20
t-20 -9zM508 304q-11 0 -20 9t-9 20t9 20t20 9t20 -9t9 -20t-9 -20t-20 -9zM508 28q-11 0 -20 9t-9 20t9 20t20 9t20 -9t9 -20t-9 -20t-20 -9z" />
    <glyph glyph-name="a" unicode="&#xb3;" 
d="M232 519q-36 0 -63 27t-27 63t27 63t63 27t63 -27t27 -63t-27 -63t-63 -27zM232 304q-11 0 -20 9t-9 20t9 20t20 9t20 -9t9 -20t-9 -20t-20 -9zM232 28q-11 0 -20 9t-9 20t9 20t20 9t20 -9t9 -20t-9 -20t-20 -9zM508 580q-11 0 -20 9t-9 20t9 20t20 9t20 -9t9 -20t-9 -20
t-20 -9zM508 304q-11 0 -20 9t-9 20t9 20t20 9t20 -9t9 -20t-9 -20t-20 -9zM508 28q-11 0 -20 9t-9 20t9 20t20 9t20 -9t9 -20t-9 -20t-20 -9z" />
    <glyph glyph-name="a" unicode="&#xb2;" 
d="M232 519q-36 0 -63 27t-27 63t27 63t63 27t63 -27t27 -63t-27 -63t-63 -27zM232 304q-11 0 -20 9t-9 20t9 20t20 9t20 -9t9 -20t-9 -20t-20 -9zM232 28q-11 0 -20 9t-9 20t9 20t20 9t20 -9t9 -20t-9 -20t-20 -9zM508 580q-11 0 -20 9t-9 20t9 20t20 9t20 -9t9 -20t-9 -20
t-20 -9zM508 304q-11 0 -20 9t-9 20t9 20t20 9t20 -9t9 -20t-9 -20t-20 -9zM508 28q-11 0 -20 9t-9 20t9 20t20 9t20 -9t9 -20t-9 -20t-20 -9z" />
    <glyph glyph-name="a" unicode="&#xb1;" 
d="M232 519q-36 0 -63 27t-27 63t27 63t63 27t63 -27t27 -63t-27 -63t-63 -27zM232 304q-11 0 -20 9t-9 20t9 20t20 9t20 -9t9 -20t-9 -20t-20 -9zM232 28q-11 0 -20 9t-9 20t9 20t20 9t20 -9t9 -20t-9 -20t-20 -9zM508 580q-11 0 -20 9t-9 20t9 20t20 9t20 -9t9 -20t-9 -20
t-20 -9zM508 304q-11 0 -20 9t-9 20t9 20t20 9t20 -9t9 -20t-9 -20t-20 -9zM508 28q-11 0 -20 9t-9 20t9 20t20 9t20 -9t9 -20t-9 -20t-20 -9z" />
    <glyph glyph-name="a" unicode="&#xb0;" 
d="M232 519q-36 0 -63 27t-27 63t27 63t63 27t63 -27t27 -63t-27 -63t-63 -27zM232 304q-11 0 -20 9t-9 20t9 20t20 9t20 -9t9 -20t-9 -20t-20 -9zM232 28q-11 0 -20 9t-9 20t9 20t20 9t20 -9t9 -20t-9 -20t-20 -9zM508 580q-11 0 -20 9t-9 20t9 20t20 9t20 -9t9 -20t-9 -20
t-20 -9zM508 304q-11 0 -20 9t-9 20t9 20t20 9t20 -9t9 -20t-9 -20t-20 -9zM508 28q-11 0 -20 9t-9 20t9 20t20 9t20 -9t9 -20t-9 -20t-20 -9z" />
    <glyph glyph-name="a" unicode="&#xaf;" 
d="M232 519q-36 0 -63 27t-27 63t27 63t63 27t63 -27t27 -63t-27 -63t-63 -27zM232 304q-11 0 -20 9t-9 20t9 20t20 9t20 -9t9 -20t-9 -20t-20 -9zM232 28q-11 0 -20 9t-9 20t9 20t20 9t20 -9t9 -20t-9 -20t-20 -9zM508 580q-11 0 -20 9t-9 20t9 20t20 9t20 -9t9 -20t-9 -20
t-20 -9zM508 304q-11 0 -20 9t-9 20t9 20t20 9t20 -9t9 -20t-9 -20t-20 -9zM508 28q-11 0 -20 9t-9 20t9 20t20 9t20 -9t9 -20t-9 -20t-20 -9z" />
    <glyph glyph-name="a" unicode="&#xae;" 
d="M232 519q-36 0 -63 27t-27 63t27 63t63 27t63 -27t27 -63t-27 -63t-63 -27zM232 304q-11 0 -20 9t-9 20t9 20t20 9t20 -9t9 -20t-9 -20t-20 -9zM232 28q-11 0 -20 9t-9 20t9 20t20 9t20 -9t9 -20t-9 -20t-20 -9zM508 580q-11 0 -20 9t-9 20t9 20t20 9t20 -9t9 -20t-9 -20
t-20 -9zM508 304q-11 0 -20 9t-9 20t9 20t20 9t20 -9t9 -20t-9 -20t-20 -9zM508 28q-11 0 -20 9t-9 20t9 20t20 9t20 -9t9 -20t-9 -20t-20 -9z" />
    <glyph glyph-name="a" unicode="&#xad;" 
d="M232 519q-36 0 -63 27t-27 63t27 63t63 27t63 -27t27 -63t-27 -63t-63 -27zM232 304q-11 0 -20 9t-9 20t9 20t20 9t20 -9t9 -20t-9 -20t-20 -9zM232 28q-11 0 -20 9t-9 20t9 20t20 9t20 -9t9 -20t-9 -20t-20 -9zM508 580q-11 0 -20 9t-9 20t9 20t20 9t20 -9t9 -20t-9 -20
t-20 -9zM508 304q-11 0 -20 9t-9 20t9 20t20 9t20 -9t9 -20t-9 -20t-20 -9zM508 28q-11 0 -20 9t-9 20t9 20t20 9t20 -9t9 -20t-9 -20t-20 -9z" />
    <glyph glyph-name="a" unicode="&#xac;" 
d="M232 519q-36 0 -63 27t-27 63t27 63t63 27t63 -27t27 -63t-27 -63t-63 -27zM232 304q-11 0 -20 9t-9 20t9 20t20 9t20 -9t9 -20t-9 -20t-20 -9zM232 28q-11 0 -20 9t-9 20t9 20t20 9t20 -9t9 -20t-9 -20t-20 -9zM508 580q-11 0 -20 9t-9 20t9 20t20 9t20 -9t9 -20t-9 -20
t-20 -9zM508 304q-11 0 -20 9t-9 20t9 20t20 9t20 -9t9 -20t-9 -20t-20 -9zM508 28q-11 0 -20 9t-9 20t9 20t20 9t20 -9t9 -20t-9 -20t-20 -9z" />
    <glyph glyph-name="a" unicode="&#xab;" 
d="M232 519q-36 0 -63 27t-27 63t27 63t63 27t63 -27t27 -63t-27 -63t-63 -27zM232 304q-11 0 -20 9t-9 20t9 20t20 9t20 -9t9 -20t-9 -20t-20 -9zM232 28q-11 0 -20 9t-9 20t9 20t20 9t20 -9t9 -20t-9 -20t-20 -9zM508 580q-11 0 -20 9t-9 20t9 20t20 9t20 -9t9 -20t-9 -20
t-20 -9zM508 304q-11 0 -20 9t-9 20t9 20t20 9t20 -9t9 -20t-9 -20t-20 -9zM508 28q-11 0 -20 9t-9 20t9 20t20 9t20 -9t9 -20t-9 -20t-20 -9z" />
    <glyph glyph-name="a" unicode="&#xaa;" 
d="M232 519q-36 0 -63 27t-27 63t27 63t63 27t63 -27t27 -63t-27 -63t-63 -27zM232 304q-11 0 -20 9t-9 20t9 20t20 9t20 -9t9 -20t-9 -20t-20 -9zM232 28q-11 0 -20 9t-9 20t9 20t20 9t20 -9t9 -20t-9 -20t-20 -9zM508 580q-11 0 -20 9t-9 20t9 20t20 9t20 -9t9 -20t-9 -20
t-20 -9zM508 304q-11 0 -20 9t-9 20t9 20t20 9t20 -9t9 -20t-9 -20t-20 -9zM508 28q-11 0 -20 9t-9 20t9 20t20 9t20 -9t9 -20t-9 -20t-20 -9z" />
    <glyph glyph-name="a" unicode="&#xa9;" 
d="M232 519q-36 0 -63 27t-27 63t27 63t63 27t63 -27t27 -63t-27 -63t-63 -27zM232 304q-11 0 -20 9t-9 20t9 20t20 9t20 -9t9 -20t-9 -20t-20 -9zM232 28q-11 0 -20 9t-9 20t9 20t20 9t20 -9t9 -20t-9 -20t-20 -9zM508 580q-11 0 -20 9t-9 20t9 20t20 9t20 -9t9 -20t-9 -20
t-20 -9zM508 304q-11 0 -20 9t-9 20t9 20t20 9t20 -9t9 -20t-9 -20t-20 -9zM508 28q-11 0 -20 9t-9 20t9 20t20 9t20 -9t9 -20t-9 -20t-20 -9z" />
    <glyph glyph-name="a" unicode="&#xa8;" 
d="M232 519q-36 0 -63 27t-27 63t27 63t63 27t63 -27t27 -63t-27 -63t-63 -27zM232 304q-11 0 -20 9t-9 20t9 20t20 9t20 -9t9 -20t-9 -20t-20 -9zM232 28q-11 0 -20 9t-9 20t9 20t20 9t20 -9t9 -20t-9 -20t-20 -9zM508 580q-11 0 -20 9t-9 20t9 20t20 9t20 -9t9 -20t-9 -20
t-20 -9zM508 304q-11 0 -20 9t-9 20t9 20t20 9t20 -9t9 -20t-9 -20t-20 -9zM508 28q-11 0 -20 9t-9 20t9 20t20 9t20 -9t9 -20t-9 -20t-20 -9z" />
    <glyph glyph-name="a" unicode="&#xa7;" 
d="M232 519q-36 0 -63 27t-27 63t27 63t63 27t63 -27t27 -63t-27 -63t-63 -27zM232 304q-11 0 -20 9t-9 20t9 20t20 9t20 -9t9 -20t-9 -20t-20 -9zM232 28q-11 0 -20 9t-9 20t9 20t20 9t20 -9t9 -20t-9 -20t-20 -9zM508 580q-11 0 -20 9t-9 20t9 20t20 9t20 -9t9 -20t-9 -20
t-20 -9zM508 304q-11 0 -20 9t-9 20t9 20t20 9t20 -9t9 -20t-9 -20t-20 -9zM508 28q-11 0 -20 9t-9 20t9 20t20 9t20 -9t9 -20t-9 -20t-20 -9z" />
    <glyph glyph-name="a" unicode="&#xa6;" 
d="M232 519q-36 0 -63 27t-27 63t27 63t63 27t63 -27t27 -63t-27 -63t-63 -27zM232 304q-11 0 -20 9t-9 20t9 20t20 9t20 -9t9 -20t-9 -20t-20 -9zM232 28q-11 0 -20 9t-9 20t9 20t20 9t20 -9t9 -20t-9 -20t-20 -9zM508 580q-11 0 -20 9t-9 20t9 20t20 9t20 -9t9 -20t-9 -20
t-20 -9zM508 304q-11 0 -20 9t-9 20t9 20t20 9t20 -9t9 -20t-9 -20t-20 -9zM508 28q-11 0 -20 9t-9 20t9 20t20 9t20 -9t9 -20t-9 -20t-20 -9z" />
    <glyph glyph-name="a" unicode="&#xa5;" 
d="M232 519q-36 0 -63 27t-27 63t27 63t63 27t63 -27t27 -63t-27 -63t-63 -27zM232 304q-11 0 -20 9t-9 20t9 20t20 9t20 -9t9 -20t-9 -20t-20 -9zM232 28q-11 0 -20 9t-9 20t9 20t20 9t20 -9t9 -20t-9 -20t-20 -9zM508 580q-11 0 -20 9t-9 20t9 20t20 9t20 -9t9 -20t-9 -20
t-20 -9zM508 304q-11 0 -20 9t-9 20t9 20t20 9t20 -9t9 -20t-9 -20t-20 -9zM508 28q-11 0 -20 9t-9 20t9 20t20 9t20 -9t9 -20t-9 -20t-20 -9z" />
    <glyph glyph-name="a" unicode="&#xa4;" 
d="M232 519q-36 0 -63 27t-27 63t27 63t63 27t63 -27t27 -63t-27 -63t-63 -27zM232 304q-11 0 -20 9t-9 20t9 20t20 9t20 -9t9 -20t-9 -20t-20 -9zM232 28q-11 0 -20 9t-9 20t9 20t20 9t20 -9t9 -20t-9 -20t-20 -9zM508 580q-11 0 -20 9t-9 20t9 20t20 9t20 -9t9 -20t-9 -20
t-20 -9zM508 304q-11 0 -20 9t-9 20t9 20t20 9t20 -9t9 -20t-9 -20t-20 -9zM508 28q-11 0 -20 9t-9 20t9 20t20 9t20 -9t9 -20t-9 -20t-20 -9z" />
    <glyph glyph-name="a" unicode="&#xa3;" 
d="M232 519q-36 0 -63 27t-27 63t27 63t63 27t63 -27t27 -63t-27 -63t-63 -27zM232 304q-11 0 -20 9t-9 20t9 20t20 9t20 -9t9 -20t-9 -20t-20 -9zM232 28q-11 0 -20 9t-9 20t9 20t20 9t20 -9t9 -20t-9 -20t-20 -9zM508 580q-11 0 -20 9t-9 20t9 20t20 9t20 -9t9 -20t-9 -20
t-20 -9zM508 304q-11 0 -20 9t-9 20t9 20t20 9t20 -9t9 -20t-9 -20t-20 -9zM508 28q-11 0 -20 9t-9 20t9 20t20 9t20 -9t9 -20t-9 -20t-20 -9z" />
    <glyph glyph-name="a" unicode="&#xa2;" 
d="M232 519q-36 0 -63 27t-27 63t27 63t63 27t63 -27t27 -63t-27 -63t-63 -27zM232 304q-11 0 -20 9t-9 20t9 20t20 9t20 -9t9 -20t-9 -20t-20 -9zM232 28q-11 0 -20 9t-9 20t9 20t20 9t20 -9t9 -20t-9 -20t-20 -9zM508 580q-11 0 -20 9t-9 20t9 20t20 9t20 -9t9 -20t-9 -20
t-20 -9zM508 304q-11 0 -20 9t-9 20t9 20t20 9t20 -9t9 -20t-9 -20t-20 -9zM508 28q-11 0 -20 9t-9 20t9 20t20 9t20 -9t9 -20t-9 -20t-20 -9z" />
    <glyph glyph-name="a" unicode="&#xa1;" 
d="M232 519q-36 0 -63 27t-27 63t27 63t63 27t63 -27t27 -63t-27 -63t-63 -27zM232 304q-11 0 -20 9t-9 20t9 20t20 9t20 -9t9 -20t-9 -20t-20 -9zM232 28q-11 0 -20 9t-9 20t9 20t20 9t20 -9t9 -20t-9 -20t-20 -9zM508 580q-11 0 -20 9t-9 20t9 20t20 9t20 -9t9 -20t-9 -20
t-20 -9zM508 304q-11 0 -20 9t-9 20t9 20t20 9t20 -9t9 -20t-9 -20t-20 -9zM508 28q-11 0 -20 9t-9 20t9 20t20 9t20 -9t9 -20t-9 -20t-20 -9z" />
    <glyph glyph-name="one" unicode="1" 
d="M232 243q-36 0 -63 27t-27 63t27 63t63 27t63 -27t27 -63t-27 -63t-63 -27zM232 580q-11 0 -20 9t-9 20t9 20t20 9t20 -9t9 -20t-9 -20t-20 -9zM232 28q-11 0 -20 9t-9 20t9 20t20 9t20 -9t9 -20t-9 -20t-20 -9zM508 580q-11 0 -20 9t-9 20t9 20t20 9t20 -9t9 -20t-9 -20
t-20 -9zM508 304q-11 0 -20 9t-9 20t9 20t20 9t20 -9t9 -20t-9 -20t-20 -9zM508 28q-11 0 -20 9t-9 20t9 20t20 9t20 -9t9 -20t-9 -20t-20 -9z" />
    <glyph glyph-name="quotesingle" unicode="'" 
d="M232 -33q-36 0 -63 27t-27 63t27 63t63 27t63 -27t27 -63t-27 -63t-63 -27zM232 580q-11 0 -20 9t-9 20t9 20t20 9t20 -9t9 -20t-9 -20t-20 -9zM232 304q-11 0 -20 9t-9 20t9 20t20 9t20 -9t9 -20t-9 -20t-20 -9zM508 580q-11 0 -20 9t-9 20t9 20t20 9t20 -9t9 -20
t-9 -20t-20 -9zM508 304q-11 0 -20 9t-9 20t9 20t20 9t20 -9t9 -20t-9 -20t-20 -9zM508 28q-11 0 -20 9t-9 20t9 20t20 9t20 -9t9 -20t-9 -20t-20 -9z" />
    <glyph glyph-name="at" unicode="@" 
d="M508 519q-36 0 -63 27t-27 63t27 63t63 27t63 -27t27 -63t-27 -63t-63 -27zM232 580q-11 0 -20 9t-9 20t9 20t20 9t20 -9t9 -20t-9 -20t-20 -9zM232 304q-11 0 -20 9t-9 20t9 20t20 9t20 -9t9 -20t-9 -20t-20 -9zM232 28q-11 0 -20 9t-9 20t9 20t20 9t20 -9t9 -20t-9 -20
t-20 -9zM508 304q-11 0 -20 9t-9 20t9 20t20 9t20 -9t9 -20t-9 -20t-20 -9zM508 28q-11 0 -20 9t-9 20t9 20t20 9t20 -9t9 -20t-9 -20t-20 -9z" />
    <glyph glyph-name="quotedbl" unicode="&#x22;" 
d="M508 243q-36 0 -63 27t-27 63t27 63t63 27t63 -27t27 -63t-27 -63t-63 -27zM232 580q-11 0 -20 9t-9 20t9 20t20 9t20 -9t9 -20t-9 -20t-20 -9zM232 304q-11 0 -20 9t-9 20t9 20t20 9t20 -9t9 -20t-9 -20t-20 -9zM232 28q-11 0 -20 9t-9 20t9 20t20 9t20 -9t9 -20t-9 -20
t-20 -9zM508 580q-11 0 -20 9t-9 20t9 20t20 9t20 -9t9 -20t-9 -20t-20 -9zM508 28q-11 0 -20 9t-9 20t9 20t20 9t20 -9t9 -20t-9 -20t-20 -9z" />
    <glyph glyph-name="comma" unicode="," 
d="M508 -33q-36 0 -63 27t-27 63t27 63t63 27t63 -27t27 -63t-27 -63t-63 -27zM232 580q-11 0 -20 9t-9 20t9 20t20 9t20 -9t9 -20t-9 -20t-20 -9zM232 304q-11 0 -20 9t-9 20t9 20t20 9t20 -9t9 -20t-9 -20t-20 -9zM232 28q-11 0 -20 9t-9 20t9 20t20 9t20 -9t9 -20t-9 -20
t-20 -9zM508 580q-11 0 -20 9t-9 20t9 20t20 9t20 -9t9 -20t-9 -20t-20 -9zM508 304q-11 0 -20 9t-9 20t9 20t20 9t20 -9t9 -20t-9 -20t-20 -9z" />
    <glyph glyph-name="b" unicode="b" 
d="M232 519q-36 0 -63 27t-27 63t27 63t63 27t63 -27t27 -63t-27 -63t-63 -27zM232 243q-36 0 -63 27t-27 63t27 63t63 27t63 -27t27 -63t-27 -63t-63 -27zM232 28q-11 0 -20 9t-9 20t9 20t20 9t20 -9t9 -20t-9 -20t-20 -9zM508 580q-11 0 -20 9t-9 20t9 20t20 9t20 -9
t9 -20t-9 -20t-20 -9zM508 304q-11 0 -20 9t-9 20t9 20t20 9t20 -9t9 -20t-9 -20t-20 -9zM508 28q-11 0 -20 9t-9 20t9 20t20 9t20 -9t9 -20t-9 -20t-20 -9z" />
    <glyph glyph-name="k" unicode="k" 
d="M232 519q-36 0 -63 27t-27 63t27 63t63 27t63 -27t27 -63t-27 -63t-63 -27zM232 -33q-36 0 -63 27t-27 63t27 63t63 27t63 -27t27 -63t-27 -63t-63 -27zM232 304q-11 0 -20 9t-9 20t9 20t20 9t20 -9t9 -20t-9 -20t-20 -9zM508 580q-11 0 -20 9t-9 20t9 20t20 9t20 -9
t9 -20t-9 -20t-20 -9zM508 304q-11 0 -20 9t-9 20t9 20t20 9t20 -9t9 -20t-9 -20t-20 -9zM508 28q-11 0 -20 9t-9 20t9 20t20 9t20 -9t9 -20t-9 -20t-20 -9z" />
    <glyph glyph-name="two" unicode="2" 
d="M232 243q-36 0 -63 27t-27 63t27 63t63 27t63 -27t27 -63t-27 -63t-63 -27zM232 -33q-36 0 -63 27t-27 63t27 63t63 27t63 -27t27 -63t-27 -63t-63 -27zM232 580q-11 0 -20 9t-9 20t9 20t20 9t20 -9t9 -20t-9 -20t-20 -9zM508 580q-11 0 -20 9t-9 20t9 20t20 9t20 -9
t9 -20t-9 -20t-20 -9zM508 304q-11 0 -20 9t-9 20t9 20t20 9t20 -9t9 -20t-9 -20t-20 -9zM508 28q-11 0 -20 9t-9 20t9 20t20 9t20 -9t9 -20t-9 -20t-20 -9z" />
    <glyph glyph-name="l" unicode="l" 
d="M232 519q-36 0 -63 27t-27 63t27 63t63 27t63 -27t27 -63t-27 -63t-63 -27zM232 243q-36 0 -63 27t-27 63t27 63t63 27t63 -27t27 -63t-27 -63t-63 -27zM232 -33q-36 0 -63 27t-27 63t27 63t63 27t63 -27t27 -63t-27 -63t-63 -27zM508 580q-11 0 -20 9t-9 20t9 20t20 9
t20 -9t9 -20t-9 -20t-20 -9zM508 304q-11 0 -20 9t-9 20t9 20t20 9t20 -9t9 -20t-9 -20t-20 -9zM508 28q-11 0 -20 9t-9 20t9 20t20 9t20 -9t9 -20t-9 -20t-20 -9z" />
    <glyph glyph-name="c" unicode="c" 
d="M232 519q-36 0 -63 27t-27 63t27 63t63 27t63 -27t27 -63t-27 -63t-63 -27zM508 519q-36 0 -63 27t-27 63t27 63t63 27t63 -27t27 -63t-27 -63t-63 -27zM232 304q-11 0 -20 9t-9 20t9 20t20 9t20 -9t9 -20t-9 -20t-20 -9zM232 28q-11 0 -20 9t-9 20t9 20t20 9t20 -9
t9 -20t-9 -20t-20 -9zM508 304q-11 0 -20 9t-9 20t9 20t20 9t20 -9t9 -20t-9 -20t-20 -9zM508 28q-11 0 -20 9t-9 20t9 20t20 9t20 -9t9 -20t-9 -20t-20 -9z" />
    <glyph glyph-name="i" unicode="i" 
d="M232 243q-36 0 -63 27t-27 63t27 63t63 27t63 -27t27 -63t-27 -63t-63 -27zM508 519q-36 0 -63 27t-27 63t27 63t63 27t63 -27t27 -63t-27 -63t-63 -27zM232 580q-11 0 -20 9t-9 20t9 20t20 9t20 -9t9 -20t-9 -20t-20 -9zM232 28q-11 0 -20 9t-9 20t9 20t20 9t20 -9
t9 -20t-9 -20t-20 -9zM508 304q-11 0 -20 9t-9 20t9 20t20 9t20 -9t9 -20t-9 -20t-20 -9zM508 28q-11 0 -20 9t-9 20t9 20t20 9t20 -9t9 -20t-9 -20t-20 -9z" />
    <glyph glyph-name="f" unicode="f" 
d="M232 519q-36 0 -63 27t-27 63t27 63t63 27t63 -27t27 -63t-27 -63t-63 -27zM232 243q-36 0 -63 27t-27 63t27 63t63 27t63 -27t27 -63t-27 -63t-63 -27zM508 519q-36 0 -63 27t-27 63t27 63t63 27t63 -27t27 -63t-27 -63t-63 -27zM232 28q-11 0 -20 9t-9 20t9 20t20 9
t20 -9t9 -20t-9 -20t-20 -9zM508 304q-11 0 -20 9t-9 20t9 20t20 9t20 -9t9 -20t-9 -20t-20 -9zM508 28q-11 0 -20 9t-9 20t9 20t20 9t20 -9t9 -20t-9 -20t-20 -9z" />
    <glyph glyph-name="slash" unicode="/" 
d="M232 -33q-36 0 -63 27t-27 63t27 63t63 27t63 -27t27 -63t-27 -63t-63 -27zM508 519q-36 0 -63 27t-27 63t27 63t63 27t63 -27t27 -63t-27 -63t-63 -27zM232 580q-11 0 -20 9t-9 20t9 20t20 9t20 -9t9 -20t-9 -20t-20 -9zM232 304q-11 0 -20 9t-9 20t9 20t20 9t20 -9
t9 -20t-9 -20t-20 -9zM508 304q-11 0 -20 9t-9 20t9 20t20 9t20 -9t9 -20t-9 -20t-20 -9zM508 28q-11 0 -20 9t-9 20t9 20t20 9t20 -9t9 -20t-9 -20t-20 -9z" />
    <glyph glyph-name="m" unicode="m" 
d="M232 519q-36 0 -63 27t-27 63t27 63t63 27t63 -27t27 -63t-27 -63t-63 -27zM232 -33q-36 0 -63 27t-27 63t27 63t63 27t63 -27t27 -63t-27 -63t-63 -27zM508 519q-36 0 -63 27t-27 63t27 63t63 27t63 -27t27 -63t-27 -63t-63 -27zM232 304q-11 0 -20 9t-9 20t9 20t20 9
t20 -9t9 -20t-9 -20t-20 -9zM508 304q-11 0 -20 9t-9 20t9 20t20 9t20 -9t9 -20t-9 -20t-20 -9zM508 28q-11 0 -20 9t-9 20t9 20t20 9t20 -9t9 -20t-9 -20t-20 -9z" />
    <glyph glyph-name="s" unicode="s" 
d="M232 243q-36 0 -63 27t-27 63t27 63t63 27t63 -27t27 -63t-27 -63t-63 -27zM232 -33q-36 0 -63 27t-27 63t27 63t63 27t63 -27t27 -63t-27 -63t-63 -27zM508 519q-36 0 -63 27t-27 63t27 63t63 27t63 -27t27 -63t-27 -63t-63 -27zM232 580q-11 0 -20 9t-9 20t9 20t20 9
t20 -9t9 -20t-9 -20t-20 -9zM508 304q-11 0 -20 9t-9 20t9 20t20 9t20 -9t9 -20t-9 -20t-20 -9zM508 28q-11 0 -20 9t-9 20t9 20t20 9t20 -9t9 -20t-9 -20t-20 -9z" />
    <glyph glyph-name="p" unicode="p" 
d="M232 519q-36 0 -63 27t-27 63t27 63t63 27t63 -27t27 -63t-27 -63t-63 -27zM232 243q-36 0 -63 27t-27 63t27 63t63 27t63 -27t27 -63t-27 -63t-63 -27zM232 -33q-36 0 -63 27t-27 63t27 63t63 27t63 -27t27 -63t-27 -63t-63 -27zM508 519q-36 0 -63 27t-27 63t27 63
t63 27t63 -27t27 -63t-27 -63t-63 -27zM508 304q-11 0 -20 9t-9 20t9 20t20 9t20 -9t9 -20t-9 -20t-20 -9zM508 28q-11 0 -20 9t-9 20t9 20t20 9t20 -9t9 -20t-9 -20t-20 -9z" />
    <glyph glyph-name="e" unicode="e" 
d="M232 519q-36 0 -63 27t-27 63t27 63t63 27t63 -27t27 -63t-27 -63t-63 -27zM508 243q-36 0 -63 27t-27 63t27 63t63 27t63 -27t27 -63t-27 -63t-63 -27zM232 304q-11 0 -20 9t-9 20t9 20t20 9t20 -9t9 -20t-9 -20t-20 -9zM232 28q-11 0 -20 9t-9 20t9 20t20 9t20 -9
t9 -20t-9 -20t-20 -9zM508 580q-11 0 -20 9t-9 20t9 20t20 9t20 -9t9 -20t-9 -20t-20 -9zM508 28q-11 0 -20 9t-9 20t9 20t20 9t20 -9t9 -20t-9 -20t-20 -9z" />
    <glyph glyph-name="three" unicode="3" 
d="M232 243q-36 0 -63 27t-27 63t27 63t63 27t63 -27t27 -63t-27 -63t-63 -27zM508 243q-36 0 -63 27t-27 63t27 63t63 27t63 -27t27 -63t-27 -63t-63 -27zM232 580q-11 0 -20 9t-9 20t9 20t20 9t20 -9t9 -20t-9 -20t-20 -9zM232 28q-11 0 -20 9t-9 20t9 20t20 9t20 -9
t9 -20t-9 -20t-20 -9zM508 580q-11 0 -20 9t-9 20t9 20t20 9t20 -9t9 -20t-9 -20t-20 -9zM508 28q-11 0 -20 9t-9 20t9 20t20 9t20 -9t9 -20t-9 -20t-20 -9z" />
    <glyph glyph-name="h" unicode="h" 
d="M232 519q-36 0 -63 27t-27 63t27 63t63 27t63 -27t27 -63t-27 -63t-63 -27zM232 243q-36 0 -63 27t-27 63t27 63t63 27t63 -27t27 -63t-27 -63t-63 -27zM508 243q-36 0 -63 27t-27 63t27 63t63 27t63 -27t27 -63t-27 -63t-63 -27zM232 28q-11 0 -20 9t-9 20t9 20t20 9
t20 -9t9 -20t-9 -20t-20 -9zM508 580q-11 0 -20 9t-9 20t9 20t20 9t20 -9t9 -20t-9 -20t-20 -9zM508 28q-11 0 -20 9t-9 20t9 20t20 9t20 -9t9 -20t-9 -20t-20 -9z" />
    <glyph glyph-name="nine" unicode="9" 
d="M232 -33q-36 0 -63 27t-27 63t27 63t63 27t63 -27t27 -63t-27 -63t-63 -27zM508 243q-36 0 -63 27t-27 63t27 63t63 27t63 -27t27 -63t-27 -63t-63 -27zM232 580q-11 0 -20 9t-9 20t9 20t20 9t20 -9t9 -20t-9 -20t-20 -9zM232 304q-11 0 -20 9t-9 20t9 20t20 9t20 -9
t9 -20t-9 -20t-20 -9zM508 580q-11 0 -20 9t-9 20t9 20t20 9t20 -9t9 -20t-9 -20t-20 -9zM508 28q-11 0 -20 9t-9 20t9 20t20 9t20 -9t9 -20t-9 -20t-20 -9z" />
    <glyph glyph-name="o" unicode="o" 
d="M232 519q-36 0 -63 27t-27 63t27 63t63 27t63 -27t27 -63t-27 -63t-63 -27zM232 -33q-36 0 -63 27t-27 63t27 63t63 27t63 -27t27 -63t-27 -63t-63 -27zM508 243q-36 0 -63 27t-27 63t27 63t63 27t63 -27t27 -63t-27 -63t-63 -27zM232 304q-11 0 -20 9t-9 20t9 20t20 9
t20 -9t9 -20t-9 -20t-20 -9zM508 580q-11 0 -20 9t-9 20t9 20t20 9t20 -9t9 -20t-9 -20t-20 -9zM508 28q-11 0 -20 9t-9 20t9 20t20 9t20 -9t9 -20t-9 -20t-20 -9z" />
    <glyph glyph-name="six" unicode="6" 
d="M232 243q-36 0 -63 27t-27 63t27 63t63 27t63 -27t27 -63t-27 -63t-63 -27zM232 -33q-36 0 -63 27t-27 63t27 63t63 27t63 -27t27 -63t-27 -63t-63 -27zM508 243q-36 0 -63 27t-27 63t27 63t63 27t63 -27t27 -63t-27 -63t-63 -27zM232 580q-11 0 -20 9t-9 20t9 20t20 9
t20 -9t9 -20t-9 -20t-20 -9zM508 580q-11 0 -20 9t-9 20t9 20t20 9t20 -9t9 -20t-9 -20t-20 -9zM508 28q-11 0 -20 9t-9 20t9 20t20 9t20 -9t9 -20t-9 -20t-20 -9z" />
    <glyph glyph-name="r" unicode="r" 
d="M232 519q-36 0 -63 27t-27 63t27 63t63 27t63 -27t27 -63t-27 -63t-63 -27zM232 243q-36 0 -63 27t-27 63t27 63t63 27t63 -27t27 -63t-27 -63t-63 -27zM232 -33q-36 0 -63 27t-27 63t27 63t63 27t63 -27t27 -63t-27 -63t-63 -27zM508 243q-36 0 -63 27t-27 63t27 63
t63 27t63 -27t27 -63t-27 -63t-63 -27zM508 580q-11 0 -20 9t-9 20t9 20t20 9t20 -9t9 -20t-9 -20t-20 -9zM508 28q-11 0 -20 9t-9 20t9 20t20 9t20 -9t9 -20t-9 -20t-20 -9z" />
    <glyph glyph-name="asciicircum" unicode="^" 
d="M508 519q-36 0 -63 27t-27 63t27 63t63 27t63 -27t27 -63t-27 -63t-63 -27zM508 243q-36 0 -63 27t-27 63t27 63t63 27t63 -27t27 -63t-27 -63t-63 -27zM232 580q-11 0 -20 9t-9 20t9 20t20 9t20 -9t9 -20t-9 -20t-20 -9zM232 304q-11 0 -20 9t-9 20t9 20t20 9t20 -9
t9 -20t-9 -20t-20 -9zM232 28q-11 0 -20 9t-9 20t9 20t20 9t20 -9t9 -20t-9 -20t-20 -9zM508 28q-11 0 -20 9t-9 20t9 20t20 9t20 -9t9 -20t-9 -20t-20 -9z" />
    <glyph glyph-name="d" unicode="d" 
d="M232 519q-36 0 -63 27t-27 63t27 63t63 27t63 -27t27 -63t-27 -63t-63 -27zM508 519q-36 0 -63 27t-27 63t27 63t63 27t63 -27t27 -63t-27 -63t-63 -27zM508 243q-36 0 -63 27t-27 63t27 63t63 27t63 -27t27 -63t-27 -63t-63 -27zM232 304q-11 0 -20 9t-9 20t9 20t20 9
t20 -9t9 -20t-9 -20t-20 -9zM232 28q-11 0 -20 9t-9 20t9 20t20 9t20 -9t9 -20t-9 -20t-20 -9zM508 28q-11 0 -20 9t-9 20t9 20t20 9t20 -9t9 -20t-9 -20t-20 -9z" />
    <glyph glyph-name="j" unicode="j" 
d="M232 243q-36 0 -63 27t-27 63t27 63t63 27t63 -27t27 -63t-27 -63t-63 -27zM508 519q-36 0 -63 27t-27 63t27 63t63 27t63 -27t27 -63t-27 -63t-63 -27zM508 243q-36 0 -63 27t-27 63t27 63t63 27t63 -27t27 -63t-27 -63t-63 -27zM232 580q-11 0 -20 9t-9 20t9 20t20 9
t20 -9t9 -20t-9 -20t-20 -9zM232 28q-11 0 -20 9t-9 20t9 20t20 9t20 -9t9 -20t-9 -20t-20 -9zM508 28q-11 0 -20 9t-9 20t9 20t20 9t20 -9t9 -20t-9 -20t-20 -9z" />
    <glyph glyph-name="g" unicode="g" 
d="M232 519q-36 0 -63 27t-27 63t27 63t63 27t63 -27t27 -63t-27 -63t-63 -27zM232 243q-36 0 -63 27t-27 63t27 63t63 27t63 -27t27 -63t-27 -63t-63 -27zM508 519q-36 0 -63 27t-27 63t27 63t63 27t63 -27t27 -63t-27 -63t-63 -27zM508 243q-36 0 -63 27t-27 63t27 63
t63 27t63 -27t27 -63t-27 -63t-63 -27zM232 28q-11 0 -20 9t-9 20t9 20t20 9t20 -9t9 -20t-9 -20t-20 -9zM508 28q-11 0 -20 9t-9 20t9 20t20 9t20 -9t9 -20t-9 -20t-20 -9z" />
    <glyph glyph-name="greater" unicode="&#x3e;" 
d="M232 -33q-36 0 -63 27t-27 63t27 63t63 27t63 -27t27 -63t-27 -63t-63 -27zM508 519q-36 0 -63 27t-27 63t27 63t63 27t63 -27t27 -63t-27 -63t-63 -27zM508 243q-36 0 -63 27t-27 63t27 63t63 27t63 -27t27 -63t-27 -63t-63 -27zM232 580q-11 0 -20 9t-9 20t9 20t20 9
t20 -9t9 -20t-9 -20t-20 -9zM232 304q-11 0 -20 9t-9 20t9 20t20 9t20 -9t9 -20t-9 -20t-20 -9zM508 28q-11 0 -20 9t-9 20t9 20t20 9t20 -9t9 -20t-9 -20t-20 -9z" />
    <glyph glyph-name="n" unicode="n" 
d="M232 519q-36 0 -63 27t-27 63t27 63t63 27t63 -27t27 -63t-27 -63t-63 -27zM232 -33q-36 0 -63 27t-27 63t27 63t63 27t63 -27t27 -63t-27 -63t-63 -27zM508 519q-36 0 -63 27t-27 63t27 63t63 27t63 -27t27 -63t-27 -63t-63 -27zM508 243q-36 0 -63 27t-27 63t27 63
t63 27t63 -27t27 -63t-27 -63t-63 -27zM232 304q-11 0 -20 9t-9 20t9 20t20 9t20 -9t9 -20t-9 -20t-20 -9zM508 28q-11 0 -20 9t-9 20t9 20t20 9t20 -9t9 -20t-9 -20t-20 -9z" />
    <glyph glyph-name="t" unicode="t" 
d="M232 243q-36 0 -63 27t-27 63t27 63t63 27t63 -27t27 -63t-27 -63t-63 -27zM232 -33q-36 0 -63 27t-27 63t27 63t63 27t63 -27t27 -63t-27 -63t-63 -27zM508 519q-36 0 -63 27t-27 63t27 63t63 27t63 -27t27 -63t-27 -63t-63 -27zM508 243q-36 0 -63 27t-27 63t27 63
t63 27t63 -27t27 -63t-27 -63t-63 -27zM232 580q-11 0 -20 9t-9 20t9 20t20 9t20 -9t9 -20t-9 -20t-20 -9zM508 28q-11 0 -20 9t-9 20t9 20t20 9t20 -9t9 -20t-9 -20t-20 -9z" />
    <glyph glyph-name="q" unicode="q" 
d="M232 519q-36 0 -63 27t-27 63t27 63t63 27t63 -27t27 -63t-27 -63t-63 -27zM232 243q-36 0 -63 27t-27 63t27 63t63 27t63 -27t27 -63t-27 -63t-63 -27zM232 -33q-36 0 -63 27t-27 63t27 63t63 27t63 -27t27 -63t-27 -63t-63 -27zM508 519q-36 0 -63 27t-27 63t27 63
t63 27t63 -27t27 -63t-27 -63t-63 -27zM508 243q-36 0 -63 27t-27 63t27 63t63 27t63 -27t27 -63t-27 -63t-63 -27zM508 28q-11 0 -20 9t-9 20t9 20t20 9t20 -9t9 -20t-9 -20t-20 -9z" />
    <glyph glyph-name="asterisk" unicode="*" 
d="M232 519q-36 0 -63 27t-27 63t27 63t63 27t63 -27t27 -63t-27 -63t-63 -27zM508 -33q-36 0 -63 27t-27 63t27 63t63 27t63 -27t27 -63t-27 -63t-63 -27zM232 304q-11 0 -20 9t-9 20t9 20t20 9t20 -9t9 -20t-9 -20t-20 -9zM232 28q-11 0 -20 9t-9 20t9 20t20 9t20 -9
t9 -20t-9 -20t-20 -9zM508 580q-11 0 -20 9t-9 20t9 20t20 9t20 -9t9 -20t-9 -20t-20 -9zM508 304q-11 0 -20 9t-9 20t9 20t20 9t20 -9t9 -20t-9 -20t-20 -9z" />
    <glyph glyph-name="five" unicode="5" 
d="M232 243q-36 0 -63 27t-27 63t27 63t63 27t63 -27t27 -63t-27 -63t-63 -27zM508 -33q-36 0 -63 27t-27 63t27 63t63 27t63 -27t27 -63t-27 -63t-63 -27zM232 580q-11 0 -20 9t-9 20t9 20t20 9t20 -9t9 -20t-9 -20t-20 -9zM232 28q-11 0 -20 9t-9 20t9 20t20 9t20 -9
t9 -20t-9 -20t-20 -9zM508 580q-11 0 -20 9t-9 20t9 20t20 9t20 -9t9 -20t-9 -20t-20 -9zM508 304q-11 0 -20 9t-9 20t9 20t20 9t20 -9t9 -20t-9 -20t-20 -9z" />
    <glyph glyph-name="less" unicode="&#x3c;" 
d="M232 519q-36 0 -63 27t-27 63t27 63t63 27t63 -27t27 -63t-27 -63t-63 -27zM232 243q-36 0 -63 27t-27 63t27 63t63 27t63 -27t27 -63t-27 -63t-63 -27zM508 -33q-36 0 -63 27t-27 63t27 63t63 27t63 -27t27 -63t-27 -63t-63 -27zM232 28q-11 0 -20 9t-9 20t9 20t20 9
t20 -9t9 -20t-9 -20t-20 -9zM508 580q-11 0 -20 9t-9 20t9 20t20 9t20 -9t9 -20t-9 -20t-20 -9zM508 304q-11 0 -20 9t-9 20t9 20t20 9t20 -9t9 -20t-9 -20t-20 -9z" />
    <glyph glyph-name="hyphen" unicode="-" 
d="M232 -33q-36 0 -63 27t-27 63t27 63t63 27t63 -27t27 -63t-27 -63t-63 -27zM508 -33q-36 0 -63 27t-27 63t27 63t63 27t63 -27t27 -63t-27 -63t-63 -27zM232 580q-11 0 -20 9t-9 20t9 20t20 9t20 -9t9 -20t-9 -20t-20 -9zM232 304q-11 0 -20 9t-9 20t9 20t20 9t20 -9
t9 -20t-9 -20t-20 -9zM508 580q-11 0 -20 9t-9 20t9 20t20 9t20 -9t9 -20t-9 -20t-20 -9zM508 304q-11 0 -20 9t-9 20t9 20t20 9t20 -9t9 -20t-9 -20t-20 -9z" />
    <glyph glyph-name="u" unicode="u" 
d="M232 519q-36 0 -63 27t-27 63t27 63t63 27t63 -27t27 -63t-27 -63t-63 -27zM232 -33q-36 0 -63 27t-27 63t27 63t63 27t63 -27t27 -63t-27 -63t-63 -27zM508 -33q-36 0 -63 27t-27 63t27 63t63 27t63 -27t27 -63t-27 -63t-63 -27zM232 304q-11 0 -20 9t-9 20t9 20t20 9
t20 -9t9 -20t-9 -20t-20 -9zM508 580q-11 0 -20 9t-9 20t9 20t20 9t20 -9t9 -20t-9 -20t-20 -9zM508 304q-11 0 -20 9t-9 20t9 20t20 9t20 -9t9 -20t-9 -20t-20 -9z" />
    <glyph glyph-name="eight" unicode="8" 
d="M232 243q-36 0 -63 27t-27 63t27 63t63 27t63 -27t27 -63t-27 -63t-63 -27zM232 -33q-36 0 -63 27t-27 63t27 63t63 27t63 -27t27 -63t-27 -63t-63 -27zM508 -33q-36 0 -63 27t-27 63t27 63t63 27t63 -27t27 -63t-27 -63t-63 -27zM232 580q-11 0 -20 9t-9 20t9 20t20 9
t20 -9t9 -20t-9 -20t-20 -9zM508 580q-11 0 -20 9t-9 20t9 20t20 9t20 -9t9 -20t-9 -20t-20 -9zM508 304q-11 0 -20 9t-9 20t9 20t20 9t20 -9t9 -20t-9 -20t-20 -9z" />
    <glyph glyph-name="v" unicode="v" 
d="M232 519q-36 0 -63 27t-27 63t27 63t63 27t63 -27t27 -63t-27 -63t-63 -27zM232 243q-36 0 -63 27t-27 63t27 63t63 27t63 -27t27 -63t-27 -63t-63 -27zM232 -33q-36 0 -63 27t-27 63t27 63t63 27t63 -27t27 -63t-27 -63t-63 -27zM508 -33q-36 0 -63 27t-27 63t27 63
t63 27t63 -27t27 -63t-27 -63t-63 -27zM508 580q-11 0 -20 9t-9 20t9 20t20 9t20 -9t9 -20t-9 -20t-20 -9zM508 304q-11 0 -20 9t-9 20t9 20t20 9t20 -9t9 -20t-9 -20t-20 -9z" />
    <glyph glyph-name="period" unicode="." 
d="M508 519q-36 0 -63 27t-27 63t27 63t63 27t63 -27t27 -63t-27 -63t-63 -27zM508 -33q-36 0 -63 27t-27 63t27 63t63 27t63 -27t27 -63t-27 -63t-63 -27zM232 580q-11 0 -20 9t-9 20t9 20t20 9t20 -9t9 -20t-9 -20t-20 -9zM232 304q-11 0 -20 9t-9 20t9 20t20 9t20 -9
t9 -20t-9 -20t-20 -9zM232 28q-11 0 -20 9t-9 20t9 20t20 9t20 -9t9 -20t-9 -20t-20 -9zM508 304q-11 0 -20 9t-9 20t9 20t20 9t20 -9t9 -20t-9 -20t-20 -9z" />
    <glyph glyph-name="percent" unicode="%" 
d="M232 519q-36 0 -63 27t-27 63t27 63t63 27t63 -27t27 -63t-27 -63t-63 -27zM508 519q-36 0 -63 27t-27 63t27 63t63 27t63 -27t27 -63t-27 -63t-63 -27zM508 -33q-36 0 -63 27t-27 63t27 63t63 27t63 -27t27 -63t-27 -63t-63 -27zM232 304q-11 0 -20 9t-9 20t9 20t20 9
t20 -9t9 -20t-9 -20t-20 -9zM232 28q-11 0 -20 9t-9 20t9 20t20 9t20 -9t9 -20t-9 -20t-20 -9zM508 304q-11 0 -20 9t-9 20t9 20t20 9t20 -9t9 -20t-9 -20t-20 -9z" />
    <glyph glyph-name="bracketleft" unicode="[" 
d="M232 243q-36 0 -63 27t-27 63t27 63t63 27t63 -27t27 -63t-27 -63t-63 -27zM508 519q-36 0 -63 27t-27 63t27 63t63 27t63 -27t27 -63t-27 -63t-63 -27zM508 -33q-36 0 -63 27t-27 63t27 63t63 27t63 -27t27 -63t-27 -63t-63 -27zM232 580q-11 0 -20 9t-9 20t9 20t20 9
t20 -9t9 -20t-9 -20t-20 -9zM232 28q-11 0 -20 9t-9 20t9 20t20 9t20 -9t9 -20t-9 -20t-20 -9zM508 304q-11 0 -20 9t-9 20t9 20t20 9t20 -9t9 -20t-9 -20t-20 -9z" />
    <glyph glyph-name="dollar" unicode="$" 
d="M232 519q-36 0 -63 27t-27 63t27 63t63 27t63 -27t27 -63t-27 -63t-63 -27zM232 243q-36 0 -63 27t-27 63t27 63t63 27t63 -27t27 -63t-27 -63t-63 -27zM508 519q-36 0 -63 27t-27 63t27 63t63 27t63 -27t27 -63t-27 -63t-63 -27zM508 -33q-36 0 -63 27t-27 63t27 63
t63 27t63 -27t27 -63t-27 -63t-63 -27zM232 28q-11 0 -20 9t-9 20t9 20t20 9t20 -9t9 -20t-9 -20t-20 -9zM508 304q-11 0 -20 9t-9 20t9 20t20 9t20 -9t9 -20t-9 -20t-20 -9z" />
    <glyph glyph-name="plus" unicode="+" 
d="M232 -33q-36 0 -63 27t-27 63t27 63t63 27t63 -27t27 -63t-27 -63t-63 -27zM508 519q-36 0 -63 27t-27 63t27 63t63 27t63 -27t27 -63t-27 -63t-63 -27zM508 -33q-36 0 -63 27t-27 63t27 63t63 27t63 -27t27 -63t-27 -63t-63 -27zM232 580q-11 0 -20 9t-9 20t9 20t20 9
t20 -9t9 -20t-9 -20t-20 -9zM232 304q-11 0 -20 9t-9 20t9 20t20 9t20 -9t9 -20t-9 -20t-20 -9zM508 304q-11 0 -20 9t-9 20t9 20t20 9t20 -9t9 -20t-9 -20t-20 -9z" />
    <glyph glyph-name="x" unicode="x" 
d="M232 519q-36 0 -63 27t-27 63t27 63t63 27t63 -27t27 -63t-27 -63t-63 -27zM232 -33q-36 0 -63 27t-27 63t27 63t63 27t63 -27t27 -63t-27 -63t-63 -27zM508 519q-36 0 -63 27t-27 63t27 63t63 27t63 -27t27 -63t-27 -63t-63 -27zM508 -33q-36 0 -63 27t-27 63t27 63
t63 27t63 -27t27 -63t-27 -63t-63 -27zM232 304q-11 0 -20 9t-9 20t9 20t20 9t20 -9t9 -20t-9 -20t-20 -9zM508 304q-11 0 -20 9t-9 20t9 20t20 9t20 -9t9 -20t-9 -20t-20 -9z" />
    <glyph glyph-name="exclam" unicode="!" 
d="M232 243q-36 0 -63 27t-27 63t27 63t63 27t63 -27t27 -63t-27 -63t-63 -27zM232 -33q-36 0 -63 27t-27 63t27 63t63 27t63 -27t27 -63t-27 -63t-63 -27zM508 519q-36 0 -63 27t-27 63t27 63t63 27t63 -27t27 -63t-27 -63t-63 -27zM508 -33q-36 0 -63 27t-27 63t27 63
t63 27t63 -27t27 -63t-27 -63t-63 -27zM232 580q-11 0 -20 9t-9 20t9 20t20 9t20 -9t9 -20t-9 -20t-20 -9zM508 304q-11 0 -20 9t-9 20t9 20t20 9t20 -9t9 -20t-9 -20t-20 -9z" />
    <glyph glyph-name="ampersand" unicode="&#x26;" 
d="M232 519q-36 0 -63 27t-27 63t27 63t63 27t63 -27t27 -63t-27 -63t-63 -27zM232 243q-36 0 -63 27t-27 63t27 63t63 27t63 -27t27 -63t-27 -63t-63 -27zM232 -33q-36 0 -63 27t-27 63t27 63t63 27t63 -27t27 -63t-27 -63t-63 -27zM508 519q-36 0 -63 27t-27 63t27 63
t63 27t63 -27t27 -63t-27 -63t-63 -27zM508 -33q-36 0 -63 27t-27 63t27 63t63 27t63 -27t27 -63t-27 -63t-63 -27zM508 304q-11 0 -20 9t-9 20t9 20t20 9t20 -9t9 -20t-9 -20t-20 -9z" />
    <glyph glyph-name="semicolon" unicode=";" 
d="M508 243q-36 0 -63 27t-27 63t27 63t63 27t63 -27t27 -63t-27 -63t-63 -27zM508 -33q-36 0 -63 27t-27 63t27 63t63 27t63 -27t27 -63t-27 -63t-63 -27zM232 580q-11 0 -20 9t-9 20t9 20t20 9t20 -9t9 -20t-9 -20t-20 -9zM232 304q-11 0 -20 9t-9 20t9 20t20 9t20 -9
t9 -20t-9 -20t-20 -9zM232 28q-11 0 -20 9t-9 20t9 20t20 9t20 -9t9 -20t-9 -20t-20 -9zM508 580q-11 0 -20 9t-9 20t9 20t20 9t20 -9t9 -20t-9 -20t-20 -9z" />
    <glyph glyph-name="colon" unicode=":" 
d="M232 519q-36 0 -63 27t-27 63t27 63t63 27t63 -27t27 -63t-27 -63t-63 -27zM508 243q-36 0 -63 27t-27 63t27 63t63 27t63 -27t27 -63t-27 -63t-63 -27zM508 -33q-36 0 -63 27t-27 63t27 63t63 27t63 -27t27 -63t-27 -63t-63 -27zM232 304q-11 0 -20 9t-9 20t9 20t20 9
t20 -9t9 -20t-9 -20t-20 -9zM232 28q-11 0 -20 9t-9 20t9 20t20 9t20 -9t9 -20t-9 -20t-20 -9zM508 580q-11 0 -20 9t-9 20t9 20t20 9t20 -9t9 -20t-9 -20t-20 -9z" />
    <glyph glyph-name="four" unicode="4" 
d="M232 243q-36 0 -63 27t-27 63t27 63t63 27t63 -27t27 -63t-27 -63t-63 -27zM508 243q-36 0 -63 27t-27 63t27 63t63 27t63 -27t27 -63t-27 -63t-63 -27zM508 -33q-36 0 -63 27t-27 63t27 63t63 27t63 -27t27 -63t-27 -63t-63 -27zM232 580q-11 0 -20 9t-9 20t9 20t20 9
t20 -9t9 -20t-9 -20t-20 -9zM232 28q-11 0 -20 9t-9 20t9 20t20 9t20 -9t9 -20t-9 -20t-20 -9zM508 580q-11 0 -20 9t-9 20t9 20t20 9t20 -9t9 -20t-9 -20t-20 -9z" />
    <glyph glyph-name="backslash" unicode="\" 
d="M232 519q-36 0 -63 27t-27 63t27 63t63 27t63 -27t27 -63t-27 -63t-63 -27zM232 243q-36 0 -63 27t-27 63t27 63t63 27t63 -27t27 -63t-27 -63t-63 -27zM508 243q-36 0 -63 27t-27 63t27 63t63 27t63 -27t27 -63t-27 -63t-63 -27zM508 -33q-36 0 -63 27t-27 63t27 63
t63 27t63 -27t27 -63t-27 -63t-63 -27zM232 28q-11 0 -20 9t-9 20t9 20t20 9t20 -9t9 -20t-9 -20t-20 -9zM508 580q-11 0 -20 9t-9 20t9 20t20 9t20 -9t9 -20t-9 -20t-20 -9z" />
    <glyph glyph-name="zero" unicode="0" 
d="M232 -33q-36 0 -63 27t-27 63t27 63t63 27t63 -27t27 -63t-27 -63t-63 -27zM508 243q-36 0 -63 27t-27 63t27 63t63 27t63 -27t27 -63t-27 -63t-63 -27zM508 -33q-36 0 -63 27t-27 63t27 63t63 27t63 -27t27 -63t-27 -63t-63 -27zM232 580q-11 0 -20 9t-9 20t9 20t20 9
t20 -9t9 -20t-9 -20t-20 -9zM232 304q-11 0 -20 9t-9 20t9 20t20 9t20 -9t9 -20t-9 -20t-20 -9zM508 580q-11 0 -20 9t-9 20t9 20t20 9t20 -9t9 -20t-9 -20t-20 -9z" />
    <glyph glyph-name="z" unicode="z" 
d="M232 519q-36 0 -63 27t-27 63t27 63t63 27t63 -27t27 -63t-27 -63t-63 -27zM232 -33q-36 0 -63 27t-27 63t27 63t63 27t63 -27t27 -63t-27 -63t-63 -27zM508 243q-36 0 -63 27t-27 63t27 63t63 27t63 -27t27 -63t-27 -63t-63 -27zM508 -33q-36 0 -63 27t-27 63t27 63
t63 27t63 -27t27 -63t-27 -63t-63 -27zM232 304q-11 0 -20 9t-9 20t9 20t20 9t20 -9t9 -20t-9 -20t-20 -9zM508 580q-11 0 -20 9t-9 20t9 20t20 9t20 -9t9 -20t-9 -20t-20 -9z" />
    <glyph glyph-name="seven" unicode="7" 
d="M232 243q-36 0 -63 27t-27 63t27 63t63 27t63 -27t27 -63t-27 -63t-63 -27zM232 -33q-36 0 -63 27t-27 63t27 63t63 27t63 -27t27 -63t-27 -63t-63 -27zM508 243q-36 0 -63 27t-27 63t27 63t63 27t63 -27t27 -63t-27 -63t-63 -27zM508 -33q-36 0 -63 27t-27 63t27 63
t63 27t63 -27t27 -63t-27 -63t-63 -27zM232 580q-11 0 -20 9t-9 20t9 20t20 9t20 -9t9 -20t-9 -20t-20 -9zM508 580q-11 0 -20 9t-9 20t9 20t20 9t20 -9t9 -20t-9 -20t-20 -9z" />
    <glyph glyph-name="parenleft" unicode="(" 
d="M232 519q-36 0 -63 27t-27 63t27 63t63 27t63 -27t27 -63t-27 -63t-63 -27zM232 243q-36 0 -63 27t-27 63t27 63t63 27t63 -27t27 -63t-27 -63t-63 -27zM232 -33q-36 0 -63 27t-27 63t27 63t63 27t63 -27t27 -63t-27 -63t-63 -27zM508 243q-36 0 -63 27t-27 63t27 63
t63 27t63 -27t27 -63t-27 -63t-63 -27zM508 -33q-36 0 -63 27t-27 63t27 63t63 27t63 -27t27 -63t-27 -63t-63 -27zM508 580q-11 0 -20 9t-9 20t9 20t20 9t20 -9t9 -20t-9 -20t-20 -9z" />
    <glyph glyph-name="underscore" unicode="_" 
d="M508 519q-36 0 -63 27t-27 63t27 63t63 27t63 -27t27 -63t-27 -63t-63 -27zM508 243q-36 0 -63 27t-27 63t27 63t63 27t63 -27t27 -63t-27 -63t-63 -27zM508 -33q-36 0 -63 27t-27 63t27 63t63 27t63 -27t27 -63t-27 -63t-63 -27zM232 580q-11 0 -20 9t-9 20t9 20t20 9
t20 -9t9 -20t-9 -20t-20 -9zM232 304q-11 0 -20 9t-9 20t9 20t20 9t20 -9t9 -20t-9 -20t-20 -9zM232 28q-11 0 -20 9t-9 20t9 20t20 9t20 -9t9 -20t-9 -20t-20 -9z" />
    <glyph glyph-name="question" unicode="?" 
d="M232 519q-36 0 -63 27t-27 63t27 63t63 27t63 -27t27 -63t-27 -63t-63 -27zM508 519q-36 0 -63 27t-27 63t27 63t63 27t63 -27t27 -63t-27 -63t-63 -27zM508 243q-36 0 -63 27t-27 63t27 63t63 27t63 -27t27 -63t-27 -63t-63 -27zM508 -33q-36 0 -63 27t-27 63t27 63
t63 27t63 -27t27 -63t-27 -63t-63 -27zM232 304q-11 0 -20 9t-9 20t9 20t20 9t20 -9t9 -20t-9 -20t-20 -9zM232 28q-11 0 -20 9t-9 20t9 20t20 9t20 -9t9 -20t-9 -20t-20 -9z" />
    <glyph glyph-name="w" unicode="w" 
d="M232 243q-36 0 -63 27t-27 63t27 63t63 27t63 -27t27 -63t-27 -63t-63 -27zM508 519q-36 0 -63 27t-27 63t27 63t63 27t63 -27t27 -63t-27 -63t-63 -27zM508 243q-36 0 -63 27t-27 63t27 63t63 27t63 -27t27 -63t-27 -63t-63 -27zM508 -33q-36 0 -63 27t-27 63t27 63
t63 27t63 -27t27 -63t-27 -63t-63 -27zM232 580q-11 0 -20 9t-9 20t9 20t20 9t20 -9t9 -20t-9 -20t-20 -9zM232 28q-11 0 -20 9t-9 20t9 20t20 9t20 -9t9 -20t-9 -20t-20 -9z" />
    <glyph glyph-name="bracketright" unicode="]" 
d="M232 519q-36 0 -63 27t-27 63t27 63t63 27t63 -27t27 -63t-27 -63t-63 -27zM232 243q-36 0 -63 27t-27 63t27 63t63 27t63 -27t27 -63t-27 -63t-63 -27zM508 519q-36 0 -63 27t-27 63t27 63t63 27t63 -27t27 -63t-27 -63t-63 -27zM508 243q-36 0 -63 27t-27 63t27 63
t63 27t63 -27t27 -63t-27 -63t-63 -27zM508 -33q-36 0 -63 27t-27 63t27 63t63 27t63 -27t27 -63t-27 -63t-63 -27zM232 28q-11 0 -20 9t-9 20t9 20t20 9t20 -9t9 -20t-9 -20t-20 -9z" />
    <glyph glyph-name="numbersign" unicode="#" 
d="M232 -33q-36 0 -63 27t-27 63t27 63t63 27t63 -27t27 -63t-27 -63t-63 -27zM508 519q-36 0 -63 27t-27 63t27 63t63 27t63 -27t27 -63t-27 -63t-63 -27zM508 243q-36 0 -63 27t-27 63t27 63t63 27t63 -27t27 -63t-27 -63t-63 -27zM508 -33q-36 0 -63 27t-27 63t27 63
t63 27t63 -27t27 -63t-27 -63t-63 -27zM232 580q-11 0 -20 9t-9 20t9 20t20 9t20 -9t9 -20t-9 -20t-20 -9zM232 304q-11 0 -20 9t-9 20t9 20t20 9t20 -9t9 -20t-9 -20t-20 -9z" />
    <glyph glyph-name="y" unicode="y" 
d="M232 519q-36 0 -63 27t-27 63t27 63t63 27t63 -27t27 -63t-27 -63t-63 -27zM232 -33q-36 0 -63 27t-27 63t27 63t63 27t63 -27t27 -63t-27 -63t-63 -27zM508 519q-36 0 -63 27t-27 63t27 63t63 27t63 -27t27 -63t-27 -63t-63 -27zM508 243q-36 0 -63 27t-27 63t27 63
t63 27t63 -27t27 -63t-27 -63t-63 -27zM508 -33q-36 0 -63 27t-27 63t27 63t63 27t63 -27t27 -63t-27 -63t-63 -27zM232 304q-11 0 -20 9t-9 20t9 20t20 9t20 -9t9 -20t-9 -20t-20 -9z" />
    <glyph glyph-name="parenright" unicode=")" 
d="M232 243q-36 0 -63 27t-27 63t27 63t63 27t63 -27t27 -63t-27 -63t-63 -27zM232 -33q-36 0 -63 27t-27 63t27 63t63 27t63 -27t27 -63t-27 -63t-63 -27zM508 519q-36 0 -63 27t-27 63t27 63t63 27t63 -27t27 -63t-27 -63t-63 -27zM508 243q-36 0 -63 27t-27 63t27 63
t63 27t63 -27t27 -63t-27 -63t-63 -27zM508 -33q-36 0 -63 27t-27 63t27 63t63 27t63 -27t27 -63t-27 -63t-63 -27zM232 580q-11 0 -20 9t-9 20t9 20t20 9t20 -9t9 -20t-9 -20t-20 -9z" />
    <glyph glyph-name="equal" unicode="=" 
d="M232 519q-36 0 -63 27t-27 63t27 63t63 27t63 -27t27 -63t-27 -63t-63 -27zM232 243q-36 0 -63 27t-27 63t27 63t63 27t63 -27t27 -63t-27 -63t-63 -27zM232 -33q-36 0 -63 27t-27 63t27 63t63 27t63 -27t27 -63t-27 -63t-63 -27zM508 519q-36 0 -63 27t-27 63t27 63
t63 27t63 -27t27 -63t-27 -63t-63 -27zM508 243q-36 0 -63 27t-27 63t27 63t63 27t63 -27t27 -63t-27 -63t-63 -27zM508 -33q-36 0 -63 27t-27 63t27 63t63 27t63 -27t27 -63t-27 -63t-63 -27z" />
    <glyph glyph-name="grave" unicode="`" 
d="M508 519q-36 0 -63 27t-27 63t27 63t63 27t63 -27t27 -63t-27 -63t-63 -27zM232 580q-11 0 -20 9t-9 20t9 20t20 9t20 -9t9 -20t-9 -20t-20 -9zM232 304q-11 0 -20 9t-9 20t9 20t20 9t20 -9t9 -20t-9 -20t-20 -9zM232 28q-11 0 -20 9t-9 20t9 20t20 9t20 -9t9 -20t-9 -20
t-20 -9zM508 304q-11 0 -20 9t-9 20t9 20t20 9t20 -9t9 -20t-9 -20t-20 -9zM508 28q-11 0 -20 9t-9 20t9 20t20 9t20 -9t9 -20t-9 -20t-20 -9z" />
    <glyph glyph-name="A" unicode="A" 
d="M232 519q-36 0 -63 27t-27 63t27 63t63 27t63 -27t27 -63t-27 -63t-63 -27zM232 304q-11 0 -20 9t-9 20t9 20t20 9t20 -9t9 -20t-9 -20t-20 -9zM232 28q-11 0 -20 9t-9 20t9 20t20 9t20 -9t9 -20t-9 -20t-20 -9zM508 580q-11 0 -20 9t-9 20t9 20t20 9t20 -9t9 -20t-9 -20
t-20 -9zM508 304q-11 0 -20 9t-9 20t9 20t20 9t20 -9t9 -20t-9 -20t-20 -9zM508 28q-11 0 -20 9t-9 20t9 20t20 9t20 -9t9 -20t-9 -20t-20 -9z" />
    <glyph glyph-name="B" unicode="B" 
d="M232 519q-36 0 -63 27t-27 63t27 63t63 27t63 -27t27 -63t-27 -63t-63 -27zM232 243q-36 0 -63 27t-27 63t27 63t63 27t63 -27t27 -63t-27 -63t-63 -27zM232 28q-11 0 -20 9t-9 20t9 20t20 9t20 -9t9 -20t-9 -20t-20 -9zM508 580q-11 0 -20 9t-9 20t9 20t20 9t20 -9
t9 -20t-9 -20t-20 -9zM508 304q-11 0 -20 9t-9 20t9 20t20 9t20 -9t9 -20t-9 -20t-20 -9zM508 28q-11 0 -20 9t-9 20t9 20t20 9t20 -9t9 -20t-9 -20t-20 -9z" />
    <glyph glyph-name="C" unicode="C" 
d="M232 519q-36 0 -63 27t-27 63t27 63t63 27t63 -27t27 -63t-27 -63t-63 -27zM508 519q-36 0 -63 27t-27 63t27 63t63 27t63 -27t27 -63t-27 -63t-63 -27zM232 304q-11 0 -20 9t-9 20t9 20t20 9t20 -9t9 -20t-9 -20t-20 -9zM232 28q-11 0 -20 9t-9 20t9 20t20 9t20 -9
t9 -20t-9 -20t-20 -9zM508 304q-11 0 -20 9t-9 20t9 20t20 9t20 -9t9 -20t-9 -20t-20 -9zM508 28q-11 0 -20 9t-9 20t9 20t20 9t20 -9t9 -20t-9 -20t-20 -9z" />
    <glyph glyph-name="D" unicode="D" 
d="M232 519q-36 0 -63 27t-27 63t27 63t63 27t63 -27t27 -63t-27 -63t-63 -27zM508 519q-36 0 -63 27t-27 63t27 63t63 27t63 -27t27 -63t-27 -63t-63 -27zM508 243q-36 0 -63 27t-27 63t27 63t63 27t63 -27t27 -63t-27 -63t-63 -27zM232 304q-11 0 -20 9t-9 20t9 20t20 9
t20 -9t9 -20t-9 -20t-20 -9zM232 28q-11 0 -20 9t-9 20t9 20t20 9t20 -9t9 -20t-9 -20t-20 -9zM508 28q-11 0 -20 9t-9 20t9 20t20 9t20 -9t9 -20t-9 -20t-20 -9z" />
    <glyph glyph-name="E" unicode="E" 
d="M232 519q-36 0 -63 27t-27 63t27 63t63 27t63 -27t27 -63t-27 -63t-63 -27zM508 243q-36 0 -63 27t-27 63t27 63t63 27t63 -27t27 -63t-27 -63t-63 -27zM232 304q-11 0 -20 9t-9 20t9 20t20 9t20 -9t9 -20t-9 -20t-20 -9zM232 28q-11 0 -20 9t-9 20t9 20t20 9t20 -9
t9 -20t-9 -20t-20 -9zM508 580q-11 0 -20 9t-9 20t9 20t20 9t20 -9t9 -20t-9 -20t-20 -9zM508 28q-11 0 -20 9t-9 20t9 20t20 9t20 -9t9 -20t-9 -20t-20 -9z" />
    <glyph glyph-name="F" unicode="F" 
d="M232 519q-36 0 -63 27t-27 63t27 63t63 27t63 -27t27 -63t-27 -63t-63 -27zM232 243q-36 0 -63 27t-27 63t27 63t63 27t63 -27t27 -63t-27 -63t-63 -27zM508 519q-36 0 -63 27t-27 63t27 63t63 27t63 -27t27 -63t-27 -63t-63 -27zM232 28q-11 0 -20 9t-9 20t9 20t20 9
t20 -9t9 -20t-9 -20t-20 -9zM508 304q-11 0 -20 9t-9 20t9 20t20 9t20 -9t9 -20t-9 -20t-20 -9zM508 28q-11 0 -20 9t-9 20t9 20t20 9t20 -9t9 -20t-9 -20t-20 -9z" />
    <glyph glyph-name="G" unicode="G" 
d="M232 519q-36 0 -63 27t-27 63t27 63t63 27t63 -27t27 -63t-27 -63t-63 -27zM232 243q-36 0 -63 27t-27 63t27 63t63 27t63 -27t27 -63t-27 -63t-63 -27zM508 519q-36 0 -63 27t-27 63t27 63t63 27t63 -27t27 -63t-27 -63t-63 -27zM508 243q-36 0 -63 27t-27 63t27 63
t63 27t63 -27t27 -63t-27 -63t-63 -27zM232 28q-11 0 -20 9t-9 20t9 20t20 9t20 -9t9 -20t-9 -20t-20 -9zM508 28q-11 0 -20 9t-9 20t9 20t20 9t20 -9t9 -20t-9 -20t-20 -9z" />
    <glyph glyph-name="H" unicode="H" 
d="M232 519q-36 0 -63 27t-27 63t27 63t63 27t63 -27t27 -63t-27 -63t-63 -27zM232 243q-36 0 -63 27t-27 63t27 63t63 27t63 -27t27 -63t-27 -63t-63 -27zM508 243q-36 0 -63 27t-27 63t27 63t63 27t63 -27t27 -63t-27 -63t-63 -27zM232 28q-11 0 -20 9t-9 20t9 20t20 9
t20 -9t9 -20t-9 -20t-20 -9zM508 580q-11 0 -20 9t-9 20t9 20t20 9t20 -9t9 -20t-9 -20t-20 -9zM508 28q-11 0 -20 9t-9 20t9 20t20 9t20 -9t9 -20t-9 -20t-20 -9z" />
    <glyph glyph-name="I" unicode="I" 
d="M232 243q-36 0 -63 27t-27 63t27 63t63 27t63 -27t27 -63t-27 -63t-63 -27zM508 519q-36 0 -63 27t-27 63t27 63t63 27t63 -27t27 -63t-27 -63t-63 -27zM232 580q-11 0 -20 9t-9 20t9 20t20 9t20 -9t9 -20t-9 -20t-20 -9zM232 28q-11 0 -20 9t-9 20t9 20t20 9t20 -9
t9 -20t-9 -20t-20 -9zM508 304q-11 0 -20 9t-9 20t9 20t20 9t20 -9t9 -20t-9 -20t-20 -9zM508 28q-11 0 -20 9t-9 20t9 20t20 9t20 -9t9 -20t-9 -20t-20 -9z" />
    <glyph glyph-name="J" unicode="J" 
d="M232 243q-36 0 -63 27t-27 63t27 63t63 27t63 -27t27 -63t-27 -63t-63 -27zM508 519q-36 0 -63 27t-27 63t27 63t63 27t63 -27t27 -63t-27 -63t-63 -27zM508 243q-36 0 -63 27t-27 63t27 63t63 27t63 -27t27 -63t-27 -63t-63 -27zM232 580q-11 0 -20 9t-9 20t9 20t20 9
t20 -9t9 -20t-9 -20t-20 -9zM232 28q-11 0 -20 9t-9 20t9 20t20 9t20 -9t9 -20t-9 -20t-20 -9zM508 28q-11 0 -20 9t-9 20t9 20t20 9t20 -9t9 -20t-9 -20t-20 -9z" />
    <glyph glyph-name="K" unicode="K" 
d="M232 519q-36 0 -63 27t-27 63t27 63t63 27t63 -27t27 -63t-27 -63t-63 -27zM232 -33q-36 0 -63 27t-27 63t27 63t63 27t63 -27t27 -63t-27 -63t-63 -27zM232 304q-11 0 -20 9t-9 20t9 20t20 9t20 -9t9 -20t-9 -20t-20 -9zM508 580q-11 0 -20 9t-9 20t9 20t20 9t20 -9
t9 -20t-9 -20t-20 -9zM508 304q-11 0 -20 9t-9 20t9 20t20 9t20 -9t9 -20t-9 -20t-20 -9zM508 28q-11 0 -20 9t-9 20t9 20t20 9t20 -9t9 -20t-9 -20t-20 -9z" />
    <glyph glyph-name="L" unicode="L" 
d="M232 519q-36 0 -63 27t-27 63t27 63t63 27t63 -27t27 -63t-27 -63t-63 -27zM232 243q-36 0 -63 27t-27 63t27 63t63 27t63 -27t27 -63t-27 -63t-63 -27zM232 -33q-36 0 -63 27t-27 63t27 63t63 27t63 -27t27 -63t-27 -63t-63 -27zM508 580q-11 0 -20 9t-9 20t9 20t20 9
t20 -9t9 -20t-9 -20t-20 -9zM508 304q-11 0 -20 9t-9 20t9 20t20 9t20 -9t9 -20t-9 -20t-20 -9zM508 28q-11 0 -20 9t-9 20t9 20t20 9t20 -9t9 -20t-9 -20t-20 -9z" />
    <glyph glyph-name="M" unicode="M" 
d="M232 519q-36 0 -63 27t-27 63t27 63t63 27t63 -27t27 -63t-27 -63t-63 -27zM232 -33q-36 0 -63 27t-27 63t27 63t63 27t63 -27t27 -63t-27 -63t-63 -27zM508 519q-36 0 -63 27t-27 63t27 63t63 27t63 -27t27 -63t-27 -63t-63 -27zM232 304q-11 0 -20 9t-9 20t9 20t20 9
t20 -9t9 -20t-9 -20t-20 -9zM508 304q-11 0 -20 9t-9 20t9 20t20 9t20 -9t9 -20t-9 -20t-20 -9zM508 28q-11 0 -20 9t-9 20t9 20t20 9t20 -9t9 -20t-9 -20t-20 -9z" />
    <glyph glyph-name="N" unicode="N" 
d="M232 519q-36 0 -63 27t-27 63t27 63t63 27t63 -27t27 -63t-27 -63t-63 -27zM232 -33q-36 0 -63 27t-27 63t27 63t63 27t63 -27t27 -63t-27 -63t-63 -27zM508 519q-36 0 -63 27t-27 63t27 63t63 27t63 -27t27 -63t-27 -63t-63 -27zM508 243q-36 0 -63 27t-27 63t27 63
t63 27t63 -27t27 -63t-27 -63t-63 -27zM232 304q-11 0 -20 9t-9 20t9 20t20 9t20 -9t9 -20t-9 -20t-20 -9zM508 28q-11 0 -20 9t-9 20t9 20t20 9t20 -9t9 -20t-9 -20t-20 -9z" />
    <glyph glyph-name="O" unicode="O" 
d="M232 519q-36 0 -63 27t-27 63t27 63t63 27t63 -27t27 -63t-27 -63t-63 -27zM232 -33q-36 0 -63 27t-27 63t27 63t63 27t63 -27t27 -63t-27 -63t-63 -27zM508 243q-36 0 -63 27t-27 63t27 63t63 27t63 -27t27 -63t-27 -63t-63 -27zM232 304q-11 0 -20 9t-9 20t9 20t20 9
t20 -9t9 -20t-9 -20t-20 -9zM508 580q-11 0 -20 9t-9 20t9 20t20 9t20 -9t9 -20t-9 -20t-20 -9zM508 28q-11 0 -20 9t-9 20t9 20t20 9t20 -9t9 -20t-9 -20t-20 -9z" />
    <glyph glyph-name="P" unicode="P" 
d="M232 519q-36 0 -63 27t-27 63t27 63t63 27t63 -27t27 -63t-27 -63t-63 -27zM232 243q-36 0 -63 27t-27 63t27 63t63 27t63 -27t27 -63t-27 -63t-63 -27zM232 -33q-36 0 -63 27t-27 63t27 63t63 27t63 -27t27 -63t-27 -63t-63 -27zM508 519q-36 0 -63 27t-27 63t27 63
t63 27t63 -27t27 -63t-27 -63t-63 -27zM508 304q-11 0 -20 9t-9 20t9 20t20 9t20 -9t9 -20t-9 -20t-20 -9zM508 28q-11 0 -20 9t-9 20t9 20t20 9t20 -9t9 -20t-9 -20t-20 -9z" />
    <glyph glyph-name="Q" unicode="Q" 
d="M232 519q-36 0 -63 27t-27 63t27 63t63 27t63 -27t27 -63t-27 -63t-63 -27zM232 243q-36 0 -63 27t-27 63t27 63t63 27t63 -27t27 -63t-27 -63t-63 -27zM232 -33q-36 0 -63 27t-27 63t27 63t63 27t63 -27t27 -63t-27 -63t-63 -27zM508 519q-36 0 -63 27t-27 63t27 63
t63 27t63 -27t27 -63t-27 -63t-63 -27zM508 243q-36 0 -63 27t-27 63t27 63t63 27t63 -27t27 -63t-27 -63t-63 -27zM508 28q-11 0 -20 9t-9 20t9 20t20 9t20 -9t9 -20t-9 -20t-20 -9z" />
    <glyph glyph-name="R" unicode="R" 
d="M232 519q-36 0 -63 27t-27 63t27 63t63 27t63 -27t27 -63t-27 -63t-63 -27zM232 243q-36 0 -63 27t-27 63t27 63t63 27t63 -27t27 -63t-27 -63t-63 -27zM232 -33q-36 0 -63 27t-27 63t27 63t63 27t63 -27t27 -63t-27 -63t-63 -27zM508 243q-36 0 -63 27t-27 63t27 63
t63 27t63 -27t27 -63t-27 -63t-63 -27zM508 580q-11 0 -20 9t-9 20t9 20t20 9t20 -9t9 -20t-9 -20t-20 -9zM508 28q-11 0 -20 9t-9 20t9 20t20 9t20 -9t9 -20t-9 -20t-20 -9z" />
    <glyph glyph-name="S" unicode="S" 
d="M232 243q-36 0 -63 27t-27 63t27 63t63 27t63 -27t27 -63t-27 -63t-63 -27zM232 -33q-36 0 -63 27t-27 63t27 63t63 27t63 -27t27 -63t-27 -63t-63 -27zM508 519q-36 0 -63 27t-27 63t27 63t63 27t63 -27t27 -63t-27 -63t-63 -27zM232 580q-11 0 -20 9t-9 20t9 20t20 9
t20 -9t9 -20t-9 -20t-20 -9zM508 304q-11 0 -20 9t-9 20t9 20t20 9t20 -9t9 -20t-9 -20t-20 -9zM508 28q-11 0 -20 9t-9 20t9 20t20 9t20 -9t9 -20t-9 -20t-20 -9z" />
    <glyph glyph-name="T" unicode="T" 
d="M232 243q-36 0 -63 27t-27 63t27 63t63 27t63 -27t27 -63t-27 -63t-63 -27zM232 -33q-36 0 -63 27t-27 63t27 63t63 27t63 -27t27 -63t-27 -63t-63 -27zM508 519q-36 0 -63 27t-27 63t27 63t63 27t63 -27t27 -63t-27 -63t-63 -27zM508 243q-36 0 -63 27t-27 63t27 63
t63 27t63 -27t27 -63t-27 -63t-63 -27zM232 580q-11 0 -20 9t-9 20t9 20t20 9t20 -9t9 -20t-9 -20t-20 -9zM508 28q-11 0 -20 9t-9 20t9 20t20 9t20 -9t9 -20t-9 -20t-20 -9z" />
    <glyph glyph-name="U" unicode="U" 
d="M232 519q-36 0 -63 27t-27 63t27 63t63 27t63 -27t27 -63t-27 -63t-63 -27zM232 -33q-36 0 -63 27t-27 63t27 63t63 27t63 -27t27 -63t-27 -63t-63 -27zM508 -33q-36 0 -63 27t-27 63t27 63t63 27t63 -27t27 -63t-27 -63t-63 -27zM232 304q-11 0 -20 9t-9 20t9 20t20 9
t20 -9t9 -20t-9 -20t-20 -9zM508 580q-11 0 -20 9t-9 20t9 20t20 9t20 -9t9 -20t-9 -20t-20 -9zM508 304q-11 0 -20 9t-9 20t9 20t20 9t20 -9t9 -20t-9 -20t-20 -9z" />
    <glyph glyph-name="V" unicode="V" 
d="M232 519q-36 0 -63 27t-27 63t27 63t63 27t63 -27t27 -63t-27 -63t-63 -27zM232 243q-36 0 -63 27t-27 63t27 63t63 27t63 -27t27 -63t-27 -63t-63 -27zM232 -33q-36 0 -63 27t-27 63t27 63t63 27t63 -27t27 -63t-27 -63t-63 -27zM508 -33q-36 0 -63 27t-27 63t27 63
t63 27t63 -27t27 -63t-27 -63t-63 -27zM508 580q-11 0 -20 9t-9 20t9 20t20 9t20 -9t9 -20t-9 -20t-20 -9zM508 304q-11 0 -20 9t-9 20t9 20t20 9t20 -9t9 -20t-9 -20t-20 -9z" />
    <glyph glyph-name="W" unicode="W" 
d="M232 243q-36 0 -63 27t-27 63t27 63t63 27t63 -27t27 -63t-27 -63t-63 -27zM508 519q-36 0 -63 27t-27 63t27 63t63 27t63 -27t27 -63t-27 -63t-63 -27zM508 243q-36 0 -63 27t-27 63t27 63t63 27t63 -27t27 -63t-27 -63t-63 -27zM508 -33q-36 0 -63 27t-27 63t27 63
t63 27t63 -27t27 -63t-27 -63t-63 -27zM232 580q-11 0 -20 9t-9 20t9 20t20 9t20 -9t9 -20t-9 -20t-20 -9zM232 28q-11 0 -20 9t-9 20t9 20t20 9t20 -9t9 -20t-9 -20t-20 -9z" />
    <glyph glyph-name="X" unicode="X" 
d="M232 519q-36 0 -63 27t-27 63t27 63t63 27t63 -27t27 -63t-27 -63t-63 -27zM232 -33q-36 0 -63 27t-27 63t27 63t63 27t63 -27t27 -63t-27 -63t-63 -27zM508 519q-36 0 -63 27t-27 63t27 63t63 27t63 -27t27 -63t-27 -63t-63 -27zM508 -33q-36 0 -63 27t-27 63t27 63
t63 27t63 -27t27 -63t-27 -63t-63 -27zM232 304q-11 0 -20 9t-9 20t9 20t20 9t20 -9t9 -20t-9 -20t-20 -9zM508 304q-11 0 -20 9t-9 20t9 20t20 9t20 -9t9 -20t-9 -20t-20 -9z" />
    <glyph glyph-name="Y" unicode="Y" 
d="M232 519q-36 0 -63 27t-27 63t27 63t63 27t63 -27t27 -63t-27 -63t-63 -27zM232 -33q-36 0 -63 27t-27 63t27 63t63 27t63 -27t27 -63t-27 -63t-63 -27zM508 519q-36 0 -63 27t-27 63t27 63t63 27t63 -27t27 -63t-27 -63t-63 -27zM508 243q-36 0 -63 27t-27 63t27 63
t63 27t63 -27t27 -63t-27 -63t-63 -27zM508 -33q-36 0 -63 27t-27 63t27 63t63 27t63 -27t27 -63t-27 -63t-63 -27zM232 304q-11 0 -20 9t-9 20t9 20t20 9t20 -9t9 -20t-9 -20t-20 -9z" />
    <glyph glyph-name="Z" unicode="Z" 
d="M232 519q-36 0 -63 27t-27 63t27 63t63 27t63 -27t27 -63t-27 -63t-63 -27zM232 -33q-36 0 -63 27t-27 63t27 63t63 27t63 -27t27 -63t-27 -63t-63 -27zM508 243q-36 0 -63 27t-27 63t27 63t63 27t63 -27t27 -63t-27 -63t-63 -27zM508 -33q-36 0 -63 27t-27 63t27 63
t63 27t63 -27t27 -63t-27 -63t-63 -27zM232 304q-11 0 -20 9t-9 20t9 20t20 9t20 -9t9 -20t-9 -20t-20 -9zM508 580q-11 0 -20 9t-9 20t9 20t20 9t20 -9t9 -20t-9 -20t-20 -9z" />
    <glyph glyph-name="braceleft" unicode="{" 
d="M232 243q-36 0 -63 27t-27 63t27 63t63 27t63 -27t27 -63t-27 -63t-63 -27zM508 519q-36 0 -63 27t-27 63t27 63t63 27t63 -27t27 -63t-27 -63t-63 -27zM508 -33q-36 0 -63 27t-27 63t27 63t63 27t63 -27t27 -63t-27 -63t-63 -27zM232 580q-11 0 -20 9t-9 20t9 20t20 9
t20 -9t9 -20t-9 -20t-20 -9zM232 28q-11 0 -20 9t-9 20t9 20t20 9t20 -9t9 -20t-9 -20t-20 -9zM508 304q-11 0 -20 9t-9 20t9 20t20 9t20 -9t9 -20t-9 -20t-20 -9z" />
    <glyph glyph-name="bar" unicode="|" 
d="M232 519q-36 0 -63 27t-27 63t27 63t63 27t63 -27t27 -63t-27 -63t-63 -27zM232 243q-36 0 -63 27t-27 63t27 63t63 27t63 -27t27 -63t-27 -63t-63 -27zM508 243q-36 0 -63 27t-27 63t27 63t63 27t63 -27t27 -63t-27 -63t-63 -27zM508 -33q-36 0 -63 27t-27 63t27 63
t63 27t63 -27t27 -63t-27 -63t-63 -27zM232 28q-11 0 -20 9t-9 20t9 20t20 9t20 -9t9 -20t-9 -20t-20 -9zM508 580q-11 0 -20 9t-9 20t9 20t20 9t20 -9t9 -20t-9 -20t-20 -9z" />
    <glyph glyph-name="braceright" unicode="}" 
d="M232 519q-36 0 -63 27t-27 63t27 63t63 27t63 -27t27 -63t-27 -63t-63 -27zM232 243q-36 0 -63 27t-27 63t27 63t63 27t63 -27t27 -63t-27 -63t-63 -27zM508 519q-36 0 -63 27t-27 63t27 63t63 27t63 -27t27 -63t-27 -63t-63 -27zM508 243q-36 0 -63 27t-27 63t27 63
t63 27t63 -27t27 -63t-27 -63t-63 -27zM508 -33q-36 0 -63 27t-27 63t27 63t63 27t63 -27t27 -63t-27 -63t-63 -27zM232 28q-11 0 -20 9t-9 20t9 20t20 9t20 -9t9 -20t-9 -20t-20 -9z" />
    <glyph glyph-name="asciitilde" unicode="~" 
d="M508 519q-36 0 -63 27t-27 63t27 63t63 27t63 -27t27 -63t-27 -63t-63 -27zM508 243q-36 0 -63 27t-27 63t27 63t63 27t63 -27t27 -63t-27 -63t-63 -27zM232 580q-11 0 -20 9t-9 20t9 20t20 9t20 -9t9 -20t-9 -20t-20 -9zM232 304q-11 0 -20 9t-9 20t9 20t20 9t20 -9
t9 -20t-9 -20t-20 -9zM232 28q-11 0 -20 9t-9 20t9 20t20 9t20 -9t9 -20t-9 -20t-20 -9zM508 28q-11 0 -20 9t-9 20t9 20t20 9t20 -9t9 -20t-9 -20t-20 -9z" />
    <glyph glyph-name="uni00A0" unicode="&#xa0;" 
d="M232 580q-11 0 -20 9t-9 20t9 20t20 9t20 -9t9 -20t-9 -20t-20 -9zM232 304q-11 0 -20 9t-9 20t9 20t20 9t20 -9t9 -20t-9 -20t-20 -9zM232 28q-11 0 -20 9t-9 20t9 20t20 9t20 -9t9 -20t-9 -20t-20 -9zM508 580q-11 0 -20 9t-9 20t9 20t20 9t20 -9t9 -20t-9 -20t-20 -9z
M508 304q-11 0 -20 9t-9 20t9 20t20 9t20 -9t9 -20t-9 -20t-20 -9zM508 28q-11 0 -20 9t-9 20t9 20t20 9t20 -9t9 -20t-9 -20t-20 -9z" />
  </font>
</defs>
</svg>
