<?xml version="1.0" standalone="no"?>
<!DOCTYPE svg PUBLIC "-//W3C//DTD SVG 1.1//EN" "http://www.w3.org/Graphics/SVG/1.1/DTD/svg11.dtd" >
<svg xmlns="http://www.w3.org/2000/svg" xmlns:xlink="http://www.w3.org/1999/xlink" version="1.1">
<metadata>
Created by FontForge 20170921 at Sat Aug 11 12:48:59 2018
 By Dr. Simon Antony Xaies
(c) Chronolabs Cooperative, 2007-2018
</metadata>
<defs>
<font id="ChronolabsCooperativeSixDotRegularBraille" horiz-adv-x="740" >
  <font-face 
    font-family="Braille"
    font-weight="400"
    font-stretch="normal"
    units-per-em="1024"
    panose-1="1 1 6 9 6 1 1 1 1 3"
    ascent="819"
    descent="-205"
    cap-height="387"
    bbox="160 -33 580 663"
    underline-thickness="12"
    underline-position="-55"
    unicode-range="U+0020-005F"
  />
<missing-glyph 
d="M160 0h420v663h-420v-663zM180 20v623h380v-623h-380z" />
    <glyph glyph-name=".notdef" 
d="M160 0h420v663h-420v-663zM180 20v623h380v-623h-380z" />
    <glyph glyph-name=".null" horiz-adv-x="0" 
 />
    <glyph glyph-name="space" unicode=" " 
 />
    <glyph glyph-name="space" unicode="&#x28c0;" 
 />
    <glyph glyph-name="space" unicode="&#x2880;" 
 />
    <glyph glyph-name="space" unicode="&#x2840;" 
 />
    <glyph glyph-name="space" unicode="&#x2800;" 
 />
    <glyph glyph-name="space" unicode="&#xa0;" 
 />
    <glyph glyph-name="A" unicode="A" 
d="M232 519q-28 0 -50 22t-22 50t22 50t50 22t50 -22t22 -50t-22 -50t-50 -22z" />
    <glyph glyph-name="A" unicode="&#x28c1;" 
d="M232 519q-28 0 -50 22t-22 50t22 50t50 22t50 -22t22 -50t-22 -50t-50 -22z" />
    <glyph glyph-name="A" unicode="&#x2881;" 
d="M232 519q-28 0 -50 22t-22 50t22 50t50 22t50 -22t22 -50t-22 -50t-50 -22z" />
    <glyph glyph-name="A" unicode="&#x2841;" 
d="M232 519q-28 0 -50 22t-22 50t22 50t50 22t50 -22t22 -50t-22 -50t-50 -22z" />
    <glyph glyph-name="A" unicode="&#x2801;" 
d="M232 519q-28 0 -50 22t-22 50t22 50t50 22t50 -22t22 -50t-22 -50t-50 -22z" />
    <glyph glyph-name="A" unicode="a" 
d="M232 519q-28 0 -50 22t-22 50t22 50t50 22t50 -22t22 -50t-22 -50t-50 -22z" />
    <glyph glyph-name="one" unicode="1" 
d="M232 243q-28 0 -50 22t-22 50t22 50t50 22t50 -22t22 -50t-22 -50t-50 -22z" />
    <glyph glyph-name="one" unicode="&#x28c2;" 
d="M232 243q-28 0 -50 22t-22 50t22 50t50 22t50 -22t22 -50t-22 -50t-50 -22z" />
    <glyph glyph-name="one" unicode="&#x2882;" 
d="M232 243q-28 0 -50 22t-22 50t22 50t50 22t50 -22t22 -50t-22 -50t-50 -22z" />
    <glyph glyph-name="one" unicode="&#x2842;" 
d="M232 243q-28 0 -50 22t-22 50t22 50t50 22t50 -22t22 -50t-22 -50t-50 -22z" />
    <glyph glyph-name="one" unicode="&#x2802;" 
d="M232 243q-28 0 -50 22t-22 50t22 50t50 22t50 -22t22 -50t-22 -50t-50 -22z" />
    <glyph glyph-name="quotesingle" unicode="'" 
d="M232 -33q-28 0 -50 22t-22 50t22 50t50 22t50 -22t22 -50t-22 -50t-50 -22z" />
    <glyph glyph-name="quotesingle" unicode="&#x28c4;" 
d="M232 -33q-28 0 -50 22t-22 50t22 50t50 22t50 -22t22 -50t-22 -50t-50 -22z" />
    <glyph glyph-name="quotesingle" unicode="&#x2884;" 
d="M232 -33q-28 0 -50 22t-22 50t22 50t50 22t50 -22t22 -50t-22 -50t-50 -22z" />
    <glyph glyph-name="quotesingle" unicode="&#x2844;" 
d="M232 -33q-28 0 -50 22t-22 50t22 50t50 22t50 -22t22 -50t-22 -50t-50 -22z" />
    <glyph glyph-name="quotesingle" unicode="&#x2804;" 
d="M232 -33q-28 0 -50 22t-22 50t22 50t50 22t50 -22t22 -50t-22 -50t-50 -22z" />
    <glyph glyph-name="at" unicode="@" 
d="M508 519q-28 0 -50 22t-22 50t22 50t50 22t50 -22t22 -50t-22 -50t-50 -22z" />
    <glyph glyph-name="at" unicode="&#x28c8;" 
d="M508 519q-28 0 -50 22t-22 50t22 50t50 22t50 -22t22 -50t-22 -50t-50 -22z" />
    <glyph glyph-name="at" unicode="&#x2888;" 
d="M508 519q-28 0 -50 22t-22 50t22 50t50 22t50 -22t22 -50t-22 -50t-50 -22z" />
    <glyph glyph-name="at" unicode="&#x2848;" 
d="M508 519q-28 0 -50 22t-22 50t22 50t50 22t50 -22t22 -50t-22 -50t-50 -22z" />
    <glyph glyph-name="at" unicode="&#x2808;" 
d="M508 519q-28 0 -50 22t-22 50t22 50t50 22t50 -22t22 -50t-22 -50t-50 -22z" />
    <glyph glyph-name="at" unicode="`" 
d="M508 519q-28 0 -50 22t-22 50t22 50t50 22t50 -22t22 -50t-22 -50t-50 -22z" />
    <glyph glyph-name="quotedbl" unicode="&#x22;" 
d="M508 243q-28 0 -50 22t-22 50t22 50t50 22t50 -22t22 -50t-22 -50t-50 -22z" />
    <glyph glyph-name="quotedbl" unicode="&#x28d0;" 
d="M508 243q-28 0 -50 22t-22 50t22 50t50 22t50 -22t22 -50t-22 -50t-50 -22z" />
    <glyph glyph-name="quotedbl" unicode="&#x2890;" 
d="M508 243q-28 0 -50 22t-22 50t22 50t50 22t50 -22t22 -50t-22 -50t-50 -22z" />
    <glyph glyph-name="quotedbl" unicode="&#x2850;" 
d="M508 243q-28 0 -50 22t-22 50t22 50t50 22t50 -22t22 -50t-22 -50t-50 -22z" />
    <glyph glyph-name="quotedbl" unicode="&#x2810;" 
d="M508 243q-28 0 -50 22t-22 50t22 50t50 22t50 -22t22 -50t-22 -50t-50 -22z" />
    <glyph glyph-name="comma" unicode="," 
d="M508 -33q-28 0 -50 22t-22 50t22 50t50 22t50 -22t22 -50t-22 -50t-50 -22z" />
    <glyph glyph-name="comma" unicode="&#x28e0;" 
d="M508 -33q-28 0 -50 22t-22 50t22 50t50 22t50 -22t22 -50t-22 -50t-50 -22z" />
    <glyph glyph-name="comma" unicode="&#x28a0;" 
d="M508 -33q-28 0 -50 22t-22 50t22 50t50 22t50 -22t22 -50t-22 -50t-50 -22z" />
    <glyph glyph-name="comma" unicode="&#x2860;" 
d="M508 -33q-28 0 -50 22t-22 50t22 50t50 22t50 -22t22 -50t-22 -50t-50 -22z" />
    <glyph glyph-name="comma" unicode="&#x2820;" 
d="M508 -33q-28 0 -50 22t-22 50t22 50t50 22t50 -22t22 -50t-22 -50t-50 -22z" />
    <glyph glyph-name="B" unicode="B" 
d="M232 519q-28 0 -50 22t-22 50t22 50t50 22t50 -22t22 -50t-22 -50t-50 -22zM232 243q-28 0 -50 22t-22 50t22 50t50 22t50 -22t22 -50t-22 -50t-50 -22z" />
    <glyph glyph-name="B" unicode="&#x28c3;" 
d="M232 519q-28 0 -50 22t-22 50t22 50t50 22t50 -22t22 -50t-22 -50t-50 -22zM232 243q-28 0 -50 22t-22 50t22 50t50 22t50 -22t22 -50t-22 -50t-50 -22z" />
    <glyph glyph-name="B" unicode="&#x2883;" 
d="M232 519q-28 0 -50 22t-22 50t22 50t50 22t50 -22t22 -50t-22 -50t-50 -22zM232 243q-28 0 -50 22t-22 50t22 50t50 22t50 -22t22 -50t-22 -50t-50 -22z" />
    <glyph glyph-name="B" unicode="&#x2843;" 
d="M232 519q-28 0 -50 22t-22 50t22 50t50 22t50 -22t22 -50t-22 -50t-50 -22zM232 243q-28 0 -50 22t-22 50t22 50t50 22t50 -22t22 -50t-22 -50t-50 -22z" />
    <glyph glyph-name="B" unicode="&#x2803;" 
d="M232 519q-28 0 -50 22t-22 50t22 50t50 22t50 -22t22 -50t-22 -50t-50 -22zM232 243q-28 0 -50 22t-22 50t22 50t50 22t50 -22t22 -50t-22 -50t-50 -22z" />
    <glyph glyph-name="B" unicode="b" 
d="M232 519q-28 0 -50 22t-22 50t22 50t50 22t50 -22t22 -50t-22 -50t-50 -22zM232 243q-28 0 -50 22t-22 50t22 50t50 22t50 -22t22 -50t-22 -50t-50 -22z" />
    <glyph glyph-name="K" unicode="K" 
d="M232 519q-28 0 -50 22t-22 50t22 50t50 22t50 -22t22 -50t-22 -50t-50 -22zM232 -33q-28 0 -50 22t-22 50t22 50t50 22t50 -22t22 -50t-22 -50t-50 -22z" />
    <glyph glyph-name="K" unicode="&#x28c5;" 
d="M232 519q-28 0 -50 22t-22 50t22 50t50 22t50 -22t22 -50t-22 -50t-50 -22zM232 -33q-28 0 -50 22t-22 50t22 50t50 22t50 -22t22 -50t-22 -50t-50 -22z" />
    <glyph glyph-name="K" unicode="&#x2885;" 
d="M232 519q-28 0 -50 22t-22 50t22 50t50 22t50 -22t22 -50t-22 -50t-50 -22zM232 -33q-28 0 -50 22t-22 50t22 50t50 22t50 -22t22 -50t-22 -50t-50 -22z" />
    <glyph glyph-name="K" unicode="&#x2845;" 
d="M232 519q-28 0 -50 22t-22 50t22 50t50 22t50 -22t22 -50t-22 -50t-50 -22zM232 -33q-28 0 -50 22t-22 50t22 50t50 22t50 -22t22 -50t-22 -50t-50 -22z" />
    <glyph glyph-name="K" unicode="&#x2805;" 
d="M232 519q-28 0 -50 22t-22 50t22 50t50 22t50 -22t22 -50t-22 -50t-50 -22zM232 -33q-28 0 -50 22t-22 50t22 50t50 22t50 -22t22 -50t-22 -50t-50 -22z" />
    <glyph glyph-name="K" unicode="k" 
d="M232 519q-28 0 -50 22t-22 50t22 50t50 22t50 -22t22 -50t-22 -50t-50 -22zM232 -33q-28 0 -50 22t-22 50t22 50t50 22t50 -22t22 -50t-22 -50t-50 -22z" />
    <glyph glyph-name="two" unicode="2" 
d="M232 243q-28 0 -50 22t-22 50t22 50t50 22t50 -22t22 -50t-22 -50t-50 -22zM232 -33q-28 0 -50 22t-22 50t22 50t50 22t50 -22t22 -50t-22 -50t-50 -22z" />
    <glyph glyph-name="two" unicode="&#x28c6;" 
d="M232 243q-28 0 -50 22t-22 50t22 50t50 22t50 -22t22 -50t-22 -50t-50 -22zM232 -33q-28 0 -50 22t-22 50t22 50t50 22t50 -22t22 -50t-22 -50t-50 -22z" />
    <glyph glyph-name="two" unicode="&#x2886;" 
d="M232 243q-28 0 -50 22t-22 50t22 50t50 22t50 -22t22 -50t-22 -50t-50 -22zM232 -33q-28 0 -50 22t-22 50t22 50t50 22t50 -22t22 -50t-22 -50t-50 -22z" />
    <glyph glyph-name="two" unicode="&#x2846;" 
d="M232 243q-28 0 -50 22t-22 50t22 50t50 22t50 -22t22 -50t-22 -50t-50 -22zM232 -33q-28 0 -50 22t-22 50t22 50t50 22t50 -22t22 -50t-22 -50t-50 -22z" />
    <glyph glyph-name="two" unicode="&#x2806;" 
d="M232 243q-28 0 -50 22t-22 50t22 50t50 22t50 -22t22 -50t-22 -50t-50 -22zM232 -33q-28 0 -50 22t-22 50t22 50t50 22t50 -22t22 -50t-22 -50t-50 -22z" />
    <glyph glyph-name="L" unicode="L" 
d="M232 519q-28 0 -50 22t-22 50t22 50t50 22t50 -22t22 -50t-22 -50t-50 -22zM232 243q-28 0 -50 22t-22 50t22 50t50 22t50 -22t22 -50t-22 -50t-50 -22zM232 -33q-28 0 -50 22t-22 50t22 50t50 22t50 -22t22 -50t-22 -50t-50 -22z" />
    <glyph glyph-name="L" unicode="&#x28c7;" 
d="M232 519q-28 0 -50 22t-22 50t22 50t50 22t50 -22t22 -50t-22 -50t-50 -22zM232 243q-28 0 -50 22t-22 50t22 50t50 22t50 -22t22 -50t-22 -50t-50 -22zM232 -33q-28 0 -50 22t-22 50t22 50t50 22t50 -22t22 -50t-22 -50t-50 -22z" />
    <glyph glyph-name="L" unicode="&#x2887;" 
d="M232 519q-28 0 -50 22t-22 50t22 50t50 22t50 -22t22 -50t-22 -50t-50 -22zM232 243q-28 0 -50 22t-22 50t22 50t50 22t50 -22t22 -50t-22 -50t-50 -22zM232 -33q-28 0 -50 22t-22 50t22 50t50 22t50 -22t22 -50t-22 -50t-50 -22z" />
    <glyph glyph-name="L" unicode="&#x2847;" 
d="M232 519q-28 0 -50 22t-22 50t22 50t50 22t50 -22t22 -50t-22 -50t-50 -22zM232 243q-28 0 -50 22t-22 50t22 50t50 22t50 -22t22 -50t-22 -50t-50 -22zM232 -33q-28 0 -50 22t-22 50t22 50t50 22t50 -22t22 -50t-22 -50t-50 -22z" />
    <glyph glyph-name="L" unicode="&#x2807;" 
d="M232 519q-28 0 -50 22t-22 50t22 50t50 22t50 -22t22 -50t-22 -50t-50 -22zM232 243q-28 0 -50 22t-22 50t22 50t50 22t50 -22t22 -50t-22 -50t-50 -22zM232 -33q-28 0 -50 22t-22 50t22 50t50 22t50 -22t22 -50t-22 -50t-50 -22z" />
    <glyph glyph-name="L" unicode="l" 
d="M232 519q-28 0 -50 22t-22 50t22 50t50 22t50 -22t22 -50t-22 -50t-50 -22zM232 243q-28 0 -50 22t-22 50t22 50t50 22t50 -22t22 -50t-22 -50t-50 -22zM232 -33q-28 0 -50 22t-22 50t22 50t50 22t50 -22t22 -50t-22 -50t-50 -22z" />
    <glyph glyph-name="C" unicode="C" 
d="M232 519q-28 0 -50 22t-22 50t22 50t50 22t50 -22t22 -50t-22 -50t-50 -22zM508 519q-28 0 -50 22t-22 50t22 50t50 22t50 -22t22 -50t-22 -50t-50 -22z" />
    <glyph glyph-name="C" unicode="&#x28c9;" 
d="M232 519q-28 0 -50 22t-22 50t22 50t50 22t50 -22t22 -50t-22 -50t-50 -22zM508 519q-28 0 -50 22t-22 50t22 50t50 22t50 -22t22 -50t-22 -50t-50 -22z" />
    <glyph glyph-name="C" unicode="&#x2889;" 
d="M232 519q-28 0 -50 22t-22 50t22 50t50 22t50 -22t22 -50t-22 -50t-50 -22zM508 519q-28 0 -50 22t-22 50t22 50t50 22t50 -22t22 -50t-22 -50t-50 -22z" />
    <glyph glyph-name="C" unicode="&#x2849;" 
d="M232 519q-28 0 -50 22t-22 50t22 50t50 22t50 -22t22 -50t-22 -50t-50 -22zM508 519q-28 0 -50 22t-22 50t22 50t50 22t50 -22t22 -50t-22 -50t-50 -22z" />
    <glyph glyph-name="C" unicode="&#x2809;" 
d="M232 519q-28 0 -50 22t-22 50t22 50t50 22t50 -22t22 -50t-22 -50t-50 -22zM508 519q-28 0 -50 22t-22 50t22 50t50 22t50 -22t22 -50t-22 -50t-50 -22z" />
    <glyph glyph-name="C" unicode="c" 
d="M232 519q-28 0 -50 22t-22 50t22 50t50 22t50 -22t22 -50t-22 -50t-50 -22zM508 519q-28 0 -50 22t-22 50t22 50t50 22t50 -22t22 -50t-22 -50t-50 -22z" />
    <glyph glyph-name="I" unicode="I" 
d="M232 243q-28 0 -50 22t-22 50t22 50t50 22t50 -22t22 -50t-22 -50t-50 -22zM508 519q-28 0 -50 22t-22 50t22 50t50 22t50 -22t22 -50t-22 -50t-50 -22z" />
    <glyph glyph-name="I" unicode="&#x28ca;" 
d="M232 243q-28 0 -50 22t-22 50t22 50t50 22t50 -22t22 -50t-22 -50t-50 -22zM508 519q-28 0 -50 22t-22 50t22 50t50 22t50 -22t22 -50t-22 -50t-50 -22z" />
    <glyph glyph-name="I" unicode="&#x288a;" 
d="M232 243q-28 0 -50 22t-22 50t22 50t50 22t50 -22t22 -50t-22 -50t-50 -22zM508 519q-28 0 -50 22t-22 50t22 50t50 22t50 -22t22 -50t-22 -50t-50 -22z" />
    <glyph glyph-name="I" unicode="&#x284a;" 
d="M232 243q-28 0 -50 22t-22 50t22 50t50 22t50 -22t22 -50t-22 -50t-50 -22zM508 519q-28 0 -50 22t-22 50t22 50t50 22t50 -22t22 -50t-22 -50t-50 -22z" />
    <glyph glyph-name="I" unicode="&#x280a;" 
d="M232 243q-28 0 -50 22t-22 50t22 50t50 22t50 -22t22 -50t-22 -50t-50 -22zM508 519q-28 0 -50 22t-22 50t22 50t50 22t50 -22t22 -50t-22 -50t-50 -22z" />
    <glyph glyph-name="I" unicode="i" 
d="M232 243q-28 0 -50 22t-22 50t22 50t50 22t50 -22t22 -50t-22 -50t-50 -22zM508 519q-28 0 -50 22t-22 50t22 50t50 22t50 -22t22 -50t-22 -50t-50 -22z" />
    <glyph glyph-name="F" unicode="F" 
d="M232 519q-28 0 -50 22t-22 50t22 50t50 22t50 -22t22 -50t-22 -50t-50 -22zM232 243q-28 0 -50 22t-22 50t22 50t50 22t50 -22t22 -50t-22 -50t-50 -22zM508 519q-28 0 -50 22t-22 50t22 50t50 22t50 -22t22 -50t-22 -50t-50 -22z" />
    <glyph glyph-name="F" unicode="&#x28cb;" 
d="M232 519q-28 0 -50 22t-22 50t22 50t50 22t50 -22t22 -50t-22 -50t-50 -22zM232 243q-28 0 -50 22t-22 50t22 50t50 22t50 -22t22 -50t-22 -50t-50 -22zM508 519q-28 0 -50 22t-22 50t22 50t50 22t50 -22t22 -50t-22 -50t-50 -22z" />
    <glyph glyph-name="F" unicode="&#x288b;" 
d="M232 519q-28 0 -50 22t-22 50t22 50t50 22t50 -22t22 -50t-22 -50t-50 -22zM232 243q-28 0 -50 22t-22 50t22 50t50 22t50 -22t22 -50t-22 -50t-50 -22zM508 519q-28 0 -50 22t-22 50t22 50t50 22t50 -22t22 -50t-22 -50t-50 -22z" />
    <glyph glyph-name="F" unicode="&#x284b;" 
d="M232 519q-28 0 -50 22t-22 50t22 50t50 22t50 -22t22 -50t-22 -50t-50 -22zM232 243q-28 0 -50 22t-22 50t22 50t50 22t50 -22t22 -50t-22 -50t-50 -22zM508 519q-28 0 -50 22t-22 50t22 50t50 22t50 -22t22 -50t-22 -50t-50 -22z" />
    <glyph glyph-name="F" unicode="&#x280b;" 
d="M232 519q-28 0 -50 22t-22 50t22 50t50 22t50 -22t22 -50t-22 -50t-50 -22zM232 243q-28 0 -50 22t-22 50t22 50t50 22t50 -22t22 -50t-22 -50t-50 -22zM508 519q-28 0 -50 22t-22 50t22 50t50 22t50 -22t22 -50t-22 -50t-50 -22z" />
    <glyph glyph-name="F" unicode="f" 
d="M232 519q-28 0 -50 22t-22 50t22 50t50 22t50 -22t22 -50t-22 -50t-50 -22zM232 243q-28 0 -50 22t-22 50t22 50t50 22t50 -22t22 -50t-22 -50t-50 -22zM508 519q-28 0 -50 22t-22 50t22 50t50 22t50 -22t22 -50t-22 -50t-50 -22z" />
    <glyph glyph-name="slash" unicode="/" 
d="M232 -33q-28 0 -50 22t-22 50t22 50t50 22t50 -22t22 -50t-22 -50t-50 -22zM508 519q-28 0 -50 22t-22 50t22 50t50 22t50 -22t22 -50t-22 -50t-50 -22z" />
    <glyph glyph-name="slash" unicode="&#x28cc;" 
d="M232 -33q-28 0 -50 22t-22 50t22 50t50 22t50 -22t22 -50t-22 -50t-50 -22zM508 519q-28 0 -50 22t-22 50t22 50t50 22t50 -22t22 -50t-22 -50t-50 -22z" />
    <glyph glyph-name="slash" unicode="&#x288c;" 
d="M232 -33q-28 0 -50 22t-22 50t22 50t50 22t50 -22t22 -50t-22 -50t-50 -22zM508 519q-28 0 -50 22t-22 50t22 50t50 22t50 -22t22 -50t-22 -50t-50 -22z" />
    <glyph glyph-name="slash" unicode="&#x284c;" 
d="M232 -33q-28 0 -50 22t-22 50t22 50t50 22t50 -22t22 -50t-22 -50t-50 -22zM508 519q-28 0 -50 22t-22 50t22 50t50 22t50 -22t22 -50t-22 -50t-50 -22z" />
    <glyph glyph-name="slash" unicode="&#x280c;" 
d="M232 -33q-28 0 -50 22t-22 50t22 50t50 22t50 -22t22 -50t-22 -50t-50 -22zM508 519q-28 0 -50 22t-22 50t22 50t50 22t50 -22t22 -50t-22 -50t-50 -22z" />
    <glyph glyph-name="M" unicode="M" 
d="M232 519q-28 0 -50 22t-22 50t22 50t50 22t50 -22t22 -50t-22 -50t-50 -22zM232 -33q-28 0 -50 22t-22 50t22 50t50 22t50 -22t22 -50t-22 -50t-50 -22zM508 519q-28 0 -50 22t-22 50t22 50t50 22t50 -22t22 -50t-22 -50t-50 -22z" />
    <glyph glyph-name="M" unicode="&#x28cd;" 
d="M232 519q-28 0 -50 22t-22 50t22 50t50 22t50 -22t22 -50t-22 -50t-50 -22zM232 -33q-28 0 -50 22t-22 50t22 50t50 22t50 -22t22 -50t-22 -50t-50 -22zM508 519q-28 0 -50 22t-22 50t22 50t50 22t50 -22t22 -50t-22 -50t-50 -22z" />
    <glyph glyph-name="M" unicode="&#x288d;" 
d="M232 519q-28 0 -50 22t-22 50t22 50t50 22t50 -22t22 -50t-22 -50t-50 -22zM232 -33q-28 0 -50 22t-22 50t22 50t50 22t50 -22t22 -50t-22 -50t-50 -22zM508 519q-28 0 -50 22t-22 50t22 50t50 22t50 -22t22 -50t-22 -50t-50 -22z" />
    <glyph glyph-name="M" unicode="&#x284d;" 
d="M232 519q-28 0 -50 22t-22 50t22 50t50 22t50 -22t22 -50t-22 -50t-50 -22zM232 -33q-28 0 -50 22t-22 50t22 50t50 22t50 -22t22 -50t-22 -50t-50 -22zM508 519q-28 0 -50 22t-22 50t22 50t50 22t50 -22t22 -50t-22 -50t-50 -22z" />
    <glyph glyph-name="M" unicode="&#x280d;" 
d="M232 519q-28 0 -50 22t-22 50t22 50t50 22t50 -22t22 -50t-22 -50t-50 -22zM232 -33q-28 0 -50 22t-22 50t22 50t50 22t50 -22t22 -50t-22 -50t-50 -22zM508 519q-28 0 -50 22t-22 50t22 50t50 22t50 -22t22 -50t-22 -50t-50 -22z" />
    <glyph glyph-name="M" unicode="m" 
d="M232 519q-28 0 -50 22t-22 50t22 50t50 22t50 -22t22 -50t-22 -50t-50 -22zM232 -33q-28 0 -50 22t-22 50t22 50t50 22t50 -22t22 -50t-22 -50t-50 -22zM508 519q-28 0 -50 22t-22 50t22 50t50 22t50 -22t22 -50t-22 -50t-50 -22z" />
    <glyph glyph-name="S" unicode="S" 
d="M232 243q-28 0 -50 22t-22 50t22 50t50 22t50 -22t22 -50t-22 -50t-50 -22zM232 -33q-28 0 -50 22t-22 50t22 50t50 22t50 -22t22 -50t-22 -50t-50 -22zM508 519q-28 0 -50 22t-22 50t22 50t50 22t50 -22t22 -50t-22 -50t-50 -22z" />
    <glyph glyph-name="S" unicode="&#x28ce;" 
d="M232 243q-28 0 -50 22t-22 50t22 50t50 22t50 -22t22 -50t-22 -50t-50 -22zM232 -33q-28 0 -50 22t-22 50t22 50t50 22t50 -22t22 -50t-22 -50t-50 -22zM508 519q-28 0 -50 22t-22 50t22 50t50 22t50 -22t22 -50t-22 -50t-50 -22z" />
    <glyph glyph-name="S" unicode="&#x288e;" 
d="M232 243q-28 0 -50 22t-22 50t22 50t50 22t50 -22t22 -50t-22 -50t-50 -22zM232 -33q-28 0 -50 22t-22 50t22 50t50 22t50 -22t22 -50t-22 -50t-50 -22zM508 519q-28 0 -50 22t-22 50t22 50t50 22t50 -22t22 -50t-22 -50t-50 -22z" />
    <glyph glyph-name="S" unicode="&#x284e;" 
d="M232 243q-28 0 -50 22t-22 50t22 50t50 22t50 -22t22 -50t-22 -50t-50 -22zM232 -33q-28 0 -50 22t-22 50t22 50t50 22t50 -22t22 -50t-22 -50t-50 -22zM508 519q-28 0 -50 22t-22 50t22 50t50 22t50 -22t22 -50t-22 -50t-50 -22z" />
    <glyph glyph-name="S" unicode="&#x280e;" 
d="M232 243q-28 0 -50 22t-22 50t22 50t50 22t50 -22t22 -50t-22 -50t-50 -22zM232 -33q-28 0 -50 22t-22 50t22 50t50 22t50 -22t22 -50t-22 -50t-50 -22zM508 519q-28 0 -50 22t-22 50t22 50t50 22t50 -22t22 -50t-22 -50t-50 -22z" />
    <glyph glyph-name="S" unicode="s" 
d="M232 243q-28 0 -50 22t-22 50t22 50t50 22t50 -22t22 -50t-22 -50t-50 -22zM232 -33q-28 0 -50 22t-22 50t22 50t50 22t50 -22t22 -50t-22 -50t-50 -22zM508 519q-28 0 -50 22t-22 50t22 50t50 22t50 -22t22 -50t-22 -50t-50 -22z" />
    <glyph glyph-name="P" unicode="P" 
d="M232 519q-28 0 -50 22t-22 50t22 50t50 22t50 -22t22 -50t-22 -50t-50 -22zM232 243q-28 0 -50 22t-22 50t22 50t50 22t50 -22t22 -50t-22 -50t-50 -22zM232 -33q-28 0 -50 22t-22 50t22 50t50 22t50 -22t22 -50t-22 -50t-50 -22zM508 519q-28 0 -50 22t-22 50t22 50
t50 22t50 -22t22 -50t-22 -50t-50 -22z" />
    <glyph glyph-name="P" unicode="&#x28cf;" 
d="M232 519q-28 0 -50 22t-22 50t22 50t50 22t50 -22t22 -50t-22 -50t-50 -22zM232 243q-28 0 -50 22t-22 50t22 50t50 22t50 -22t22 -50t-22 -50t-50 -22zM232 -33q-28 0 -50 22t-22 50t22 50t50 22t50 -22t22 -50t-22 -50t-50 -22zM508 519q-28 0 -50 22t-22 50t22 50
t50 22t50 -22t22 -50t-22 -50t-50 -22z" />
    <glyph glyph-name="P" unicode="&#x288f;" 
d="M232 519q-28 0 -50 22t-22 50t22 50t50 22t50 -22t22 -50t-22 -50t-50 -22zM232 243q-28 0 -50 22t-22 50t22 50t50 22t50 -22t22 -50t-22 -50t-50 -22zM232 -33q-28 0 -50 22t-22 50t22 50t50 22t50 -22t22 -50t-22 -50t-50 -22zM508 519q-28 0 -50 22t-22 50t22 50
t50 22t50 -22t22 -50t-22 -50t-50 -22z" />
    <glyph glyph-name="P" unicode="&#x284f;" 
d="M232 519q-28 0 -50 22t-22 50t22 50t50 22t50 -22t22 -50t-22 -50t-50 -22zM232 243q-28 0 -50 22t-22 50t22 50t50 22t50 -22t22 -50t-22 -50t-50 -22zM232 -33q-28 0 -50 22t-22 50t22 50t50 22t50 -22t22 -50t-22 -50t-50 -22zM508 519q-28 0 -50 22t-22 50t22 50
t50 22t50 -22t22 -50t-22 -50t-50 -22z" />
    <glyph glyph-name="P" unicode="&#x280f;" 
d="M232 519q-28 0 -50 22t-22 50t22 50t50 22t50 -22t22 -50t-22 -50t-50 -22zM232 243q-28 0 -50 22t-22 50t22 50t50 22t50 -22t22 -50t-22 -50t-50 -22zM232 -33q-28 0 -50 22t-22 50t22 50t50 22t50 -22t22 -50t-22 -50t-50 -22zM508 519q-28 0 -50 22t-22 50t22 50
t50 22t50 -22t22 -50t-22 -50t-50 -22z" />
    <glyph glyph-name="P" unicode="p" 
d="M232 519q-28 0 -50 22t-22 50t22 50t50 22t50 -22t22 -50t-22 -50t-50 -22zM232 243q-28 0 -50 22t-22 50t22 50t50 22t50 -22t22 -50t-22 -50t-50 -22zM232 -33q-28 0 -50 22t-22 50t22 50t50 22t50 -22t22 -50t-22 -50t-50 -22zM508 519q-28 0 -50 22t-22 50t22 50
t50 22t50 -22t22 -50t-22 -50t-50 -22z" />
    <glyph glyph-name="E" unicode="E" 
d="M232 519q-28 0 -50 22t-22 50t22 50t50 22t50 -22t22 -50t-22 -50t-50 -22zM508 243q-28 0 -50 22t-22 50t22 50t50 22t50 -22t22 -50t-22 -50t-50 -22z" />
    <glyph glyph-name="E" unicode="&#x28d1;" 
d="M232 519q-28 0 -50 22t-22 50t22 50t50 22t50 -22t22 -50t-22 -50t-50 -22zM508 243q-28 0 -50 22t-22 50t22 50t50 22t50 -22t22 -50t-22 -50t-50 -22z" />
    <glyph glyph-name="E" unicode="&#x2891;" 
d="M232 519q-28 0 -50 22t-22 50t22 50t50 22t50 -22t22 -50t-22 -50t-50 -22zM508 243q-28 0 -50 22t-22 50t22 50t50 22t50 -22t22 -50t-22 -50t-50 -22z" />
    <glyph glyph-name="E" unicode="&#x2851;" 
d="M232 519q-28 0 -50 22t-22 50t22 50t50 22t50 -22t22 -50t-22 -50t-50 -22zM508 243q-28 0 -50 22t-22 50t22 50t50 22t50 -22t22 -50t-22 -50t-50 -22z" />
    <glyph glyph-name="E" unicode="&#x2811;" 
d="M232 519q-28 0 -50 22t-22 50t22 50t50 22t50 -22t22 -50t-22 -50t-50 -22zM508 243q-28 0 -50 22t-22 50t22 50t50 22t50 -22t22 -50t-22 -50t-50 -22z" />
    <glyph glyph-name="E" unicode="e" 
d="M232 519q-28 0 -50 22t-22 50t22 50t50 22t50 -22t22 -50t-22 -50t-50 -22zM508 243q-28 0 -50 22t-22 50t22 50t50 22t50 -22t22 -50t-22 -50t-50 -22z" />
    <glyph glyph-name="three" unicode="3" 
d="M232 243q-28 0 -50 22t-22 50t22 50t50 22t50 -22t22 -50t-22 -50t-50 -22zM508 243q-28 0 -50 22t-22 50t22 50t50 22t50 -22t22 -50t-22 -50t-50 -22z" />
    <glyph glyph-name="three" unicode="&#x28d2;" 
d="M232 243q-28 0 -50 22t-22 50t22 50t50 22t50 -22t22 -50t-22 -50t-50 -22zM508 243q-28 0 -50 22t-22 50t22 50t50 22t50 -22t22 -50t-22 -50t-50 -22z" />
    <glyph glyph-name="three" unicode="&#x2892;" 
d="M232 243q-28 0 -50 22t-22 50t22 50t50 22t50 -22t22 -50t-22 -50t-50 -22zM508 243q-28 0 -50 22t-22 50t22 50t50 22t50 -22t22 -50t-22 -50t-50 -22z" />
    <glyph glyph-name="three" unicode="&#x2852;" 
d="M232 243q-28 0 -50 22t-22 50t22 50t50 22t50 -22t22 -50t-22 -50t-50 -22zM508 243q-28 0 -50 22t-22 50t22 50t50 22t50 -22t22 -50t-22 -50t-50 -22z" />
    <glyph glyph-name="three" unicode="&#x2812;" 
d="M232 243q-28 0 -50 22t-22 50t22 50t50 22t50 -22t22 -50t-22 -50t-50 -22zM508 243q-28 0 -50 22t-22 50t22 50t50 22t50 -22t22 -50t-22 -50t-50 -22z" />
    <glyph glyph-name="H" unicode="H" 
d="M232 519q-28 0 -50 22t-22 50t22 50t50 22t50 -22t22 -50t-22 -50t-50 -22zM232 243q-28 0 -50 22t-22 50t22 50t50 22t50 -22t22 -50t-22 -50t-50 -22zM508 243q-28 0 -50 22t-22 50t22 50t50 22t50 -22t22 -50t-22 -50t-50 -22z" />
    <glyph glyph-name="H" unicode="&#x28d3;" 
d="M232 519q-28 0 -50 22t-22 50t22 50t50 22t50 -22t22 -50t-22 -50t-50 -22zM232 243q-28 0 -50 22t-22 50t22 50t50 22t50 -22t22 -50t-22 -50t-50 -22zM508 243q-28 0 -50 22t-22 50t22 50t50 22t50 -22t22 -50t-22 -50t-50 -22z" />
    <glyph glyph-name="H" unicode="&#x2893;" 
d="M232 519q-28 0 -50 22t-22 50t22 50t50 22t50 -22t22 -50t-22 -50t-50 -22zM232 243q-28 0 -50 22t-22 50t22 50t50 22t50 -22t22 -50t-22 -50t-50 -22zM508 243q-28 0 -50 22t-22 50t22 50t50 22t50 -22t22 -50t-22 -50t-50 -22z" />
    <glyph glyph-name="H" unicode="&#x2853;" 
d="M232 519q-28 0 -50 22t-22 50t22 50t50 22t50 -22t22 -50t-22 -50t-50 -22zM232 243q-28 0 -50 22t-22 50t22 50t50 22t50 -22t22 -50t-22 -50t-50 -22zM508 243q-28 0 -50 22t-22 50t22 50t50 22t50 -22t22 -50t-22 -50t-50 -22z" />
    <glyph glyph-name="H" unicode="&#x2813;" 
d="M232 519q-28 0 -50 22t-22 50t22 50t50 22t50 -22t22 -50t-22 -50t-50 -22zM232 243q-28 0 -50 22t-22 50t22 50t50 22t50 -22t22 -50t-22 -50t-50 -22zM508 243q-28 0 -50 22t-22 50t22 50t50 22t50 -22t22 -50t-22 -50t-50 -22z" />
    <glyph glyph-name="H" unicode="h" 
d="M232 519q-28 0 -50 22t-22 50t22 50t50 22t50 -22t22 -50t-22 -50t-50 -22zM232 243q-28 0 -50 22t-22 50t22 50t50 22t50 -22t22 -50t-22 -50t-50 -22zM508 243q-28 0 -50 22t-22 50t22 50t50 22t50 -22t22 -50t-22 -50t-50 -22z" />
    <glyph glyph-name="nine" unicode="9" 
d="M232 -33q-28 0 -50 22t-22 50t22 50t50 22t50 -22t22 -50t-22 -50t-50 -22zM508 243q-28 0 -50 22t-22 50t22 50t50 22t50 -22t22 -50t-22 -50t-50 -22z" />
    <glyph glyph-name="nine" unicode="&#x28d4;" 
d="M232 -33q-28 0 -50 22t-22 50t22 50t50 22t50 -22t22 -50t-22 -50t-50 -22zM508 243q-28 0 -50 22t-22 50t22 50t50 22t50 -22t22 -50t-22 -50t-50 -22z" />
    <glyph glyph-name="nine" unicode="&#x2894;" 
d="M232 -33q-28 0 -50 22t-22 50t22 50t50 22t50 -22t22 -50t-22 -50t-50 -22zM508 243q-28 0 -50 22t-22 50t22 50t50 22t50 -22t22 -50t-22 -50t-50 -22z" />
    <glyph glyph-name="nine" unicode="&#x2854;" 
d="M232 -33q-28 0 -50 22t-22 50t22 50t50 22t50 -22t22 -50t-22 -50t-50 -22zM508 243q-28 0 -50 22t-22 50t22 50t50 22t50 -22t22 -50t-22 -50t-50 -22z" />
    <glyph glyph-name="nine" unicode="&#x2814;" 
d="M232 -33q-28 0 -50 22t-22 50t22 50t50 22t50 -22t22 -50t-22 -50t-50 -22zM508 243q-28 0 -50 22t-22 50t22 50t50 22t50 -22t22 -50t-22 -50t-50 -22z" />
    <glyph glyph-name="O" unicode="O" 
d="M232 519q-28 0 -50 22t-22 50t22 50t50 22t50 -22t22 -50t-22 -50t-50 -22zM232 -33q-28 0 -50 22t-22 50t22 50t50 22t50 -22t22 -50t-22 -50t-50 -22zM508 243q-28 0 -50 22t-22 50t22 50t50 22t50 -22t22 -50t-22 -50t-50 -22z" />
    <glyph glyph-name="O" unicode="&#x28d5;" 
d="M232 519q-28 0 -50 22t-22 50t22 50t50 22t50 -22t22 -50t-22 -50t-50 -22zM232 -33q-28 0 -50 22t-22 50t22 50t50 22t50 -22t22 -50t-22 -50t-50 -22zM508 243q-28 0 -50 22t-22 50t22 50t50 22t50 -22t22 -50t-22 -50t-50 -22z" />
    <glyph glyph-name="O" unicode="&#x2895;" 
d="M232 519q-28 0 -50 22t-22 50t22 50t50 22t50 -22t22 -50t-22 -50t-50 -22zM232 -33q-28 0 -50 22t-22 50t22 50t50 22t50 -22t22 -50t-22 -50t-50 -22zM508 243q-28 0 -50 22t-22 50t22 50t50 22t50 -22t22 -50t-22 -50t-50 -22z" />
    <glyph glyph-name="O" unicode="&#x2855;" 
d="M232 519q-28 0 -50 22t-22 50t22 50t50 22t50 -22t22 -50t-22 -50t-50 -22zM232 -33q-28 0 -50 22t-22 50t22 50t50 22t50 -22t22 -50t-22 -50t-50 -22zM508 243q-28 0 -50 22t-22 50t22 50t50 22t50 -22t22 -50t-22 -50t-50 -22z" />
    <glyph glyph-name="O" unicode="&#x2815;" 
d="M232 519q-28 0 -50 22t-22 50t22 50t50 22t50 -22t22 -50t-22 -50t-50 -22zM232 -33q-28 0 -50 22t-22 50t22 50t50 22t50 -22t22 -50t-22 -50t-50 -22zM508 243q-28 0 -50 22t-22 50t22 50t50 22t50 -22t22 -50t-22 -50t-50 -22z" />
    <glyph glyph-name="O" unicode="o" 
d="M232 519q-28 0 -50 22t-22 50t22 50t50 22t50 -22t22 -50t-22 -50t-50 -22zM232 -33q-28 0 -50 22t-22 50t22 50t50 22t50 -22t22 -50t-22 -50t-50 -22zM508 243q-28 0 -50 22t-22 50t22 50t50 22t50 -22t22 -50t-22 -50t-50 -22z" />
    <glyph glyph-name="six" unicode="6" 
d="M232 243q-28 0 -50 22t-22 50t22 50t50 22t50 -22t22 -50t-22 -50t-50 -22zM232 -33q-28 0 -50 22t-22 50t22 50t50 22t50 -22t22 -50t-22 -50t-50 -22zM508 243q-28 0 -50 22t-22 50t22 50t50 22t50 -22t22 -50t-22 -50t-50 -22z" />
    <glyph glyph-name="six" unicode="&#x28d6;" 
d="M232 243q-28 0 -50 22t-22 50t22 50t50 22t50 -22t22 -50t-22 -50t-50 -22zM232 -33q-28 0 -50 22t-22 50t22 50t50 22t50 -22t22 -50t-22 -50t-50 -22zM508 243q-28 0 -50 22t-22 50t22 50t50 22t50 -22t22 -50t-22 -50t-50 -22z" />
    <glyph glyph-name="six" unicode="&#x2896;" 
d="M232 243q-28 0 -50 22t-22 50t22 50t50 22t50 -22t22 -50t-22 -50t-50 -22zM232 -33q-28 0 -50 22t-22 50t22 50t50 22t50 -22t22 -50t-22 -50t-50 -22zM508 243q-28 0 -50 22t-22 50t22 50t50 22t50 -22t22 -50t-22 -50t-50 -22z" />
    <glyph glyph-name="six" unicode="&#x2856;" 
d="M232 243q-28 0 -50 22t-22 50t22 50t50 22t50 -22t22 -50t-22 -50t-50 -22zM232 -33q-28 0 -50 22t-22 50t22 50t50 22t50 -22t22 -50t-22 -50t-50 -22zM508 243q-28 0 -50 22t-22 50t22 50t50 22t50 -22t22 -50t-22 -50t-50 -22z" />
    <glyph glyph-name="six" unicode="&#x2816;" 
d="M232 243q-28 0 -50 22t-22 50t22 50t50 22t50 -22t22 -50t-22 -50t-50 -22zM232 -33q-28 0 -50 22t-22 50t22 50t50 22t50 -22t22 -50t-22 -50t-50 -22zM508 243q-28 0 -50 22t-22 50t22 50t50 22t50 -22t22 -50t-22 -50t-50 -22z" />
    <glyph glyph-name="R" unicode="R" 
d="M232 519q-28 0 -50 22t-22 50t22 50t50 22t50 -22t22 -50t-22 -50t-50 -22zM232 243q-28 0 -50 22t-22 50t22 50t50 22t50 -22t22 -50t-22 -50t-50 -22zM232 -33q-28 0 -50 22t-22 50t22 50t50 22t50 -22t22 -50t-22 -50t-50 -22zM508 243q-28 0 -50 22t-22 50t22 50
t50 22t50 -22t22 -50t-22 -50t-50 -22z" />
    <glyph glyph-name="R" unicode="&#x28d7;" 
d="M232 519q-28 0 -50 22t-22 50t22 50t50 22t50 -22t22 -50t-22 -50t-50 -22zM232 243q-28 0 -50 22t-22 50t22 50t50 22t50 -22t22 -50t-22 -50t-50 -22zM232 -33q-28 0 -50 22t-22 50t22 50t50 22t50 -22t22 -50t-22 -50t-50 -22zM508 243q-28 0 -50 22t-22 50t22 50
t50 22t50 -22t22 -50t-22 -50t-50 -22z" />
    <glyph glyph-name="R" unicode="&#x2897;" 
d="M232 519q-28 0 -50 22t-22 50t22 50t50 22t50 -22t22 -50t-22 -50t-50 -22zM232 243q-28 0 -50 22t-22 50t22 50t50 22t50 -22t22 -50t-22 -50t-50 -22zM232 -33q-28 0 -50 22t-22 50t22 50t50 22t50 -22t22 -50t-22 -50t-50 -22zM508 243q-28 0 -50 22t-22 50t22 50
t50 22t50 -22t22 -50t-22 -50t-50 -22z" />
    <glyph glyph-name="R" unicode="&#x2857;" 
d="M232 519q-28 0 -50 22t-22 50t22 50t50 22t50 -22t22 -50t-22 -50t-50 -22zM232 243q-28 0 -50 22t-22 50t22 50t50 22t50 -22t22 -50t-22 -50t-50 -22zM232 -33q-28 0 -50 22t-22 50t22 50t50 22t50 -22t22 -50t-22 -50t-50 -22zM508 243q-28 0 -50 22t-22 50t22 50
t50 22t50 -22t22 -50t-22 -50t-50 -22z" />
    <glyph glyph-name="R" unicode="&#x2817;" 
d="M232 519q-28 0 -50 22t-22 50t22 50t50 22t50 -22t22 -50t-22 -50t-50 -22zM232 243q-28 0 -50 22t-22 50t22 50t50 22t50 -22t22 -50t-22 -50t-50 -22zM232 -33q-28 0 -50 22t-22 50t22 50t50 22t50 -22t22 -50t-22 -50t-50 -22zM508 243q-28 0 -50 22t-22 50t22 50
t50 22t50 -22t22 -50t-22 -50t-50 -22z" />
    <glyph glyph-name="R" unicode="r" 
d="M232 519q-28 0 -50 22t-22 50t22 50t50 22t50 -22t22 -50t-22 -50t-50 -22zM232 243q-28 0 -50 22t-22 50t22 50t50 22t50 -22t22 -50t-22 -50t-50 -22zM232 -33q-28 0 -50 22t-22 50t22 50t50 22t50 -22t22 -50t-22 -50t-50 -22zM508 243q-28 0 -50 22t-22 50t22 50
t50 22t50 -22t22 -50t-22 -50t-50 -22z" />
    <glyph glyph-name="asciicircum" unicode="^" 
d="M508 519q-28 0 -50 22t-22 50t22 50t50 22t50 -22t22 -50t-22 -50t-50 -22zM508 243q-28 0 -50 22t-22 50t22 50t50 22t50 -22t22 -50t-22 -50t-50 -22z" />
    <glyph glyph-name="asciicircum" unicode="&#x28d8;" 
d="M508 519q-28 0 -50 22t-22 50t22 50t50 22t50 -22t22 -50t-22 -50t-50 -22zM508 243q-28 0 -50 22t-22 50t22 50t50 22t50 -22t22 -50t-22 -50t-50 -22z" />
    <glyph glyph-name="asciicircum" unicode="&#x2898;" 
d="M508 519q-28 0 -50 22t-22 50t22 50t50 22t50 -22t22 -50t-22 -50t-50 -22zM508 243q-28 0 -50 22t-22 50t22 50t50 22t50 -22t22 -50t-22 -50t-50 -22z" />
    <glyph glyph-name="asciicircum" unicode="&#x2858;" 
d="M508 519q-28 0 -50 22t-22 50t22 50t50 22t50 -22t22 -50t-22 -50t-50 -22zM508 243q-28 0 -50 22t-22 50t22 50t50 22t50 -22t22 -50t-22 -50t-50 -22z" />
    <glyph glyph-name="asciicircum" unicode="&#x2818;" 
d="M508 519q-28 0 -50 22t-22 50t22 50t50 22t50 -22t22 -50t-22 -50t-50 -22zM508 243q-28 0 -50 22t-22 50t22 50t50 22t50 -22t22 -50t-22 -50t-50 -22z" />
    <glyph glyph-name="asciicircum" unicode="~" 
d="M508 519q-28 0 -50 22t-22 50t22 50t50 22t50 -22t22 -50t-22 -50t-50 -22zM508 243q-28 0 -50 22t-22 50t22 50t50 22t50 -22t22 -50t-22 -50t-50 -22z" />
    <glyph glyph-name="D" unicode="D" 
d="M232 519q-28 0 -50 22t-22 50t22 50t50 22t50 -22t22 -50t-22 -50t-50 -22zM508 519q-28 0 -50 22t-22 50t22 50t50 22t50 -22t22 -50t-22 -50t-50 -22zM508 243q-28 0 -50 22t-22 50t22 50t50 22t50 -22t22 -50t-22 -50t-50 -22z" />
    <glyph glyph-name="D" unicode="&#x28d9;" 
d="M232 519q-28 0 -50 22t-22 50t22 50t50 22t50 -22t22 -50t-22 -50t-50 -22zM508 519q-28 0 -50 22t-22 50t22 50t50 22t50 -22t22 -50t-22 -50t-50 -22zM508 243q-28 0 -50 22t-22 50t22 50t50 22t50 -22t22 -50t-22 -50t-50 -22z" />
    <glyph glyph-name="D" unicode="&#x2899;" 
d="M232 519q-28 0 -50 22t-22 50t22 50t50 22t50 -22t22 -50t-22 -50t-50 -22zM508 519q-28 0 -50 22t-22 50t22 50t50 22t50 -22t22 -50t-22 -50t-50 -22zM508 243q-28 0 -50 22t-22 50t22 50t50 22t50 -22t22 -50t-22 -50t-50 -22z" />
    <glyph glyph-name="D" unicode="&#x2859;" 
d="M232 519q-28 0 -50 22t-22 50t22 50t50 22t50 -22t22 -50t-22 -50t-50 -22zM508 519q-28 0 -50 22t-22 50t22 50t50 22t50 -22t22 -50t-22 -50t-50 -22zM508 243q-28 0 -50 22t-22 50t22 50t50 22t50 -22t22 -50t-22 -50t-50 -22z" />
    <glyph glyph-name="D" unicode="&#x2819;" 
d="M232 519q-28 0 -50 22t-22 50t22 50t50 22t50 -22t22 -50t-22 -50t-50 -22zM508 519q-28 0 -50 22t-22 50t22 50t50 22t50 -22t22 -50t-22 -50t-50 -22zM508 243q-28 0 -50 22t-22 50t22 50t50 22t50 -22t22 -50t-22 -50t-50 -22z" />
    <glyph glyph-name="D" unicode="d" 
d="M232 519q-28 0 -50 22t-22 50t22 50t50 22t50 -22t22 -50t-22 -50t-50 -22zM508 519q-28 0 -50 22t-22 50t22 50t50 22t50 -22t22 -50t-22 -50t-50 -22zM508 243q-28 0 -50 22t-22 50t22 50t50 22t50 -22t22 -50t-22 -50t-50 -22z" />
    <glyph glyph-name="J" unicode="J" 
d="M232 243q-28 0 -50 22t-22 50t22 50t50 22t50 -22t22 -50t-22 -50t-50 -22zM508 519q-28 0 -50 22t-22 50t22 50t50 22t50 -22t22 -50t-22 -50t-50 -22zM508 243q-28 0 -50 22t-22 50t22 50t50 22t50 -22t22 -50t-22 -50t-50 -22z" />
    <glyph glyph-name="J" unicode="&#x28da;" 
d="M232 243q-28 0 -50 22t-22 50t22 50t50 22t50 -22t22 -50t-22 -50t-50 -22zM508 519q-28 0 -50 22t-22 50t22 50t50 22t50 -22t22 -50t-22 -50t-50 -22zM508 243q-28 0 -50 22t-22 50t22 50t50 22t50 -22t22 -50t-22 -50t-50 -22z" />
    <glyph glyph-name="J" unicode="&#x289a;" 
d="M232 243q-28 0 -50 22t-22 50t22 50t50 22t50 -22t22 -50t-22 -50t-50 -22zM508 519q-28 0 -50 22t-22 50t22 50t50 22t50 -22t22 -50t-22 -50t-50 -22zM508 243q-28 0 -50 22t-22 50t22 50t50 22t50 -22t22 -50t-22 -50t-50 -22z" />
    <glyph glyph-name="J" unicode="&#x285a;" 
d="M232 243q-28 0 -50 22t-22 50t22 50t50 22t50 -22t22 -50t-22 -50t-50 -22zM508 519q-28 0 -50 22t-22 50t22 50t50 22t50 -22t22 -50t-22 -50t-50 -22zM508 243q-28 0 -50 22t-22 50t22 50t50 22t50 -22t22 -50t-22 -50t-50 -22z" />
    <glyph glyph-name="J" unicode="&#x281a;" 
d="M232 243q-28 0 -50 22t-22 50t22 50t50 22t50 -22t22 -50t-22 -50t-50 -22zM508 519q-28 0 -50 22t-22 50t22 50t50 22t50 -22t22 -50t-22 -50t-50 -22zM508 243q-28 0 -50 22t-22 50t22 50t50 22t50 -22t22 -50t-22 -50t-50 -22z" />
    <glyph glyph-name="J" unicode="j" 
d="M232 243q-28 0 -50 22t-22 50t22 50t50 22t50 -22t22 -50t-22 -50t-50 -22zM508 519q-28 0 -50 22t-22 50t22 50t50 22t50 -22t22 -50t-22 -50t-50 -22zM508 243q-28 0 -50 22t-22 50t22 50t50 22t50 -22t22 -50t-22 -50t-50 -22z" />
    <glyph glyph-name="G" unicode="G" 
d="M232 519q-28 0 -50 22t-22 50t22 50t50 22t50 -22t22 -50t-22 -50t-50 -22zM232 243q-28 0 -50 22t-22 50t22 50t50 22t50 -22t22 -50t-22 -50t-50 -22zM508 519q-28 0 -50 22t-22 50t22 50t50 22t50 -22t22 -50t-22 -50t-50 -22zM508 243q-28 0 -50 22t-22 50t22 50
t50 22t50 -22t22 -50t-22 -50t-50 -22z" />
    <glyph glyph-name="G" unicode="&#x28db;" 
d="M232 519q-28 0 -50 22t-22 50t22 50t50 22t50 -22t22 -50t-22 -50t-50 -22zM232 243q-28 0 -50 22t-22 50t22 50t50 22t50 -22t22 -50t-22 -50t-50 -22zM508 519q-28 0 -50 22t-22 50t22 50t50 22t50 -22t22 -50t-22 -50t-50 -22zM508 243q-28 0 -50 22t-22 50t22 50
t50 22t50 -22t22 -50t-22 -50t-50 -22z" />
    <glyph glyph-name="G" unicode="&#x289b;" 
d="M232 519q-28 0 -50 22t-22 50t22 50t50 22t50 -22t22 -50t-22 -50t-50 -22zM232 243q-28 0 -50 22t-22 50t22 50t50 22t50 -22t22 -50t-22 -50t-50 -22zM508 519q-28 0 -50 22t-22 50t22 50t50 22t50 -22t22 -50t-22 -50t-50 -22zM508 243q-28 0 -50 22t-22 50t22 50
t50 22t50 -22t22 -50t-22 -50t-50 -22z" />
    <glyph glyph-name="G" unicode="&#x285b;" 
d="M232 519q-28 0 -50 22t-22 50t22 50t50 22t50 -22t22 -50t-22 -50t-50 -22zM232 243q-28 0 -50 22t-22 50t22 50t50 22t50 -22t22 -50t-22 -50t-50 -22zM508 519q-28 0 -50 22t-22 50t22 50t50 22t50 -22t22 -50t-22 -50t-50 -22zM508 243q-28 0 -50 22t-22 50t22 50
t50 22t50 -22t22 -50t-22 -50t-50 -22z" />
    <glyph glyph-name="G" unicode="&#x281b;" 
d="M232 519q-28 0 -50 22t-22 50t22 50t50 22t50 -22t22 -50t-22 -50t-50 -22zM232 243q-28 0 -50 22t-22 50t22 50t50 22t50 -22t22 -50t-22 -50t-50 -22zM508 519q-28 0 -50 22t-22 50t22 50t50 22t50 -22t22 -50t-22 -50t-50 -22zM508 243q-28 0 -50 22t-22 50t22 50
t50 22t50 -22t22 -50t-22 -50t-50 -22z" />
    <glyph glyph-name="G" unicode="g" 
d="M232 519q-28 0 -50 22t-22 50t22 50t50 22t50 -22t22 -50t-22 -50t-50 -22zM232 243q-28 0 -50 22t-22 50t22 50t50 22t50 -22t22 -50t-22 -50t-50 -22zM508 519q-28 0 -50 22t-22 50t22 50t50 22t50 -22t22 -50t-22 -50t-50 -22zM508 243q-28 0 -50 22t-22 50t22 50
t50 22t50 -22t22 -50t-22 -50t-50 -22z" />
    <glyph glyph-name="greater" unicode="&#x3e;" 
d="M232 -33q-28 0 -50 22t-22 50t22 50t50 22t50 -22t22 -50t-22 -50t-50 -22zM508 519q-28 0 -50 22t-22 50t22 50t50 22t50 -22t22 -50t-22 -50t-50 -22zM508 243q-28 0 -50 22t-22 50t22 50t50 22t50 -22t22 -50t-22 -50t-50 -22z" />
    <glyph glyph-name="greater" unicode="&#x28dc;" 
d="M232 -33q-28 0 -50 22t-22 50t22 50t50 22t50 -22t22 -50t-22 -50t-50 -22zM508 519q-28 0 -50 22t-22 50t22 50t50 22t50 -22t22 -50t-22 -50t-50 -22zM508 243q-28 0 -50 22t-22 50t22 50t50 22t50 -22t22 -50t-22 -50t-50 -22z" />
    <glyph glyph-name="greater" unicode="&#x289c;" 
d="M232 -33q-28 0 -50 22t-22 50t22 50t50 22t50 -22t22 -50t-22 -50t-50 -22zM508 519q-28 0 -50 22t-22 50t22 50t50 22t50 -22t22 -50t-22 -50t-50 -22zM508 243q-28 0 -50 22t-22 50t22 50t50 22t50 -22t22 -50t-22 -50t-50 -22z" />
    <glyph glyph-name="greater" unicode="&#x285c;" 
d="M232 -33q-28 0 -50 22t-22 50t22 50t50 22t50 -22t22 -50t-22 -50t-50 -22zM508 519q-28 0 -50 22t-22 50t22 50t50 22t50 -22t22 -50t-22 -50t-50 -22zM508 243q-28 0 -50 22t-22 50t22 50t50 22t50 -22t22 -50t-22 -50t-50 -22z" />
    <glyph glyph-name="greater" unicode="&#x281c;" 
d="M232 -33q-28 0 -50 22t-22 50t22 50t50 22t50 -22t22 -50t-22 -50t-50 -22zM508 519q-28 0 -50 22t-22 50t22 50t50 22t50 -22t22 -50t-22 -50t-50 -22zM508 243q-28 0 -50 22t-22 50t22 50t50 22t50 -22t22 -50t-22 -50t-50 -22z" />
    <glyph glyph-name="N" unicode="N" 
d="M232 519q-28 0 -50 22t-22 50t22 50t50 22t50 -22t22 -50t-22 -50t-50 -22zM232 -33q-28 0 -50 22t-22 50t22 50t50 22t50 -22t22 -50t-22 -50t-50 -22zM508 519q-28 0 -50 22t-22 50t22 50t50 22t50 -22t22 -50t-22 -50t-50 -22zM508 243q-28 0 -50 22t-22 50t22 50
t50 22t50 -22t22 -50t-22 -50t-50 -22z" />
    <glyph glyph-name="N" unicode="&#x28dd;" 
d="M232 519q-28 0 -50 22t-22 50t22 50t50 22t50 -22t22 -50t-22 -50t-50 -22zM232 -33q-28 0 -50 22t-22 50t22 50t50 22t50 -22t22 -50t-22 -50t-50 -22zM508 519q-28 0 -50 22t-22 50t22 50t50 22t50 -22t22 -50t-22 -50t-50 -22zM508 243q-28 0 -50 22t-22 50t22 50
t50 22t50 -22t22 -50t-22 -50t-50 -22z" />
    <glyph glyph-name="N" unicode="&#x289d;" 
d="M232 519q-28 0 -50 22t-22 50t22 50t50 22t50 -22t22 -50t-22 -50t-50 -22zM232 -33q-28 0 -50 22t-22 50t22 50t50 22t50 -22t22 -50t-22 -50t-50 -22zM508 519q-28 0 -50 22t-22 50t22 50t50 22t50 -22t22 -50t-22 -50t-50 -22zM508 243q-28 0 -50 22t-22 50t22 50
t50 22t50 -22t22 -50t-22 -50t-50 -22z" />
    <glyph glyph-name="N" unicode="&#x285d;" 
d="M232 519q-28 0 -50 22t-22 50t22 50t50 22t50 -22t22 -50t-22 -50t-50 -22zM232 -33q-28 0 -50 22t-22 50t22 50t50 22t50 -22t22 -50t-22 -50t-50 -22zM508 519q-28 0 -50 22t-22 50t22 50t50 22t50 -22t22 -50t-22 -50t-50 -22zM508 243q-28 0 -50 22t-22 50t22 50
t50 22t50 -22t22 -50t-22 -50t-50 -22z" />
    <glyph glyph-name="N" unicode="&#x281d;" 
d="M232 519q-28 0 -50 22t-22 50t22 50t50 22t50 -22t22 -50t-22 -50t-50 -22zM232 -33q-28 0 -50 22t-22 50t22 50t50 22t50 -22t22 -50t-22 -50t-50 -22zM508 519q-28 0 -50 22t-22 50t22 50t50 22t50 -22t22 -50t-22 -50t-50 -22zM508 243q-28 0 -50 22t-22 50t22 50
t50 22t50 -22t22 -50t-22 -50t-50 -22z" />
    <glyph glyph-name="N" unicode="n" 
d="M232 519q-28 0 -50 22t-22 50t22 50t50 22t50 -22t22 -50t-22 -50t-50 -22zM232 -33q-28 0 -50 22t-22 50t22 50t50 22t50 -22t22 -50t-22 -50t-50 -22zM508 519q-28 0 -50 22t-22 50t22 50t50 22t50 -22t22 -50t-22 -50t-50 -22zM508 243q-28 0 -50 22t-22 50t22 50
t50 22t50 -22t22 -50t-22 -50t-50 -22z" />
    <glyph glyph-name="T" unicode="T" 
d="M232 243q-28 0 -50 22t-22 50t22 50t50 22t50 -22t22 -50t-22 -50t-50 -22zM232 -33q-28 0 -50 22t-22 50t22 50t50 22t50 -22t22 -50t-22 -50t-50 -22zM508 519q-28 0 -50 22t-22 50t22 50t50 22t50 -22t22 -50t-22 -50t-50 -22zM508 243q-28 0 -50 22t-22 50t22 50
t50 22t50 -22t22 -50t-22 -50t-50 -22z" />
    <glyph glyph-name="T" unicode="&#x28de;" 
d="M232 243q-28 0 -50 22t-22 50t22 50t50 22t50 -22t22 -50t-22 -50t-50 -22zM232 -33q-28 0 -50 22t-22 50t22 50t50 22t50 -22t22 -50t-22 -50t-50 -22zM508 519q-28 0 -50 22t-22 50t22 50t50 22t50 -22t22 -50t-22 -50t-50 -22zM508 243q-28 0 -50 22t-22 50t22 50
t50 22t50 -22t22 -50t-22 -50t-50 -22z" />
    <glyph glyph-name="T" unicode="&#x289e;" 
d="M232 243q-28 0 -50 22t-22 50t22 50t50 22t50 -22t22 -50t-22 -50t-50 -22zM232 -33q-28 0 -50 22t-22 50t22 50t50 22t50 -22t22 -50t-22 -50t-50 -22zM508 519q-28 0 -50 22t-22 50t22 50t50 22t50 -22t22 -50t-22 -50t-50 -22zM508 243q-28 0 -50 22t-22 50t22 50
t50 22t50 -22t22 -50t-22 -50t-50 -22z" />
    <glyph glyph-name="T" unicode="&#x285e;" 
d="M232 243q-28 0 -50 22t-22 50t22 50t50 22t50 -22t22 -50t-22 -50t-50 -22zM232 -33q-28 0 -50 22t-22 50t22 50t50 22t50 -22t22 -50t-22 -50t-50 -22zM508 519q-28 0 -50 22t-22 50t22 50t50 22t50 -22t22 -50t-22 -50t-50 -22zM508 243q-28 0 -50 22t-22 50t22 50
t50 22t50 -22t22 -50t-22 -50t-50 -22z" />
    <glyph glyph-name="T" unicode="&#x281e;" 
d="M232 243q-28 0 -50 22t-22 50t22 50t50 22t50 -22t22 -50t-22 -50t-50 -22zM232 -33q-28 0 -50 22t-22 50t22 50t50 22t50 -22t22 -50t-22 -50t-50 -22zM508 519q-28 0 -50 22t-22 50t22 50t50 22t50 -22t22 -50t-22 -50t-50 -22zM508 243q-28 0 -50 22t-22 50t22 50
t50 22t50 -22t22 -50t-22 -50t-50 -22z" />
    <glyph glyph-name="T" unicode="t" 
d="M232 243q-28 0 -50 22t-22 50t22 50t50 22t50 -22t22 -50t-22 -50t-50 -22zM232 -33q-28 0 -50 22t-22 50t22 50t50 22t50 -22t22 -50t-22 -50t-50 -22zM508 519q-28 0 -50 22t-22 50t22 50t50 22t50 -22t22 -50t-22 -50t-50 -22zM508 243q-28 0 -50 22t-22 50t22 50
t50 22t50 -22t22 -50t-22 -50t-50 -22z" />
    <glyph glyph-name="Q" unicode="Q" 
d="M232 519q-28 0 -50 22t-22 50t22 50t50 22t50 -22t22 -50t-22 -50t-50 -22zM232 243q-28 0 -50 22t-22 50t22 50t50 22t50 -22t22 -50t-22 -50t-50 -22zM232 -33q-28 0 -50 22t-22 50t22 50t50 22t50 -22t22 -50t-22 -50t-50 -22zM508 519q-28 0 -50 22t-22 50t22 50
t50 22t50 -22t22 -50t-22 -50t-50 -22zM508 243q-28 0 -50 22t-22 50t22 50t50 22t50 -22t22 -50t-22 -50t-50 -22z" />
    <glyph glyph-name="Q" unicode="&#x28df;" 
d="M232 519q-28 0 -50 22t-22 50t22 50t50 22t50 -22t22 -50t-22 -50t-50 -22zM232 243q-28 0 -50 22t-22 50t22 50t50 22t50 -22t22 -50t-22 -50t-50 -22zM232 -33q-28 0 -50 22t-22 50t22 50t50 22t50 -22t22 -50t-22 -50t-50 -22zM508 519q-28 0 -50 22t-22 50t22 50
t50 22t50 -22t22 -50t-22 -50t-50 -22zM508 243q-28 0 -50 22t-22 50t22 50t50 22t50 -22t22 -50t-22 -50t-50 -22z" />
    <glyph glyph-name="Q" unicode="&#x289f;" 
d="M232 519q-28 0 -50 22t-22 50t22 50t50 22t50 -22t22 -50t-22 -50t-50 -22zM232 243q-28 0 -50 22t-22 50t22 50t50 22t50 -22t22 -50t-22 -50t-50 -22zM232 -33q-28 0 -50 22t-22 50t22 50t50 22t50 -22t22 -50t-22 -50t-50 -22zM508 519q-28 0 -50 22t-22 50t22 50
t50 22t50 -22t22 -50t-22 -50t-50 -22zM508 243q-28 0 -50 22t-22 50t22 50t50 22t50 -22t22 -50t-22 -50t-50 -22z" />
    <glyph glyph-name="Q" unicode="&#x285f;" 
d="M232 519q-28 0 -50 22t-22 50t22 50t50 22t50 -22t22 -50t-22 -50t-50 -22zM232 243q-28 0 -50 22t-22 50t22 50t50 22t50 -22t22 -50t-22 -50t-50 -22zM232 -33q-28 0 -50 22t-22 50t22 50t50 22t50 -22t22 -50t-22 -50t-50 -22zM508 519q-28 0 -50 22t-22 50t22 50
t50 22t50 -22t22 -50t-22 -50t-50 -22zM508 243q-28 0 -50 22t-22 50t22 50t50 22t50 -22t22 -50t-22 -50t-50 -22z" />
    <glyph glyph-name="Q" unicode="&#x281f;" 
d="M232 519q-28 0 -50 22t-22 50t22 50t50 22t50 -22t22 -50t-22 -50t-50 -22zM232 243q-28 0 -50 22t-22 50t22 50t50 22t50 -22t22 -50t-22 -50t-50 -22zM232 -33q-28 0 -50 22t-22 50t22 50t50 22t50 -22t22 -50t-22 -50t-50 -22zM508 519q-28 0 -50 22t-22 50t22 50
t50 22t50 -22t22 -50t-22 -50t-50 -22zM508 243q-28 0 -50 22t-22 50t22 50t50 22t50 -22t22 -50t-22 -50t-50 -22z" />
    <glyph glyph-name="Q" unicode="q" 
d="M232 519q-28 0 -50 22t-22 50t22 50t50 22t50 -22t22 -50t-22 -50t-50 -22zM232 243q-28 0 -50 22t-22 50t22 50t50 22t50 -22t22 -50t-22 -50t-50 -22zM232 -33q-28 0 -50 22t-22 50t22 50t50 22t50 -22t22 -50t-22 -50t-50 -22zM508 519q-28 0 -50 22t-22 50t22 50
t50 22t50 -22t22 -50t-22 -50t-50 -22zM508 243q-28 0 -50 22t-22 50t22 50t50 22t50 -22t22 -50t-22 -50t-50 -22z" />
    <glyph glyph-name="asterisk" unicode="*" 
d="M232 519q-28 0 -50 22t-22 50t22 50t50 22t50 -22t22 -50t-22 -50t-50 -22zM508 -33q-28 0 -50 22t-22 50t22 50t50 22t50 -22t22 -50t-22 -50t-50 -22z" />
    <glyph glyph-name="asterisk" unicode="&#x28e1;" 
d="M232 519q-28 0 -50 22t-22 50t22 50t50 22t50 -22t22 -50t-22 -50t-50 -22zM508 -33q-28 0 -50 22t-22 50t22 50t50 22t50 -22t22 -50t-22 -50t-50 -22z" />
    <glyph glyph-name="asterisk" unicode="&#x28a1;" 
d="M232 519q-28 0 -50 22t-22 50t22 50t50 22t50 -22t22 -50t-22 -50t-50 -22zM508 -33q-28 0 -50 22t-22 50t22 50t50 22t50 -22t22 -50t-22 -50t-50 -22z" />
    <glyph glyph-name="asterisk" unicode="&#x2861;" 
d="M232 519q-28 0 -50 22t-22 50t22 50t50 22t50 -22t22 -50t-22 -50t-50 -22zM508 -33q-28 0 -50 22t-22 50t22 50t50 22t50 -22t22 -50t-22 -50t-50 -22z" />
    <glyph glyph-name="asterisk" unicode="&#x2821;" 
d="M232 519q-28 0 -50 22t-22 50t22 50t50 22t50 -22t22 -50t-22 -50t-50 -22zM508 -33q-28 0 -50 22t-22 50t22 50t50 22t50 -22t22 -50t-22 -50t-50 -22z" />
    <glyph glyph-name="five" unicode="5" 
d="M232 243q-28 0 -50 22t-22 50t22 50t50 22t50 -22t22 -50t-22 -50t-50 -22zM508 -33q-28 0 -50 22t-22 50t22 50t50 22t50 -22t22 -50t-22 -50t-50 -22z" />
    <glyph glyph-name="five" unicode="&#x28e2;" 
d="M232 243q-28 0 -50 22t-22 50t22 50t50 22t50 -22t22 -50t-22 -50t-50 -22zM508 -33q-28 0 -50 22t-22 50t22 50t50 22t50 -22t22 -50t-22 -50t-50 -22z" />
    <glyph glyph-name="five" unicode="&#x28a2;" 
d="M232 243q-28 0 -50 22t-22 50t22 50t50 22t50 -22t22 -50t-22 -50t-50 -22zM508 -33q-28 0 -50 22t-22 50t22 50t50 22t50 -22t22 -50t-22 -50t-50 -22z" />
    <glyph glyph-name="five" unicode="&#x2862;" 
d="M232 243q-28 0 -50 22t-22 50t22 50t50 22t50 -22t22 -50t-22 -50t-50 -22zM508 -33q-28 0 -50 22t-22 50t22 50t50 22t50 -22t22 -50t-22 -50t-50 -22z" />
    <glyph glyph-name="five" unicode="&#x2822;" 
d="M232 243q-28 0 -50 22t-22 50t22 50t50 22t50 -22t22 -50t-22 -50t-50 -22zM508 -33q-28 0 -50 22t-22 50t22 50t50 22t50 -22t22 -50t-22 -50t-50 -22z" />
    <glyph glyph-name="less" unicode="&#x3c;" 
d="M232 519q-28 0 -50 22t-22 50t22 50t50 22t50 -22t22 -50t-22 -50t-50 -22zM232 243q-28 0 -50 22t-22 50t22 50t50 22t50 -22t22 -50t-22 -50t-50 -22zM508 -33q-28 0 -50 22t-22 50t22 50t50 22t50 -22t22 -50t-22 -50t-50 -22z" />
    <glyph glyph-name="less" unicode="&#x28e3;" 
d="M232 519q-28 0 -50 22t-22 50t22 50t50 22t50 -22t22 -50t-22 -50t-50 -22zM232 243q-28 0 -50 22t-22 50t22 50t50 22t50 -22t22 -50t-22 -50t-50 -22zM508 -33q-28 0 -50 22t-22 50t22 50t50 22t50 -22t22 -50t-22 -50t-50 -22z" />
    <glyph glyph-name="less" unicode="&#x28a3;" 
d="M232 519q-28 0 -50 22t-22 50t22 50t50 22t50 -22t22 -50t-22 -50t-50 -22zM232 243q-28 0 -50 22t-22 50t22 50t50 22t50 -22t22 -50t-22 -50t-50 -22zM508 -33q-28 0 -50 22t-22 50t22 50t50 22t50 -22t22 -50t-22 -50t-50 -22z" />
    <glyph glyph-name="less" unicode="&#x2863;" 
d="M232 519q-28 0 -50 22t-22 50t22 50t50 22t50 -22t22 -50t-22 -50t-50 -22zM232 243q-28 0 -50 22t-22 50t22 50t50 22t50 -22t22 -50t-22 -50t-50 -22zM508 -33q-28 0 -50 22t-22 50t22 50t50 22t50 -22t22 -50t-22 -50t-50 -22z" />
    <glyph glyph-name="less" unicode="&#x2823;" 
d="M232 519q-28 0 -50 22t-22 50t22 50t50 22t50 -22t22 -50t-22 -50t-50 -22zM232 243q-28 0 -50 22t-22 50t22 50t50 22t50 -22t22 -50t-22 -50t-50 -22zM508 -33q-28 0 -50 22t-22 50t22 50t50 22t50 -22t22 -50t-22 -50t-50 -22z" />
    <glyph glyph-name="hyphen" unicode="-" 
d="M232 -33q-28 0 -50 22t-22 50t22 50t50 22t50 -22t22 -50t-22 -50t-50 -22zM508 -33q-28 0 -50 22t-22 50t22 50t50 22t50 -22t22 -50t-22 -50t-50 -22z" />
    <glyph glyph-name="hyphen" unicode="&#x28e4;" 
d="M232 -33q-28 0 -50 22t-22 50t22 50t50 22t50 -22t22 -50t-22 -50t-50 -22zM508 -33q-28 0 -50 22t-22 50t22 50t50 22t50 -22t22 -50t-22 -50t-50 -22z" />
    <glyph glyph-name="hyphen" unicode="&#x28a4;" 
d="M232 -33q-28 0 -50 22t-22 50t22 50t50 22t50 -22t22 -50t-22 -50t-50 -22zM508 -33q-28 0 -50 22t-22 50t22 50t50 22t50 -22t22 -50t-22 -50t-50 -22z" />
    <glyph glyph-name="hyphen" unicode="&#x2864;" 
d="M232 -33q-28 0 -50 22t-22 50t22 50t50 22t50 -22t22 -50t-22 -50t-50 -22zM508 -33q-28 0 -50 22t-22 50t22 50t50 22t50 -22t22 -50t-22 -50t-50 -22z" />
    <glyph glyph-name="hyphen" unicode="&#x2824;" 
d="M232 -33q-28 0 -50 22t-22 50t22 50t50 22t50 -22t22 -50t-22 -50t-50 -22zM508 -33q-28 0 -50 22t-22 50t22 50t50 22t50 -22t22 -50t-22 -50t-50 -22z" />
    <glyph glyph-name="U" unicode="U" 
d="M232 519q-28 0 -50 22t-22 50t22 50t50 22t50 -22t22 -50t-22 -50t-50 -22zM232 -33q-28 0 -50 22t-22 50t22 50t50 22t50 -22t22 -50t-22 -50t-50 -22zM508 -33q-28 0 -50 22t-22 50t22 50t50 22t50 -22t22 -50t-22 -50t-50 -22z" />
    <glyph glyph-name="U" unicode="&#x28e5;" 
d="M232 519q-28 0 -50 22t-22 50t22 50t50 22t50 -22t22 -50t-22 -50t-50 -22zM232 -33q-28 0 -50 22t-22 50t22 50t50 22t50 -22t22 -50t-22 -50t-50 -22zM508 -33q-28 0 -50 22t-22 50t22 50t50 22t50 -22t22 -50t-22 -50t-50 -22z" />
    <glyph glyph-name="U" unicode="&#x28a5;" 
d="M232 519q-28 0 -50 22t-22 50t22 50t50 22t50 -22t22 -50t-22 -50t-50 -22zM232 -33q-28 0 -50 22t-22 50t22 50t50 22t50 -22t22 -50t-22 -50t-50 -22zM508 -33q-28 0 -50 22t-22 50t22 50t50 22t50 -22t22 -50t-22 -50t-50 -22z" />
    <glyph glyph-name="U" unicode="&#x2865;" 
d="M232 519q-28 0 -50 22t-22 50t22 50t50 22t50 -22t22 -50t-22 -50t-50 -22zM232 -33q-28 0 -50 22t-22 50t22 50t50 22t50 -22t22 -50t-22 -50t-50 -22zM508 -33q-28 0 -50 22t-22 50t22 50t50 22t50 -22t22 -50t-22 -50t-50 -22z" />
    <glyph glyph-name="U" unicode="&#x2825;" 
d="M232 519q-28 0 -50 22t-22 50t22 50t50 22t50 -22t22 -50t-22 -50t-50 -22zM232 -33q-28 0 -50 22t-22 50t22 50t50 22t50 -22t22 -50t-22 -50t-50 -22zM508 -33q-28 0 -50 22t-22 50t22 50t50 22t50 -22t22 -50t-22 -50t-50 -22z" />
    <glyph glyph-name="U" unicode="u" 
d="M232 519q-28 0 -50 22t-22 50t22 50t50 22t50 -22t22 -50t-22 -50t-50 -22zM232 -33q-28 0 -50 22t-22 50t22 50t50 22t50 -22t22 -50t-22 -50t-50 -22zM508 -33q-28 0 -50 22t-22 50t22 50t50 22t50 -22t22 -50t-22 -50t-50 -22z" />
    <glyph glyph-name="eight" unicode="8" 
d="M232 243q-28 0 -50 22t-22 50t22 50t50 22t50 -22t22 -50t-22 -50t-50 -22zM232 -33q-28 0 -50 22t-22 50t22 50t50 22t50 -22t22 -50t-22 -50t-50 -22zM508 -33q-28 0 -50 22t-22 50t22 50t50 22t50 -22t22 -50t-22 -50t-50 -22z" />
    <glyph glyph-name="eight" unicode="&#x28e6;" 
d="M232 243q-28 0 -50 22t-22 50t22 50t50 22t50 -22t22 -50t-22 -50t-50 -22zM232 -33q-28 0 -50 22t-22 50t22 50t50 22t50 -22t22 -50t-22 -50t-50 -22zM508 -33q-28 0 -50 22t-22 50t22 50t50 22t50 -22t22 -50t-22 -50t-50 -22z" />
    <glyph glyph-name="eight" unicode="&#x28a6;" 
d="M232 243q-28 0 -50 22t-22 50t22 50t50 22t50 -22t22 -50t-22 -50t-50 -22zM232 -33q-28 0 -50 22t-22 50t22 50t50 22t50 -22t22 -50t-22 -50t-50 -22zM508 -33q-28 0 -50 22t-22 50t22 50t50 22t50 -22t22 -50t-22 -50t-50 -22z" />
    <glyph glyph-name="eight" unicode="&#x2866;" 
d="M232 243q-28 0 -50 22t-22 50t22 50t50 22t50 -22t22 -50t-22 -50t-50 -22zM232 -33q-28 0 -50 22t-22 50t22 50t50 22t50 -22t22 -50t-22 -50t-50 -22zM508 -33q-28 0 -50 22t-22 50t22 50t50 22t50 -22t22 -50t-22 -50t-50 -22z" />
    <glyph glyph-name="eight" unicode="&#x2826;" 
d="M232 243q-28 0 -50 22t-22 50t22 50t50 22t50 -22t22 -50t-22 -50t-50 -22zM232 -33q-28 0 -50 22t-22 50t22 50t50 22t50 -22t22 -50t-22 -50t-50 -22zM508 -33q-28 0 -50 22t-22 50t22 50t50 22t50 -22t22 -50t-22 -50t-50 -22z" />
    <glyph glyph-name="V" unicode="V" 
d="M232 519q-28 0 -50 22t-22 50t22 50t50 22t50 -22t22 -50t-22 -50t-50 -22zM232 243q-28 0 -50 22t-22 50t22 50t50 22t50 -22t22 -50t-22 -50t-50 -22zM232 -33q-28 0 -50 22t-22 50t22 50t50 22t50 -22t22 -50t-22 -50t-50 -22zM508 -33q-28 0 -50 22t-22 50t22 50
t50 22t50 -22t22 -50t-22 -50t-50 -22z" />
    <glyph glyph-name="V" unicode="&#x28e7;" 
d="M232 519q-28 0 -50 22t-22 50t22 50t50 22t50 -22t22 -50t-22 -50t-50 -22zM232 243q-28 0 -50 22t-22 50t22 50t50 22t50 -22t22 -50t-22 -50t-50 -22zM232 -33q-28 0 -50 22t-22 50t22 50t50 22t50 -22t22 -50t-22 -50t-50 -22zM508 -33q-28 0 -50 22t-22 50t22 50
t50 22t50 -22t22 -50t-22 -50t-50 -22z" />
    <glyph glyph-name="V" unicode="&#x28a7;" 
d="M232 519q-28 0 -50 22t-22 50t22 50t50 22t50 -22t22 -50t-22 -50t-50 -22zM232 243q-28 0 -50 22t-22 50t22 50t50 22t50 -22t22 -50t-22 -50t-50 -22zM232 -33q-28 0 -50 22t-22 50t22 50t50 22t50 -22t22 -50t-22 -50t-50 -22zM508 -33q-28 0 -50 22t-22 50t22 50
t50 22t50 -22t22 -50t-22 -50t-50 -22z" />
    <glyph glyph-name="V" unicode="&#x2867;" 
d="M232 519q-28 0 -50 22t-22 50t22 50t50 22t50 -22t22 -50t-22 -50t-50 -22zM232 243q-28 0 -50 22t-22 50t22 50t50 22t50 -22t22 -50t-22 -50t-50 -22zM232 -33q-28 0 -50 22t-22 50t22 50t50 22t50 -22t22 -50t-22 -50t-50 -22zM508 -33q-28 0 -50 22t-22 50t22 50
t50 22t50 -22t22 -50t-22 -50t-50 -22z" />
    <glyph glyph-name="V" unicode="&#x2827;" 
d="M232 519q-28 0 -50 22t-22 50t22 50t50 22t50 -22t22 -50t-22 -50t-50 -22zM232 243q-28 0 -50 22t-22 50t22 50t50 22t50 -22t22 -50t-22 -50t-50 -22zM232 -33q-28 0 -50 22t-22 50t22 50t50 22t50 -22t22 -50t-22 -50t-50 -22zM508 -33q-28 0 -50 22t-22 50t22 50
t50 22t50 -22t22 -50t-22 -50t-50 -22z" />
    <glyph glyph-name="V" unicode="v" 
d="M232 519q-28 0 -50 22t-22 50t22 50t50 22t50 -22t22 -50t-22 -50t-50 -22zM232 243q-28 0 -50 22t-22 50t22 50t50 22t50 -22t22 -50t-22 -50t-50 -22zM232 -33q-28 0 -50 22t-22 50t22 50t50 22t50 -22t22 -50t-22 -50t-50 -22zM508 -33q-28 0 -50 22t-22 50t22 50
t50 22t50 -22t22 -50t-22 -50t-50 -22z" />
    <glyph glyph-name="period" unicode="." 
d="M508 519q-28 0 -50 22t-22 50t22 50t50 22t50 -22t22 -50t-22 -50t-50 -22zM508 -33q-28 0 -50 22t-22 50t22 50t50 22t50 -22t22 -50t-22 -50t-50 -22z" />
    <glyph glyph-name="period" unicode="&#x28e8;" 
d="M508 519q-28 0 -50 22t-22 50t22 50t50 22t50 -22t22 -50t-22 -50t-50 -22zM508 -33q-28 0 -50 22t-22 50t22 50t50 22t50 -22t22 -50t-22 -50t-50 -22z" />
    <glyph glyph-name="period" unicode="&#x28a8;" 
d="M508 519q-28 0 -50 22t-22 50t22 50t50 22t50 -22t22 -50t-22 -50t-50 -22zM508 -33q-28 0 -50 22t-22 50t22 50t50 22t50 -22t22 -50t-22 -50t-50 -22z" />
    <glyph glyph-name="period" unicode="&#x2868;" 
d="M508 519q-28 0 -50 22t-22 50t22 50t50 22t50 -22t22 -50t-22 -50t-50 -22zM508 -33q-28 0 -50 22t-22 50t22 50t50 22t50 -22t22 -50t-22 -50t-50 -22z" />
    <glyph glyph-name="period" unicode="&#x2828;" 
d="M508 519q-28 0 -50 22t-22 50t22 50t50 22t50 -22t22 -50t-22 -50t-50 -22zM508 -33q-28 0 -50 22t-22 50t22 50t50 22t50 -22t22 -50t-22 -50t-50 -22z" />
    <glyph glyph-name="percent" unicode="%" 
d="M232 519q-28 0 -50 22t-22 50t22 50t50 22t50 -22t22 -50t-22 -50t-50 -22zM508 519q-28 0 -50 22t-22 50t22 50t50 22t50 -22t22 -50t-22 -50t-50 -22zM508 -33q-28 0 -50 22t-22 50t22 50t50 22t50 -22t22 -50t-22 -50t-50 -22z" />
    <glyph glyph-name="percent" unicode="&#x28e9;" 
d="M232 519q-28 0 -50 22t-22 50t22 50t50 22t50 -22t22 -50t-22 -50t-50 -22zM508 519q-28 0 -50 22t-22 50t22 50t50 22t50 -22t22 -50t-22 -50t-50 -22zM508 -33q-28 0 -50 22t-22 50t22 50t50 22t50 -22t22 -50t-22 -50t-50 -22z" />
    <glyph glyph-name="percent" unicode="&#x28a9;" 
d="M232 519q-28 0 -50 22t-22 50t22 50t50 22t50 -22t22 -50t-22 -50t-50 -22zM508 519q-28 0 -50 22t-22 50t22 50t50 22t50 -22t22 -50t-22 -50t-50 -22zM508 -33q-28 0 -50 22t-22 50t22 50t50 22t50 -22t22 -50t-22 -50t-50 -22z" />
    <glyph glyph-name="percent" unicode="&#x2869;" 
d="M232 519q-28 0 -50 22t-22 50t22 50t50 22t50 -22t22 -50t-22 -50t-50 -22zM508 519q-28 0 -50 22t-22 50t22 50t50 22t50 -22t22 -50t-22 -50t-50 -22zM508 -33q-28 0 -50 22t-22 50t22 50t50 22t50 -22t22 -50t-22 -50t-50 -22z" />
    <glyph glyph-name="percent" unicode="&#x2829;" 
d="M232 519q-28 0 -50 22t-22 50t22 50t50 22t50 -22t22 -50t-22 -50t-50 -22zM508 519q-28 0 -50 22t-22 50t22 50t50 22t50 -22t22 -50t-22 -50t-50 -22zM508 -33q-28 0 -50 22t-22 50t22 50t50 22t50 -22t22 -50t-22 -50t-50 -22z" />
    <glyph glyph-name="bracketleft" unicode="[" 
d="M232 243q-28 0 -50 22t-22 50t22 50t50 22t50 -22t22 -50t-22 -50t-50 -22zM508 519q-28 0 -50 22t-22 50t22 50t50 22t50 -22t22 -50t-22 -50t-50 -22zM508 -33q-28 0 -50 22t-22 50t22 50t50 22t50 -22t22 -50t-22 -50t-50 -22z" />
    <glyph glyph-name="bracketleft" unicode="&#x28ea;" 
d="M232 243q-28 0 -50 22t-22 50t22 50t50 22t50 -22t22 -50t-22 -50t-50 -22zM508 519q-28 0 -50 22t-22 50t22 50t50 22t50 -22t22 -50t-22 -50t-50 -22zM508 -33q-28 0 -50 22t-22 50t22 50t50 22t50 -22t22 -50t-22 -50t-50 -22z" />
    <glyph glyph-name="bracketleft" unicode="&#x28aa;" 
d="M232 243q-28 0 -50 22t-22 50t22 50t50 22t50 -22t22 -50t-22 -50t-50 -22zM508 519q-28 0 -50 22t-22 50t22 50t50 22t50 -22t22 -50t-22 -50t-50 -22zM508 -33q-28 0 -50 22t-22 50t22 50t50 22t50 -22t22 -50t-22 -50t-50 -22z" />
    <glyph glyph-name="bracketleft" unicode="&#x286a;" 
d="M232 243q-28 0 -50 22t-22 50t22 50t50 22t50 -22t22 -50t-22 -50t-50 -22zM508 519q-28 0 -50 22t-22 50t22 50t50 22t50 -22t22 -50t-22 -50t-50 -22zM508 -33q-28 0 -50 22t-22 50t22 50t50 22t50 -22t22 -50t-22 -50t-50 -22z" />
    <glyph glyph-name="bracketleft" unicode="&#x282a;" 
d="M232 243q-28 0 -50 22t-22 50t22 50t50 22t50 -22t22 -50t-22 -50t-50 -22zM508 519q-28 0 -50 22t-22 50t22 50t50 22t50 -22t22 -50t-22 -50t-50 -22zM508 -33q-28 0 -50 22t-22 50t22 50t50 22t50 -22t22 -50t-22 -50t-50 -22z" />
    <glyph glyph-name="bracketleft" unicode="{" 
d="M232 243q-28 0 -50 22t-22 50t22 50t50 22t50 -22t22 -50t-22 -50t-50 -22zM508 519q-28 0 -50 22t-22 50t22 50t50 22t50 -22t22 -50t-22 -50t-50 -22zM508 -33q-28 0 -50 22t-22 50t22 50t50 22t50 -22t22 -50t-22 -50t-50 -22z" />
    <glyph glyph-name="dollar" unicode="$" 
d="M232 519q-28 0 -50 22t-22 50t22 50t50 22t50 -22t22 -50t-22 -50t-50 -22zM232 243q-28 0 -50 22t-22 50t22 50t50 22t50 -22t22 -50t-22 -50t-50 -22zM508 519q-28 0 -50 22t-22 50t22 50t50 22t50 -22t22 -50t-22 -50t-50 -22zM508 -33q-28 0 -50 22t-22 50t22 50
t50 22t50 -22t22 -50t-22 -50t-50 -22z" />
    <glyph glyph-name="dollar" unicode="&#x28eb;" 
d="M232 519q-28 0 -50 22t-22 50t22 50t50 22t50 -22t22 -50t-22 -50t-50 -22zM232 243q-28 0 -50 22t-22 50t22 50t50 22t50 -22t22 -50t-22 -50t-50 -22zM508 519q-28 0 -50 22t-22 50t22 50t50 22t50 -22t22 -50t-22 -50t-50 -22zM508 -33q-28 0 -50 22t-22 50t22 50
t50 22t50 -22t22 -50t-22 -50t-50 -22z" />
    <glyph glyph-name="dollar" unicode="&#x28ab;" 
d="M232 519q-28 0 -50 22t-22 50t22 50t50 22t50 -22t22 -50t-22 -50t-50 -22zM232 243q-28 0 -50 22t-22 50t22 50t50 22t50 -22t22 -50t-22 -50t-50 -22zM508 519q-28 0 -50 22t-22 50t22 50t50 22t50 -22t22 -50t-22 -50t-50 -22zM508 -33q-28 0 -50 22t-22 50t22 50
t50 22t50 -22t22 -50t-22 -50t-50 -22z" />
    <glyph glyph-name="dollar" unicode="&#x286b;" 
d="M232 519q-28 0 -50 22t-22 50t22 50t50 22t50 -22t22 -50t-22 -50t-50 -22zM232 243q-28 0 -50 22t-22 50t22 50t50 22t50 -22t22 -50t-22 -50t-50 -22zM508 519q-28 0 -50 22t-22 50t22 50t50 22t50 -22t22 -50t-22 -50t-50 -22zM508 -33q-28 0 -50 22t-22 50t22 50
t50 22t50 -22t22 -50t-22 -50t-50 -22z" />
    <glyph glyph-name="dollar" unicode="&#x282b;" 
d="M232 519q-28 0 -50 22t-22 50t22 50t50 22t50 -22t22 -50t-22 -50t-50 -22zM232 243q-28 0 -50 22t-22 50t22 50t50 22t50 -22t22 -50t-22 -50t-50 -22zM508 519q-28 0 -50 22t-22 50t22 50t50 22t50 -22t22 -50t-22 -50t-50 -22zM508 -33q-28 0 -50 22t-22 50t22 50
t50 22t50 -22t22 -50t-22 -50t-50 -22z" />
    <glyph glyph-name="plus" unicode="+" 
d="M232 -33q-28 0 -50 22t-22 50t22 50t50 22t50 -22t22 -50t-22 -50t-50 -22zM508 519q-28 0 -50 22t-22 50t22 50t50 22t50 -22t22 -50t-22 -50t-50 -22zM508 -33q-28 0 -50 22t-22 50t22 50t50 22t50 -22t22 -50t-22 -50t-50 -22z" />
    <glyph glyph-name="plus" unicode="&#x28ec;" 
d="M232 -33q-28 0 -50 22t-22 50t22 50t50 22t50 -22t22 -50t-22 -50t-50 -22zM508 519q-28 0 -50 22t-22 50t22 50t50 22t50 -22t22 -50t-22 -50t-50 -22zM508 -33q-28 0 -50 22t-22 50t22 50t50 22t50 -22t22 -50t-22 -50t-50 -22z" />
    <glyph glyph-name="plus" unicode="&#x28ac;" 
d="M232 -33q-28 0 -50 22t-22 50t22 50t50 22t50 -22t22 -50t-22 -50t-50 -22zM508 519q-28 0 -50 22t-22 50t22 50t50 22t50 -22t22 -50t-22 -50t-50 -22zM508 -33q-28 0 -50 22t-22 50t22 50t50 22t50 -22t22 -50t-22 -50t-50 -22z" />
    <glyph glyph-name="plus" unicode="&#x286c;" 
d="M232 -33q-28 0 -50 22t-22 50t22 50t50 22t50 -22t22 -50t-22 -50t-50 -22zM508 519q-28 0 -50 22t-22 50t22 50t50 22t50 -22t22 -50t-22 -50t-50 -22zM508 -33q-28 0 -50 22t-22 50t22 50t50 22t50 -22t22 -50t-22 -50t-50 -22z" />
    <glyph glyph-name="plus" unicode="&#x282c;" 
d="M232 -33q-28 0 -50 22t-22 50t22 50t50 22t50 -22t22 -50t-22 -50t-50 -22zM508 519q-28 0 -50 22t-22 50t22 50t50 22t50 -22t22 -50t-22 -50t-50 -22zM508 -33q-28 0 -50 22t-22 50t22 50t50 22t50 -22t22 -50t-22 -50t-50 -22z" />
    <glyph glyph-name="X" unicode="X" 
d="M232 519q-28 0 -50 22t-22 50t22 50t50 22t50 -22t22 -50t-22 -50t-50 -22zM232 -33q-28 0 -50 22t-22 50t22 50t50 22t50 -22t22 -50t-22 -50t-50 -22zM508 519q-28 0 -50 22t-22 50t22 50t50 22t50 -22t22 -50t-22 -50t-50 -22zM508 -33q-28 0 -50 22t-22 50t22 50
t50 22t50 -22t22 -50t-22 -50t-50 -22z" />
    <glyph glyph-name="X" unicode="&#x28ed;" 
d="M232 519q-28 0 -50 22t-22 50t22 50t50 22t50 -22t22 -50t-22 -50t-50 -22zM232 -33q-28 0 -50 22t-22 50t22 50t50 22t50 -22t22 -50t-22 -50t-50 -22zM508 519q-28 0 -50 22t-22 50t22 50t50 22t50 -22t22 -50t-22 -50t-50 -22zM508 -33q-28 0 -50 22t-22 50t22 50
t50 22t50 -22t22 -50t-22 -50t-50 -22z" />
    <glyph glyph-name="X" unicode="&#x28ad;" 
d="M232 519q-28 0 -50 22t-22 50t22 50t50 22t50 -22t22 -50t-22 -50t-50 -22zM232 -33q-28 0 -50 22t-22 50t22 50t50 22t50 -22t22 -50t-22 -50t-50 -22zM508 519q-28 0 -50 22t-22 50t22 50t50 22t50 -22t22 -50t-22 -50t-50 -22zM508 -33q-28 0 -50 22t-22 50t22 50
t50 22t50 -22t22 -50t-22 -50t-50 -22z" />
    <glyph glyph-name="X" unicode="&#x286d;" 
d="M232 519q-28 0 -50 22t-22 50t22 50t50 22t50 -22t22 -50t-22 -50t-50 -22zM232 -33q-28 0 -50 22t-22 50t22 50t50 22t50 -22t22 -50t-22 -50t-50 -22zM508 519q-28 0 -50 22t-22 50t22 50t50 22t50 -22t22 -50t-22 -50t-50 -22zM508 -33q-28 0 -50 22t-22 50t22 50
t50 22t50 -22t22 -50t-22 -50t-50 -22z" />
    <glyph glyph-name="X" unicode="&#x282d;" 
d="M232 519q-28 0 -50 22t-22 50t22 50t50 22t50 -22t22 -50t-22 -50t-50 -22zM232 -33q-28 0 -50 22t-22 50t22 50t50 22t50 -22t22 -50t-22 -50t-50 -22zM508 519q-28 0 -50 22t-22 50t22 50t50 22t50 -22t22 -50t-22 -50t-50 -22zM508 -33q-28 0 -50 22t-22 50t22 50
t50 22t50 -22t22 -50t-22 -50t-50 -22z" />
    <glyph glyph-name="X" unicode="x" 
d="M232 519q-28 0 -50 22t-22 50t22 50t50 22t50 -22t22 -50t-22 -50t-50 -22zM232 -33q-28 0 -50 22t-22 50t22 50t50 22t50 -22t22 -50t-22 -50t-50 -22zM508 519q-28 0 -50 22t-22 50t22 50t50 22t50 -22t22 -50t-22 -50t-50 -22zM508 -33q-28 0 -50 22t-22 50t22 50
t50 22t50 -22t22 -50t-22 -50t-50 -22z" />
    <glyph glyph-name="exclam" unicode="!" 
d="M232 243q-28 0 -50 22t-22 50t22 50t50 22t50 -22t22 -50t-22 -50t-50 -22zM232 -33q-28 0 -50 22t-22 50t22 50t50 22t50 -22t22 -50t-22 -50t-50 -22zM508 519q-28 0 -50 22t-22 50t22 50t50 22t50 -22t22 -50t-22 -50t-50 -22zM508 -33q-28 0 -50 22t-22 50t22 50
t50 22t50 -22t22 -50t-22 -50t-50 -22z" />
    <glyph glyph-name="exclam" unicode="&#x28ee;" 
d="M232 243q-28 0 -50 22t-22 50t22 50t50 22t50 -22t22 -50t-22 -50t-50 -22zM232 -33q-28 0 -50 22t-22 50t22 50t50 22t50 -22t22 -50t-22 -50t-50 -22zM508 519q-28 0 -50 22t-22 50t22 50t50 22t50 -22t22 -50t-22 -50t-50 -22zM508 -33q-28 0 -50 22t-22 50t22 50
t50 22t50 -22t22 -50t-22 -50t-50 -22z" />
    <glyph glyph-name="exclam" unicode="&#x28ae;" 
d="M232 243q-28 0 -50 22t-22 50t22 50t50 22t50 -22t22 -50t-22 -50t-50 -22zM232 -33q-28 0 -50 22t-22 50t22 50t50 22t50 -22t22 -50t-22 -50t-50 -22zM508 519q-28 0 -50 22t-22 50t22 50t50 22t50 -22t22 -50t-22 -50t-50 -22zM508 -33q-28 0 -50 22t-22 50t22 50
t50 22t50 -22t22 -50t-22 -50t-50 -22z" />
    <glyph glyph-name="exclam" unicode="&#x286e;" 
d="M232 243q-28 0 -50 22t-22 50t22 50t50 22t50 -22t22 -50t-22 -50t-50 -22zM232 -33q-28 0 -50 22t-22 50t22 50t50 22t50 -22t22 -50t-22 -50t-50 -22zM508 519q-28 0 -50 22t-22 50t22 50t50 22t50 -22t22 -50t-22 -50t-50 -22zM508 -33q-28 0 -50 22t-22 50t22 50
t50 22t50 -22t22 -50t-22 -50t-50 -22z" />
    <glyph glyph-name="exclam" unicode="&#x282e;" 
d="M232 243q-28 0 -50 22t-22 50t22 50t50 22t50 -22t22 -50t-22 -50t-50 -22zM232 -33q-28 0 -50 22t-22 50t22 50t50 22t50 -22t22 -50t-22 -50t-50 -22zM508 519q-28 0 -50 22t-22 50t22 50t50 22t50 -22t22 -50t-22 -50t-50 -22zM508 -33q-28 0 -50 22t-22 50t22 50
t50 22t50 -22t22 -50t-22 -50t-50 -22z" />
    <glyph glyph-name="ampersand" unicode="&#x26;" 
d="M232 519q-28 0 -50 22t-22 50t22 50t50 22t50 -22t22 -50t-22 -50t-50 -22zM232 243q-28 0 -50 22t-22 50t22 50t50 22t50 -22t22 -50t-22 -50t-50 -22zM232 -33q-28 0 -50 22t-22 50t22 50t50 22t50 -22t22 -50t-22 -50t-50 -22zM508 519q-28 0 -50 22t-22 50t22 50
t50 22t50 -22t22 -50t-22 -50t-50 -22zM508 -33q-28 0 -50 22t-22 50t22 50t50 22t50 -22t22 -50t-22 -50t-50 -22z" />
    <glyph glyph-name="ampersand" unicode="&#x28ef;" 
d="M232 519q-28 0 -50 22t-22 50t22 50t50 22t50 -22t22 -50t-22 -50t-50 -22zM232 243q-28 0 -50 22t-22 50t22 50t50 22t50 -22t22 -50t-22 -50t-50 -22zM232 -33q-28 0 -50 22t-22 50t22 50t50 22t50 -22t22 -50t-22 -50t-50 -22zM508 519q-28 0 -50 22t-22 50t22 50
t50 22t50 -22t22 -50t-22 -50t-50 -22zM508 -33q-28 0 -50 22t-22 50t22 50t50 22t50 -22t22 -50t-22 -50t-50 -22z" />
    <glyph glyph-name="ampersand" unicode="&#x28af;" 
d="M232 519q-28 0 -50 22t-22 50t22 50t50 22t50 -22t22 -50t-22 -50t-50 -22zM232 243q-28 0 -50 22t-22 50t22 50t50 22t50 -22t22 -50t-22 -50t-50 -22zM232 -33q-28 0 -50 22t-22 50t22 50t50 22t50 -22t22 -50t-22 -50t-50 -22zM508 519q-28 0 -50 22t-22 50t22 50
t50 22t50 -22t22 -50t-22 -50t-50 -22zM508 -33q-28 0 -50 22t-22 50t22 50t50 22t50 -22t22 -50t-22 -50t-50 -22z" />
    <glyph glyph-name="ampersand" unicode="&#x286f;" 
d="M232 519q-28 0 -50 22t-22 50t22 50t50 22t50 -22t22 -50t-22 -50t-50 -22zM232 243q-28 0 -50 22t-22 50t22 50t50 22t50 -22t22 -50t-22 -50t-50 -22zM232 -33q-28 0 -50 22t-22 50t22 50t50 22t50 -22t22 -50t-22 -50t-50 -22zM508 519q-28 0 -50 22t-22 50t22 50
t50 22t50 -22t22 -50t-22 -50t-50 -22zM508 -33q-28 0 -50 22t-22 50t22 50t50 22t50 -22t22 -50t-22 -50t-50 -22z" />
    <glyph glyph-name="ampersand" unicode="&#x282f;" 
d="M232 519q-28 0 -50 22t-22 50t22 50t50 22t50 -22t22 -50t-22 -50t-50 -22zM232 243q-28 0 -50 22t-22 50t22 50t50 22t50 -22t22 -50t-22 -50t-50 -22zM232 -33q-28 0 -50 22t-22 50t22 50t50 22t50 -22t22 -50t-22 -50t-50 -22zM508 519q-28 0 -50 22t-22 50t22 50
t50 22t50 -22t22 -50t-22 -50t-50 -22zM508 -33q-28 0 -50 22t-22 50t22 50t50 22t50 -22t22 -50t-22 -50t-50 -22z" />
    <glyph glyph-name="semicolon" unicode=";" 
d="M508 243q-28 0 -50 22t-22 50t22 50t50 22t50 -22t22 -50t-22 -50t-50 -22zM508 -33q-28 0 -50 22t-22 50t22 50t50 22t50 -22t22 -50t-22 -50t-50 -22z" />
    <glyph glyph-name="semicolon" unicode="&#x28f0;" 
d="M508 243q-28 0 -50 22t-22 50t22 50t50 22t50 -22t22 -50t-22 -50t-50 -22zM508 -33q-28 0 -50 22t-22 50t22 50t50 22t50 -22t22 -50t-22 -50t-50 -22z" />
    <glyph glyph-name="semicolon" unicode="&#x28b0;" 
d="M508 243q-28 0 -50 22t-22 50t22 50t50 22t50 -22t22 -50t-22 -50t-50 -22zM508 -33q-28 0 -50 22t-22 50t22 50t50 22t50 -22t22 -50t-22 -50t-50 -22z" />
    <glyph glyph-name="semicolon" unicode="&#x2870;" 
d="M508 243q-28 0 -50 22t-22 50t22 50t50 22t50 -22t22 -50t-22 -50t-50 -22zM508 -33q-28 0 -50 22t-22 50t22 50t50 22t50 -22t22 -50t-22 -50t-50 -22z" />
    <glyph glyph-name="semicolon" unicode="&#x2830;" 
d="M508 243q-28 0 -50 22t-22 50t22 50t50 22t50 -22t22 -50t-22 -50t-50 -22zM508 -33q-28 0 -50 22t-22 50t22 50t50 22t50 -22t22 -50t-22 -50t-50 -22z" />
    <glyph glyph-name="colon" unicode=":" 
d="M232 519q-28 0 -50 22t-22 50t22 50t50 22t50 -22t22 -50t-22 -50t-50 -22zM508 243q-28 0 -50 22t-22 50t22 50t50 22t50 -22t22 -50t-22 -50t-50 -22zM508 -33q-28 0 -50 22t-22 50t22 50t50 22t50 -22t22 -50t-22 -50t-50 -22z" />
    <glyph glyph-name="colon" unicode="&#x28f1;" 
d="M232 519q-28 0 -50 22t-22 50t22 50t50 22t50 -22t22 -50t-22 -50t-50 -22zM508 243q-28 0 -50 22t-22 50t22 50t50 22t50 -22t22 -50t-22 -50t-50 -22zM508 -33q-28 0 -50 22t-22 50t22 50t50 22t50 -22t22 -50t-22 -50t-50 -22z" />
    <glyph glyph-name="colon" unicode="&#x28b1;" 
d="M232 519q-28 0 -50 22t-22 50t22 50t50 22t50 -22t22 -50t-22 -50t-50 -22zM508 243q-28 0 -50 22t-22 50t22 50t50 22t50 -22t22 -50t-22 -50t-50 -22zM508 -33q-28 0 -50 22t-22 50t22 50t50 22t50 -22t22 -50t-22 -50t-50 -22z" />
    <glyph glyph-name="colon" unicode="&#x2871;" 
d="M232 519q-28 0 -50 22t-22 50t22 50t50 22t50 -22t22 -50t-22 -50t-50 -22zM508 243q-28 0 -50 22t-22 50t22 50t50 22t50 -22t22 -50t-22 -50t-50 -22zM508 -33q-28 0 -50 22t-22 50t22 50t50 22t50 -22t22 -50t-22 -50t-50 -22z" />
    <glyph glyph-name="colon" unicode="&#x2831;" 
d="M232 519q-28 0 -50 22t-22 50t22 50t50 22t50 -22t22 -50t-22 -50t-50 -22zM508 243q-28 0 -50 22t-22 50t22 50t50 22t50 -22t22 -50t-22 -50t-50 -22zM508 -33q-28 0 -50 22t-22 50t22 50t50 22t50 -22t22 -50t-22 -50t-50 -22z" />
    <glyph glyph-name="four" unicode="4" 
d="M232 243q-28 0 -50 22t-22 50t22 50t50 22t50 -22t22 -50t-22 -50t-50 -22zM508 243q-28 0 -50 22t-22 50t22 50t50 22t50 -22t22 -50t-22 -50t-50 -22zM508 -33q-28 0 -50 22t-22 50t22 50t50 22t50 -22t22 -50t-22 -50t-50 -22z" />
    <glyph glyph-name="four" unicode="&#x28f2;" 
d="M232 243q-28 0 -50 22t-22 50t22 50t50 22t50 -22t22 -50t-22 -50t-50 -22zM508 243q-28 0 -50 22t-22 50t22 50t50 22t50 -22t22 -50t-22 -50t-50 -22zM508 -33q-28 0 -50 22t-22 50t22 50t50 22t50 -22t22 -50t-22 -50t-50 -22z" />
    <glyph glyph-name="four" unicode="&#x28b2;" 
d="M232 243q-28 0 -50 22t-22 50t22 50t50 22t50 -22t22 -50t-22 -50t-50 -22zM508 243q-28 0 -50 22t-22 50t22 50t50 22t50 -22t22 -50t-22 -50t-50 -22zM508 -33q-28 0 -50 22t-22 50t22 50t50 22t50 -22t22 -50t-22 -50t-50 -22z" />
    <glyph glyph-name="four" unicode="&#x2872;" 
d="M232 243q-28 0 -50 22t-22 50t22 50t50 22t50 -22t22 -50t-22 -50t-50 -22zM508 243q-28 0 -50 22t-22 50t22 50t50 22t50 -22t22 -50t-22 -50t-50 -22zM508 -33q-28 0 -50 22t-22 50t22 50t50 22t50 -22t22 -50t-22 -50t-50 -22z" />
    <glyph glyph-name="four" unicode="&#x2832;" 
d="M232 243q-28 0 -50 22t-22 50t22 50t50 22t50 -22t22 -50t-22 -50t-50 -22zM508 243q-28 0 -50 22t-22 50t22 50t50 22t50 -22t22 -50t-22 -50t-50 -22zM508 -33q-28 0 -50 22t-22 50t22 50t50 22t50 -22t22 -50t-22 -50t-50 -22z" />
    <glyph glyph-name="backslash" unicode="\" 
d="M232 519q-28 0 -50 22t-22 50t22 50t50 22t50 -22t22 -50t-22 -50t-50 -22zM232 243q-28 0 -50 22t-22 50t22 50t50 22t50 -22t22 -50t-22 -50t-50 -22zM508 243q-28 0 -50 22t-22 50t22 50t50 22t50 -22t22 -50t-22 -50t-50 -22zM508 -33q-28 0 -50 22t-22 50t22 50
t50 22t50 -22t22 -50t-22 -50t-50 -22z" />
    <glyph glyph-name="backslash" unicode="&#x28f3;" 
d="M232 519q-28 0 -50 22t-22 50t22 50t50 22t50 -22t22 -50t-22 -50t-50 -22zM232 243q-28 0 -50 22t-22 50t22 50t50 22t50 -22t22 -50t-22 -50t-50 -22zM508 243q-28 0 -50 22t-22 50t22 50t50 22t50 -22t22 -50t-22 -50t-50 -22zM508 -33q-28 0 -50 22t-22 50t22 50
t50 22t50 -22t22 -50t-22 -50t-50 -22z" />
    <glyph glyph-name="backslash" unicode="&#x28b3;" 
d="M232 519q-28 0 -50 22t-22 50t22 50t50 22t50 -22t22 -50t-22 -50t-50 -22zM232 243q-28 0 -50 22t-22 50t22 50t50 22t50 -22t22 -50t-22 -50t-50 -22zM508 243q-28 0 -50 22t-22 50t22 50t50 22t50 -22t22 -50t-22 -50t-50 -22zM508 -33q-28 0 -50 22t-22 50t22 50
t50 22t50 -22t22 -50t-22 -50t-50 -22z" />
    <glyph glyph-name="backslash" unicode="&#x2873;" 
d="M232 519q-28 0 -50 22t-22 50t22 50t50 22t50 -22t22 -50t-22 -50t-50 -22zM232 243q-28 0 -50 22t-22 50t22 50t50 22t50 -22t22 -50t-22 -50t-50 -22zM508 243q-28 0 -50 22t-22 50t22 50t50 22t50 -22t22 -50t-22 -50t-50 -22zM508 -33q-28 0 -50 22t-22 50t22 50
t50 22t50 -22t22 -50t-22 -50t-50 -22z" />
    <glyph glyph-name="backslash" unicode="&#x2833;" 
d="M232 519q-28 0 -50 22t-22 50t22 50t50 22t50 -22t22 -50t-22 -50t-50 -22zM232 243q-28 0 -50 22t-22 50t22 50t50 22t50 -22t22 -50t-22 -50t-50 -22zM508 243q-28 0 -50 22t-22 50t22 50t50 22t50 -22t22 -50t-22 -50t-50 -22zM508 -33q-28 0 -50 22t-22 50t22 50
t50 22t50 -22t22 -50t-22 -50t-50 -22z" />
    <glyph glyph-name="backslash" unicode="|" 
d="M232 519q-28 0 -50 22t-22 50t22 50t50 22t50 -22t22 -50t-22 -50t-50 -22zM232 243q-28 0 -50 22t-22 50t22 50t50 22t50 -22t22 -50t-22 -50t-50 -22zM508 243q-28 0 -50 22t-22 50t22 50t50 22t50 -22t22 -50t-22 -50t-50 -22zM508 -33q-28 0 -50 22t-22 50t22 50
t50 22t50 -22t22 -50t-22 -50t-50 -22z" />
    <glyph glyph-name="zero" unicode="0" 
d="M232 -33q-28 0 -50 22t-22 50t22 50t50 22t50 -22t22 -50t-22 -50t-50 -22zM508 243q-28 0 -50 22t-22 50t22 50t50 22t50 -22t22 -50t-22 -50t-50 -22zM508 -33q-28 0 -50 22t-22 50t22 50t50 22t50 -22t22 -50t-22 -50t-50 -22z" />
    <glyph glyph-name="zero" unicode="&#x28f4;" 
d="M232 -33q-28 0 -50 22t-22 50t22 50t50 22t50 -22t22 -50t-22 -50t-50 -22zM508 243q-28 0 -50 22t-22 50t22 50t50 22t50 -22t22 -50t-22 -50t-50 -22zM508 -33q-28 0 -50 22t-22 50t22 50t50 22t50 -22t22 -50t-22 -50t-50 -22z" />
    <glyph glyph-name="zero" unicode="&#x28b4;" 
d="M232 -33q-28 0 -50 22t-22 50t22 50t50 22t50 -22t22 -50t-22 -50t-50 -22zM508 243q-28 0 -50 22t-22 50t22 50t50 22t50 -22t22 -50t-22 -50t-50 -22zM508 -33q-28 0 -50 22t-22 50t22 50t50 22t50 -22t22 -50t-22 -50t-50 -22z" />
    <glyph glyph-name="zero" unicode="&#x2874;" 
d="M232 -33q-28 0 -50 22t-22 50t22 50t50 22t50 -22t22 -50t-22 -50t-50 -22zM508 243q-28 0 -50 22t-22 50t22 50t50 22t50 -22t22 -50t-22 -50t-50 -22zM508 -33q-28 0 -50 22t-22 50t22 50t50 22t50 -22t22 -50t-22 -50t-50 -22z" />
    <glyph glyph-name="zero" unicode="&#x2834;" 
d="M232 -33q-28 0 -50 22t-22 50t22 50t50 22t50 -22t22 -50t-22 -50t-50 -22zM508 243q-28 0 -50 22t-22 50t22 50t50 22t50 -22t22 -50t-22 -50t-50 -22zM508 -33q-28 0 -50 22t-22 50t22 50t50 22t50 -22t22 -50t-22 -50t-50 -22z" />
    <glyph glyph-name="Z" unicode="Z" 
d="M232 519q-28 0 -50 22t-22 50t22 50t50 22t50 -22t22 -50t-22 -50t-50 -22zM232 -33q-28 0 -50 22t-22 50t22 50t50 22t50 -22t22 -50t-22 -50t-50 -22zM508 243q-28 0 -50 22t-22 50t22 50t50 22t50 -22t22 -50t-22 -50t-50 -22zM508 -33q-28 0 -50 22t-22 50t22 50
t50 22t50 -22t22 -50t-22 -50t-50 -22z" />
    <glyph glyph-name="Z" unicode="&#x28f5;" 
d="M232 519q-28 0 -50 22t-22 50t22 50t50 22t50 -22t22 -50t-22 -50t-50 -22zM232 -33q-28 0 -50 22t-22 50t22 50t50 22t50 -22t22 -50t-22 -50t-50 -22zM508 243q-28 0 -50 22t-22 50t22 50t50 22t50 -22t22 -50t-22 -50t-50 -22zM508 -33q-28 0 -50 22t-22 50t22 50
t50 22t50 -22t22 -50t-22 -50t-50 -22z" />
    <glyph glyph-name="Z" unicode="&#x28b5;" 
d="M232 519q-28 0 -50 22t-22 50t22 50t50 22t50 -22t22 -50t-22 -50t-50 -22zM232 -33q-28 0 -50 22t-22 50t22 50t50 22t50 -22t22 -50t-22 -50t-50 -22zM508 243q-28 0 -50 22t-22 50t22 50t50 22t50 -22t22 -50t-22 -50t-50 -22zM508 -33q-28 0 -50 22t-22 50t22 50
t50 22t50 -22t22 -50t-22 -50t-50 -22z" />
    <glyph glyph-name="Z" unicode="&#x2875;" 
d="M232 519q-28 0 -50 22t-22 50t22 50t50 22t50 -22t22 -50t-22 -50t-50 -22zM232 -33q-28 0 -50 22t-22 50t22 50t50 22t50 -22t22 -50t-22 -50t-50 -22zM508 243q-28 0 -50 22t-22 50t22 50t50 22t50 -22t22 -50t-22 -50t-50 -22zM508 -33q-28 0 -50 22t-22 50t22 50
t50 22t50 -22t22 -50t-22 -50t-50 -22z" />
    <glyph glyph-name="Z" unicode="&#x2835;" 
d="M232 519q-28 0 -50 22t-22 50t22 50t50 22t50 -22t22 -50t-22 -50t-50 -22zM232 -33q-28 0 -50 22t-22 50t22 50t50 22t50 -22t22 -50t-22 -50t-50 -22zM508 243q-28 0 -50 22t-22 50t22 50t50 22t50 -22t22 -50t-22 -50t-50 -22zM508 -33q-28 0 -50 22t-22 50t22 50
t50 22t50 -22t22 -50t-22 -50t-50 -22z" />
    <glyph glyph-name="Z" unicode="z" 
d="M232 519q-28 0 -50 22t-22 50t22 50t50 22t50 -22t22 -50t-22 -50t-50 -22zM232 -33q-28 0 -50 22t-22 50t22 50t50 22t50 -22t22 -50t-22 -50t-50 -22zM508 243q-28 0 -50 22t-22 50t22 50t50 22t50 -22t22 -50t-22 -50t-50 -22zM508 -33q-28 0 -50 22t-22 50t22 50
t50 22t50 -22t22 -50t-22 -50t-50 -22z" />
    <glyph glyph-name="seven" unicode="7" 
d="M232 243q-28 0 -50 22t-22 50t22 50t50 22t50 -22t22 -50t-22 -50t-50 -22zM232 -33q-28 0 -50 22t-22 50t22 50t50 22t50 -22t22 -50t-22 -50t-50 -22zM508 243q-28 0 -50 22t-22 50t22 50t50 22t50 -22t22 -50t-22 -50t-50 -22zM508 -33q-28 0 -50 22t-22 50t22 50
t50 22t50 -22t22 -50t-22 -50t-50 -22z" />
    <glyph glyph-name="seven" unicode="&#x28f6;" 
d="M232 243q-28 0 -50 22t-22 50t22 50t50 22t50 -22t22 -50t-22 -50t-50 -22zM232 -33q-28 0 -50 22t-22 50t22 50t50 22t50 -22t22 -50t-22 -50t-50 -22zM508 243q-28 0 -50 22t-22 50t22 50t50 22t50 -22t22 -50t-22 -50t-50 -22zM508 -33q-28 0 -50 22t-22 50t22 50
t50 22t50 -22t22 -50t-22 -50t-50 -22z" />
    <glyph glyph-name="seven" unicode="&#x28b6;" 
d="M232 243q-28 0 -50 22t-22 50t22 50t50 22t50 -22t22 -50t-22 -50t-50 -22zM232 -33q-28 0 -50 22t-22 50t22 50t50 22t50 -22t22 -50t-22 -50t-50 -22zM508 243q-28 0 -50 22t-22 50t22 50t50 22t50 -22t22 -50t-22 -50t-50 -22zM508 -33q-28 0 -50 22t-22 50t22 50
t50 22t50 -22t22 -50t-22 -50t-50 -22z" />
    <glyph glyph-name="seven" unicode="&#x2876;" 
d="M232 243q-28 0 -50 22t-22 50t22 50t50 22t50 -22t22 -50t-22 -50t-50 -22zM232 -33q-28 0 -50 22t-22 50t22 50t50 22t50 -22t22 -50t-22 -50t-50 -22zM508 243q-28 0 -50 22t-22 50t22 50t50 22t50 -22t22 -50t-22 -50t-50 -22zM508 -33q-28 0 -50 22t-22 50t22 50
t50 22t50 -22t22 -50t-22 -50t-50 -22z" />
    <glyph glyph-name="seven" unicode="&#x2836;" 
d="M232 243q-28 0 -50 22t-22 50t22 50t50 22t50 -22t22 -50t-22 -50t-50 -22zM232 -33q-28 0 -50 22t-22 50t22 50t50 22t50 -22t22 -50t-22 -50t-50 -22zM508 243q-28 0 -50 22t-22 50t22 50t50 22t50 -22t22 -50t-22 -50t-50 -22zM508 -33q-28 0 -50 22t-22 50t22 50
t50 22t50 -22t22 -50t-22 -50t-50 -22z" />
    <glyph glyph-name="parenleft" unicode="(" 
d="M232 519q-28 0 -50 22t-22 50t22 50t50 22t50 -22t22 -50t-22 -50t-50 -22zM232 243q-28 0 -50 22t-22 50t22 50t50 22t50 -22t22 -50t-22 -50t-50 -22zM232 -33q-28 0 -50 22t-22 50t22 50t50 22t50 -22t22 -50t-22 -50t-50 -22zM508 243q-28 0 -50 22t-22 50t22 50
t50 22t50 -22t22 -50t-22 -50t-50 -22zM508 -33q-28 0 -50 22t-22 50t22 50t50 22t50 -22t22 -50t-22 -50t-50 -22z" />
    <glyph glyph-name="parenleft" unicode="&#x28f7;" 
d="M232 519q-28 0 -50 22t-22 50t22 50t50 22t50 -22t22 -50t-22 -50t-50 -22zM232 243q-28 0 -50 22t-22 50t22 50t50 22t50 -22t22 -50t-22 -50t-50 -22zM232 -33q-28 0 -50 22t-22 50t22 50t50 22t50 -22t22 -50t-22 -50t-50 -22zM508 243q-28 0 -50 22t-22 50t22 50
t50 22t50 -22t22 -50t-22 -50t-50 -22zM508 -33q-28 0 -50 22t-22 50t22 50t50 22t50 -22t22 -50t-22 -50t-50 -22z" />
    <glyph glyph-name="parenleft" unicode="&#x28b7;" 
d="M232 519q-28 0 -50 22t-22 50t22 50t50 22t50 -22t22 -50t-22 -50t-50 -22zM232 243q-28 0 -50 22t-22 50t22 50t50 22t50 -22t22 -50t-22 -50t-50 -22zM232 -33q-28 0 -50 22t-22 50t22 50t50 22t50 -22t22 -50t-22 -50t-50 -22zM508 243q-28 0 -50 22t-22 50t22 50
t50 22t50 -22t22 -50t-22 -50t-50 -22zM508 -33q-28 0 -50 22t-22 50t22 50t50 22t50 -22t22 -50t-22 -50t-50 -22z" />
    <glyph glyph-name="parenleft" unicode="&#x2877;" 
d="M232 519q-28 0 -50 22t-22 50t22 50t50 22t50 -22t22 -50t-22 -50t-50 -22zM232 243q-28 0 -50 22t-22 50t22 50t50 22t50 -22t22 -50t-22 -50t-50 -22zM232 -33q-28 0 -50 22t-22 50t22 50t50 22t50 -22t22 -50t-22 -50t-50 -22zM508 243q-28 0 -50 22t-22 50t22 50
t50 22t50 -22t22 -50t-22 -50t-50 -22zM508 -33q-28 0 -50 22t-22 50t22 50t50 22t50 -22t22 -50t-22 -50t-50 -22z" />
    <glyph glyph-name="parenleft" unicode="&#x2837;" 
d="M232 519q-28 0 -50 22t-22 50t22 50t50 22t50 -22t22 -50t-22 -50t-50 -22zM232 243q-28 0 -50 22t-22 50t22 50t50 22t50 -22t22 -50t-22 -50t-50 -22zM232 -33q-28 0 -50 22t-22 50t22 50t50 22t50 -22t22 -50t-22 -50t-50 -22zM508 243q-28 0 -50 22t-22 50t22 50
t50 22t50 -22t22 -50t-22 -50t-50 -22zM508 -33q-28 0 -50 22t-22 50t22 50t50 22t50 -22t22 -50t-22 -50t-50 -22z" />
    <glyph glyph-name="underscore" unicode="_" 
d="M508 519q-28 0 -50 22t-22 50t22 50t50 22t50 -22t22 -50t-22 -50t-50 -22zM508 243q-28 0 -50 22t-22 50t22 50t50 22t50 -22t22 -50t-22 -50t-50 -22zM508 -33q-28 0 -50 22t-22 50t22 50t50 22t50 -22t22 -50t-22 -50t-50 -22z" />
    <glyph glyph-name="underscore" unicode="&#x28f8;" 
d="M508 519q-28 0 -50 22t-22 50t22 50t50 22t50 -22t22 -50t-22 -50t-50 -22zM508 243q-28 0 -50 22t-22 50t22 50t50 22t50 -22t22 -50t-22 -50t-50 -22zM508 -33q-28 0 -50 22t-22 50t22 50t50 22t50 -22t22 -50t-22 -50t-50 -22z" />
    <glyph glyph-name="underscore" unicode="&#x28b8;" 
d="M508 519q-28 0 -50 22t-22 50t22 50t50 22t50 -22t22 -50t-22 -50t-50 -22zM508 243q-28 0 -50 22t-22 50t22 50t50 22t50 -22t22 -50t-22 -50t-50 -22zM508 -33q-28 0 -50 22t-22 50t22 50t50 22t50 -22t22 -50t-22 -50t-50 -22z" />
    <glyph glyph-name="underscore" unicode="&#x2878;" 
d="M508 519q-28 0 -50 22t-22 50t22 50t50 22t50 -22t22 -50t-22 -50t-50 -22zM508 243q-28 0 -50 22t-22 50t22 50t50 22t50 -22t22 -50t-22 -50t-50 -22zM508 -33q-28 0 -50 22t-22 50t22 50t50 22t50 -22t22 -50t-22 -50t-50 -22z" />
    <glyph glyph-name="underscore" unicode="&#x2838;" 
d="M508 519q-28 0 -50 22t-22 50t22 50t50 22t50 -22t22 -50t-22 -50t-50 -22zM508 243q-28 0 -50 22t-22 50t22 50t50 22t50 -22t22 -50t-22 -50t-50 -22zM508 -33q-28 0 -50 22t-22 50t22 50t50 22t50 -22t22 -50t-22 -50t-50 -22z" />
    <glyph glyph-name="question" unicode="?" 
d="M232 519q-28 0 -50 22t-22 50t22 50t50 22t50 -22t22 -50t-22 -50t-50 -22zM508 519q-28 0 -50 22t-22 50t22 50t50 22t50 -22t22 -50t-22 -50t-50 -22zM508 243q-28 0 -50 22t-22 50t22 50t50 22t50 -22t22 -50t-22 -50t-50 -22zM508 -33q-28 0 -50 22t-22 50t22 50
t50 22t50 -22t22 -50t-22 -50t-50 -22z" />
    <glyph glyph-name="question" unicode="&#x28f9;" 
d="M232 519q-28 0 -50 22t-22 50t22 50t50 22t50 -22t22 -50t-22 -50t-50 -22zM508 519q-28 0 -50 22t-22 50t22 50t50 22t50 -22t22 -50t-22 -50t-50 -22zM508 243q-28 0 -50 22t-22 50t22 50t50 22t50 -22t22 -50t-22 -50t-50 -22zM508 -33q-28 0 -50 22t-22 50t22 50
t50 22t50 -22t22 -50t-22 -50t-50 -22z" />
    <glyph glyph-name="question" unicode="&#x28b9;" 
d="M232 519q-28 0 -50 22t-22 50t22 50t50 22t50 -22t22 -50t-22 -50t-50 -22zM508 519q-28 0 -50 22t-22 50t22 50t50 22t50 -22t22 -50t-22 -50t-50 -22zM508 243q-28 0 -50 22t-22 50t22 50t50 22t50 -22t22 -50t-22 -50t-50 -22zM508 -33q-28 0 -50 22t-22 50t22 50
t50 22t50 -22t22 -50t-22 -50t-50 -22z" />
    <glyph glyph-name="question" unicode="&#x2879;" 
d="M232 519q-28 0 -50 22t-22 50t22 50t50 22t50 -22t22 -50t-22 -50t-50 -22zM508 519q-28 0 -50 22t-22 50t22 50t50 22t50 -22t22 -50t-22 -50t-50 -22zM508 243q-28 0 -50 22t-22 50t22 50t50 22t50 -22t22 -50t-22 -50t-50 -22zM508 -33q-28 0 -50 22t-22 50t22 50
t50 22t50 -22t22 -50t-22 -50t-50 -22z" />
    <glyph glyph-name="question" unicode="&#x2839;" 
d="M232 519q-28 0 -50 22t-22 50t22 50t50 22t50 -22t22 -50t-22 -50t-50 -22zM508 519q-28 0 -50 22t-22 50t22 50t50 22t50 -22t22 -50t-22 -50t-50 -22zM508 243q-28 0 -50 22t-22 50t22 50t50 22t50 -22t22 -50t-22 -50t-50 -22zM508 -33q-28 0 -50 22t-22 50t22 50
t50 22t50 -22t22 -50t-22 -50t-50 -22z" />
    <glyph glyph-name="W" unicode="W" 
d="M232 243q-28 0 -50 22t-22 50t22 50t50 22t50 -22t22 -50t-22 -50t-50 -22zM508 519q-28 0 -50 22t-22 50t22 50t50 22t50 -22t22 -50t-22 -50t-50 -22zM508 243q-28 0 -50 22t-22 50t22 50t50 22t50 -22t22 -50t-22 -50t-50 -22zM508 -33q-28 0 -50 22t-22 50t22 50
t50 22t50 -22t22 -50t-22 -50t-50 -22z" />
    <glyph glyph-name="W" unicode="&#x28fa;" 
d="M232 243q-28 0 -50 22t-22 50t22 50t50 22t50 -22t22 -50t-22 -50t-50 -22zM508 519q-28 0 -50 22t-22 50t22 50t50 22t50 -22t22 -50t-22 -50t-50 -22zM508 243q-28 0 -50 22t-22 50t22 50t50 22t50 -22t22 -50t-22 -50t-50 -22zM508 -33q-28 0 -50 22t-22 50t22 50
t50 22t50 -22t22 -50t-22 -50t-50 -22z" />
    <glyph glyph-name="W" unicode="&#x28ba;" 
d="M232 243q-28 0 -50 22t-22 50t22 50t50 22t50 -22t22 -50t-22 -50t-50 -22zM508 519q-28 0 -50 22t-22 50t22 50t50 22t50 -22t22 -50t-22 -50t-50 -22zM508 243q-28 0 -50 22t-22 50t22 50t50 22t50 -22t22 -50t-22 -50t-50 -22zM508 -33q-28 0 -50 22t-22 50t22 50
t50 22t50 -22t22 -50t-22 -50t-50 -22z" />
    <glyph glyph-name="W" unicode="&#x287a;" 
d="M232 243q-28 0 -50 22t-22 50t22 50t50 22t50 -22t22 -50t-22 -50t-50 -22zM508 519q-28 0 -50 22t-22 50t22 50t50 22t50 -22t22 -50t-22 -50t-50 -22zM508 243q-28 0 -50 22t-22 50t22 50t50 22t50 -22t22 -50t-22 -50t-50 -22zM508 -33q-28 0 -50 22t-22 50t22 50
t50 22t50 -22t22 -50t-22 -50t-50 -22z" />
    <glyph glyph-name="W" unicode="&#x283a;" 
d="M232 243q-28 0 -50 22t-22 50t22 50t50 22t50 -22t22 -50t-22 -50t-50 -22zM508 519q-28 0 -50 22t-22 50t22 50t50 22t50 -22t22 -50t-22 -50t-50 -22zM508 243q-28 0 -50 22t-22 50t22 50t50 22t50 -22t22 -50t-22 -50t-50 -22zM508 -33q-28 0 -50 22t-22 50t22 50
t50 22t50 -22t22 -50t-22 -50t-50 -22z" />
    <glyph glyph-name="W" unicode="w" 
d="M232 243q-28 0 -50 22t-22 50t22 50t50 22t50 -22t22 -50t-22 -50t-50 -22zM508 519q-28 0 -50 22t-22 50t22 50t50 22t50 -22t22 -50t-22 -50t-50 -22zM508 243q-28 0 -50 22t-22 50t22 50t50 22t50 -22t22 -50t-22 -50t-50 -22zM508 -33q-28 0 -50 22t-22 50t22 50
t50 22t50 -22t22 -50t-22 -50t-50 -22z" />
    <glyph glyph-name="bracketright" unicode="]" 
d="M232 519q-28 0 -50 22t-22 50t22 50t50 22t50 -22t22 -50t-22 -50t-50 -22zM232 243q-28 0 -50 22t-22 50t22 50t50 22t50 -22t22 -50t-22 -50t-50 -22zM508 519q-28 0 -50 22t-22 50t22 50t50 22t50 -22t22 -50t-22 -50t-50 -22zM508 243q-28 0 -50 22t-22 50t22 50
t50 22t50 -22t22 -50t-22 -50t-50 -22zM508 -33q-28 0 -50 22t-22 50t22 50t50 22t50 -22t22 -50t-22 -50t-50 -22z" />
    <glyph glyph-name="bracketright" unicode="&#x28fb;" 
d="M232 519q-28 0 -50 22t-22 50t22 50t50 22t50 -22t22 -50t-22 -50t-50 -22zM232 243q-28 0 -50 22t-22 50t22 50t50 22t50 -22t22 -50t-22 -50t-50 -22zM508 519q-28 0 -50 22t-22 50t22 50t50 22t50 -22t22 -50t-22 -50t-50 -22zM508 243q-28 0 -50 22t-22 50t22 50
t50 22t50 -22t22 -50t-22 -50t-50 -22zM508 -33q-28 0 -50 22t-22 50t22 50t50 22t50 -22t22 -50t-22 -50t-50 -22z" />
    <glyph glyph-name="bracketright" unicode="&#x28bb;" 
d="M232 519q-28 0 -50 22t-22 50t22 50t50 22t50 -22t22 -50t-22 -50t-50 -22zM232 243q-28 0 -50 22t-22 50t22 50t50 22t50 -22t22 -50t-22 -50t-50 -22zM508 519q-28 0 -50 22t-22 50t22 50t50 22t50 -22t22 -50t-22 -50t-50 -22zM508 243q-28 0 -50 22t-22 50t22 50
t50 22t50 -22t22 -50t-22 -50t-50 -22zM508 -33q-28 0 -50 22t-22 50t22 50t50 22t50 -22t22 -50t-22 -50t-50 -22z" />
    <glyph glyph-name="bracketright" unicode="&#x287b;" 
d="M232 519q-28 0 -50 22t-22 50t22 50t50 22t50 -22t22 -50t-22 -50t-50 -22zM232 243q-28 0 -50 22t-22 50t22 50t50 22t50 -22t22 -50t-22 -50t-50 -22zM508 519q-28 0 -50 22t-22 50t22 50t50 22t50 -22t22 -50t-22 -50t-50 -22zM508 243q-28 0 -50 22t-22 50t22 50
t50 22t50 -22t22 -50t-22 -50t-50 -22zM508 -33q-28 0 -50 22t-22 50t22 50t50 22t50 -22t22 -50t-22 -50t-50 -22z" />
    <glyph glyph-name="bracketright" unicode="&#x283b;" 
d="M232 519q-28 0 -50 22t-22 50t22 50t50 22t50 -22t22 -50t-22 -50t-50 -22zM232 243q-28 0 -50 22t-22 50t22 50t50 22t50 -22t22 -50t-22 -50t-50 -22zM508 519q-28 0 -50 22t-22 50t22 50t50 22t50 -22t22 -50t-22 -50t-50 -22zM508 243q-28 0 -50 22t-22 50t22 50
t50 22t50 -22t22 -50t-22 -50t-50 -22zM508 -33q-28 0 -50 22t-22 50t22 50t50 22t50 -22t22 -50t-22 -50t-50 -22z" />
    <glyph glyph-name="bracketright" unicode="}" 
d="M232 519q-28 0 -50 22t-22 50t22 50t50 22t50 -22t22 -50t-22 -50t-50 -22zM232 243q-28 0 -50 22t-22 50t22 50t50 22t50 -22t22 -50t-22 -50t-50 -22zM508 519q-28 0 -50 22t-22 50t22 50t50 22t50 -22t22 -50t-22 -50t-50 -22zM508 243q-28 0 -50 22t-22 50t22 50
t50 22t50 -22t22 -50t-22 -50t-50 -22zM508 -33q-28 0 -50 22t-22 50t22 50t50 22t50 -22t22 -50t-22 -50t-50 -22z" />
    <glyph glyph-name="numbersign" unicode="#" 
d="M232 -33q-28 0 -50 22t-22 50t22 50t50 22t50 -22t22 -50t-22 -50t-50 -22zM508 519q-28 0 -50 22t-22 50t22 50t50 22t50 -22t22 -50t-22 -50t-50 -22zM508 243q-28 0 -50 22t-22 50t22 50t50 22t50 -22t22 -50t-22 -50t-50 -22zM508 -33q-28 0 -50 22t-22 50t22 50
t50 22t50 -22t22 -50t-22 -50t-50 -22z" />
    <glyph glyph-name="numbersign" unicode="&#x28fc;" 
d="M232 -33q-28 0 -50 22t-22 50t22 50t50 22t50 -22t22 -50t-22 -50t-50 -22zM508 519q-28 0 -50 22t-22 50t22 50t50 22t50 -22t22 -50t-22 -50t-50 -22zM508 243q-28 0 -50 22t-22 50t22 50t50 22t50 -22t22 -50t-22 -50t-50 -22zM508 -33q-28 0 -50 22t-22 50t22 50
t50 22t50 -22t22 -50t-22 -50t-50 -22z" />
    <glyph glyph-name="numbersign" unicode="&#x28bc;" 
d="M232 -33q-28 0 -50 22t-22 50t22 50t50 22t50 -22t22 -50t-22 -50t-50 -22zM508 519q-28 0 -50 22t-22 50t22 50t50 22t50 -22t22 -50t-22 -50t-50 -22zM508 243q-28 0 -50 22t-22 50t22 50t50 22t50 -22t22 -50t-22 -50t-50 -22zM508 -33q-28 0 -50 22t-22 50t22 50
t50 22t50 -22t22 -50t-22 -50t-50 -22z" />
    <glyph glyph-name="numbersign" unicode="&#x287c;" 
d="M232 -33q-28 0 -50 22t-22 50t22 50t50 22t50 -22t22 -50t-22 -50t-50 -22zM508 519q-28 0 -50 22t-22 50t22 50t50 22t50 -22t22 -50t-22 -50t-50 -22zM508 243q-28 0 -50 22t-22 50t22 50t50 22t50 -22t22 -50t-22 -50t-50 -22zM508 -33q-28 0 -50 22t-22 50t22 50
t50 22t50 -22t22 -50t-22 -50t-50 -22z" />
    <glyph glyph-name="numbersign" unicode="&#x283c;" 
d="M232 -33q-28 0 -50 22t-22 50t22 50t50 22t50 -22t22 -50t-22 -50t-50 -22zM508 519q-28 0 -50 22t-22 50t22 50t50 22t50 -22t22 -50t-22 -50t-50 -22zM508 243q-28 0 -50 22t-22 50t22 50t50 22t50 -22t22 -50t-22 -50t-50 -22zM508 -33q-28 0 -50 22t-22 50t22 50
t50 22t50 -22t22 -50t-22 -50t-50 -22z" />
    <glyph glyph-name="Y" unicode="Y" 
d="M232 519q-28 0 -50 22t-22 50t22 50t50 22t50 -22t22 -50t-22 -50t-50 -22zM232 -33q-28 0 -50 22t-22 50t22 50t50 22t50 -22t22 -50t-22 -50t-50 -22zM508 519q-28 0 -50 22t-22 50t22 50t50 22t50 -22t22 -50t-22 -50t-50 -22zM508 243q-28 0 -50 22t-22 50t22 50
t50 22t50 -22t22 -50t-22 -50t-50 -22zM508 -33q-28 0 -50 22t-22 50t22 50t50 22t50 -22t22 -50t-22 -50t-50 -22z" />
    <glyph glyph-name="Y" unicode="&#x28fd;" 
d="M232 519q-28 0 -50 22t-22 50t22 50t50 22t50 -22t22 -50t-22 -50t-50 -22zM232 -33q-28 0 -50 22t-22 50t22 50t50 22t50 -22t22 -50t-22 -50t-50 -22zM508 519q-28 0 -50 22t-22 50t22 50t50 22t50 -22t22 -50t-22 -50t-50 -22zM508 243q-28 0 -50 22t-22 50t22 50
t50 22t50 -22t22 -50t-22 -50t-50 -22zM508 -33q-28 0 -50 22t-22 50t22 50t50 22t50 -22t22 -50t-22 -50t-50 -22z" />
    <glyph glyph-name="Y" unicode="&#x28bd;" 
d="M232 519q-28 0 -50 22t-22 50t22 50t50 22t50 -22t22 -50t-22 -50t-50 -22zM232 -33q-28 0 -50 22t-22 50t22 50t50 22t50 -22t22 -50t-22 -50t-50 -22zM508 519q-28 0 -50 22t-22 50t22 50t50 22t50 -22t22 -50t-22 -50t-50 -22zM508 243q-28 0 -50 22t-22 50t22 50
t50 22t50 -22t22 -50t-22 -50t-50 -22zM508 -33q-28 0 -50 22t-22 50t22 50t50 22t50 -22t22 -50t-22 -50t-50 -22z" />
    <glyph glyph-name="Y" unicode="&#x287d;" 
d="M232 519q-28 0 -50 22t-22 50t22 50t50 22t50 -22t22 -50t-22 -50t-50 -22zM232 -33q-28 0 -50 22t-22 50t22 50t50 22t50 -22t22 -50t-22 -50t-50 -22zM508 519q-28 0 -50 22t-22 50t22 50t50 22t50 -22t22 -50t-22 -50t-50 -22zM508 243q-28 0 -50 22t-22 50t22 50
t50 22t50 -22t22 -50t-22 -50t-50 -22zM508 -33q-28 0 -50 22t-22 50t22 50t50 22t50 -22t22 -50t-22 -50t-50 -22z" />
    <glyph glyph-name="Y" unicode="&#x283d;" 
d="M232 519q-28 0 -50 22t-22 50t22 50t50 22t50 -22t22 -50t-22 -50t-50 -22zM232 -33q-28 0 -50 22t-22 50t22 50t50 22t50 -22t22 -50t-22 -50t-50 -22zM508 519q-28 0 -50 22t-22 50t22 50t50 22t50 -22t22 -50t-22 -50t-50 -22zM508 243q-28 0 -50 22t-22 50t22 50
t50 22t50 -22t22 -50t-22 -50t-50 -22zM508 -33q-28 0 -50 22t-22 50t22 50t50 22t50 -22t22 -50t-22 -50t-50 -22z" />
    <glyph glyph-name="Y" unicode="y" 
d="M232 519q-28 0 -50 22t-22 50t22 50t50 22t50 -22t22 -50t-22 -50t-50 -22zM232 -33q-28 0 -50 22t-22 50t22 50t50 22t50 -22t22 -50t-22 -50t-50 -22zM508 519q-28 0 -50 22t-22 50t22 50t50 22t50 -22t22 -50t-22 -50t-50 -22zM508 243q-28 0 -50 22t-22 50t22 50
t50 22t50 -22t22 -50t-22 -50t-50 -22zM508 -33q-28 0 -50 22t-22 50t22 50t50 22t50 -22t22 -50t-22 -50t-50 -22z" />
    <glyph glyph-name="parenright" unicode=")" 
d="M232 243q-28 0 -50 22t-22 50t22 50t50 22t50 -22t22 -50t-22 -50t-50 -22zM232 -33q-28 0 -50 22t-22 50t22 50t50 22t50 -22t22 -50t-22 -50t-50 -22zM508 519q-28 0 -50 22t-22 50t22 50t50 22t50 -22t22 -50t-22 -50t-50 -22zM508 243q-28 0 -50 22t-22 50t22 50
t50 22t50 -22t22 -50t-22 -50t-50 -22zM508 -33q-28 0 -50 22t-22 50t22 50t50 22t50 -22t22 -50t-22 -50t-50 -22z" />
    <glyph glyph-name="parenright" unicode="&#x28fe;" 
d="M232 243q-28 0 -50 22t-22 50t22 50t50 22t50 -22t22 -50t-22 -50t-50 -22zM232 -33q-28 0 -50 22t-22 50t22 50t50 22t50 -22t22 -50t-22 -50t-50 -22zM508 519q-28 0 -50 22t-22 50t22 50t50 22t50 -22t22 -50t-22 -50t-50 -22zM508 243q-28 0 -50 22t-22 50t22 50
t50 22t50 -22t22 -50t-22 -50t-50 -22zM508 -33q-28 0 -50 22t-22 50t22 50t50 22t50 -22t22 -50t-22 -50t-50 -22z" />
    <glyph glyph-name="parenright" unicode="&#x28be;" 
d="M232 243q-28 0 -50 22t-22 50t22 50t50 22t50 -22t22 -50t-22 -50t-50 -22zM232 -33q-28 0 -50 22t-22 50t22 50t50 22t50 -22t22 -50t-22 -50t-50 -22zM508 519q-28 0 -50 22t-22 50t22 50t50 22t50 -22t22 -50t-22 -50t-50 -22zM508 243q-28 0 -50 22t-22 50t22 50
t50 22t50 -22t22 -50t-22 -50t-50 -22zM508 -33q-28 0 -50 22t-22 50t22 50t50 22t50 -22t22 -50t-22 -50t-50 -22z" />
    <glyph glyph-name="parenright" unicode="&#x287e;" 
d="M232 243q-28 0 -50 22t-22 50t22 50t50 22t50 -22t22 -50t-22 -50t-50 -22zM232 -33q-28 0 -50 22t-22 50t22 50t50 22t50 -22t22 -50t-22 -50t-50 -22zM508 519q-28 0 -50 22t-22 50t22 50t50 22t50 -22t22 -50t-22 -50t-50 -22zM508 243q-28 0 -50 22t-22 50t22 50
t50 22t50 -22t22 -50t-22 -50t-50 -22zM508 -33q-28 0 -50 22t-22 50t22 50t50 22t50 -22t22 -50t-22 -50t-50 -22z" />
    <glyph glyph-name="parenright" unicode="&#x283e;" 
d="M232 243q-28 0 -50 22t-22 50t22 50t50 22t50 -22t22 -50t-22 -50t-50 -22zM232 -33q-28 0 -50 22t-22 50t22 50t50 22t50 -22t22 -50t-22 -50t-50 -22zM508 519q-28 0 -50 22t-22 50t22 50t50 22t50 -22t22 -50t-22 -50t-50 -22zM508 243q-28 0 -50 22t-22 50t22 50
t50 22t50 -22t22 -50t-22 -50t-50 -22zM508 -33q-28 0 -50 22t-22 50t22 50t50 22t50 -22t22 -50t-22 -50t-50 -22z" />
    <glyph glyph-name="equal" unicode="=" 
d="M232 519q-28 0 -50 22t-22 50t22 50t50 22t50 -22t22 -50t-22 -50t-50 -22zM232 243q-28 0 -50 22t-22 50t22 50t50 22t50 -22t22 -50t-22 -50t-50 -22zM232 -33q-28 0 -50 22t-22 50t22 50t50 22t50 -22t22 -50t-22 -50t-50 -22zM508 519q-28 0 -50 22t-22 50t22 50
t50 22t50 -22t22 -50t-22 -50t-50 -22zM508 243q-28 0 -50 22t-22 50t22 50t50 22t50 -22t22 -50t-22 -50t-50 -22zM508 -33q-28 0 -50 22t-22 50t22 50t50 22t50 -22t22 -50t-22 -50t-50 -22z" />
    <glyph glyph-name="equal" unicode="&#x28ff;" 
d="M232 519q-28 0 -50 22t-22 50t22 50t50 22t50 -22t22 -50t-22 -50t-50 -22zM232 243q-28 0 -50 22t-22 50t22 50t50 22t50 -22t22 -50t-22 -50t-50 -22zM232 -33q-28 0 -50 22t-22 50t22 50t50 22t50 -22t22 -50t-22 -50t-50 -22zM508 519q-28 0 -50 22t-22 50t22 50
t50 22t50 -22t22 -50t-22 -50t-50 -22zM508 243q-28 0 -50 22t-22 50t22 50t50 22t50 -22t22 -50t-22 -50t-50 -22zM508 -33q-28 0 -50 22t-22 50t22 50t50 22t50 -22t22 -50t-22 -50t-50 -22z" />
    <glyph glyph-name="equal" unicode="&#x28bf;" 
d="M232 519q-28 0 -50 22t-22 50t22 50t50 22t50 -22t22 -50t-22 -50t-50 -22zM232 243q-28 0 -50 22t-22 50t22 50t50 22t50 -22t22 -50t-22 -50t-50 -22zM232 -33q-28 0 -50 22t-22 50t22 50t50 22t50 -22t22 -50t-22 -50t-50 -22zM508 519q-28 0 -50 22t-22 50t22 50
t50 22t50 -22t22 -50t-22 -50t-50 -22zM508 243q-28 0 -50 22t-22 50t22 50t50 22t50 -22t22 -50t-22 -50t-50 -22zM508 -33q-28 0 -50 22t-22 50t22 50t50 22t50 -22t22 -50t-22 -50t-50 -22z" />
    <glyph glyph-name="equal" unicode="&#x287f;" 
d="M232 519q-28 0 -50 22t-22 50t22 50t50 22t50 -22t22 -50t-22 -50t-50 -22zM232 243q-28 0 -50 22t-22 50t22 50t50 22t50 -22t22 -50t-22 -50t-50 -22zM232 -33q-28 0 -50 22t-22 50t22 50t50 22t50 -22t22 -50t-22 -50t-50 -22zM508 519q-28 0 -50 22t-22 50t22 50
t50 22t50 -22t22 -50t-22 -50t-50 -22zM508 243q-28 0 -50 22t-22 50t22 50t50 22t50 -22t22 -50t-22 -50t-50 -22zM508 -33q-28 0 -50 22t-22 50t22 50t50 22t50 -22t22 -50t-22 -50t-50 -22z" />
    <glyph glyph-name="equal" unicode="&#x283f;" 
d="M232 519q-28 0 -50 22t-22 50t22 50t50 22t50 -22t22 -50t-22 -50t-50 -22zM232 243q-28 0 -50 22t-22 50t22 50t50 22t50 -22t22 -50t-22 -50t-50 -22zM232 -33q-28 0 -50 22t-22 50t22 50t50 22t50 -22t22 -50t-22 -50t-50 -22zM508 519q-28 0 -50 22t-22 50t22 50
t50 22t50 -22t22 -50t-22 -50t-50 -22zM508 243q-28 0 -50 22t-22 50t22 50t50 22t50 -22t22 -50t-22 -50t-50 -22zM508 -33q-28 0 -50 22t-22 50t22 50t50 22t50 -22t22 -50t-22 -50t-50 -22z" />
    <glyph glyph-name="equal" 
d="M232 519q-28 0 -50 22t-22 50t22 50t50 22t50 -22t22 -50t-22 -50t-50 -22zM232 243q-28 0 -50 22t-22 50t22 50t50 22t50 -22t22 -50t-22 -50t-50 -22zM232 -33q-28 0 -50 22t-22 50t22 50t50 22t50 -22t22 -50t-22 -50t-50 -22zM508 519q-28 0 -50 22t-22 50t22 50
t50 22t50 -22t22 -50t-22 -50t-50 -22zM508 243q-28 0 -50 22t-22 50t22 50t50 22t50 -22t22 -50t-22 -50t-50 -22zM508 -33q-28 0 -50 22t-22 50t22 50t50 22t50 -22t22 -50t-22 -50t-50 -22z" />
    <glyph glyph-name="equal" 
d="M232 519q-28 0 -50 22t-22 50t22 50t50 22t50 -22t22 -50t-22 -50t-50 -22zM232 243q-28 0 -50 22t-22 50t22 50t50 22t50 -22t22 -50t-22 -50t-50 -22zM232 -33q-28 0 -50 22t-22 50t22 50t50 22t50 -22t22 -50t-22 -50t-50 -22zM508 519q-28 0 -50 22t-22 50t22 50
t50 22t50 -22t22 -50t-22 -50t-50 -22zM508 243q-28 0 -50 22t-22 50t22 50t50 22t50 -22t22 -50t-22 -50t-50 -22zM508 -33q-28 0 -50 22t-22 50t22 50t50 22t50 -22t22 -50t-22 -50t-50 -22z" />
    <glyph glyph-name="equal" 
d="M232 519q-28 0 -50 22t-22 50t22 50t50 22t50 -22t22 -50t-22 -50t-50 -22zM232 243q-28 0 -50 22t-22 50t22 50t50 22t50 -22t22 -50t-22 -50t-50 -22zM232 -33q-28 0 -50 22t-22 50t22 50t50 22t50 -22t22 -50t-22 -50t-50 -22zM508 519q-28 0 -50 22t-22 50t22 50
t50 22t50 -22t22 -50t-22 -50t-50 -22zM508 243q-28 0 -50 22t-22 50t22 50t50 22t50 -22t22 -50t-22 -50t-50 -22zM508 -33q-28 0 -50 22t-22 50t22 50t50 22t50 -22t22 -50t-22 -50t-50 -22z" />
    <glyph glyph-name="equal" 
d="M232 519q-28 0 -50 22t-22 50t22 50t50 22t50 -22t22 -50t-22 -50t-50 -22zM232 243q-28 0 -50 22t-22 50t22 50t50 22t50 -22t22 -50t-22 -50t-50 -22zM232 -33q-28 0 -50 22t-22 50t22 50t50 22t50 -22t22 -50t-22 -50t-50 -22zM508 519q-28 0 -50 22t-22 50t22 50
t50 22t50 -22t22 -50t-22 -50t-50 -22zM508 243q-28 0 -50 22t-22 50t22 50t50 22t50 -22t22 -50t-22 -50t-50 -22zM508 -33q-28 0 -50 22t-22 50t22 50t50 22t50 -22t22 -50t-22 -50t-50 -22z" />
    <glyph glyph-name="equal" 
d="M232 519q-28 0 -50 22t-22 50t22 50t50 22t50 -22t22 -50t-22 -50t-50 -22zM232 243q-28 0 -50 22t-22 50t22 50t50 22t50 -22t22 -50t-22 -50t-50 -22zM232 -33q-28 0 -50 22t-22 50t22 50t50 22t50 -22t22 -50t-22 -50t-50 -22zM508 519q-28 0 -50 22t-22 50t22 50
t50 22t50 -22t22 -50t-22 -50t-50 -22zM508 243q-28 0 -50 22t-22 50t22 50t50 22t50 -22t22 -50t-22 -50t-50 -22zM508 -33q-28 0 -50 22t-22 50t22 50t50 22t50 -22t22 -50t-22 -50t-50 -22z" />
    <glyph glyph-name="equal" 
d="M232 519q-28 0 -50 22t-22 50t22 50t50 22t50 -22t22 -50t-22 -50t-50 -22zM232 243q-28 0 -50 22t-22 50t22 50t50 22t50 -22t22 -50t-22 -50t-50 -22zM232 -33q-28 0 -50 22t-22 50t22 50t50 22t50 -22t22 -50t-22 -50t-50 -22zM508 519q-28 0 -50 22t-22 50t22 50
t50 22t50 -22t22 -50t-22 -50t-50 -22zM508 243q-28 0 -50 22t-22 50t22 50t50 22t50 -22t22 -50t-22 -50t-50 -22zM508 -33q-28 0 -50 22t-22 50t22 50t50 22t50 -22t22 -50t-22 -50t-50 -22z" />
    <glyph glyph-name="equal" 
d="M232 519q-28 0 -50 22t-22 50t22 50t50 22t50 -22t22 -50t-22 -50t-50 -22zM232 243q-28 0 -50 22t-22 50t22 50t50 22t50 -22t22 -50t-22 -50t-50 -22zM232 -33q-28 0 -50 22t-22 50t22 50t50 22t50 -22t22 -50t-22 -50t-50 -22zM508 519q-28 0 -50 22t-22 50t22 50
t50 22t50 -22t22 -50t-22 -50t-50 -22zM508 243q-28 0 -50 22t-22 50t22 50t50 22t50 -22t22 -50t-22 -50t-50 -22zM508 -33q-28 0 -50 22t-22 50t22 50t50 22t50 -22t22 -50t-22 -50t-50 -22z" />
    <glyph glyph-name="equal" 
d="M232 519q-28 0 -50 22t-22 50t22 50t50 22t50 -22t22 -50t-22 -50t-50 -22zM232 243q-28 0 -50 22t-22 50t22 50t50 22t50 -22t22 -50t-22 -50t-50 -22zM232 -33q-28 0 -50 22t-22 50t22 50t50 22t50 -22t22 -50t-22 -50t-50 -22zM508 519q-28 0 -50 22t-22 50t22 50
t50 22t50 -22t22 -50t-22 -50t-50 -22zM508 243q-28 0 -50 22t-22 50t22 50t50 22t50 -22t22 -50t-22 -50t-50 -22zM508 -33q-28 0 -50 22t-22 50t22 50t50 22t50 -22t22 -50t-22 -50t-50 -22z" />
    <glyph glyph-name="equal" 
d="M232 519q-28 0 -50 22t-22 50t22 50t50 22t50 -22t22 -50t-22 -50t-50 -22zM232 243q-28 0 -50 22t-22 50t22 50t50 22t50 -22t22 -50t-22 -50t-50 -22zM232 -33q-28 0 -50 22t-22 50t22 50t50 22t50 -22t22 -50t-22 -50t-50 -22zM508 519q-28 0 -50 22t-22 50t22 50
t50 22t50 -22t22 -50t-22 -50t-50 -22zM508 243q-28 0 -50 22t-22 50t22 50t50 22t50 -22t22 -50t-22 -50t-50 -22zM508 -33q-28 0 -50 22t-22 50t22 50t50 22t50 -22t22 -50t-22 -50t-50 -22z" />
    <glyph glyph-name="equal" 
d="M232 519q-28 0 -50 22t-22 50t22 50t50 22t50 -22t22 -50t-22 -50t-50 -22zM232 243q-28 0 -50 22t-22 50t22 50t50 22t50 -22t22 -50t-22 -50t-50 -22zM232 -33q-28 0 -50 22t-22 50t22 50t50 22t50 -22t22 -50t-22 -50t-50 -22zM508 519q-28 0 -50 22t-22 50t22 50
t50 22t50 -22t22 -50t-22 -50t-50 -22zM508 243q-28 0 -50 22t-22 50t22 50t50 22t50 -22t22 -50t-22 -50t-50 -22zM508 -33q-28 0 -50 22t-22 50t22 50t50 22t50 -22t22 -50t-22 -50t-50 -22z" />
    <glyph glyph-name="equal" 
d="M232 519q-28 0 -50 22t-22 50t22 50t50 22t50 -22t22 -50t-22 -50t-50 -22zM232 243q-28 0 -50 22t-22 50t22 50t50 22t50 -22t22 -50t-22 -50t-50 -22zM232 -33q-28 0 -50 22t-22 50t22 50t50 22t50 -22t22 -50t-22 -50t-50 -22zM508 519q-28 0 -50 22t-22 50t22 50
t50 22t50 -22t22 -50t-22 -50t-50 -22zM508 243q-28 0 -50 22t-22 50t22 50t50 22t50 -22t22 -50t-22 -50t-50 -22zM508 -33q-28 0 -50 22t-22 50t22 50t50 22t50 -22t22 -50t-22 -50t-50 -22z" />
    <glyph glyph-name="equal" 
d="M232 519q-28 0 -50 22t-22 50t22 50t50 22t50 -22t22 -50t-22 -50t-50 -22zM232 243q-28 0 -50 22t-22 50t22 50t50 22t50 -22t22 -50t-22 -50t-50 -22zM232 -33q-28 0 -50 22t-22 50t22 50t50 22t50 -22t22 -50t-22 -50t-50 -22zM508 519q-28 0 -50 22t-22 50t22 50
t50 22t50 -22t22 -50t-22 -50t-50 -22zM508 243q-28 0 -50 22t-22 50t22 50t50 22t50 -22t22 -50t-22 -50t-50 -22zM508 -33q-28 0 -50 22t-22 50t22 50t50 22t50 -22t22 -50t-22 -50t-50 -22z" />
    <glyph glyph-name="equal" 
d="M232 519q-28 0 -50 22t-22 50t22 50t50 22t50 -22t22 -50t-22 -50t-50 -22zM232 243q-28 0 -50 22t-22 50t22 50t50 22t50 -22t22 -50t-22 -50t-50 -22zM232 -33q-28 0 -50 22t-22 50t22 50t50 22t50 -22t22 -50t-22 -50t-50 -22zM508 519q-28 0 -50 22t-22 50t22 50
t50 22t50 -22t22 -50t-22 -50t-50 -22zM508 243q-28 0 -50 22t-22 50t22 50t50 22t50 -22t22 -50t-22 -50t-50 -22zM508 -33q-28 0 -50 22t-22 50t22 50t50 22t50 -22t22 -50t-22 -50t-50 -22z" />
    <glyph glyph-name="equal" 
d="M232 519q-28 0 -50 22t-22 50t22 50t50 22t50 -22t22 -50t-22 -50t-50 -22zM232 243q-28 0 -50 22t-22 50t22 50t50 22t50 -22t22 -50t-22 -50t-50 -22zM232 -33q-28 0 -50 22t-22 50t22 50t50 22t50 -22t22 -50t-22 -50t-50 -22zM508 519q-28 0 -50 22t-22 50t22 50
t50 22t50 -22t22 -50t-22 -50t-50 -22zM508 243q-28 0 -50 22t-22 50t22 50t50 22t50 -22t22 -50t-22 -50t-50 -22zM508 -33q-28 0 -50 22t-22 50t22 50t50 22t50 -22t22 -50t-22 -50t-50 -22z" />
    <glyph glyph-name="equal" 
d="M232 519q-28 0 -50 22t-22 50t22 50t50 22t50 -22t22 -50t-22 -50t-50 -22zM232 243q-28 0 -50 22t-22 50t22 50t50 22t50 -22t22 -50t-22 -50t-50 -22zM232 -33q-28 0 -50 22t-22 50t22 50t50 22t50 -22t22 -50t-22 -50t-50 -22zM508 519q-28 0 -50 22t-22 50t22 50
t50 22t50 -22t22 -50t-22 -50t-50 -22zM508 243q-28 0 -50 22t-22 50t22 50t50 22t50 -22t22 -50t-22 -50t-50 -22zM508 -33q-28 0 -50 22t-22 50t22 50t50 22t50 -22t22 -50t-22 -50t-50 -22z" />
    <glyph glyph-name="equal" 
d="M232 519q-28 0 -50 22t-22 50t22 50t50 22t50 -22t22 -50t-22 -50t-50 -22zM232 243q-28 0 -50 22t-22 50t22 50t50 22t50 -22t22 -50t-22 -50t-50 -22zM232 -33q-28 0 -50 22t-22 50t22 50t50 22t50 -22t22 -50t-22 -50t-50 -22zM508 519q-28 0 -50 22t-22 50t22 50
t50 22t50 -22t22 -50t-22 -50t-50 -22zM508 243q-28 0 -50 22t-22 50t22 50t50 22t50 -22t22 -50t-22 -50t-50 -22zM508 -33q-28 0 -50 22t-22 50t22 50t50 22t50 -22t22 -50t-22 -50t-50 -22z" />
    <glyph glyph-name="equal" 
d="M232 519q-28 0 -50 22t-22 50t22 50t50 22t50 -22t22 -50t-22 -50t-50 -22zM232 243q-28 0 -50 22t-22 50t22 50t50 22t50 -22t22 -50t-22 -50t-50 -22zM232 -33q-28 0 -50 22t-22 50t22 50t50 22t50 -22t22 -50t-22 -50t-50 -22zM508 519q-28 0 -50 22t-22 50t22 50
t50 22t50 -22t22 -50t-22 -50t-50 -22zM508 243q-28 0 -50 22t-22 50t22 50t50 22t50 -22t22 -50t-22 -50t-50 -22zM508 -33q-28 0 -50 22t-22 50t22 50t50 22t50 -22t22 -50t-22 -50t-50 -22z" />
    <glyph glyph-name="equal" 
d="M232 519q-28 0 -50 22t-22 50t22 50t50 22t50 -22t22 -50t-22 -50t-50 -22zM232 243q-28 0 -50 22t-22 50t22 50t50 22t50 -22t22 -50t-22 -50t-50 -22zM232 -33q-28 0 -50 22t-22 50t22 50t50 22t50 -22t22 -50t-22 -50t-50 -22zM508 519q-28 0 -50 22t-22 50t22 50
t50 22t50 -22t22 -50t-22 -50t-50 -22zM508 243q-28 0 -50 22t-22 50t22 50t50 22t50 -22t22 -50t-22 -50t-50 -22zM508 -33q-28 0 -50 22t-22 50t22 50t50 22t50 -22t22 -50t-22 -50t-50 -22z" />
    <glyph glyph-name="equal" 
d="M232 519q-28 0 -50 22t-22 50t22 50t50 22t50 -22t22 -50t-22 -50t-50 -22zM232 243q-28 0 -50 22t-22 50t22 50t50 22t50 -22t22 -50t-22 -50t-50 -22zM232 -33q-28 0 -50 22t-22 50t22 50t50 22t50 -22t22 -50t-22 -50t-50 -22zM508 519q-28 0 -50 22t-22 50t22 50
t50 22t50 -22t22 -50t-22 -50t-50 -22zM508 243q-28 0 -50 22t-22 50t22 50t50 22t50 -22t22 -50t-22 -50t-50 -22zM508 -33q-28 0 -50 22t-22 50t22 50t50 22t50 -22t22 -50t-22 -50t-50 -22z" />
    <glyph glyph-name="equal" 
d="M232 519q-28 0 -50 22t-22 50t22 50t50 22t50 -22t22 -50t-22 -50t-50 -22zM232 243q-28 0 -50 22t-22 50t22 50t50 22t50 -22t22 -50t-22 -50t-50 -22zM232 -33q-28 0 -50 22t-22 50t22 50t50 22t50 -22t22 -50t-22 -50t-50 -22zM508 519q-28 0 -50 22t-22 50t22 50
t50 22t50 -22t22 -50t-22 -50t-50 -22zM508 243q-28 0 -50 22t-22 50t22 50t50 22t50 -22t22 -50t-22 -50t-50 -22zM508 -33q-28 0 -50 22t-22 50t22 50t50 22t50 -22t22 -50t-22 -50t-50 -22z" />
    <glyph glyph-name="equal" 
d="M232 519q-28 0 -50 22t-22 50t22 50t50 22t50 -22t22 -50t-22 -50t-50 -22zM232 243q-28 0 -50 22t-22 50t22 50t50 22t50 -22t22 -50t-22 -50t-50 -22zM232 -33q-28 0 -50 22t-22 50t22 50t50 22t50 -22t22 -50t-22 -50t-50 -22zM508 519q-28 0 -50 22t-22 50t22 50
t50 22t50 -22t22 -50t-22 -50t-50 -22zM508 243q-28 0 -50 22t-22 50t22 50t50 22t50 -22t22 -50t-22 -50t-50 -22zM508 -33q-28 0 -50 22t-22 50t22 50t50 22t50 -22t22 -50t-22 -50t-50 -22z" />
    <glyph glyph-name="equal" 
d="M232 519q-28 0 -50 22t-22 50t22 50t50 22t50 -22t22 -50t-22 -50t-50 -22zM232 243q-28 0 -50 22t-22 50t22 50t50 22t50 -22t22 -50t-22 -50t-50 -22zM232 -33q-28 0 -50 22t-22 50t22 50t50 22t50 -22t22 -50t-22 -50t-50 -22zM508 519q-28 0 -50 22t-22 50t22 50
t50 22t50 -22t22 -50t-22 -50t-50 -22zM508 243q-28 0 -50 22t-22 50t22 50t50 22t50 -22t22 -50t-22 -50t-50 -22zM508 -33q-28 0 -50 22t-22 50t22 50t50 22t50 -22t22 -50t-22 -50t-50 -22z" />
    <glyph glyph-name="equal" 
d="M232 519q-28 0 -50 22t-22 50t22 50t50 22t50 -22t22 -50t-22 -50t-50 -22zM232 243q-28 0 -50 22t-22 50t22 50t50 22t50 -22t22 -50t-22 -50t-50 -22zM232 -33q-28 0 -50 22t-22 50t22 50t50 22t50 -22t22 -50t-22 -50t-50 -22zM508 519q-28 0 -50 22t-22 50t22 50
t50 22t50 -22t22 -50t-22 -50t-50 -22zM508 243q-28 0 -50 22t-22 50t22 50t50 22t50 -22t22 -50t-22 -50t-50 -22zM508 -33q-28 0 -50 22t-22 50t22 50t50 22t50 -22t22 -50t-22 -50t-50 -22z" />
    <glyph glyph-name="equal" 
d="M232 519q-28 0 -50 22t-22 50t22 50t50 22t50 -22t22 -50t-22 -50t-50 -22zM232 243q-28 0 -50 22t-22 50t22 50t50 22t50 -22t22 -50t-22 -50t-50 -22zM232 -33q-28 0 -50 22t-22 50t22 50t50 22t50 -22t22 -50t-22 -50t-50 -22zM508 519q-28 0 -50 22t-22 50t22 50
t50 22t50 -22t22 -50t-22 -50t-50 -22zM508 243q-28 0 -50 22t-22 50t22 50t50 22t50 -22t22 -50t-22 -50t-50 -22zM508 -33q-28 0 -50 22t-22 50t22 50t50 22t50 -22t22 -50t-22 -50t-50 -22z" />
    <glyph glyph-name="equal" 
d="M232 519q-28 0 -50 22t-22 50t22 50t50 22t50 -22t22 -50t-22 -50t-50 -22zM232 243q-28 0 -50 22t-22 50t22 50t50 22t50 -22t22 -50t-22 -50t-50 -22zM232 -33q-28 0 -50 22t-22 50t22 50t50 22t50 -22t22 -50t-22 -50t-50 -22zM508 519q-28 0 -50 22t-22 50t22 50
t50 22t50 -22t22 -50t-22 -50t-50 -22zM508 243q-28 0 -50 22t-22 50t22 50t50 22t50 -22t22 -50t-22 -50t-50 -22zM508 -33q-28 0 -50 22t-22 50t22 50t50 22t50 -22t22 -50t-22 -50t-50 -22z" />
    <glyph glyph-name="equal" 
d="M232 519q-28 0 -50 22t-22 50t22 50t50 22t50 -22t22 -50t-22 -50t-50 -22zM232 243q-28 0 -50 22t-22 50t22 50t50 22t50 -22t22 -50t-22 -50t-50 -22zM232 -33q-28 0 -50 22t-22 50t22 50t50 22t50 -22t22 -50t-22 -50t-50 -22zM508 519q-28 0 -50 22t-22 50t22 50
t50 22t50 -22t22 -50t-22 -50t-50 -22zM508 243q-28 0 -50 22t-22 50t22 50t50 22t50 -22t22 -50t-22 -50t-50 -22zM508 -33q-28 0 -50 22t-22 50t22 50t50 22t50 -22t22 -50t-22 -50t-50 -22z" />
    <glyph glyph-name="equal" unicode="&#x85;" 
d="M232 519q-28 0 -50 22t-22 50t22 50t50 22t50 -22t22 -50t-22 -50t-50 -22zM232 243q-28 0 -50 22t-22 50t22 50t50 22t50 -22t22 -50t-22 -50t-50 -22zM232 -33q-28 0 -50 22t-22 50t22 50t50 22t50 -22t22 -50t-22 -50t-50 -22zM508 519q-28 0 -50 22t-22 50t22 50
t50 22t50 -22t22 -50t-22 -50t-50 -22zM508 243q-28 0 -50 22t-22 50t22 50t50 22t50 -22t22 -50t-22 -50t-50 -22zM508 -33q-28 0 -50 22t-22 50t22 50t50 22t50 -22t22 -50t-22 -50t-50 -22z" />
    <glyph glyph-name="equal" 
d="M232 519q-28 0 -50 22t-22 50t22 50t50 22t50 -22t22 -50t-22 -50t-50 -22zM232 243q-28 0 -50 22t-22 50t22 50t50 22t50 -22t22 -50t-22 -50t-50 -22zM232 -33q-28 0 -50 22t-22 50t22 50t50 22t50 -22t22 -50t-22 -50t-50 -22zM508 519q-28 0 -50 22t-22 50t22 50
t50 22t50 -22t22 -50t-22 -50t-50 -22zM508 243q-28 0 -50 22t-22 50t22 50t50 22t50 -22t22 -50t-22 -50t-50 -22zM508 -33q-28 0 -50 22t-22 50t22 50t50 22t50 -22t22 -50t-22 -50t-50 -22z" />
    <glyph glyph-name="equal" 
d="M232 519q-28 0 -50 22t-22 50t22 50t50 22t50 -22t22 -50t-22 -50t-50 -22zM232 243q-28 0 -50 22t-22 50t22 50t50 22t50 -22t22 -50t-22 -50t-50 -22zM232 -33q-28 0 -50 22t-22 50t22 50t50 22t50 -22t22 -50t-22 -50t-50 -22zM508 519q-28 0 -50 22t-22 50t22 50
t50 22t50 -22t22 -50t-22 -50t-50 -22zM508 243q-28 0 -50 22t-22 50t22 50t50 22t50 -22t22 -50t-22 -50t-50 -22zM508 -33q-28 0 -50 22t-22 50t22 50t50 22t50 -22t22 -50t-22 -50t-50 -22z" />
    <glyph glyph-name="equal" 
d="M232 519q-28 0 -50 22t-22 50t22 50t50 22t50 -22t22 -50t-22 -50t-50 -22zM232 243q-28 0 -50 22t-22 50t22 50t50 22t50 -22t22 -50t-22 -50t-50 -22zM232 -33q-28 0 -50 22t-22 50t22 50t50 22t50 -22t22 -50t-22 -50t-50 -22zM508 519q-28 0 -50 22t-22 50t22 50
t50 22t50 -22t22 -50t-22 -50t-50 -22zM508 243q-28 0 -50 22t-22 50t22 50t50 22t50 -22t22 -50t-22 -50t-50 -22zM508 -33q-28 0 -50 22t-22 50t22 50t50 22t50 -22t22 -50t-22 -50t-50 -22z" />
    <glyph glyph-name="equal" 
d="M232 519q-28 0 -50 22t-22 50t22 50t50 22t50 -22t22 -50t-22 -50t-50 -22zM232 243q-28 0 -50 22t-22 50t22 50t50 22t50 -22t22 -50t-22 -50t-50 -22zM232 -33q-28 0 -50 22t-22 50t22 50t50 22t50 -22t22 -50t-22 -50t-50 -22zM508 519q-28 0 -50 22t-22 50t22 50
t50 22t50 -22t22 -50t-22 -50t-50 -22zM508 243q-28 0 -50 22t-22 50t22 50t50 22t50 -22t22 -50t-22 -50t-50 -22zM508 -33q-28 0 -50 22t-22 50t22 50t50 22t50 -22t22 -50t-22 -50t-50 -22z" />
    <glyph glyph-name="equal" 
d="M232 519q-28 0 -50 22t-22 50t22 50t50 22t50 -22t22 -50t-22 -50t-50 -22zM232 243q-28 0 -50 22t-22 50t22 50t50 22t50 -22t22 -50t-22 -50t-50 -22zM232 -33q-28 0 -50 22t-22 50t22 50t50 22t50 -22t22 -50t-22 -50t-50 -22zM508 519q-28 0 -50 22t-22 50t22 50
t50 22t50 -22t22 -50t-22 -50t-50 -22zM508 243q-28 0 -50 22t-22 50t22 50t50 22t50 -22t22 -50t-22 -50t-50 -22zM508 -33q-28 0 -50 22t-22 50t22 50t50 22t50 -22t22 -50t-22 -50t-50 -22z" />
    <glyph glyph-name="equal" 
d="M232 519q-28 0 -50 22t-22 50t22 50t50 22t50 -22t22 -50t-22 -50t-50 -22zM232 243q-28 0 -50 22t-22 50t22 50t50 22t50 -22t22 -50t-22 -50t-50 -22zM232 -33q-28 0 -50 22t-22 50t22 50t50 22t50 -22t22 -50t-22 -50t-50 -22zM508 519q-28 0 -50 22t-22 50t22 50
t50 22t50 -22t22 -50t-22 -50t-50 -22zM508 243q-28 0 -50 22t-22 50t22 50t50 22t50 -22t22 -50t-22 -50t-50 -22zM508 -33q-28 0 -50 22t-22 50t22 50t50 22t50 -22t22 -50t-22 -50t-50 -22z" />
    <glyph glyph-name="PDOT4" 
d="M508 519q-28 0 -50 22t-22 50t22 50t50 22t50 -22t22 -50t-22 -50t-50 -22z" />
    <glyph glyph-name="PDOT1" 
d="M232 519q-28 0 -50 22t-22 50t22 50t50 22t50 -22t22 -50t-22 -50t-50 -22z" />
    <glyph glyph-name="PDOTS12" 
d="M232 519q-28 0 -50 22t-22 50t22 50t50 22t50 -22t22 -50t-22 -50t-50 -22zM232 243q-28 0 -50 22t-22 50t22 50t50 22t50 -22t22 -50t-22 -50t-50 -22z" />
    <glyph glyph-name="PDOTS14" 
d="M232 519q-28 0 -50 22t-22 50t22 50t50 22t50 -22t22 -50t-22 -50t-50 -22zM508 519q-28 0 -50 22t-22 50t22 50t50 22t50 -22t22 -50t-22 -50t-50 -22z" />
    <glyph glyph-name="PDOTS145" 
d="M232 519q-28 0 -50 22t-22 50t22 50t50 22t50 -22t22 -50t-22 -50t-50 -22zM508 519q-28 0 -50 22t-22 50t22 50t50 22t50 -22t22 -50t-22 -50t-50 -22zM508 243q-28 0 -50 22t-22 50t22 50t50 22t50 -22t22 -50t-22 -50t-50 -22z" />
    <glyph glyph-name="PDOTS15" 
d="M232 519q-28 0 -50 22t-22 50t22 50t50 22t50 -22t22 -50t-22 -50t-50 -22zM508 243q-28 0 -50 22t-22 50t22 50t50 22t50 -22t22 -50t-22 -50t-50 -22z" />
    <glyph glyph-name="PDOTS124" 
d="M232 519q-28 0 -50 22t-22 50t22 50t50 22t50 -22t22 -50t-22 -50t-50 -22zM232 243q-28 0 -50 22t-22 50t22 50t50 22t50 -22t22 -50t-22 -50t-50 -22zM508 519q-28 0 -50 22t-22 50t22 50t50 22t50 -22t22 -50t-22 -50t-50 -22z" />
    <glyph glyph-name="PDOTS1245" 
d="M232 519q-28 0 -50 22t-22 50t22 50t50 22t50 -22t22 -50t-22 -50t-50 -22zM232 243q-28 0 -50 22t-22 50t22 50t50 22t50 -22t22 -50t-22 -50t-50 -22zM508 519q-28 0 -50 22t-22 50t22 50t50 22t50 -22t22 -50t-22 -50t-50 -22zM508 243q-28 0 -50 22t-22 50t22 50
t50 22t50 -22t22 -50t-22 -50t-50 -22z" />
    <glyph glyph-name="PDOTS125" 
d="M232 519q-28 0 -50 22t-22 50t22 50t50 22t50 -22t22 -50t-22 -50t-50 -22zM232 243q-28 0 -50 22t-22 50t22 50t50 22t50 -22t22 -50t-22 -50t-50 -22zM508 243q-28 0 -50 22t-22 50t22 50t50 22t50 -22t22 -50t-22 -50t-50 -22z" />
    <glyph glyph-name="PDOTS24" 
d="M232 243q-28 0 -50 22t-22 50t22 50t50 22t50 -22t22 -50t-22 -50t-50 -22zM508 519q-28 0 -50 22t-22 50t22 50t50 22t50 -22t22 -50t-22 -50t-50 -22z" />
    <glyph glyph-name="PDOTS245" 
d="M232 243q-28 0 -50 22t-22 50t22 50t50 22t50 -22t22 -50t-22 -50t-50 -22zM508 519q-28 0 -50 22t-22 50t22 50t50 22t50 -22t22 -50t-22 -50t-50 -22zM508 243q-28 0 -50 22t-22 50t22 50t50 22t50 -22t22 -50t-22 -50t-50 -22z" />
    <glyph glyph-name="PDOTS13" 
d="M232 519q-28 0 -50 22t-22 50t22 50t50 22t50 -22t22 -50t-22 -50t-50 -22zM232 -33q-28 0 -50 22t-22 50t22 50t50 22t50 -22t22 -50t-22 -50t-50 -22z" />
    <glyph glyph-name="PDOTS123" 
d="M232 519q-28 0 -50 22t-22 50t22 50t50 22t50 -22t22 -50t-22 -50t-50 -22zM232 243q-28 0 -50 22t-22 50t22 50t50 22t50 -22t22 -50t-22 -50t-50 -22zM232 -33q-28 0 -50 22t-22 50t22 50t50 22t50 -22t22 -50t-22 -50t-50 -22z" />
    <glyph glyph-name="PDOTS134" 
d="M232 519q-28 0 -50 22t-22 50t22 50t50 22t50 -22t22 -50t-22 -50t-50 -22zM232 -33q-28 0 -50 22t-22 50t22 50t50 22t50 -22t22 -50t-22 -50t-50 -22zM508 519q-28 0 -50 22t-22 50t22 50t50 22t50 -22t22 -50t-22 -50t-50 -22z" />
    <glyph glyph-name="PDOTS1345" 
d="M232 519q-28 0 -50 22t-22 50t22 50t50 22t50 -22t22 -50t-22 -50t-50 -22zM232 -33q-28 0 -50 22t-22 50t22 50t50 22t50 -22t22 -50t-22 -50t-50 -22zM508 519q-28 0 -50 22t-22 50t22 50t50 22t50 -22t22 -50t-22 -50t-50 -22zM508 243q-28 0 -50 22t-22 50t22 50
t50 22t50 -22t22 -50t-22 -50t-50 -22z" />
    <glyph glyph-name="PDOTS135" 
d="M232 519q-28 0 -50 22t-22 50t22 50t50 22t50 -22t22 -50t-22 -50t-50 -22zM232 -33q-28 0 -50 22t-22 50t22 50t50 22t50 -22t22 -50t-22 -50t-50 -22zM508 243q-28 0 -50 22t-22 50t22 50t50 22t50 -22t22 -50t-22 -50t-50 -22z" />
    <glyph glyph-name="PDOTS1234" 
d="M232 519q-28 0 -50 22t-22 50t22 50t50 22t50 -22t22 -50t-22 -50t-50 -22zM232 243q-28 0 -50 22t-22 50t22 50t50 22t50 -22t22 -50t-22 -50t-50 -22zM232 -33q-28 0 -50 22t-22 50t22 50t50 22t50 -22t22 -50t-22 -50t-50 -22zM508 519q-28 0 -50 22t-22 50t22 50
t50 22t50 -22t22 -50t-22 -50t-50 -22z" />
    <glyph glyph-name="PDOTS12345" 
d="M232 519q-28 0 -50 22t-22 50t22 50t50 22t50 -22t22 -50t-22 -50t-50 -22zM232 243q-28 0 -50 22t-22 50t22 50t50 22t50 -22t22 -50t-22 -50t-50 -22zM232 -33q-28 0 -50 22t-22 50t22 50t50 22t50 -22t22 -50t-22 -50t-50 -22zM508 519q-28 0 -50 22t-22 50t22 50
t50 22t50 -22t22 -50t-22 -50t-50 -22zM508 243q-28 0 -50 22t-22 50t22 50t50 22t50 -22t22 -50t-22 -50t-50 -22z" />
    <glyph glyph-name="PDOTS1235" 
d="M232 519q-28 0 -50 22t-22 50t22 50t50 22t50 -22t22 -50t-22 -50t-50 -22zM232 243q-28 0 -50 22t-22 50t22 50t50 22t50 -22t22 -50t-22 -50t-50 -22zM232 -33q-28 0 -50 22t-22 50t22 50t50 22t50 -22t22 -50t-22 -50t-50 -22zM508 243q-28 0 -50 22t-22 50t22 50
t50 22t50 -22t22 -50t-22 -50t-50 -22z" />
    <glyph glyph-name="PDOTS234" 
d="M232 243q-28 0 -50 22t-22 50t22 50t50 22t50 -22t22 -50t-22 -50t-50 -22zM232 -33q-28 0 -50 22t-22 50t22 50t50 22t50 -22t22 -50t-22 -50t-50 -22zM508 519q-28 0 -50 22t-22 50t22 50t50 22t50 -22t22 -50t-22 -50t-50 -22z" />
    <glyph glyph-name="PDOTS2345" 
d="M232 243q-28 0 -50 22t-22 50t22 50t50 22t50 -22t22 -50t-22 -50t-50 -22zM232 -33q-28 0 -50 22t-22 50t22 50t50 22t50 -22t22 -50t-22 -50t-50 -22zM508 519q-28 0 -50 22t-22 50t22 50t50 22t50 -22t22 -50t-22 -50t-50 -22zM508 243q-28 0 -50 22t-22 50t22 50
t50 22t50 -22t22 -50t-22 -50t-50 -22z" />
    <glyph glyph-name="PDOTS136" 
d="M232 519q-28 0 -50 22t-22 50t22 50t50 22t50 -22t22 -50t-22 -50t-50 -22zM232 -33q-28 0 -50 22t-22 50t22 50t50 22t50 -22t22 -50t-22 -50t-50 -22zM508 -33q-28 0 -50 22t-22 50t22 50t50 22t50 -22t22 -50t-22 -50t-50 -22z" />
    <glyph glyph-name="PDOTS1236" 
d="M232 519q-28 0 -50 22t-22 50t22 50t50 22t50 -22t22 -50t-22 -50t-50 -22zM232 243q-28 0 -50 22t-22 50t22 50t50 22t50 -22t22 -50t-22 -50t-50 -22zM232 -33q-28 0 -50 22t-22 50t22 50t50 22t50 -22t22 -50t-22 -50t-50 -22zM508 -33q-28 0 -50 22t-22 50t22 50
t50 22t50 -22t22 -50t-22 -50t-50 -22z" />
    <glyph glyph-name="PDOTS2456" 
d="M232 243q-28 0 -50 22t-22 50t22 50t50 22t50 -22t22 -50t-22 -50t-50 -22zM508 519q-28 0 -50 22t-22 50t22 50t50 22t50 -22t22 -50t-22 -50t-50 -22zM508 243q-28 0 -50 22t-22 50t22 50t50 22t50 -22t22 -50t-22 -50t-50 -22zM508 -33q-28 0 -50 22t-22 50t22 50
t50 22t50 -22t22 -50t-22 -50t-50 -22z" />
    <glyph glyph-name="PDOTS1346" 
d="M232 519q-28 0 -50 22t-22 50t22 50t50 22t50 -22t22 -50t-22 -50t-50 -22zM232 -33q-28 0 -50 22t-22 50t22 50t50 22t50 -22t22 -50t-22 -50t-50 -22zM508 519q-28 0 -50 22t-22 50t22 50t50 22t50 -22t22 -50t-22 -50t-50 -22zM508 -33q-28 0 -50 22t-22 50t22 50
t50 22t50 -22t22 -50t-22 -50t-50 -22z" />
    <glyph glyph-name="PDOTS13456" 
d="M232 519q-28 0 -50 22t-22 50t22 50t50 22t50 -22t22 -50t-22 -50t-50 -22zM232 -33q-28 0 -50 22t-22 50t22 50t50 22t50 -22t22 -50t-22 -50t-50 -22zM508 519q-28 0 -50 22t-22 50t22 50t50 22t50 -22t22 -50t-22 -50t-50 -22zM508 243q-28 0 -50 22t-22 50t22 50
t50 22t50 -22t22 -50t-22 -50t-50 -22zM508 -33q-28 0 -50 22t-22 50t22 50t50 22t50 -22t22 -50t-22 -50t-50 -22z" />
    <glyph glyph-name="PDOTS1356" 
d="M232 519q-28 0 -50 22t-22 50t22 50t50 22t50 -22t22 -50t-22 -50t-50 -22zM232 -33q-28 0 -50 22t-22 50t22 50t50 22t50 -22t22 -50t-22 -50t-50 -22zM508 243q-28 0 -50 22t-22 50t22 50t50 22t50 -22t22 -50t-22 -50t-50 -22zM508 -33q-28 0 -50 22t-22 50t22 50
t50 22t50 -22t22 -50t-22 -50t-50 -22z" />
    <glyph glyph-name="PDOTS246" 
d="M232 243q-28 0 -50 22t-22 50t22 50t50 22t50 -22t22 -50t-22 -50t-50 -22zM508 519q-28 0 -50 22t-22 50t22 50t50 22t50 -22t22 -50t-22 -50t-50 -22zM508 -33q-28 0 -50 22t-22 50t22 50t50 22t50 -22t22 -50t-22 -50t-50 -22z" />
    <glyph glyph-name="PDOTS1256" 
d="M232 519q-28 0 -50 22t-22 50t22 50t50 22t50 -22t22 -50t-22 -50t-50 -22zM232 243q-28 0 -50 22t-22 50t22 50t50 22t50 -22t22 -50t-22 -50t-50 -22zM508 243q-28 0 -50 22t-22 50t22 50t50 22t50 -22t22 -50t-22 -50t-50 -22zM508 -33q-28 0 -50 22t-22 50t22 50
t50 22t50 -22t22 -50t-22 -50t-50 -22z" />
    <glyph glyph-name="PDOTS12456" 
d="M232 519q-28 0 -50 22t-22 50t22 50t50 22t50 -22t22 -50t-22 -50t-50 -22zM232 243q-28 0 -50 22t-22 50t22 50t50 22t50 -22t22 -50t-22 -50t-50 -22zM508 519q-28 0 -50 22t-22 50t22 50t50 22t50 -22t22 -50t-22 -50t-50 -22zM508 243q-28 0 -50 22t-22 50t22 50
t50 22t50 -22t22 -50t-22 -50t-50 -22zM508 -33q-28 0 -50 22t-22 50t22 50t50 22t50 -22t22 -50t-22 -50t-50 -22z" />
    <glyph glyph-name="PDOTS45" 
d="M508 519q-28 0 -50 22t-22 50t22 50t50 22t50 -22t22 -50t-22 -50t-50 -22zM508 243q-28 0 -50 22t-22 50t22 50t50 22t50 -22t22 -50t-22 -50t-50 -22z" />
  </font>
</defs>
</svg>
